<?xml version="1.0" encoding="utf-8"?>
<!-- Generator: Adobe Illustrator 21.0.0, SVG Export Plug-In . SVG Version: 6.00 Build 0)  -->
<svg version="1.1" id="Capa_1" xmlns="http://www.w3.org/2000/svg" xmlns:xlink="http://www.w3.org/1999/xlink" x="0px" y="0px"
	 viewBox="0 0 621 462" style="enable-background:new 0 0 621 462;" xml:space="preserve">
<style type="text/css">
	.st0{fill:none;stroke:#000000;stroke-width:11;stroke-miterlimit:10;}
	.st1{fill:none;stroke:#000000;stroke-width:11;stroke-miterlimit:10;stroke-dasharray:12.4583,12.4583;}
	.st2{fill:#1746AF;}
	.st3{fill:#6182BC;}
	.st4{fill:#A3A3A3;}
	.st5{fill:#FFFFFF;}
	.st6{fill:#DCE4EA;stroke:#000000;stroke-width:11;stroke-miterlimit:10;}
	.st7{fill:#B2A886;stroke:#000000;stroke-width:11;stroke-miterlimit:10;}
	.st8{fill:none;stroke:#000000;stroke-width:11;stroke-linecap:round;stroke-linejoin:round;stroke-miterlimit:10;}
	.st9{fill:#B8BABC;stroke:#000000;stroke-width:11;stroke-miterlimit:10;}
</style>
<g>
	<g>
		<path class="st0" d="M210.1,129.7c2-0.2,4-0.3,6-0.4"/>
		<path class="st1" d="M228.5,129.3c66.5,3.1,122.5,52.4,133.6,118.6"/>
		<path class="st0" d="M363.1,254.1c0.2,2,0.4,4,0.6,6"/>
	</g>
</g>
<g>
	<g>
		<polygon class="st2" points="445,268.4 491.9,179.7 586.3,179.7 573.2,201.9 586.3,277.4 451.6,277.4 		"/>
		<path d="M586.3,281.9H451.6c-1.4,0-2.8-0.7-3.7-1.9l-6.6-9c-1-1.4-1.1-3.2-0.3-4.8l46.8-88.7c0.8-1.5,2.3-2.4,4-2.4h94.5
			c1.6,0,3.1,0.9,3.9,2.3c0.8,1.4,0.8,3.1,0,4.5l-12.3,20.8l12.9,73.8c0.2,1.3-0.1,2.7-1,3.7C588.9,281.3,587.6,281.9,586.3,281.9z
			 M453.9,272.9h127l-12.2-70.2c-0.2-1.1,0-2.1,0.6-3.1l9.1-15.5h-83.8L450.3,268L453.9,272.9z"/>
	</g>
	<g>
		<g>
			<path class="st3" d="M262,365.8c6.3,5.7,14.3,8.9,22.6,8.9s16.2-3.2,22.6-8.9c8.1-7.4,18.5-11.5,29.2-11.5
				c10.7,0,21.1,4.1,29.2,11.5c6.4,5.8,13.8,8.9,21.3,8.9c7.5,0,14.9-3.1,21.3-8.9c8.2-7.5,17.9-11.5,28-11.5c10.1,0,19.7,4,28,11.5
				c6.4,5.8,13.8,8.9,21.3,8.9c7.5,0,14.9-3.1,21.3-8.9c8.2-7.5,17.9-11.5,28-11.5s19.7,4,28,11.5c0.5,0.4,0.9,0.8,1.4,1.2
				c32.5-22.4,36.4-69.5,36.4-89.4c0-5.1-4.1-9.2-9.2-9.2h-381c-3.2,0-6.1-1.6-7.8-4.3l-3.3-5.3c-1.7-2.7-4.6-4.3-7.8-4.3h0
				c-5.1,0-9.2,4.1-9.2,9.2v70.8c0,2.4,1,4.8,2.7,6.5l23.2,23.2c7.8-6.4,16.7-9.8,26-9.8C244.1,354.3,253.8,358.3,262,365.8z"/>
			<path d="M485.4,379.2c-8.7,0-17.1-3.5-24.4-10.1c-7.4-6.7-16-10.3-24.9-10.3c-8.9,0-17.5,3.6-24.9,10.3
				c-7.2,6.6-15.7,10.1-24.4,10.1c-8.7,0-17.1-3.5-24.4-10.1c-7.3-6.7-16.6-10.3-26.1-10.3c-9.6,0-18.9,3.7-26.1,10.3
				c-7.1,6.5-16.2,10.1-25.6,10.1c-9.4,0-18.5-3.6-25.6-10.1l0,0c-7.4-6.7-16-10.3-24.9-10.3c-8.2,0-16.2,3-23.1,8.8l-3.2,2.6
				l-26.1-26.1c-2.6-2.6-4-6-4-9.7v-70.8c0-7.6,6.1-13.7,13.7-13.7c4.8,0,9.1,2.4,11.6,6.4l3.3,5.3c0.9,1.4,2.3,2.2,4,2.2h381
				c3.7,0,7.1,1.4,9.7,4c2.6,2.6,4,6,4,9.7c-0.1,20.1-4,69.4-38.4,93.1l-2.7,1.9l-2.6-2.1c-0.6-0.5-1.2-1-1.7-1.4
				c-7.4-6.7-16-10.3-24.9-10.3c-8.9,0-17.5,3.6-24.9,10.3C502.5,375.7,494.1,379.2,485.4,379.2z M436.1,349.8
				c11.2,0,21.9,4.4,31,12.7c5.6,5.1,11.9,7.7,18.3,7.7c6.4,0,12.7-2.7,18.3-7.7c9.1-8.3,19.8-12.7,31-12.7c10.6,0,20.8,4,29.6,11.5
				c28.3-22,31.6-65.6,31.7-83.7c0-1.2-0.5-2.4-1.4-3.3c-0.9-0.9-2.1-1.4-3.3-1.4h-381c-4.8,0-9.1-2.4-11.6-6.4l-3.3-5.3
				c-0.9-1.4-2.3-2.2-4-2.2c-2.6,0-4.7,2.1-4.7,4.7v70.8c0,1.2,0.5,2.4,1.4,3.3l20.4,20.4c7.8-5.5,16.6-8.3,25.6-8.3
				c11.2,0,21.9,4.4,31,12.7c5.5,5,12.4,7.7,19.5,7.7c7.1,0,14-2.7,19.5-7.7c9-8.2,20.4-12.7,32.2-12.7c11.8,0,23.3,4.5,32.2,12.7
				c5.6,5.1,11.9,7.7,18.3,7.7c6.4,0,12.7-2.7,18.3-7.7C414.2,354.1,424.9,349.8,436.1,349.8z"/>
		</g>
		<g>
			<path d="M386.8,399.7c6.8,0,13.3-1.8,19.4-5.3h-38.9C373.5,397.9,380.1,399.7,386.8,399.7z"/>
		</g>
		<g>
			<path d="M284.6,399.7c7.2,0,14.2-1.8,20.5-5.3h-40.9C270.4,397.8,277.4,399.7,284.6,399.7z"/>
		</g>
		<g>
			<path d="M485.4,399.7c6.8,0,13.3-1.8,19.4-5.3h-38.9C472,397.9,478.6,399.7,485.4,399.7z"/>
		</g>
		<g>
			<path d="M586.1,389.8c-6.4-0.1-15.5-2.5-22-7.7c-2.8,1.9-5.8,3.7-9.1,5.2c0.3,0.3,0.7,0.6,1,0.9c7.5,6.9,19.3,11.4,30.1,11.5
				c2.7,0,4.9-2.2,4.9-4.9c0-1.3-0.5-2.6-1.4-3.5C588.6,390.3,587.4,389.8,586.1,389.8z"/>
		</g>
		<g>
			<path d="M206.1,380.9c-7.2,6.6-17.3,8.9-23.8,8.9l-0.4,0c-2.7,0-4.9,2.2-4.9,4.9c0,1.3,0.5,2.6,1.4,3.5c0.9,0.9,2.1,1.5,3.5,1.5
				l0.5,0c10.8,0,22.7-4.5,30.4-11.5c0.8-0.7,1.5-1.3,2.3-2l-7-7C207.4,379.7,206.7,380.3,206.1,380.9z"/>
		</g>
		<g>
			<path d="M562.6,380.9c-8.2-7.5-17.9-11.5-28-11.5s-19.7,4-28,11.5c-6.4,5.8-13.8,8.9-21.3,8.9c-7.5,0-14.9-3.1-21.3-8.9
				c-8.2-7.5-17.9-11.5-28-11.5c-10.1,0-19.7,4-28,11.5c-6.4,5.8-13.8,8.9-21.3,8.9c-7.5,0-14.9-3.1-21.3-8.9
				c-8.1-7.4-18.5-11.5-29.2-11.5c-10.7,0-21.1,4.1-29.2,11.5c-6.3,5.7-14.3,8.9-22.6,8.9s-16.2-3.2-22.6-8.9
				c-8.2-7.5-17.9-11.5-28-11.5c-9.3,0-18.2,3.4-26,9.8l7,7c5.8-4.6,12.3-7,19-7c7.5,0,14.9,3.1,21.3,8.9c2.7,2.4,5.6,4.5,8.7,6.2
				H305c3.1-1.7,6-3.8,8.7-6.2c6.3-5.7,14.3-8.9,22.6-8.9c8.2,0,16.2,3.2,22.5,8.9c2.7,2.5,5.5,4.5,8.5,6.2h38.9
				c3-1.7,5.8-3.8,8.5-6.2c6.4-5.8,13.8-8.9,21.3-8.9c7.5,0,14.9,3.1,21.3,8.9c2.7,2.5,5.5,4.5,8.5,6.2h38.9c3-1.7,5.8-3.8,8.5-6.2
				c6.4-5.8,13.8-8.9,21.3-8.9c7.2,0,14.2,2.8,20.3,8.1c3.2-1.5,6.3-3.3,9.1-5.2C563.6,381.7,563.1,381.3,562.6,380.9z"/>
		</g>
	</g>
	<g>
		<circle class="st2" cx="467.6" cy="307.4" r="11.9"/>
		<path d="M467.6,323.8c-9.1,0-16.4-7.4-16.4-16.4c0-9.1,7.4-16.4,16.4-16.4s16.4,7.4,16.4,16.4C484,316.4,476.7,323.8,467.6,323.8z
			 M467.6,300c-4.1,0-7.4,3.3-7.4,7.4c0,4.1,3.3,7.4,7.4,7.4s7.4-3.3,7.4-7.4C475,303.3,471.7,300,467.6,300z"/>
	</g>
	<g>
		<circle class="st2" cx="248.3" cy="307.4" r="11.9"/>
		<path d="M248.3,323.8c-9.1,0-16.4-7.4-16.4-16.4c0-9.1,7.4-16.4,16.4-16.4s16.4,7.4,16.4,16.4
			C264.7,316.4,257.4,323.8,248.3,323.8z M248.3,300c-4.1,0-7.4,3.3-7.4,7.4c0,4.1,3.3,7.4,7.4,7.4s7.4-3.3,7.4-7.4
			C255.7,303.3,252.4,300,248.3,300z"/>
	</g>
	<g>
		<path class="st4" d="M263.1,268.4h-27c-1.6,0-2.9-1.3-2.9-2.9v-8.1c0-1.6,1.3-2.9,2.9-2.9h27c1.6,0,2.9,1.3,2.9,2.9v8.1
			C266,267.1,264.7,268.4,263.1,268.4z"/>
		<path d="M263.5,272.9h-27.9c-3.8,0-7-3.1-7-7v-9c0-3.8,3.1-7,7-7h27.9c3.8,0,7,3.1,7,7v9C270.5,269.8,267.3,272.9,263.5,272.9z
			 M237.6,263.9h23.8v-4.9h-23.8V263.9z"/>
	</g>
	<g>
		<path class="st4" d="M263.1,254.4h-27c-1.6,0-2.9-1.3-2.9-2.9v-8.1c0-1.6,1.3-2.9,2.9-2.9h27c1.6,0,2.9,1.3,2.9,2.9v8.1
			C266,253.1,264.7,254.4,263.1,254.4z"/>
		<path d="M263.5,258.9h-27.9c-3.8,0-7-3.1-7-7v-9c0-3.8,3.1-7,7-7h27.9c3.8,0,7,3.1,7,7v9C270.5,255.8,267.3,258.9,263.5,258.9z
			 M237.6,249.9h23.8V245h-23.8V249.9z"/>
	</g>
	<g>
		<path class="st4" d="M263.1,240.4h-27c-1.6,0-2.9-1.3-2.9-2.9v-8.1c0-1.6,1.3-2.9,2.9-2.9h27c1.6,0,2.9,1.3,2.9,2.9v8.1
			C266,239.1,264.7,240.4,263.1,240.4z"/>
		<path d="M263.5,245h-27.9c-3.8,0-7-3.1-7-7v-9c0-3.8,3.1-7,7-7h27.9c3.8,0,7,3.1,7,7v9C270.5,241.8,267.3,245,263.5,245z
			 M237.6,235.9h23.8V231h-23.8V235.9z"/>
	</g>
	<g>
		<path class="st4" d="M361.6,268.4h-27c-1.6,0-2.9-1.3-2.9-2.9v-8.1c0-1.6,1.3-2.9,2.9-2.9h27c1.6,0,2.9,1.3,2.9,2.9v8.1
			C364.5,267.1,363.2,268.4,361.6,268.4z"/>
		<path d="M362.1,272.9h-27.9c-3.9,0-7-3.1-7-7v-9c0-3.8,3.1-7,7-7h27.9c3.9,0,7,3.1,7,7v9C369,269.8,365.9,272.9,362.1,272.9z
			 M336.2,263.9H360v-4.9h-23.8V263.9z"/>
	</g>
	<g>
		<path class="st4" d="M361.6,254.4h-27c-1.6,0-2.9-1.3-2.9-2.9v-8.1c0-1.6,1.3-2.9,2.9-2.9h27c1.6,0,2.9,1.3,2.9,2.9v8.1
			C364.5,253.1,363.2,254.4,361.6,254.4z"/>
		<path d="M362.1,258.9h-27.9c-3.9,0-7-3.1-7-7v-9c0-3.8,3.1-7,7-7h27.9c3.9,0,7,3.1,7,7v9C369,255.8,365.9,258.9,362.1,258.9z
			 M336.2,249.9H360V245h-23.8V249.9z"/>
	</g>
	<g>
		<path class="st4" d="M361.6,240.4h-27c-1.6,0-2.9-1.3-2.9-2.9v-8.1c0-1.6,1.3-2.9,2.9-2.9h27c1.6,0,2.9,1.3,2.9,2.9v8.1
			C364.5,239.1,363.2,240.4,361.6,240.4z"/>
		<path d="M362.1,245h-27.9c-3.9,0-7-3.1-7-7v-9c0-3.8,3.1-7,7-7h27.9c3.9,0,7,3.1,7,7v9C369,241.8,365.9,245,362.1,245z
			 M336.2,235.9H360V231h-23.8V235.9z"/>
	</g>
	<g>
		<path class="st4" d="M295.9,268.4h-27c-1.6,0-2.9-1.3-2.9-2.9v-8.1c0-1.6,1.3-2.9,2.9-2.9h27c1.6,0,2.9,1.3,2.9,2.9v8.1
			C298.8,267.1,297.5,268.4,295.9,268.4z"/>
		<path d="M296.4,272.9h-27.9c-3.9,0-7-3.1-7-7v-9c0-3.8,3.1-7,7-7h27.9c3.9,0,7,3.1,7,7v9C303.3,269.8,300.2,272.9,296.4,272.9z
			 M270.5,263.9h23.8v-4.9h-23.8V263.9z"/>
	</g>
	<g>
		<path class="st4" d="M295.9,254.4h-27c-1.6,0-2.9-1.3-2.9-2.9v-8.1c0-1.6,1.3-2.9,2.9-2.9h27c1.6,0,2.9,1.3,2.9,2.9v8.1
			C298.8,253.1,297.5,254.4,295.9,254.4z"/>
		<path d="M296.4,258.9h-27.9c-3.9,0-7-3.1-7-7v-9c0-3.8,3.1-7,7-7h27.9c3.9,0,7,3.1,7,7v9C303.3,255.8,300.2,258.9,296.4,258.9z
			 M270.5,249.9h23.8V245h-23.8V249.9z"/>
	</g>
	<g>
		<path class="st4" d="M328.8,268.4h-27c-1.6,0-2.9-1.3-2.9-2.9v-8.1c0-1.6,1.3-2.9,2.9-2.9h27c1.6,0,2.9,1.3,2.9,2.9v8.1
			C331.7,267.1,330.4,268.4,328.8,268.4z"/>
		<path d="M329.2,272.9h-27.9c-3.8,0-7-3.1-7-7v-9c0-3.8,3.1-7,7-7h27.9c3.8,0,7,3.1,7,7v9C336.2,269.8,333.1,272.9,329.2,272.9z
			 M303.3,263.9h23.8v-4.9h-23.8V263.9z"/>
	</g>
	<g>
		<path class="st4" d="M328.8,254.4h-27c-1.6,0-2.9-1.3-2.9-2.9v-8.1c0-1.6,1.3-2.9,2.9-2.9h27c1.6,0,2.9,1.3,2.9,2.9v8.1
			C331.7,253.1,330.4,254.4,328.8,254.4z"/>
		<path d="M329.2,258.9h-27.9c-3.8,0-7-3.1-7-7v-9c0-3.8,3.1-7,7-7h27.9c3.8,0,7,3.1,7,7v9C336.2,255.8,333.1,258.9,329.2,258.9z
			 M303.3,249.9h23.8V245h-23.8V249.9z"/>
	</g>
	<g>
		<path class="st4" d="M394.5,268.4h-27c-1.6,0-2.9-1.3-2.9-2.9v-8.1c0-1.6,1.3-2.9,2.9-2.9h27c1.6,0,2.9,1.3,2.9,2.9v8.1
			C397.4,267.1,396.1,268.4,394.5,268.4z"/>
		<path d="M394.9,272.9H367c-3.9,0-7-3.1-7-7v-9c0-3.8,3.1-7,7-7h27.9c3.8,0,7,3.1,7,7v9C401.9,269.8,398.8,272.9,394.9,272.9z
			 M369,263.9h23.8v-4.9H369V263.9z"/>
	</g>
	<g>
		<path class="st4" d="M394.5,254.4h-27c-1.6,0-2.9-1.3-2.9-2.9v-8.1c0-1.6,1.3-2.9,2.9-2.9h27c1.6,0,2.9,1.3,2.9,2.9v8.1
			C397.4,253.1,396.1,254.4,394.5,254.4z"/>
		<path d="M394.9,258.9H367c-3.9,0-7-3.1-7-7v-9c0-3.8,3.1-7,7-7h27.9c3.8,0,7,3.1,7,7v9C401.9,255.8,398.8,258.9,394.9,258.9z
			 M369,249.9h23.8V245H369V249.9z"/>
	</g>
	<g>
		<path d="M507.5,223.8h-12.7c-1.6,0-2.9-1.3-2.9-2.9v-8.1c0-1.6,1.3-2.9,2.9-2.9h12.7c1.6,0,2.9,1.3,2.9,2.9v8.1
			C510.4,222.5,509.1,223.8,507.5,223.8z"/>
		<path class="st2" d="M507.9,228.3h-13.6c-3.8,0-7-3.1-7-7v-9c0-3.8,3.1-7,7-7h13.6c3.8,0,7,3.1,7,7v9
			C514.9,225.2,511.8,228.3,507.9,228.3z M496.4,219.3h9.5v-4.9h-9.5V219.3z"/>
	</g>
	<g>
		<path d="M526,223.8h-12.7c-1.6,0-2.9-1.3-2.9-2.9v-8.1c0-1.6,1.3-2.9,2.9-2.9H526c1.6,0,2.9,1.3,2.9,2.9v8.1
			C529,222.5,527.6,223.8,526,223.8z"/>
		<path class="st2" d="M526.5,228.3h-13.6c-3.8,0-7-3.1-7-7v-9c0-3.8,3.1-7,7-7h13.6c3.8,0,7,3.1,7,7v9
			C533.5,225.2,530.3,228.3,526.5,228.3z M514.9,219.3h9.5v-4.9h-9.5V219.3z"/>
	</g>
	<g>
		<path d="M544.6,223.8h-12.7c-1.6,0-2.9-1.3-2.9-2.9v-8.1c0-1.6,1.3-2.9,2.9-2.9h12.7c1.6,0,2.9,1.3,2.9,2.9v8.1
			C547.5,222.5,546.2,223.8,544.6,223.8z"/>
		<path class="st2" d="M545,228.3h-13.6c-3.8,0-7-3.1-7-7v-9c0-3.8,3.1-7,7-7H545c3.8,0,7,3.1,7,7v9
			C552,225.2,548.9,228.3,545,228.3z M533.5,219.3h9.5v-4.9h-9.5V219.3z"/>
	</g>
	<g>
		<line class="st5" x1="525.4" y1="307.4" x2="564.1" y2="307.4"/>
		<path d="M564.1,311.9h-38.7c-2.5,0-4.5-2-4.5-4.5c0-2.5,2-4.5,4.5-4.5h38.7c2.5,0,4.5,2,4.5,4.5
			C568.7,309.9,566.6,311.9,564.1,311.9z"/>
	</g>
	<g>
		<path class="st2" d="M516,179.2h-11.1c-1.7,0-3-1.4-3-3v-35.1c0-1.7,1.3-3,3-3H516c1.6,0,3,1.3,3,3v35.1
			C519,177.9,517.6,179.2,516,179.2z"/>
		<path d="M516.5,183.8h-12.2c-3.8,0-7-3.1-7-7v-36.1c0-3.8,3.1-7,7-7h12.2c3.8,0,7,3.1,7,7v36.1
			C523.5,180.6,520.3,183.8,516.5,183.8z M506.4,174.7h8.1v-32h-8.1V174.7z"/>
	</g>
</g>
<path class="st6" d="M264.1,440.2h-243c-1.7,0-3-1.4-3-3V98.4c0-1.6,1.3-3,3-3h243c1.6,0,3,1.4,3,3v338.8
	C267.1,438.8,265.7,440.2,264.1,440.2z"/>
<path class="st7" d="M190,50.6H95.2c-1.7,0-3,1.3-3,3v48.7c0,1.7,1.3,3,3,3H190c1.6,0,3-1.3,3-3V53.6C193,52,191.7,50.6,190,50.6z"
	/>
<polyline class="st8" points="51.3,177.8 71.5,201 98.8,148.7 "/>
<polyline class="st8" points="51.3,257.7 71.5,280.9 98.8,228.7 "/>
<polyline class="st8" points="51.3,337.7 71.5,360.9 98.8,308.6 "/>
<line class="st8" x1="130" y1="324" x2="197" y2="324"/>
<line class="st8" x1="130" y1="352" x2="217" y2="352"/>
<line class="st8" x1="130" y1="240.8" x2="197" y2="240.8"/>
<line class="st8" x1="130" y1="268.8" x2="217" y2="268.8"/>
<line class="st8" x1="130" y1="157.6" x2="197" y2="157.6"/>
<line class="st8" x1="130" y1="185.6" x2="217" y2="185.6"/>
<path class="st9" d="M160,86.9h-34.8c-1.7,0-3,1.3-3,3v16.1c0,1.7,1.3,3,3,3H160c1.6,0,3-1.3,3-3V89.9C163,88.3,161.6,86.9,160,86.9
	z"/>
</svg>
