<?xml version="1.0" encoding="utf-8"?>
<!-- Generator: Adobe Illustrator 21.0.0, SVG Export Plug-In . SVG Version: 6.00 Build 0)  -->
<svg version="1.1" id="Capa_1" xmlns="http://www.w3.org/2000/svg" xmlns:xlink="http://www.w3.org/1999/xlink" x="0px" y="0px"
	 viewBox="0 0 621 462" style="enable-background:new 0 0 621 462;" xml:space="preserve">
<style type="text/css">
	.st0{fill:#E2A8A8;stroke:#000000;stroke-width:11;stroke-linecap:round;stroke-linejoin:round;stroke-miterlimit:10;}
	.st1{stroke:#1746AF;stroke-width:11;stroke-miterlimit:10;}
	.st2{fill:#1746AF;stroke:#000000;stroke-width:11;stroke-linecap:round;stroke-linejoin:round;stroke-miterlimit:10;}
	.st3{fill:#6182BC;stroke:#000000;stroke-width:11;stroke-miterlimit:10;}
	.st4{fill:#97ADCC;stroke:#000000;stroke-width:11;stroke-miterlimit:10;}
	.st5{fill:#CECECE;stroke:#000000;stroke-width:12;stroke-linecap:round;stroke-linejoin:round;stroke-miterlimit:10;}
	.st6{fill:none;stroke:#000000;stroke-width:12;stroke-linecap:round;stroke-linejoin:round;stroke-miterlimit:10;}
	.st7{fill:none;stroke:#000000;stroke-width:11;stroke-linecap:round;stroke-linejoin:round;stroke-miterlimit:10;}
</style>
<path class="st0" d="M134-304.5h-34c-1.7,0-3-1.4-3-3v-11c0-1.6,1.3-3,3-3h34c1.6,0,3,1.4,3,3v11C137-305.8,135.6-304.5,134-304.5z"
	/>
<path class="st0" d="M134-321.5h-34c-1.7,0-3-1.4-3-3v-11c0-1.6,1.3-3,3-3h34c1.6,0,3,1.4,3,3v11C137-322.8,135.6-321.5,134-321.5z"
	/>
<path class="st0" d="M254-304.5h-34c-1.6,0-3-1.4-3-3v-11c0-1.6,1.4-3,3-3h34c1.6,0,3,1.4,3,3v11C257-305.8,255.6-304.5,254-304.5z"
	/>
<path class="st0" d="M254-321.5h-34c-1.6,0-3-1.4-3-3v-11c0-1.6,1.4-3,3-3h34c1.6,0,3,1.4,3,3v11C257-322.8,255.6-321.5,254-321.5z"
	/>
<path class="st0" d="M174-304.5h-34c-1.6,0-3-1.4-3-3v-11c0-1.6,1.4-3,3-3h34c1.6,0,3,1.4,3,3v11C177-305.8,175.6-304.5,174-304.5z"
	/>
<path class="st0" d="M214-304.5h-34c-1.6,0-3-1.4-3-3v-11c0-1.6,1.4-3,3-3h34c1.6,0,3,1.4,3,3v11C217-305.8,215.6-304.5,214-304.5z"
	/>
<path class="st0" d="M294-304.5h-34c-1.6,0-3-1.4-3-3v-11c0-1.6,1.4-3,3-3h34c1.6,0,3,1.4,3,3v11C297-305.8,295.6-304.5,294-304.5z"
	/>
<path class="st1" d="M431.6-341.7H415c-1.6,0-3-1.4-3-3v-11c0-1.6,1.4-3,3-3h16.6c1.6,0,3,1.4,3,3v11
	C434.6-343.1,433.2-341.7,431.6-341.7z"/>
<path class="st1" d="M454.2-341.7h-16.6c-1.6,0-3-1.4-3-3v-11c0-1.6,1.4-3,3-3h16.6c1.7,0,3,1.4,3,3v11
	C457.2-343.1,455.8-341.7,454.2-341.7z"/>
<path class="st1" d="M476.8-341.7h-16.6c-1.6,0-3-1.4-3-3v-11c0-1.6,1.4-3,3-3h16.6c1.6,0,3,1.4,3,3v11
	C479.8-343.1,478.4-341.7,476.8-341.7z"/>
<path class="st2" d="M442-396h-14.8c-1.6,0-3-1.4-3-3v-44c0-1.6,1.4-3,3-3H442c1.6,0,3,1.4,3,3v44C445-397.3,443.6-396,442-396z"/>
<path class="st3" d="M558.8,373.9H62.2c-1.7,0-3-1.4-3-3V16c0-1.6,1.3-3,3-3h496.5c1.6,0,3,1.4,3,3v354.9
	C561.8,372.5,560.4,373.9,558.8,373.9z"/>
<path class="st4" d="M531.5,320.6h-442c-1.7,0-3-1.4-3-3V41.2c0-1.7,1.3-3,3-3h442c1.7,0,3,1.3,3,3v276.5
	C534.5,319.3,533.2,320.6,531.5,320.6z"/>
<path class="st2" d="M401.7,429.9c-25.9,0-44.9-54.1-44.9-54.1H314h-7h-42.9c0,0-19,54.1-44.9,54.1s-38.1,0-38.1,0v19.8H307h6.9
	h125.9v-19.8C439.8,429.9,427.6,429.9,401.7,429.9z"/>
<g>
	<g>
		<g>
			<path d="M336.5,241.9c-13.6,0-24.7,11.1-24.7,24.7s11.1,24.7,24.7,24.7s24.7-11.1,24.7-24.7C361.2,252.9,350.1,241.9,336.5,241.9
				z M336.5,277.5c-6,0-10.9-4.9-10.9-10.9s4.9-10.9,10.9-10.9s10.9,4.9,10.9,10.9S342.5,277.5,336.5,277.5z"/>
		</g>
	</g>
	<g>
		<g>
			<path d="M423.2,241.9c-13.6,0-24.7,11.1-24.7,24.7s11.1,24.7,24.7,24.7s24.7-11.1,24.7-24.7C447.9,252.9,436.8,241.9,423.2,241.9
				z M423.2,277.5c-6,0-10.9-4.9-10.9-10.9s4.9-10.9,10.9-10.9s10.9,4.9,10.9,10.9S429.2,277.5,423.2,277.5z"/>
		</g>
	</g>
	<polygon class="st5" points="373.8,111 253.2,110.6 282.4,208.6 373.8,208.6 465.2,208.6 494.4,110.6 	"/>
	<polyline class="st6" points="467,231.2 270.5,231.2 214.8,72.2 187.7,72.2 	"/>
	<line class="st7" x1="435.6" y1="146.9" x2="319.7" y2="146.9"/>
	<line class="st7" x1="435.6" y1="173.9" x2="319.7" y2="173.9"/>
	<line class="st7" x1="217.2" y1="173.9" x2="145.6" y2="173.9"/>
	<line class="st7" x1="237.6" y1="216.6" x2="166.1" y2="216.6"/>
	<line class="st7" x1="198.1" y1="130.8" x2="126.6" y2="130.8"/>
</g>
<circle class="st7" cx="310.5" cy="346.6" r="10.8"/>
</svg>
