<?xml version="1.0" encoding="utf-8"?>
<!-- Generator: Adobe Illustrator 21.0.0, SVG Export Plug-In . SVG Version: 6.00 Build 0)  -->
<svg version="1.1" id="Capa_1" xmlns="http://www.w3.org/2000/svg" xmlns:xlink="http://www.w3.org/1999/xlink" x="0px" y="0px"
	 viewBox="0 0 621 462" style="enable-background:new 0 0 621 462;" xml:space="preserve">
<style type="text/css">
	.st0{fill:#263A8C;}
	.st1{fill:none;stroke:#000000;stroke-width:11;stroke-miterlimit:10;}
	.st2{fill:#767677;stroke:#000000;stroke-width:11;stroke-miterlimit:10;}
	.st3{fill:#A3A3A3;stroke:#000000;stroke-width:11;stroke-miterlimit:10;}
	.st4{fill:#1746AF;stroke:#000000;stroke-width:11;stroke-linecap:round;stroke-linejoin:round;stroke-miterlimit:10;}
</style>
<g>
	<path class="st0" d="M298.2,262.1c-13.2-9-24.1-16.2-26-24.8c-1.9-8.7-1.6-16-1.6-16h-6.9c0,0,0.9,23.7-22.6,35.8
		s-59,27.8-57.6,33.1c1.4,5.3,7.6,26.6,10.6,37.3c2.9,10.7,9.3,34.8,10.8,41.2c1.4,6.4,17.8,22.8,41.9,17.8
		c24.2-5,23.5-8.3,23.5-8.3s4.3,13,28.4,9.3c24.2-3.8,27-16.6,27-16.6l26.3-84.6C352.1,286.2,311.4,271.1,298.2,262.1z M241.2,377.9
		c-21.3,2.1-24.2-13.5-28.4-25.6c-4.3-12.1-18.5-51.9-18.5-51.9s-2.1-10,13.5-16.4s44.1-19.2,51.9-28.4v101
		C259.7,356.6,262.5,375.8,241.2,377.9z"/>
	<g>
		<path class="st0" d="M319.6,274.2l-10.5-1.1c0,0,3.3-31,3.7-35.6c0.1-1.1,0.3-2.5,0.5-4.1c0.3-2.2,1.1-7.1,0.8-9.2
			c-5-2.5-28.2-11.6-48.6-11.9c-20.1-0.4-38.5,7-45.4,9.8l-1.6,0.6c-0.6,1.3,0.8,7.7,1.6,11.5c0.4,1.7,0.7,3.5,1.1,5.2
			c1.7,9.5,4.3,29.9,4.4,30.8l-10.5,1.3c0-0.2-2.6-21-4.3-30.2c-0.3-1.6-0.6-3.3-1-4.9c-1.9-8.9-4.2-20,4.9-23.6l1.5-0.6
			c7.5-3,27.3-10.8,49.5-10.5c23.1,0.4,49.9,10.8,54.9,13.9c5.7,3.6,4.4,12.3,3.3,19.3c-0.2,1.3-0.4,2.5-0.5,3.4
			C322.9,242.9,319.6,274.2,319.6,274.2z"/>
	</g>
	<path class="st0" d="M298.2,207.3c-5-2.2-0.7-20.5-3.2-24.9c-2.5-4.5-19.6-8.4-23.9-9.7s-4.1-7.6-4.8-3.6
		c-0.8,4.1-16.8,8.3-24.3,10.9c-7.5,2.6-5,11.5-4.7,16.3c0.4,6.2-1.2,11.3-1.2,11.3S302.2,209.1,298.2,207.3z M286.9,205l-40.6-0.8
		c0,0-1.8-13.3,2.4-17.2s11.9-6.6,18.8-6.6s19.4,3.2,19.4,10.8C286.9,198.9,286.9,205,286.9,205z"/>
	<path class="st0" d="M115,426.4c0,0,28.6-2.6,55.6,5.6s63.5,15.8,89.2,15.8S355.6,431.7,375,429s42.1-3,42.1-3s-17.1-9.1-41.8-8.5
		c-24.7,0.7-64.9,15.1-110.6,15.1s-80-15.2-104.4-15.2S115,426.4,115,426.4z"/>
	<path class="st0" d="M156.1,401.4c0,0,36.9,6.5,58.9,14.5s42.1,8.3,51,8.3s37.9-2,63.2-12.2c25.4-10.2,52.7-7.6,52.7-7.6
		s-21.1-13.5-48.7-7.9s-38.4,13.1-65.5,13.1s-64.6-14.5-79.4-14.5S156.1,401.4,156.1,401.4z"/>
</g>
<path class="st1" d="M445.1,98.2V47.3c0-22.2,18.2-40.4,40.4-40.4l0,0c22.2,0,40.4,18.2,40.4,40.4v50.9c0,22.2-18.2,40.4-40.4,40.4
	l0,0C463.3,138.7,445.1,120.5,445.1,98.2z"/>
<path class="st2" d="M594.2,228.8H376.8c-2,0-3.8-1.4-3.8-3V94c0-1.7,1.8-3,3.8-3h217.5c2.1,0,3.8,1.3,3.8,3v131.8
	C598,227.5,596.4,228.8,594.2,228.8z"/>
<path class="st3" d="M575.9,228.8H395.1c-1.7,0-3.1-1.4-3.1-3V94c0-1.7,1.5-3,3.1-3h180.8c1.8,0,3.1,1.3,3.1,3v131.8
	C579,227.5,577.6,228.8,575.9,228.8z"/>
<path class="st4" d="M486,186.8L486,186.8c-8.1,0-14.7-6.6-14.7-14.7v-24.4c0-8.1,6.6-14.7,14.7-14.7l0,0c8.1,0,14.7,6.6,14.7,14.7
	v24.4C500.7,180.2,494.1,186.8,486,186.8z"/>
<g>
	<path class="st0" d="M267.3,145.5c36.1,0,68.5,15.7,90.8,40.6v-52c-20.2-14-43.8-23.4-69.4-26.8c-9.5-9.6-14.5-26.3-15.3-37.6
		c-1-13.5,10.9-25.4,3.6-43.5c-7.2-18.1-13.5-10.9-18.4-5.3s-3.3,26.3,0.3,36.5c3.6,10.2,1.3,21.1-4,36.2
		c-1.9,5.4-5.7,9.9-10.4,13.7c-27.4,3.9-52.6,14.8-73.7,30.8c-0.6,0.1-1.2,0.2-1.8,0.3c-14.5,1.3-33.3-8.9-38.5-17.5
		c-5.3-8.6-20.4-27.3-33.3-31.9c-12.8-4.4-14.8,4.8-8.2,18s25,21.4,36.9,31.6c8.3,7.1,11.6,22.8,11.1,34.5
		c-14.2,19.9-23.9,43.1-27.8,68.3c-9.3,11.3-21.8,16.2-32.1,19.9c-14.5,5.3-27.3-5.6-38.2-5.6S12,262.3,12,268.5
		c0,6.2,13.4,12.2,27.6,12.9c14.2,0.7,30.3-18.4,54.7,0c6.9,5.2,12.3,11.1,16.5,17.3c2.4,11.6,6.1,22.7,10.9,33.2
		c0.3,6.3-0.2,12.7-1.4,19c-4.9,25-22.1,30-33.9,33.3s-22.7,12.5-26.7,22.4s4.6,16.5,23,5.9s12.5-20.1,40.5-31
		c19.6-7.6,26.1-1.4,36.9,3c4.7,1.9,10.1,3.5,17.7,3.5c23.2,0,32.5-10.8,34-12.7c-39.3-20.2-66.2-61-66.2-108.2
		C145.6,200,200.1,145.5,267.3,145.5z"/>
	<path class="st0" d="M519.9,266.7c-4.6-13.5-27-11.9-36.5-8.6s-22.4,5.9-41.8-2.6c-6.1-2.7-10.5-5.9-13.8-9.2h-40.6
		c1.2,6.8,1.8,13.8,1.8,20.9c0,46.8-26.5,87.4-65.3,107.8c1.2,0.7,2.4,1.6,3.4,2.7c12.2,13.5,32.3,12.2,47.4,5.6
		c0.7-0.3,1.4-0.5,2.1-0.8c14.6-5.4,30.6-2.7,40.7,1.4c10.5,4.3,31.6,28.6,36.2,30.9s26.3,10.2,20.4-7.9s-20.4-20.4-35.9-26
		s-23.4-27-27-40.2c-0.3-1.2-0.4-2.5-0.5-3.7c6.4-12.8,11.1-26.6,13.9-41.1c3.5-6.6,9.5-14.1,24.2-18.7c20.1-6.3,35.2,2.6,41.8,4
		C496.9,282.5,524.6,280.2,519.9,266.7z"/>
</g>
</svg>
