<?xml version="1.0" encoding="utf-8"?>
<!-- Generator: Adobe Illustrator 19.2.0, SVG Export Plug-In . SVG Version: 6.00 Build 0)  -->
<svg version="1.1" id="Layer_1" xmlns="http://www.w3.org/2000/svg" xmlns:xlink="http://www.w3.org/1999/xlink" x="0px" y="0px"
	 viewBox="0 0 474.6 488.7" style="enable-background:new 0 0 474.6 488.7;" xml:space="preserve">
<style type="text/css">
	.st0{clip-path:url(#SVGID_2_);}
	.st1{opacity:0.4;clip-path:url(#SVGID_4_);}
	.st2{clip-path:url(#SVGID_6_);fill:#898B8D;}
	.st3{clip-path:url(#SVGID_4_);fill:#25408E;}
	.st4{clip-path:url(#SVGID_4_);fill:#CADCA0;}
	.st5{clip-path:url(#SVGID_4_);fill:#00ADEE;}
	.st6{clip-path:url(#SVGID_4_);fill:#B8E4FA;}
	.st7{clip-path:url(#SVGID_4_);fill:#B5B4D4;}
	.st8{clip-path:url(#SVGID_4_);fill:#70C6B9;}
	.st9{fill:#231F20;}
	.st10{fill:#FFFFFF;}
	.st11{clip-path:url(#SVGID_8_);fill:none;stroke:#25408E;}
	.st12{clip-path:url(#SVGID_8_);fill:none;stroke:#CADCA0;}
	
		.st13{clip-path:url(#SVGID_8_);fill:none;stroke:#B8E4FA;stroke-width:3;stroke-linecap:round;stroke-linejoin:round;stroke-dasharray:0,5.871;}
	.st14{clip-path:url(#SVGID_8_);fill:none;stroke:#B8E4FA;stroke-width:3;stroke-linecap:round;stroke-linejoin:round;}
	.st15{clip-path:url(#SVGID_8_);fill:none;stroke:#00ADEE;}
	
		.st16{clip-path:url(#SVGID_8_);fill:none;stroke:#00ADEE;stroke-width:2;stroke-linecap:round;stroke-linejoin:round;stroke-dasharray:0,5.91;}
	.st17{clip-path:url(#SVGID_8_);fill:none;stroke:#00ADEE;stroke-width:2;stroke-linecap:round;stroke-linejoin:round;}
	.st18{clip-path:url(#SVGID_8_);fill:none;stroke:#B5B4D4;}
</style>
<g>
	<defs>
		<rect id="SVGID_1_" x="8" y="6.2" width="462.5" height="482.5"/>
	</defs>
	<clipPath id="SVGID_2_">
		<use xlink:href="#SVGID_1_"  style="overflow:visible;"/>
	</clipPath>
	<g class="st0">
		<defs>
			<rect id="SVGID_3_" x="12" y="19.7" width="452.5" height="465.5"/>
		</defs>
		<clipPath id="SVGID_4_">
			<use xlink:href="#SVGID_3_"  style="overflow:visible;"/>
		</clipPath>
		<g class="st1">
			<g>
				<defs>
					<rect id="SVGID_5_" x="69" y="60.4" width="361.9" height="352.9"/>
				</defs>
				<clipPath id="SVGID_6_">
					<use xlink:href="#SVGID_5_"  style="overflow:visible;"/>
				</clipPath>
				<path class="st2" d="M249.9,412.3c95,0,171.9-77,171.9-171.9c0-95-77-171.9-171.9-171.9S78,145.4,78,240.3
					C78,335.3,155,412.3,249.9,412.3"/>
			</g>
		</g>
		<path class="st3" d="M155.4,228.5c52,0,94.1-42.1,94.1-94.1c0-52-42.1-94.1-94.1-94.1s-94.1,42.1-94.1,94.1
			C61.3,186.4,103.4,228.5,155.4,228.5"/>
		<path class="st4" d="M311,340.7c42.1,0,76.1-34.1,76.1-76.1c0-42.1-34.1-76.1-76.1-76.1s-76.1,34.1-76.1,76.1
			C234.8,306.6,268.9,340.7,311,340.7"/>
		<path class="st5" d="M92,389.6c37.5,0,68-30.4,68-68c0-37.5-30.4-68-68-68s-68,30.4-68,68C24,359.2,54.4,389.6,92,389.6"/>
		<path class="st6" d="M377.1,175.6c42.1,0,76.1-34.1,76.1-76.1c0-42.1-34.1-76.1-76.1-76.1s-76.1,34.1-76.1,76.1
			C300.9,141.5,335,175.6,377.1,175.6"/>
		<path class="st7" d="M230.3,472.6c31.8,0,57.6-25.8,57.6-57.6c0-31.8-25.8-57.6-57.6-57.6s-57.6,25.8-57.6,57.6
			C172.7,446.8,198.5,472.6,230.3,472.6"/>
		<path class="st8" d="M376.5,412.5c9.1,0,16.4-7.4,16.4-16.4c0-9.1-7.4-16.4-16.4-16.4c-9.1,0-16.4,7.4-16.4,16.4
			C360.1,405.2,367.4,412.5,376.5,412.5"/>
	</g>
	<g class="st0">
		<path class="st9" d="M178.3,422.1v-11.4h5c0.5,0,1,0.1,1.4,0.3c0.4,0.2,0.8,0.5,1.1,0.9c0.3,0.4,0.6,0.8,0.8,1.2
			c0.2,0.5,0.3,0.9,0.3,1.4c0,0.7-0.2,1.4-0.6,2s-0.9,1-1.5,1.3l2.6,4.3H185l-2.3-3.8h-2.2v3.8H178.3z M180.5,416.4h2.8
			c0.2,0,0.4,0,0.6-0.1c0.2-0.1,0.3-0.2,0.5-0.4c0.1-0.2,0.2-0.4,0.3-0.6c0.1-0.2,0.1-0.5,0.1-0.7c0-0.3,0-0.5-0.1-0.7
			c-0.1-0.2-0.2-0.4-0.3-0.6c-0.1-0.2-0.3-0.3-0.5-0.4s-0.4-0.1-0.6-0.1h-2.7V416.4z"/>
		<path class="st9" d="M192.5,422.3c-0.7,0-1.3-0.1-1.8-0.3c-0.5-0.2-1-0.5-1.4-0.9c-0.4-0.4-0.7-0.9-0.9-1.4s-0.3-1.1-0.3-1.6
			c0-0.6,0.1-1.2,0.3-1.7s0.5-1,0.9-1.4c0.4-0.4,0.9-0.7,1.4-1c0.5-0.2,1.2-0.4,1.8-0.4s1.3,0.1,1.8,0.4s1,0.5,1.4,0.9
			c0.4,0.4,0.7,0.9,0.9,1.4c0.2,0.5,0.3,1.1,0.3,1.6c0,0.1,0,0.3,0,0.4c0,0.1,0,0.2,0,0.3h-6.5c0,0.3,0.1,0.6,0.2,0.9
			s0.3,0.5,0.5,0.7s0.4,0.3,0.7,0.4c0.3,0.1,0.5,0.1,0.8,0.1c0.4,0,0.8-0.1,1.2-0.3s0.6-0.5,0.8-0.8l1.8,0.5
			c-0.3,0.6-0.8,1.2-1.5,1.6C194.2,422.1,193.4,422.3,192.5,422.3z M194.6,417.2c-0.1-0.6-0.3-1.1-0.7-1.5c-0.4-0.4-0.9-0.6-1.5-0.6
			c-0.3,0-0.6,0.1-0.8,0.2c-0.3,0.1-0.5,0.2-0.7,0.4c-0.2,0.2-0.3,0.4-0.5,0.7s-0.2,0.5-0.2,0.8H194.6z"/>
		<path class="st9" d="M201.5,422.3c-0.7,0-1.4-0.1-2.1-0.3c-0.7-0.2-1.2-0.5-1.7-1l0.8-1.3c0.5,0.4,1,0.6,1.5,0.8s1,0.3,1.4,0.3
			c0.4,0,0.8-0.1,1-0.2c0.2-0.2,0.4-0.4,0.4-0.7s-0.1-0.5-0.4-0.7s-0.8-0.3-1.4-0.5c-0.5-0.1-1-0.3-1.4-0.4
			c-0.4-0.1-0.7-0.3-0.9-0.5c-0.2-0.2-0.4-0.4-0.5-0.6c-0.1-0.2-0.2-0.5-0.2-0.8c0-0.4,0.1-0.8,0.2-1.2c0.2-0.3,0.4-0.6,0.7-0.9
			c0.3-0.2,0.6-0.4,1-0.6c0.4-0.1,0.8-0.2,1.3-0.2c0.6,0,1.2,0.1,1.8,0.3c0.5,0.2,1.1,0.5,1.5,0.9l-0.9,1.3
			c-0.4-0.3-0.8-0.6-1.2-0.7c-0.4-0.1-0.8-0.2-1.2-0.2c-0.4,0-0.7,0.1-0.9,0.2c-0.2,0.1-0.4,0.4-0.4,0.7c0,0.1,0,0.3,0.1,0.4
			s0.2,0.2,0.3,0.3c0.1,0.1,0.3,0.1,0.5,0.2s0.5,0.1,0.8,0.2c0.6,0.2,1.1,0.3,1.5,0.4s0.7,0.3,1,0.5c0.3,0.2,0.5,0.4,0.6,0.7
			c0.1,0.3,0.2,0.6,0.2,0.9c0,0.8-0.3,1.5-0.9,1.9S202.5,422.3,201.5,422.3z"/>
		<path class="st9" d="M210.2,422.3c-0.7,0-1.3-0.1-1.8-0.3c-0.5-0.2-1-0.5-1.4-0.9c-0.4-0.4-0.7-0.9-0.9-1.4s-0.3-1.1-0.3-1.6
			c0-0.6,0.1-1.2,0.3-1.7s0.5-1,0.9-1.4c0.4-0.4,0.9-0.7,1.4-1c0.5-0.2,1.2-0.4,1.8-0.4s1.3,0.1,1.8,0.4s1,0.5,1.4,0.9
			c0.4,0.4,0.7,0.9,0.9,1.4c0.2,0.5,0.3,1.1,0.3,1.6c0,0.1,0,0.3,0,0.4c0,0.1,0,0.2,0,0.3H208c0,0.3,0.1,0.6,0.2,0.9
			s0.3,0.5,0.5,0.7s0.4,0.3,0.7,0.4c0.3,0.1,0.5,0.1,0.8,0.1c0.4,0,0.8-0.1,1.2-0.3s0.6-0.5,0.8-0.8l1.8,0.5
			c-0.3,0.6-0.8,1.2-1.5,1.6C211.9,422.1,211.1,422.3,210.2,422.3z M212.3,417.2c-0.1-0.6-0.3-1.1-0.7-1.5c-0.4-0.4-0.9-0.6-1.5-0.6
			c-0.3,0-0.6,0.1-0.8,0.2c-0.3,0.1-0.5,0.2-0.7,0.4c-0.2,0.2-0.3,0.4-0.5,0.7s-0.2,0.5-0.2,0.8H212.3z"/>
		<path class="st9" d="M218.2,422.3c-0.4,0-0.8-0.1-1.1-0.2s-0.7-0.3-0.9-0.6c-0.3-0.2-0.5-0.5-0.6-0.8c-0.1-0.3-0.2-0.7-0.2-1.1
			c0-0.4,0.1-0.8,0.3-1.1c0.2-0.3,0.4-0.6,0.7-0.9c0.3-0.2,0.7-0.4,1.1-0.6c0.4-0.1,0.9-0.2,1.4-0.2c0.4,0,0.7,0,1.1,0.1
			c0.4,0.1,0.7,0.2,1,0.3v-0.5c0-0.6-0.2-1-0.5-1.3s-0.8-0.4-1.4-0.4c-0.4,0-0.9,0.1-1.3,0.2c-0.4,0.2-0.9,0.4-1.3,0.7l-0.7-1.4
			c1.1-0.7,2.2-1.1,3.5-1.1c1.2,0,2.1,0.3,2.8,0.9c0.7,0.6,1,1.4,1,2.6v2.6c0,0.2,0,0.4,0.1,0.5c0.1,0.1,0.2,0.1,0.4,0.2v1.8
			c-0.4,0.1-0.7,0.1-0.9,0.1c-0.4,0-0.7-0.1-0.9-0.3c-0.2-0.2-0.4-0.4-0.4-0.7l0-0.5c-0.4,0.5-0.8,0.9-1.4,1.1
			C219.4,422.1,218.8,422.3,218.2,422.3z M218.8,420.7c0.4,0,0.7-0.1,1-0.2c0.3-0.1,0.6-0.3,0.8-0.5c0.2-0.2,0.4-0.4,0.4-0.6v-1
			c-0.3-0.1-0.5-0.2-0.8-0.2c-0.3-0.1-0.6-0.1-0.9-0.1c-0.6,0-1,0.1-1.4,0.4c-0.4,0.3-0.5,0.6-0.5,1c0,0.4,0.1,0.7,0.4,0.9
			C218.1,420.6,218.4,420.7,218.8,420.7z"/>
		<path class="st9" d="M230.3,415.6c-0.7,0-1.2,0.1-1.7,0.4c-0.5,0.2-0.9,0.6-1.1,1.1v5.1h-2.1v-8.4h2v1.8c0.1-0.3,0.3-0.5,0.5-0.8
			c0.2-0.2,0.4-0.4,0.7-0.6c0.2-0.2,0.5-0.3,0.7-0.4c0.2-0.1,0.5-0.1,0.7-0.1c0.1,0,0.2,0,0.3,0s0.1,0,0.2,0V415.6z"/>
		<path class="st9" d="M230.8,417.9c0-0.6,0.1-1.1,0.3-1.7c0.2-0.5,0.5-1,0.9-1.4c0.4-0.4,0.8-0.7,1.4-0.9s1.2-0.4,1.8-0.4
			c0.9,0,1.7,0.2,2.3,0.6c0.6,0.4,1.1,0.9,1.4,1.6l-2.1,0.6c-0.2-0.3-0.4-0.5-0.7-0.7c-0.3-0.2-0.6-0.2-1-0.2
			c-0.3,0-0.6,0.1-0.9,0.2c-0.3,0.1-0.5,0.3-0.7,0.5c-0.2,0.2-0.4,0.5-0.5,0.8c-0.1,0.3-0.2,0.7-0.2,1c0,0.4,0.1,0.7,0.2,1
			c0.1,0.3,0.3,0.6,0.5,0.8c0.2,0.2,0.4,0.4,0.7,0.5c0.3,0.1,0.5,0.2,0.8,0.2c0.4,0,0.7-0.1,1.1-0.3c0.3-0.2,0.6-0.4,0.7-0.7
			l2.1,0.6c-0.3,0.6-0.8,1.2-1.4,1.6c-0.7,0.4-1.5,0.6-2.4,0.6c-0.7,0-1.3-0.1-1.8-0.4c-0.5-0.2-1-0.6-1.4-1
			c-0.4-0.4-0.7-0.9-0.9-1.4S230.8,418.5,230.8,417.9z"/>
		<path class="st9" d="M248.1,422.1H246v-4.7c0-0.7-0.1-1.1-0.4-1.5c-0.2-0.3-0.6-0.5-1-0.5c-0.2,0-0.4,0-0.6,0.1
			c-0.2,0.1-0.4,0.2-0.6,0.4c-0.2,0.2-0.4,0.3-0.5,0.6c-0.2,0.2-0.3,0.4-0.4,0.7v4.9h-2.1v-11.7h2.1v4.8c0.3-0.5,0.7-1,1.3-1.3
			s1.1-0.4,1.8-0.4c0.5,0,1,0.1,1.3,0.3c0.3,0.2,0.6,0.4,0.8,0.7c0.2,0.3,0.3,0.7,0.4,1.1c0.1,0.4,0.1,0.8,0.1,1.2V422.1z"/>
		<path class="st9" d="M256.1,422.3c-0.4,0-0.8-0.1-1.1-0.2s-0.7-0.3-0.9-0.6c-0.3-0.2-0.5-0.5-0.6-0.8c-0.1-0.3-0.2-0.7-0.2-1.1
			c0-0.4,0.1-0.8,0.3-1.1s0.4-0.6,0.7-0.9c0.3-0.2,0.7-0.4,1.1-0.6c0.4-0.1,0.9-0.2,1.4-0.2c0.4,0,0.7,0,1.1,0.1
			c0.4,0.1,0.7,0.2,1,0.3v-0.5c0-0.6-0.2-1-0.5-1.3s-0.8-0.4-1.4-0.4c-0.4,0-0.9,0.1-1.3,0.2c-0.4,0.2-0.9,0.4-1.3,0.7l-0.7-1.4
			c1.1-0.7,2.2-1.1,3.5-1.1c1.2,0,2.1,0.3,2.8,0.9c0.7,0.6,1,1.4,1,2.6v2.6c0,0.2,0,0.4,0.1,0.5c0.1,0.1,0.2,0.1,0.4,0.2v1.8
			c-0.4,0.1-0.7,0.1-0.9,0.1c-0.4,0-0.7-0.1-0.9-0.3c-0.2-0.2-0.4-0.4-0.4-0.7l0-0.5c-0.4,0.5-0.8,0.9-1.4,1.1
			C257.3,422.1,256.8,422.3,256.1,422.3z M256.8,420.7c0.4,0,0.7-0.1,1-0.2c0.3-0.1,0.6-0.3,0.8-0.5c0.2-0.2,0.4-0.4,0.4-0.6v-1
			c-0.3-0.1-0.5-0.2-0.8-0.2s-0.6-0.1-0.9-0.1c-0.6,0-1,0.1-1.4,0.4c-0.4,0.3-0.5,0.6-0.5,1c0,0.4,0.1,0.7,0.4,0.9
			C256,420.6,256.4,420.7,256.8,420.7z"/>
		<path class="st9" d="M271,422.1h-2.1v-4.7c0-0.7-0.1-1.2-0.4-1.5s-0.6-0.5-1-0.5c-0.2,0-0.4,0-0.7,0.1c-0.2,0.1-0.4,0.2-0.6,0.4
			c-0.2,0.2-0.4,0.3-0.5,0.6c-0.2,0.2-0.3,0.4-0.4,0.7v4.9h-2.1v-8.4h1.9v1.6c0.3-0.5,0.8-0.9,1.3-1.2s1.2-0.4,2-0.4
			c0.5,0,0.9,0.1,1.3,0.3c0.3,0.2,0.6,0.4,0.8,0.8c0.2,0.3,0.3,0.7,0.4,1.1s0.1,0.8,0.1,1.2V422.1z"/>
		<path class="st9" d="M276.4,422.3c-0.6,0-1.1-0.1-1.6-0.3c-0.5-0.2-0.9-0.5-1.3-0.9s-0.6-0.9-0.8-1.4c-0.2-0.5-0.3-1.1-0.3-1.7
			c0-0.6,0.1-1.2,0.3-1.7c0.2-0.5,0.4-1,0.8-1.4c0.3-0.4,0.7-0.7,1.2-0.9c0.5-0.2,1-0.3,1.5-0.3c0.6,0,1.2,0.1,1.7,0.4
			s0.9,0.7,1.2,1.2v-4.8h2.1v9.2c0,0.2,0,0.4,0.1,0.5c0.1,0.1,0.2,0.1,0.4,0.2v1.8c-0.4,0.1-0.7,0.1-0.9,0.1c-0.4,0-0.7-0.1-0.9-0.3
			c-0.2-0.2-0.4-0.4-0.4-0.8l0-0.5c-0.3,0.5-0.7,0.9-1.3,1.2C277.5,422.1,276.9,422.3,276.4,422.3z M276.9,420.4
			c0.2,0,0.4,0,0.6-0.1s0.4-0.2,0.6-0.3c0.2-0.1,0.3-0.3,0.5-0.4s0.3-0.4,0.3-0.6v-2c-0.1-0.2-0.2-0.5-0.4-0.6s-0.3-0.4-0.5-0.5
			c-0.2-0.1-0.4-0.3-0.6-0.3c-0.2-0.1-0.4-0.1-0.6-0.1c-0.3,0-0.6,0.1-0.9,0.2s-0.5,0.3-0.7,0.6c-0.2,0.2-0.3,0.5-0.4,0.8
			c-0.1,0.3-0.2,0.6-0.2,1c0,0.4,0.1,0.7,0.2,1c0.1,0.3,0.3,0.6,0.5,0.8c0.2,0.2,0.4,0.4,0.7,0.5
			C276.3,420.4,276.6,420.4,276.9,420.4z"/>
	</g>
	<g class="st0">
		<path class="st9" d="M178.9,435.3v-11.4h4.1c0.9,0,1.7,0.1,2.4,0.4s1.3,0.7,1.8,1.2c0.5,0.5,0.8,1.1,1.1,1.8
			c0.2,0.7,0.4,1.4,0.4,2.2c0,0.9-0.1,1.6-0.4,2.3c-0.3,0.7-0.6,1.3-1.1,1.8c-0.5,0.5-1.1,0.9-1.8,1.2c-0.7,0.3-1.5,0.4-2.3,0.4
			H178.9z M186.4,429.6c0-0.5-0.1-1-0.2-1.5c-0.1-0.5-0.4-0.9-0.7-1.2c-0.3-0.3-0.6-0.6-1.1-0.8c-0.4-0.2-0.9-0.3-1.4-0.3h-1.9v7.5
			h1.9c0.5,0,1-0.1,1.4-0.3c0.4-0.2,0.8-0.5,1.1-0.8s0.5-0.7,0.6-1.2C186.4,430.6,186.4,430.1,186.4,429.6z"/>
		<path class="st9" d="M194.2,435.5c-0.7,0-1.3-0.1-1.8-0.3c-0.5-0.2-1-0.5-1.4-0.9c-0.4-0.4-0.7-0.9-0.9-1.4s-0.3-1.1-0.3-1.6
			c0-0.6,0.1-1.2,0.3-1.7s0.5-1,0.9-1.4c0.4-0.4,0.9-0.7,1.4-1c0.5-0.2,1.2-0.4,1.8-0.4s1.3,0.1,1.8,0.4s1,0.5,1.4,0.9
			c0.4,0.4,0.7,0.9,0.9,1.4c0.2,0.5,0.3,1.1,0.3,1.6c0,0.1,0,0.3,0,0.4c0,0.1,0,0.2,0,0.3H192c0,0.3,0.1,0.6,0.2,0.9
			s0.3,0.5,0.5,0.7s0.4,0.3,0.7,0.4c0.3,0.1,0.5,0.1,0.8,0.1c0.4,0,0.8-0.1,1.2-0.3s0.6-0.5,0.8-0.8l1.8,0.5
			c-0.3,0.6-0.8,1.2-1.5,1.6C195.9,435.3,195.1,435.5,194.2,435.5z M196.4,430.4c-0.1-0.6-0.3-1.1-0.7-1.5c-0.4-0.4-0.9-0.6-1.5-0.6
			c-0.3,0-0.6,0.1-0.8,0.2c-0.3,0.1-0.5,0.2-0.7,0.4c-0.2,0.2-0.3,0.4-0.5,0.7s-0.2,0.5-0.2,0.8H196.4z"/>
		<path class="st9" d="M202.1,435.3l-3.1-8.4h2.2l2.1,6.6l2.1-6.6h2l-3.1,8.4H202.1z"/>
		<path class="st9" d="M212.4,435.5c-0.7,0-1.3-0.1-1.8-0.3c-0.5-0.2-1-0.5-1.4-0.9c-0.4-0.4-0.7-0.9-0.9-1.4s-0.3-1.1-0.3-1.6
			c0-0.6,0.1-1.2,0.3-1.7s0.5-1,0.9-1.4c0.4-0.4,0.9-0.7,1.4-1c0.5-0.2,1.2-0.4,1.8-0.4s1.3,0.1,1.8,0.4s1,0.5,1.4,0.9
			c0.4,0.4,0.7,0.9,0.9,1.4c0.2,0.5,0.3,1.1,0.3,1.6c0,0.1,0,0.3,0,0.4c0,0.1,0,0.2,0,0.3h-6.5c0,0.3,0.1,0.6,0.2,0.9
			s0.3,0.5,0.5,0.7s0.4,0.3,0.7,0.4c0.3,0.1,0.5,0.1,0.8,0.1c0.4,0,0.8-0.1,1.2-0.3s0.6-0.5,0.8-0.8l1.8,0.5
			c-0.3,0.6-0.8,1.2-1.5,1.6C214.1,435.3,213.3,435.5,212.4,435.5z M214.5,430.4c-0.1-0.6-0.3-1.1-0.7-1.5c-0.4-0.4-0.9-0.6-1.5-0.6
			c-0.3,0-0.6,0.1-0.8,0.2c-0.3,0.1-0.5,0.2-0.7,0.4c-0.2,0.2-0.3,0.4-0.5,0.7s-0.2,0.5-0.2,0.8H214.5z"/>
		<path class="st9" d="M218.1,423.6h2.1v9c0,0.3,0.1,0.5,0.2,0.7c0.1,0.2,0.4,0.3,0.6,0.3c0.1,0,0.3,0,0.4-0.1
			c0.2,0,0.3-0.1,0.4-0.2l0.3,1.6c-0.3,0.1-0.6,0.2-1,0.3c-0.4,0.1-0.7,0.1-1,0.1c-0.7,0-1.2-0.2-1.6-0.5c-0.4-0.4-0.6-0.9-0.6-1.5
			V423.6z"/>
		<path class="st9" d="M227.1,435.5c-0.7,0-1.3-0.1-1.8-0.4c-0.5-0.2-1-0.6-1.4-1c-0.4-0.4-0.7-0.9-0.9-1.4
			c-0.2-0.5-0.3-1.1-0.3-1.6c0-0.6,0.1-1.1,0.3-1.7s0.5-1,0.9-1.4c0.4-0.4,0.8-0.7,1.4-1s1.2-0.4,1.8-0.4c0.7,0,1.3,0.1,1.8,0.4
			c0.5,0.2,1,0.6,1.4,1c0.4,0.4,0.7,0.9,0.9,1.4c0.2,0.5,0.3,1.1,0.3,1.7c0,0.6-0.1,1.1-0.3,1.6c-0.2,0.5-0.5,1-0.9,1.4
			c-0.4,0.4-0.8,0.7-1.4,1C228.4,435.3,227.8,435.5,227.1,435.5z M224.9,431.1c0,0.4,0.1,0.7,0.2,1c0.1,0.3,0.3,0.6,0.5,0.8
			c0.2,0.2,0.4,0.4,0.7,0.5c0.3,0.1,0.6,0.2,0.9,0.2c0.3,0,0.6-0.1,0.9-0.2c0.3-0.1,0.5-0.3,0.7-0.5c0.2-0.2,0.4-0.5,0.5-0.8
			c0.1-0.3,0.2-0.7,0.2-1c0-0.4-0.1-0.7-0.2-1c-0.1-0.3-0.3-0.6-0.5-0.8c-0.2-0.2-0.4-0.4-0.7-0.5c-0.3-0.1-0.6-0.2-0.9-0.2
			c-0.3,0-0.6,0.1-0.9,0.2s-0.5,0.3-0.7,0.5c-0.2,0.2-0.4,0.5-0.5,0.8C224.9,430.4,224.9,430.8,224.9,431.1z"/>
		<path class="st9" d="M237.9,435.5c-0.7,0-1.2-0.1-1.7-0.4c-0.5-0.3-0.9-0.7-1.2-1.2v4.9h-2.1v-11.8h1.9v1.4
			c0.3-0.5,0.7-0.9,1.2-1.2c0.5-0.3,1.1-0.4,1.7-0.4c0.6,0,1.1,0.1,1.6,0.3c0.5,0.2,0.9,0.5,1.2,0.9c0.3,0.4,0.6,0.8,0.8,1.4
			c0.2,0.5,0.3,1.1,0.3,1.7c0,0.6-0.1,1.2-0.3,1.7s-0.4,1-0.8,1.4c-0.3,0.4-0.7,0.7-1.2,0.9C239,435.4,238.5,435.5,237.9,435.5z
			 M237.2,433.6c0.3,0,0.6-0.1,0.9-0.2s0.5-0.3,0.7-0.6c0.2-0.2,0.3-0.5,0.4-0.8c0.1-0.3,0.2-0.6,0.2-1c0-0.4-0.1-0.7-0.2-1
			c-0.1-0.3-0.3-0.6-0.5-0.8c-0.2-0.2-0.5-0.4-0.7-0.5s-0.6-0.2-0.9-0.2c-0.2,0-0.4,0-0.6,0.1s-0.4,0.2-0.6,0.3
			c-0.2,0.1-0.3,0.3-0.5,0.4c-0.1,0.2-0.3,0.4-0.3,0.6v2c0.2,0.5,0.5,0.9,0.9,1.2S236.8,433.6,237.2,433.6z"/>
		<path class="st9" d="M256.1,435.3H254v-4.7c0-0.7-0.1-1.2-0.3-1.5c-0.2-0.3-0.5-0.5-1-0.5c-0.4,0-0.8,0.2-1.2,0.5
			c-0.4,0.3-0.6,0.8-0.8,1.3v4.9h-2.1v-4.7c0-0.7-0.1-1.2-0.3-1.5c-0.2-0.3-0.5-0.5-1-0.5c-0.4,0-0.8,0.2-1.2,0.5s-0.6,0.7-0.8,1.3
			v4.9h-2.1v-8.4h1.9v1.6c0.3-0.5,0.7-1,1.3-1.3s1.2-0.4,1.8-0.4c0.7,0,1.2,0.2,1.6,0.5c0.4,0.3,0.6,0.8,0.7,1.3
			c0.3-0.6,0.8-1,1.3-1.3c0.5-0.3,1.1-0.5,1.8-0.5c0.5,0,0.9,0.1,1.3,0.3c0.3,0.2,0.6,0.4,0.8,0.8c0.2,0.3,0.3,0.7,0.4,1.1
			c0.1,0.4,0.1,0.8,0.1,1.2V435.3z"/>
		<path class="st9" d="M261.9,435.5c-0.7,0-1.3-0.1-1.8-0.3c-0.5-0.2-1-0.5-1.4-0.9c-0.4-0.4-0.7-0.9-0.9-1.4
			c-0.2-0.5-0.3-1.1-0.3-1.6c0-0.6,0.1-1.2,0.3-1.7c0.2-0.5,0.5-1,0.9-1.4c0.4-0.4,0.8-0.7,1.4-1c0.5-0.2,1.2-0.4,1.8-0.4
			c0.7,0,1.3,0.1,1.8,0.4c0.5,0.2,1,0.5,1.4,0.9c0.4,0.4,0.7,0.9,0.9,1.4c0.2,0.5,0.3,1.1,0.3,1.6c0,0.1,0,0.3,0,0.4s0,0.2,0,0.3
			h-6.5c0,0.3,0.1,0.6,0.2,0.9c0.1,0.3,0.3,0.5,0.5,0.7c0.2,0.2,0.4,0.3,0.7,0.4c0.3,0.1,0.5,0.1,0.8,0.1c0.4,0,0.8-0.1,1.2-0.3
			s0.6-0.5,0.8-0.8l1.8,0.5c-0.3,0.6-0.8,1.2-1.5,1.6C263.6,435.3,262.8,435.5,261.9,435.5z M264.1,430.4c-0.1-0.6-0.3-1.1-0.7-1.5
			c-0.4-0.4-0.9-0.6-1.5-0.6c-0.3,0-0.6,0.1-0.8,0.2c-0.3,0.1-0.5,0.2-0.7,0.4c-0.2,0.2-0.3,0.4-0.5,0.7s-0.2,0.5-0.2,0.8H264.1z"/>
		<path class="st9" d="M275.4,435.3h-2.1v-4.7c0-0.7-0.1-1.2-0.4-1.5c-0.2-0.3-0.6-0.5-1-0.5c-0.2,0-0.4,0-0.7,0.1
			c-0.2,0.1-0.4,0.2-0.6,0.4c-0.2,0.2-0.4,0.3-0.5,0.6c-0.2,0.2-0.3,0.4-0.4,0.7v4.9h-2.1v-8.4h1.9v1.6c0.3-0.5,0.8-0.9,1.3-1.2
			s1.2-0.4,2-0.4c0.5,0,0.9,0.1,1.3,0.3c0.3,0.2,0.6,0.4,0.8,0.8c0.2,0.3,0.3,0.7,0.4,1.1s0.1,0.8,0.1,1.2V435.3z"/>
		<path class="st9" d="M282.2,434.9c-0.3,0.1-0.6,0.3-1.1,0.4s-0.9,0.2-1.3,0.2c-0.3,0-0.6,0-0.8-0.1c-0.3-0.1-0.5-0.2-0.7-0.4
			c-0.2-0.2-0.4-0.4-0.5-0.6s-0.2-0.6-0.2-1v-4.8h-1.1v-1.6h1.1v-2.7h2.1v2.7h1.8v1.6h-1.8v4.1c0,0.3,0.1,0.5,0.2,0.6
			s0.3,0.2,0.6,0.2c0.2,0,0.4,0,0.7-0.1c0.2-0.1,0.4-0.1,0.5-0.2L282.2,434.9z"/>
	</g>
	<g class="st0">
		<path class="st9" d="M51.2,319.6h2l4.3,11.4h-2.3l-1.1-2.8h-4l-1,2.8h-2.3L51.2,319.6z M53.8,326.5l-1.6-4.5l-1.6,4.5H53.8z"/>
		<path class="st9" d="M62,331.1c-0.6,0-1.1-0.1-1.6-0.3c-0.5-0.2-0.9-0.5-1.3-0.9s-0.6-0.9-0.8-1.4c-0.2-0.5-0.3-1.1-0.3-1.7
			c0-0.6,0.1-1.2,0.3-1.7c0.2-0.5,0.4-1,0.8-1.4s0.7-0.7,1.2-0.9c0.5-0.2,1-0.3,1.5-0.3c0.6,0,1.2,0.1,1.7,0.4s0.9,0.7,1.2,1.2v-4.8
			h2.1v9.2c0,0.2,0,0.4,0.1,0.5c0.1,0.1,0.2,0.1,0.4,0.2v1.8c-0.4,0.1-0.7,0.1-0.9,0.1c-0.4,0-0.7-0.1-0.9-0.3
			c-0.2-0.2-0.4-0.4-0.4-0.8l0-0.5c-0.3,0.5-0.7,0.9-1.3,1.2C63.1,331,62.5,331.1,62,331.1z M62.5,329.3c0.2,0,0.4,0,0.6-0.1
			s0.4-0.2,0.6-0.3c0.2-0.1,0.3-0.3,0.5-0.4s0.3-0.4,0.3-0.6v-2c-0.1-0.2-0.2-0.5-0.4-0.6c-0.2-0.2-0.3-0.4-0.5-0.5
			c-0.2-0.1-0.4-0.3-0.6-0.3c-0.2-0.1-0.4-0.1-0.6-0.1c-0.3,0-0.6,0.1-0.9,0.2s-0.5,0.3-0.7,0.6c-0.2,0.2-0.3,0.5-0.4,0.8
			c-0.1,0.3-0.2,0.6-0.2,1c0,0.4,0.1,0.7,0.2,1c0.1,0.3,0.3,0.6,0.5,0.8c0.2,0.2,0.4,0.4,0.7,0.5C61.9,329.2,62.2,329.3,62.5,329.3z
			"/>
		<path class="st9" d="M81.8,330.9h-2.1v-4.7c0-0.7-0.1-1.2-0.3-1.5c-0.2-0.3-0.5-0.5-1-0.5c-0.4,0-0.8,0.2-1.2,0.5
			c-0.4,0.3-0.6,0.8-0.8,1.3v4.9h-2.1v-4.7c0-0.7-0.1-1.2-0.3-1.5s-0.5-0.5-1-0.5c-0.4,0-0.8,0.2-1.2,0.5c-0.4,0.3-0.6,0.7-0.8,1.3
			v4.9h-2.1v-8.4h1.9v1.6c0.3-0.5,0.7-1,1.3-1.3c0.5-0.3,1.2-0.4,1.8-0.4c0.7,0,1.2,0.2,1.6,0.5c0.4,0.3,0.6,0.8,0.7,1.3
			c0.3-0.6,0.8-1,1.3-1.3c0.5-0.3,1.1-0.5,1.8-0.5c0.5,0,0.9,0.1,1.3,0.3c0.3,0.2,0.6,0.4,0.8,0.8c0.2,0.3,0.3,0.7,0.4,1.1
			s0.1,0.8,0.1,1.2V330.9z"/>
		<path class="st9" d="M83.6,321.4v-2.1h2.1v2.1H83.6z M83.6,330.9v-8.4h2.1v8.4H83.6z"/>
		<path class="st9" d="M95.4,330.9h-2.1v-4.7c0-0.7-0.1-1.2-0.4-1.5c-0.2-0.3-0.6-0.5-1-0.5c-0.2,0-0.4,0-0.7,0.1
			c-0.2,0.1-0.4,0.2-0.6,0.4c-0.2,0.2-0.4,0.3-0.5,0.6c-0.2,0.2-0.3,0.4-0.4,0.7v4.9h-2.1v-8.4h1.9v1.6c0.3-0.5,0.8-0.9,1.3-1.2
			s1.2-0.4,2-0.4c0.5,0,0.9,0.1,1.3,0.3c0.3,0.2,0.6,0.4,0.8,0.8c0.2,0.3,0.3,0.7,0.4,1.1s0.1,0.8,0.1,1.2V330.9z"/>
		<path class="st9" d="M103.4,331.1c-0.4,0-0.8-0.1-1.1-0.2s-0.7-0.3-0.9-0.6c-0.3-0.2-0.5-0.5-0.6-0.8c-0.1-0.3-0.2-0.7-0.2-1.1
			c0-0.4,0.1-0.8,0.3-1.1c0.2-0.3,0.4-0.6,0.7-0.9c0.3-0.2,0.7-0.4,1.1-0.6c0.4-0.1,0.9-0.2,1.4-0.2c0.4,0,0.7,0,1.1,0.1
			c0.4,0.1,0.7,0.2,1,0.3v-0.5c0-0.6-0.2-1-0.5-1.3s-0.8-0.4-1.4-0.4c-0.4,0-0.9,0.1-1.3,0.2c-0.4,0.2-0.9,0.4-1.3,0.7l-0.7-1.4
			c1.1-0.7,2.2-1.1,3.5-1.1c1.2,0,2.1,0.3,2.8,0.9c0.7,0.6,1,1.4,1,2.6v2.6c0,0.2,0,0.4,0.1,0.5c0.1,0.1,0.2,0.1,0.4,0.2v1.8
			c-0.4,0.1-0.7,0.1-0.9,0.1c-0.4,0-0.7-0.1-0.9-0.3c-0.2-0.2-0.4-0.4-0.4-0.7l0-0.5c-0.4,0.5-0.8,0.9-1.4,1.1
			C104.6,331,104.1,331.1,103.4,331.1z M104.1,329.5c0.4,0,0.7-0.1,1-0.2c0.3-0.1,0.6-0.3,0.8-0.5c0.2-0.2,0.4-0.4,0.4-0.6v-1
			c-0.3-0.1-0.5-0.2-0.8-0.2c-0.3-0.1-0.6-0.1-0.9-0.1c-0.6,0-1,0.1-1.4,0.4c-0.4,0.3-0.5,0.6-0.5,1c0,0.4,0.1,0.7,0.4,0.9
			C103.3,329.4,103.6,329.5,104.1,329.5z"/>
		<path class="st9" d="M118.3,330.9h-2.1v-4.7c0-0.7-0.1-1.2-0.4-1.5c-0.2-0.3-0.6-0.5-1-0.5c-0.2,0-0.4,0-0.7,0.1
			c-0.2,0.1-0.4,0.2-0.6,0.4c-0.2,0.2-0.4,0.3-0.5,0.6c-0.2,0.2-0.3,0.4-0.4,0.7v4.9h-2.1v-8.4h1.9v1.6c0.3-0.5,0.8-0.9,1.3-1.2
			s1.2-0.4,2-0.4c0.5,0,0.9,0.1,1.3,0.3c0.3,0.2,0.6,0.4,0.8,0.8c0.2,0.3,0.3,0.7,0.4,1.1s0.1,0.8,0.1,1.2V330.9z"/>
		<path class="st9" d="M123.6,331.1c-0.6,0-1.1-0.1-1.6-0.3c-0.5-0.2-0.9-0.5-1.3-0.9s-0.6-0.9-0.8-1.4c-0.2-0.5-0.3-1.1-0.3-1.7
			c0-0.6,0.1-1.2,0.3-1.7c0.2-0.5,0.4-1,0.8-1.4s0.7-0.7,1.2-0.9c0.5-0.2,1-0.3,1.5-0.3c0.6,0,1.2,0.1,1.7,0.4s0.9,0.7,1.2,1.2v-4.8
			h2.1v9.2c0,0.2,0,0.4,0.1,0.5c0.1,0.1,0.2,0.1,0.4,0.2v1.8c-0.4,0.1-0.7,0.1-0.9,0.1c-0.4,0-0.7-0.1-0.9-0.3
			c-0.2-0.2-0.4-0.4-0.4-0.8l0-0.5c-0.3,0.5-0.7,0.9-1.3,1.2C124.8,331,124.2,331.1,123.6,331.1z M124.2,329.3c0.2,0,0.4,0,0.6-0.1
			s0.4-0.2,0.6-0.3c0.2-0.1,0.3-0.3,0.5-0.4s0.3-0.4,0.3-0.6v-2c-0.1-0.2-0.2-0.5-0.4-0.6c-0.2-0.2-0.3-0.4-0.5-0.5
			c-0.2-0.1-0.4-0.3-0.6-0.3c-0.2-0.1-0.4-0.1-0.6-0.1c-0.3,0-0.6,0.1-0.9,0.2s-0.5,0.3-0.7,0.6c-0.2,0.2-0.3,0.5-0.4,0.8
			c-0.1,0.3-0.2,0.6-0.2,1c0,0.4,0.1,0.7,0.2,1c0.1,0.3,0.3,0.6,0.5,0.8c0.2,0.2,0.4,0.4,0.7,0.5
			C123.6,329.2,123.9,329.3,124.2,329.3z"/>
	</g>
	<g class="st0">
		<path class="st9" d="M52.5,344.2c-0.8,0-1.6-0.2-2.3-0.5c-0.7-0.3-1.3-0.8-1.7-1.3c-0.5-0.5-0.9-1.2-1.1-1.8s-0.4-1.4-0.4-2.1
			c0-0.8,0.1-1.5,0.4-2.2c0.3-0.7,0.7-1.3,1.2-1.8c0.5-0.5,1.1-1,1.8-1.3s1.4-0.5,2.2-0.5c0.8,0,1.6,0.2,2.2,0.5
			c0.7,0.3,1.3,0.8,1.7,1.3s0.9,1.2,1.1,1.9s0.4,1.4,0.4,2.1c0,0.8-0.1,1.5-0.4,2.2c-0.3,0.7-0.7,1.3-1.2,1.8
			c-0.5,0.5-1.1,1-1.8,1.3S53.3,344.2,52.5,344.2z M49.2,338.4c0,0.5,0.1,1,0.2,1.4s0.4,0.9,0.6,1.2s0.6,0.6,1,0.8
			c0.4,0.2,0.9,0.3,1.4,0.3c0.5,0,1-0.1,1.4-0.3s0.8-0.5,1-0.9c0.3-0.4,0.5-0.8,0.6-1.2s0.2-0.9,0.2-1.4c0-0.5-0.1-1-0.2-1.4
			c-0.2-0.5-0.4-0.9-0.7-1.2c-0.3-0.4-0.6-0.6-1-0.8c-0.4-0.2-0.9-0.3-1.4-0.3c-0.5,0-1,0.1-1.4,0.3s-0.8,0.5-1,0.9
			s-0.5,0.8-0.6,1.2C49.3,337.5,49.2,338,49.2,338.4z"/>
		<path class="st9" d="M64.7,344.3c-0.7,0-1.2-0.1-1.7-0.4c-0.5-0.3-0.9-0.7-1.2-1.2v4.9h-2.1v-11.8h1.9v1.4
			c0.3-0.5,0.7-0.9,1.2-1.2c0.5-0.3,1.1-0.4,1.7-0.4c0.6,0,1.1,0.1,1.6,0.3s0.9,0.5,1.2,0.9s0.6,0.8,0.8,1.4
			c0.2,0.5,0.3,1.1,0.3,1.7c0,0.6-0.1,1.2-0.3,1.7c-0.2,0.5-0.4,1-0.8,1.4s-0.7,0.7-1.2,0.9C65.7,344.2,65.2,344.3,64.7,344.3z
			 M64,342.5c0.3,0,0.6-0.1,0.9-0.2s0.5-0.3,0.7-0.6c0.2-0.2,0.3-0.5,0.4-0.8c0.1-0.3,0.2-0.6,0.2-1c0-0.4-0.1-0.7-0.2-1
			c-0.1-0.3-0.3-0.6-0.5-0.8c-0.2-0.2-0.5-0.4-0.7-0.5s-0.6-0.2-0.9-0.2c-0.2,0-0.4,0-0.6,0.1s-0.4,0.2-0.6,0.3
			c-0.2,0.1-0.3,0.3-0.5,0.4c-0.1,0.2-0.3,0.4-0.3,0.6v2c0.2,0.5,0.5,0.9,0.9,1.2S63.5,342.5,64,342.5z"/>
		<path class="st9" d="M73.8,344.3c-0.7,0-1.3-0.1-1.8-0.3c-0.5-0.2-1-0.5-1.4-0.9c-0.4-0.4-0.7-0.9-0.9-1.4s-0.3-1.1-0.3-1.6
			c0-0.6,0.1-1.2,0.3-1.7s0.5-1,0.9-1.4c0.4-0.4,0.9-0.7,1.4-1c0.5-0.2,1.2-0.4,1.8-0.4s1.3,0.1,1.8,0.4s1,0.5,1.4,0.9
			c0.4,0.4,0.7,0.9,0.9,1.4c0.2,0.5,0.3,1.1,0.3,1.6c0,0.1,0,0.3,0,0.4c0,0.1,0,0.2,0,0.3h-6.5c0,0.3,0.1,0.6,0.2,0.9
			s0.3,0.5,0.5,0.7s0.4,0.3,0.7,0.4c0.3,0.1,0.5,0.1,0.8,0.1c0.4,0,0.8-0.1,1.2-0.3s0.6-0.5,0.8-0.8l1.8,0.5
			c-0.3,0.6-0.8,1.2-1.5,1.6C75.5,344.1,74.7,344.3,73.8,344.3z M76,339.2c-0.1-0.6-0.3-1.1-0.7-1.5c-0.4-0.4-0.9-0.6-1.5-0.6
			c-0.3,0-0.6,0.1-0.8,0.2c-0.3,0.1-0.5,0.2-0.7,0.4c-0.2,0.2-0.3,0.4-0.5,0.7s-0.2,0.5-0.2,0.8H76z"/>
		<path class="st9" d="M84.5,337.6c-0.7,0-1.2,0.1-1.7,0.4c-0.5,0.2-0.9,0.6-1.1,1.1v5.1h-2.1v-8.4h2v1.8c0.1-0.3,0.3-0.5,0.5-0.8
			c0.2-0.2,0.4-0.4,0.7-0.6c0.2-0.2,0.5-0.3,0.7-0.4c0.2-0.1,0.5-0.1,0.7-0.1c0.1,0,0.2,0,0.3,0s0.1,0,0.2,0V337.6z"/>
		<path class="st9" d="M88.1,344.3c-0.4,0-0.8-0.1-1.1-0.2s-0.7-0.3-0.9-0.6c-0.3-0.2-0.5-0.5-0.6-0.8c-0.1-0.3-0.2-0.7-0.2-1.1
			c0-0.4,0.1-0.8,0.3-1.1c0.2-0.3,0.4-0.6,0.7-0.9c0.3-0.2,0.7-0.4,1.1-0.6c0.4-0.1,0.9-0.2,1.4-0.2c0.4,0,0.7,0,1.1,0.1
			c0.4,0.1,0.7,0.2,1,0.3v-0.5c0-0.6-0.2-1-0.5-1.3s-0.8-0.4-1.4-0.4c-0.4,0-0.9,0.1-1.3,0.2c-0.4,0.2-0.9,0.4-1.3,0.7l-0.7-1.4
			c1.1-0.7,2.2-1.1,3.5-1.1c1.2,0,2.1,0.3,2.8,0.9c0.7,0.6,1,1.4,1,2.6v2.6c0,0.2,0,0.4,0.1,0.5c0.1,0.1,0.2,0.1,0.4,0.2v1.8
			c-0.4,0.1-0.7,0.1-0.9,0.1c-0.4,0-0.7-0.1-0.9-0.3c-0.2-0.2-0.4-0.4-0.4-0.7l0-0.5c-0.4,0.5-0.8,0.9-1.4,1.1
			C89.3,344.2,88.7,344.3,88.1,344.3z M88.7,342.7c0.4,0,0.7-0.1,1-0.2c0.3-0.1,0.6-0.3,0.8-0.5c0.2-0.2,0.4-0.4,0.4-0.6v-1
			c-0.3-0.1-0.5-0.2-0.8-0.2c-0.3-0.1-0.6-0.1-0.9-0.1c-0.6,0-1,0.1-1.4,0.4c-0.4,0.3-0.5,0.6-0.5,1c0,0.4,0.1,0.7,0.4,0.9
			C87.9,342.6,88.3,342.7,88.7,342.7z"/>
		<path class="st9" d="M99.8,343.7c-0.3,0.1-0.6,0.3-1.1,0.4s-0.9,0.2-1.3,0.2c-0.3,0-0.6,0-0.8-0.1c-0.3-0.1-0.5-0.2-0.7-0.4
			c-0.2-0.2-0.4-0.4-0.5-0.6s-0.2-0.6-0.2-1v-4.8h-1.1v-1.6h1.1V333h2.1v2.7h1.8v1.6h-1.8v4.1c0,0.3,0.1,0.5,0.2,0.6
			c0.2,0.1,0.3,0.2,0.6,0.2s0.4,0,0.7-0.1c0.2-0.1,0.4-0.1,0.5-0.2L99.8,343.7z"/>
		<path class="st9" d="M101.1,334.6v-2.1h2.1v2.1H101.1z M101.1,344.1v-8.4h2.1v8.4H101.1z"/>
		<path class="st9" d="M109.1,344.3c-0.7,0-1.3-0.1-1.8-0.4c-0.5-0.2-1-0.6-1.4-1c-0.4-0.4-0.7-0.9-0.9-1.4
			c-0.2-0.5-0.3-1.1-0.3-1.6c0-0.6,0.1-1.1,0.3-1.7s0.5-1,0.9-1.4c0.4-0.4,0.8-0.7,1.4-1s1.2-0.4,1.8-0.4c0.7,0,1.3,0.1,1.8,0.4
			c0.5,0.2,1,0.6,1.4,1c0.4,0.4,0.7,0.9,0.9,1.4c0.2,0.5,0.3,1.1,0.3,1.7c0,0.6-0.1,1.1-0.3,1.6c-0.2,0.5-0.5,1-0.9,1.4
			c-0.4,0.4-0.8,0.7-1.4,1C110.4,344.2,109.7,344.3,109.1,344.3z M106.9,340c0,0.4,0.1,0.7,0.2,1c0.1,0.3,0.3,0.6,0.5,0.8
			c0.2,0.2,0.4,0.4,0.7,0.5c0.3,0.1,0.6,0.2,0.9,0.2c0.3,0,0.6-0.1,0.9-0.2c0.3-0.1,0.5-0.3,0.7-0.5c0.2-0.2,0.4-0.5,0.5-0.8
			c0.1-0.3,0.2-0.7,0.2-1c0-0.4-0.1-0.7-0.2-1c-0.1-0.3-0.3-0.6-0.5-0.8c-0.2-0.2-0.4-0.4-0.7-0.5c-0.3-0.1-0.6-0.2-0.9-0.2
			c-0.3,0-0.6,0.1-0.9,0.2s-0.5,0.3-0.7,0.5c-0.2,0.2-0.4,0.5-0.5,0.8C106.9,339.3,106.9,339.6,106.9,340z"/>
		<path class="st9" d="M122.7,344.1h-2.1v-4.7c0-0.7-0.1-1.2-0.4-1.5c-0.2-0.3-0.6-0.5-1-0.5c-0.2,0-0.4,0-0.7,0.1
			c-0.2,0.1-0.4,0.2-0.6,0.4c-0.2,0.2-0.4,0.3-0.5,0.6c-0.2,0.2-0.3,0.4-0.4,0.7v4.9h-2.1v-8.4h1.9v1.6c0.3-0.5,0.8-0.9,1.3-1.2
			s1.2-0.4,2-0.4c0.5,0,0.9,0.1,1.3,0.3c0.3,0.2,0.6,0.4,0.8,0.8c0.2,0.3,0.3,0.7,0.4,1.1s0.1,0.8,0.1,1.2V344.1z"/>
		<path class="st9" d="M127.7,344.3c-0.7,0-1.4-0.1-2.1-0.3c-0.7-0.2-1.2-0.5-1.7-1l0.8-1.3c0.5,0.4,1,0.6,1.5,0.8s1,0.3,1.4,0.3
			c0.4,0,0.8-0.1,1-0.2c0.2-0.2,0.4-0.4,0.4-0.7s-0.1-0.5-0.4-0.7s-0.8-0.3-1.4-0.5c-0.5-0.1-1-0.3-1.4-0.4
			c-0.4-0.1-0.7-0.3-0.9-0.5c-0.2-0.2-0.4-0.4-0.5-0.6c-0.1-0.2-0.2-0.5-0.2-0.8c0-0.4,0.1-0.8,0.2-1.2c0.2-0.3,0.4-0.6,0.7-0.9
			c0.3-0.2,0.6-0.4,1-0.6c0.4-0.1,0.8-0.2,1.3-0.2c0.6,0,1.2,0.1,1.8,0.3c0.5,0.2,1.1,0.5,1.5,0.9l-0.9,1.3
			c-0.4-0.3-0.8-0.6-1.2-0.7c-0.4-0.1-0.8-0.2-1.2-0.2c-0.4,0-0.7,0.1-0.9,0.2c-0.2,0.1-0.4,0.4-0.4,0.7c0,0.1,0,0.3,0.1,0.4
			s0.2,0.2,0.3,0.3c0.1,0.1,0.3,0.1,0.5,0.2s0.5,0.1,0.8,0.2c0.6,0.2,1.1,0.3,1.5,0.4s0.7,0.3,1,0.5c0.3,0.2,0.5,0.4,0.6,0.7
			c0.1,0.3,0.2,0.6,0.2,0.9c0,0.8-0.3,1.5-0.9,1.9S128.8,344.3,127.7,344.3z"/>
	</g>
	<g class="st0">
		<path class="st9" d="M263.5,272.9v-11.4h2.2v11.4H263.5z"/>
		<path class="st9" d="M275.6,272.9h-2.1v-4.7c0-0.7-0.1-1.2-0.4-1.5c-0.2-0.3-0.6-0.5-1-0.5c-0.2,0-0.4,0-0.7,0.1
			c-0.2,0.1-0.4,0.2-0.6,0.4c-0.2,0.2-0.4,0.3-0.5,0.6c-0.2,0.2-0.3,0.4-0.4,0.7v4.9h-2.1v-8.4h1.9v1.6c0.3-0.5,0.8-0.9,1.3-1.2
			s1.2-0.4,2-0.4c0.5,0,0.9,0.1,1.3,0.3c0.3,0.2,0.6,0.4,0.8,0.8c0.2,0.3,0.3,0.7,0.4,1.1s0.1,0.8,0.1,1.2V272.9z"/>
		<path class="st9" d="M282.4,272.4c-0.3,0.1-0.6,0.3-1.1,0.4s-0.9,0.2-1.3,0.2c-0.3,0-0.6,0-0.8-0.1c-0.3-0.1-0.5-0.2-0.7-0.4
			c-0.2-0.2-0.4-0.4-0.5-0.6s-0.2-0.6-0.2-1v-4.8h-1.1v-1.6h1.1v-2.7h2.1v2.7h1.8v1.6H280v4.1c0,0.3,0.1,0.5,0.2,0.6
			s0.3,0.2,0.6,0.2s0.4,0,0.7-0.1c0.2-0.1,0.4-0.1,0.5-0.2L282.4,272.4z"/>
		<path class="st9" d="M287.4,273c-0.7,0-1.3-0.1-1.8-0.3c-0.5-0.2-1-0.5-1.4-0.9c-0.4-0.4-0.7-0.9-0.9-1.4s-0.3-1.1-0.3-1.6
			c0-0.6,0.1-1.2,0.3-1.7s0.5-1,0.9-1.4c0.4-0.4,0.9-0.7,1.4-1c0.5-0.2,1.2-0.4,1.8-0.4s1.3,0.1,1.8,0.4s1,0.5,1.4,0.9
			c0.4,0.4,0.7,0.9,0.9,1.4c0.2,0.5,0.3,1.1,0.3,1.6c0,0.1,0,0.3,0,0.4c0,0.1,0,0.2,0,0.3h-6.5c0,0.3,0.1,0.6,0.2,0.9
			s0.3,0.5,0.5,0.7s0.4,0.3,0.7,0.4c0.3,0.1,0.5,0.1,0.8,0.1c0.4,0,0.8-0.1,1.2-0.3c0.4-0.2,0.6-0.5,0.8-0.8l1.8,0.5
			c-0.3,0.6-0.8,1.2-1.5,1.6C289.2,272.8,288.4,273,287.4,273z M289.6,268c-0.1-0.6-0.3-1.1-0.7-1.5c-0.4-0.4-0.9-0.6-1.5-0.6
			c-0.3,0-0.6,0.1-0.8,0.2c-0.3,0.1-0.5,0.2-0.7,0.4c-0.2,0.2-0.3,0.4-0.5,0.7c-0.1,0.3-0.2,0.5-0.2,0.8H289.6z"/>
		<path class="st9" d="M298.1,266.3c-0.7,0-1.2,0.1-1.7,0.4c-0.5,0.2-0.9,0.6-1.1,1.1v5.1h-2.1v-8.4h2v1.8c0.2-0.3,0.3-0.5,0.5-0.8
			c0.2-0.2,0.4-0.4,0.7-0.6c0.2-0.2,0.5-0.3,0.7-0.4c0.2-0.1,0.5-0.1,0.7-0.1c0.1,0,0.2,0,0.3,0s0.1,0,0.2,0V266.3z"/>
		<path class="st9" d="M307.3,272.9h-2.1v-4.7c0-0.7-0.1-1.2-0.4-1.5s-0.6-0.5-1-0.5c-0.2,0-0.4,0-0.7,0.1c-0.2,0.1-0.4,0.2-0.6,0.4
			c-0.2,0.2-0.4,0.3-0.5,0.6c-0.2,0.2-0.3,0.4-0.4,0.7v4.9h-2.1v-8.4h1.9v1.6c0.3-0.5,0.8-0.9,1.3-1.2c0.6-0.3,1.2-0.4,2-0.4
			c0.5,0,0.9,0.1,1.3,0.3c0.3,0.2,0.6,0.4,0.8,0.8c0.2,0.3,0.3,0.7,0.4,1.1c0.1,0.4,0.1,0.8,0.1,1.2V272.9z"/>
		<path class="st9" d="M311.4,273c-0.4,0-0.8-0.1-1.1-0.2c-0.4-0.1-0.7-0.3-0.9-0.6c-0.3-0.2-0.5-0.5-0.6-0.8
			c-0.1-0.3-0.2-0.7-0.2-1.1c0-0.4,0.1-0.8,0.3-1.1c0.2-0.3,0.4-0.6,0.7-0.9c0.3-0.2,0.7-0.4,1.1-0.6c0.4-0.1,0.9-0.2,1.4-0.2
			c0.4,0,0.7,0,1.1,0.1c0.4,0.1,0.7,0.2,1,0.3v-0.5c0-0.6-0.2-1-0.5-1.3s-0.8-0.4-1.4-0.4c-0.4,0-0.9,0.1-1.3,0.2
			c-0.4,0.2-0.9,0.4-1.3,0.7l-0.7-1.4c1.1-0.7,2.2-1.1,3.5-1.1c1.2,0,2.1,0.3,2.8,0.9c0.7,0.6,1,1.4,1,2.6v2.6c0,0.2,0,0.4,0.1,0.5
			c0.1,0.1,0.2,0.1,0.4,0.2v1.8c-0.4,0.1-0.7,0.1-0.9,0.1c-0.4,0-0.7-0.1-0.9-0.3c-0.2-0.2-0.4-0.4-0.4-0.7l0-0.5
			c-0.4,0.5-0.8,0.9-1.4,1.1C312.6,272.9,312,273,311.4,273z M312,271.5c0.4,0,0.7-0.1,1-0.2s0.6-0.3,0.8-0.5
			c0.2-0.2,0.4-0.4,0.4-0.6v-1c-0.3-0.1-0.5-0.2-0.8-0.2s-0.6-0.1-0.9-0.1c-0.6,0-1,0.1-1.4,0.4c-0.4,0.3-0.5,0.6-0.5,1
			c0,0.4,0.1,0.7,0.4,0.9C311.3,271.3,311.6,271.5,312,271.5z"/>
		<path class="st9" d="M323.2,272.4c-0.3,0.1-0.6,0.3-1.1,0.4s-0.9,0.2-1.3,0.2c-0.3,0-0.6,0-0.8-0.1c-0.3-0.1-0.5-0.2-0.7-0.4
			c-0.2-0.2-0.4-0.4-0.5-0.6s-0.2-0.6-0.2-1v-4.8h-1.1v-1.6h1.1v-2.7h2.1v2.7h1.8v1.6h-1.8v4.1c0,0.3,0.1,0.5,0.2,0.6
			s0.3,0.2,0.6,0.2c0.2,0,0.4,0,0.7-0.1c0.2-0.1,0.4-0.1,0.5-0.2L323.2,272.4z"/>
		<path class="st9" d="M324.5,263.3v-2.1h2.1v2.1H324.5z M324.5,272.9v-8.4h2.1v8.4H324.5z"/>
		<path class="st9" d="M332.4,273c-0.7,0-1.3-0.1-1.8-0.4c-0.5-0.2-1-0.6-1.4-1c-0.4-0.4-0.7-0.9-0.9-1.4c-0.2-0.5-0.3-1.1-0.3-1.6
			c0-0.6,0.1-1.1,0.3-1.7c0.2-0.5,0.5-1,0.9-1.4c0.4-0.4,0.8-0.7,1.4-1c0.5-0.2,1.2-0.4,1.8-0.4s1.3,0.1,1.8,0.4
			c0.5,0.2,1,0.6,1.4,1c0.4,0.4,0.7,0.9,0.9,1.4c0.2,0.5,0.3,1.1,0.3,1.7c0,0.6-0.1,1.1-0.3,1.6c-0.2,0.5-0.5,1-0.9,1.4
			c-0.4,0.4-0.8,0.7-1.4,1C333.7,272.9,333.1,273,332.4,273z M330.2,268.7c0,0.4,0.1,0.7,0.2,1c0.1,0.3,0.3,0.6,0.5,0.8
			c0.2,0.2,0.4,0.4,0.7,0.5c0.3,0.1,0.6,0.2,0.9,0.2s0.6-0.1,0.9-0.2c0.3-0.1,0.5-0.3,0.7-0.5c0.2-0.2,0.4-0.5,0.5-0.8
			c0.1-0.3,0.2-0.7,0.2-1c0-0.4-0.1-0.7-0.2-1c-0.1-0.3-0.3-0.6-0.5-0.8s-0.4-0.4-0.7-0.5c-0.3-0.1-0.6-0.2-0.9-0.2
			s-0.6,0.1-0.9,0.2s-0.5,0.3-0.7,0.5c-0.2,0.2-0.4,0.5-0.5,0.8C330.3,268,330.2,268.3,330.2,268.7z"/>
		<path class="st9" d="M346,272.9h-2.1v-4.7c0-0.7-0.1-1.2-0.4-1.5c-0.2-0.3-0.6-0.5-1-0.5c-0.2,0-0.4,0-0.7,0.1
			c-0.2,0.1-0.4,0.2-0.6,0.4c-0.2,0.2-0.4,0.3-0.5,0.6c-0.2,0.2-0.3,0.4-0.4,0.7v4.9h-2.1v-8.4h1.9v1.6c0.3-0.5,0.8-0.9,1.3-1.2
			s1.2-0.4,2-0.4c0.5,0,0.9,0.1,1.3,0.3c0.3,0.2,0.6,0.4,0.8,0.8c0.2,0.3,0.3,0.7,0.4,1.1s0.1,0.8,0.1,1.2V272.9z"/>
		<path class="st9" d="M350.2,273c-0.4,0-0.8-0.1-1.1-0.2s-0.7-0.3-0.9-0.6c-0.3-0.2-0.5-0.5-0.6-0.8c-0.1-0.3-0.2-0.7-0.2-1.1
			c0-0.4,0.1-0.8,0.3-1.1c0.2-0.3,0.4-0.6,0.7-0.9c0.3-0.2,0.7-0.4,1.1-0.6c0.4-0.1,0.9-0.2,1.4-0.2c0.4,0,0.7,0,1.1,0.1
			c0.4,0.1,0.7,0.2,1,0.3v-0.5c0-0.6-0.2-1-0.5-1.3s-0.8-0.4-1.4-0.4c-0.4,0-0.9,0.1-1.3,0.2s-0.9,0.4-1.3,0.7l-0.7-1.4
			c1.1-0.7,2.2-1.1,3.5-1.1c1.2,0,2.1,0.3,2.8,0.9c0.7,0.6,1,1.4,1,2.6v2.6c0,0.2,0,0.4,0.1,0.5c0.1,0.1,0.2,0.1,0.4,0.2v1.8
			c-0.4,0.1-0.7,0.1-0.9,0.1c-0.4,0-0.7-0.1-0.9-0.3c-0.2-0.2-0.4-0.4-0.4-0.7l0-0.5c-0.4,0.5-0.8,0.9-1.4,1.1
			C351.4,272.9,350.8,273,350.2,273z M350.8,271.5c0.4,0,0.7-0.1,1-0.2c0.3-0.1,0.6-0.3,0.8-0.5c0.2-0.2,0.4-0.4,0.4-0.6v-1
			c-0.3-0.1-0.5-0.2-0.8-0.2c-0.3-0.1-0.6-0.1-0.9-0.1c-0.6,0-1,0.1-1.4,0.4c-0.4,0.3-0.5,0.6-0.5,1c0,0.4,0.1,0.7,0.4,0.9
			C350.1,271.3,350.4,271.5,350.8,271.5z"/>
		<path class="st9" d="M357.2,261.2h2.1v9c0,0.3,0.1,0.5,0.2,0.7s0.4,0.3,0.6,0.3c0.1,0,0.3,0,0.4-0.1c0.2,0,0.3-0.1,0.4-0.2
			l0.3,1.6c-0.3,0.1-0.6,0.2-1,0.3c-0.4,0.1-0.7,0.1-1,0.1c-0.7,0-1.2-0.2-1.6-0.5c-0.4-0.4-0.6-0.9-0.6-1.5V261.2z"/>
	</g>
	<g class="st0">
		<path class="st9" d="M277.4,284.1v1.9h-7.9v-11.4h7.7v1.9h-5.5v2.7h4.8v1.8h-4.8v3H277.4z"/>
		<path class="st9" d="M280.8,277.7l1.8,2.6l0.1,0.3l0.2-0.3l1.8-2.6h2.2l-3,4.2l3,4.2h-2.2l-1.9-2.6l-0.1-0.3l-0.1,0.3l-1.8,2.6
			h-2.2l3-4.2l-3-4.2H280.8z"/>
		<path class="st9" d="M293.1,286.2c-0.7,0-1.2-0.1-1.7-0.4c-0.5-0.3-0.9-0.7-1.2-1.2v4.9H288v-11.8h1.9v1.4
			c0.3-0.5,0.7-0.9,1.2-1.2c0.5-0.3,1.1-0.4,1.7-0.4c0.6,0,1.1,0.1,1.6,0.3c0.5,0.2,0.9,0.5,1.2,0.9s0.6,0.8,0.8,1.4
			c0.2,0.5,0.3,1.1,0.3,1.7c0,0.6-0.1,1.2-0.3,1.7c-0.2,0.5-0.4,1-0.8,1.4s-0.7,0.7-1.2,0.9C294.1,286.1,293.6,286.2,293.1,286.2z
			 M292.3,284.4c0.3,0,0.6-0.1,0.9-0.2s0.5-0.3,0.7-0.6c0.2-0.2,0.3-0.5,0.4-0.8c0.1-0.3,0.2-0.6,0.2-1c0-0.4-0.1-0.7-0.2-1
			c-0.1-0.3-0.3-0.6-0.5-0.8c-0.2-0.2-0.5-0.4-0.7-0.5c-0.3-0.1-0.6-0.2-0.9-0.2c-0.2,0-0.4,0-0.6,0.1c-0.2,0.1-0.4,0.2-0.6,0.3
			s-0.3,0.3-0.5,0.4c-0.1,0.2-0.3,0.4-0.3,0.6v2c0.2,0.5,0.5,0.9,0.9,1.2S291.9,284.4,292.3,284.4z"/>
		<path class="st9" d="M300.5,286.2c-0.4,0-0.8-0.1-1.1-0.2c-0.4-0.1-0.7-0.3-0.9-0.6c-0.3-0.2-0.5-0.5-0.6-0.8
			c-0.1-0.3-0.2-0.7-0.2-1.1c0-0.4,0.1-0.8,0.3-1.1c0.2-0.3,0.4-0.6,0.7-0.9c0.3-0.2,0.7-0.4,1.1-0.6c0.4-0.1,0.9-0.2,1.4-0.2
			c0.4,0,0.7,0,1.1,0.1c0.4,0.1,0.7,0.2,1,0.3v-0.5c0-0.6-0.2-1-0.5-1.3s-0.8-0.4-1.4-0.4c-0.4,0-0.9,0.1-1.3,0.2
			c-0.4,0.2-0.9,0.4-1.3,0.7l-0.7-1.4c1.1-0.7,2.2-1.1,3.5-1.1c1.2,0,2.1,0.3,2.8,0.9c0.7,0.6,1,1.4,1,2.6v2.6c0,0.2,0,0.4,0.1,0.5
			c0.1,0.1,0.2,0.1,0.4,0.2v1.8c-0.4,0.1-0.7,0.1-0.9,0.1c-0.4,0-0.7-0.1-0.9-0.3c-0.2-0.2-0.4-0.4-0.4-0.7l0-0.5
			c-0.4,0.5-0.8,0.9-1.4,1.1C301.7,286.1,301.1,286.2,300.5,286.2z M301.1,284.7c0.4,0,0.7-0.1,1-0.2s0.6-0.3,0.8-0.5
			c0.2-0.2,0.4-0.4,0.4-0.6v-1c-0.3-0.1-0.5-0.2-0.8-0.2s-0.6-0.1-0.9-0.1c-0.6,0-1,0.1-1.4,0.4c-0.4,0.3-0.5,0.6-0.5,1
			c0,0.4,0.1,0.7,0.4,0.9C300.3,284.5,300.7,284.7,301.1,284.7z"/>
		<path class="st9" d="M315.3,286.1h-2.1v-4.7c0-0.7-0.1-1.2-0.4-1.5s-0.6-0.5-1-0.5c-0.2,0-0.4,0-0.7,0.1c-0.2,0.1-0.4,0.2-0.6,0.4
			c-0.2,0.2-0.4,0.3-0.5,0.6c-0.2,0.2-0.3,0.4-0.4,0.7v4.9h-2.1v-8.4h1.9v1.6c0.3-0.5,0.8-0.9,1.3-1.2c0.6-0.3,1.2-0.4,2-0.4
			c0.5,0,0.9,0.1,1.3,0.3c0.3,0.2,0.6,0.4,0.8,0.8c0.2,0.3,0.3,0.7,0.4,1.1c0.1,0.4,0.1,0.8,0.1,1.2V286.1z"/>
		<path class="st9" d="M320.4,286.2c-0.7,0-1.4-0.1-2.1-0.3c-0.7-0.2-1.2-0.5-1.7-1l0.8-1.3c0.5,0.4,1,0.6,1.5,0.8s1,0.3,1.4,0.3
			c0.4,0,0.8-0.1,1-0.2c0.2-0.2,0.4-0.4,0.4-0.7s-0.1-0.5-0.4-0.7c-0.3-0.1-0.8-0.3-1.4-0.5c-0.5-0.1-1-0.3-1.4-0.4
			c-0.4-0.1-0.7-0.3-0.9-0.5c-0.2-0.2-0.4-0.4-0.5-0.6c-0.1-0.2-0.2-0.5-0.2-0.8c0-0.4,0.1-0.8,0.2-1.2c0.2-0.3,0.4-0.6,0.7-0.9
			c0.3-0.2,0.6-0.4,1-0.6c0.4-0.1,0.8-0.2,1.3-0.2c0.6,0,1.2,0.1,1.8,0.3c0.5,0.2,1.1,0.5,1.5,0.9l-0.9,1.3
			c-0.4-0.3-0.8-0.6-1.2-0.7s-0.8-0.2-1.2-0.2c-0.4,0-0.7,0.1-0.9,0.2c-0.2,0.1-0.4,0.4-0.4,0.7c0,0.1,0,0.3,0.1,0.4
			s0.2,0.2,0.3,0.3c0.1,0.1,0.3,0.1,0.5,0.2s0.5,0.1,0.8,0.2c0.6,0.2,1.1,0.3,1.5,0.4s0.7,0.3,1,0.5c0.3,0.2,0.5,0.4,0.6,0.7
			c0.1,0.3,0.2,0.6,0.2,0.9c0,0.8-0.3,1.5-0.9,1.9C322.2,286,321.4,286.2,320.4,286.2z"/>
		<path class="st9" d="M325.2,276.5v-2.1h2.1v2.1H325.2z M325.2,286.1v-8.4h2.1v8.4H325.2z"/>
		<path class="st9" d="M333.1,286.2c-0.7,0-1.3-0.1-1.8-0.4c-0.5-0.2-1-0.6-1.4-1c-0.4-0.4-0.7-0.9-0.9-1.4
			c-0.2-0.5-0.3-1.1-0.3-1.6c0-0.6,0.1-1.1,0.3-1.7s0.5-1,0.9-1.4c0.4-0.4,0.8-0.7,1.4-1s1.2-0.4,1.8-0.4s1.3,0.1,1.8,0.4
			s1,0.6,1.4,1c0.4,0.4,0.7,0.9,0.9,1.4s0.3,1.1,0.3,1.7c0,0.6-0.1,1.1-0.3,1.6c-0.2,0.5-0.5,1-0.9,1.4c-0.4,0.4-0.8,0.7-1.4,1
			C334.4,286.1,333.8,286.2,333.1,286.2z M330.9,281.9c0,0.4,0.1,0.7,0.2,1c0.1,0.3,0.3,0.6,0.5,0.8c0.2,0.2,0.4,0.4,0.7,0.5
			c0.3,0.1,0.6,0.2,0.9,0.2c0.3,0,0.6-0.1,0.9-0.2c0.3-0.1,0.5-0.3,0.7-0.5c0.2-0.2,0.4-0.5,0.5-0.8s0.2-0.7,0.2-1
			c0-0.4-0.1-0.7-0.2-1c-0.1-0.3-0.3-0.6-0.5-0.8s-0.4-0.4-0.7-0.5c-0.3-0.1-0.6-0.2-0.9-0.2c-0.3,0-0.6,0.1-0.9,0.2
			c-0.3,0.1-0.5,0.3-0.7,0.5c-0.2,0.2-0.4,0.5-0.5,0.8C331,281.2,330.9,281.5,330.9,281.9z"/>
		<path class="st9" d="M346.7,286.1h-2.1v-4.7c0-0.7-0.1-1.2-0.4-1.5c-0.2-0.3-0.6-0.5-1-0.5c-0.2,0-0.4,0-0.7,0.1
			c-0.2,0.1-0.4,0.2-0.6,0.4c-0.2,0.2-0.4,0.3-0.5,0.6c-0.2,0.2-0.3,0.4-0.4,0.7v4.9h-2.1v-8.4h1.9v1.6c0.3-0.5,0.8-0.9,1.3-1.2
			c0.6-0.3,1.2-0.4,2-0.4c0.5,0,0.9,0.1,1.3,0.3c0.3,0.2,0.6,0.4,0.8,0.8c0.2,0.3,0.3,0.7,0.4,1.1c0.1,0.4,0.1,0.8,0.1,1.2V286.1z"
			/>
	</g>
	<g class="st0">
		<path class="st9" d="M346.5,108.3v-7.5l-2.9,5.6h-1.2l-2.9-5.6v7.5h-2.2V96.9h2.4l3.4,6.5l3.4-6.5h2.4v11.4H346.5z"/>
		<path class="st9" d="M353.1,108.5c-0.4,0-0.8-0.1-1.1-0.2s-0.7-0.3-0.9-0.6c-0.3-0.2-0.5-0.5-0.6-0.8s-0.2-0.7-0.2-1.1
			c0-0.4,0.1-0.8,0.3-1.1c0.2-0.3,0.4-0.6,0.7-0.9c0.3-0.2,0.7-0.4,1.1-0.6s0.9-0.2,1.4-0.2c0.4,0,0.7,0,1.1,0.1s0.7,0.2,1,0.3V103
			c0-0.6-0.2-1-0.5-1.3c-0.3-0.3-0.8-0.4-1.4-0.4c-0.4,0-0.9,0.1-1.3,0.2c-0.4,0.2-0.9,0.4-1.3,0.7l-0.7-1.4
			c1.1-0.7,2.2-1.1,3.5-1.1c1.2,0,2.1,0.3,2.8,0.9c0.7,0.6,1,1.4,1,2.6v2.6c0,0.2,0,0.4,0.1,0.5c0.1,0.1,0.2,0.1,0.4,0.2v1.8
			c-0.4,0.1-0.7,0.1-0.9,0.1c-0.4,0-0.7-0.1-0.9-0.3c-0.2-0.2-0.4-0.4-0.4-0.7l0-0.5c-0.4,0.5-0.8,0.9-1.4,1.1
			C354.3,108.3,353.7,108.5,353.1,108.5z M353.7,106.9c0.4,0,0.7-0.1,1-0.2c0.3-0.1,0.6-0.3,0.8-0.5c0.2-0.2,0.4-0.4,0.4-0.6v-1
			c-0.3-0.1-0.5-0.2-0.8-0.2c-0.3-0.1-0.6-0.1-0.9-0.1c-0.6,0-1,0.1-1.4,0.4c-0.4,0.3-0.5,0.6-0.5,1c0,0.4,0.1,0.7,0.4,0.9
			C353,106.8,353.3,106.9,353.7,106.9z"/>
		<path class="st9" d="M365.2,101.8c-0.7,0-1.2,0.1-1.7,0.4c-0.5,0.2-0.9,0.6-1.1,1.1v5.1h-2.1v-8.4h2v1.8c0.2-0.3,0.3-0.5,0.5-0.8
			c0.2-0.2,0.4-0.4,0.7-0.6c0.2-0.2,0.5-0.3,0.7-0.4s0.5-0.1,0.7-0.1c0.1,0,0.2,0,0.3,0s0.1,0,0.2,0V101.8z"/>
		<path class="st9" d="M372.2,108.3l-2.4-3.6l-1.2,1.1v2.5h-2.1V96.6h2.1v7.1l3.4-3.8h2.3l-3.1,3.6l3.3,4.8H372.2z"/>
		<path class="st9" d="M379.1,108.5c-0.7,0-1.3-0.1-1.8-0.3c-0.5-0.2-1-0.5-1.4-0.9c-0.4-0.4-0.7-0.9-0.9-1.4
			c-0.2-0.5-0.3-1.1-0.3-1.6c0-0.6,0.1-1.2,0.3-1.7c0.2-0.5,0.5-1,0.9-1.4c0.4-0.4,0.9-0.7,1.4-1c0.5-0.2,1.2-0.4,1.8-0.4
			c0.7,0,1.3,0.1,1.8,0.4c0.5,0.2,1,0.5,1.4,0.9c0.4,0.4,0.7,0.9,0.9,1.4c0.2,0.5,0.3,1.1,0.3,1.6c0,0.1,0,0.3,0,0.4
			c0,0.1,0,0.2,0,0.3h-6.5c0,0.3,0.1,0.6,0.2,0.9c0.1,0.3,0.3,0.5,0.5,0.7c0.2,0.2,0.4,0.3,0.7,0.4c0.3,0.1,0.5,0.1,0.8,0.1
			c0.4,0,0.8-0.1,1.2-0.3s0.6-0.5,0.8-0.8l1.8,0.5c-0.3,0.6-0.8,1.2-1.5,1.6S380,108.5,379.1,108.5z M381.2,103.4
			c-0.1-0.6-0.3-1.1-0.7-1.5c-0.4-0.4-0.9-0.6-1.5-0.6c-0.3,0-0.6,0.1-0.8,0.2c-0.2,0.1-0.5,0.2-0.7,0.4c-0.2,0.2-0.3,0.4-0.5,0.7
			c-0.1,0.3-0.2,0.5-0.2,0.8H381.2z"/>
		<path class="st9" d="M389.7,107.9c-0.3,0.1-0.6,0.3-1.1,0.4s-0.9,0.2-1.3,0.2c-0.3,0-0.6,0-0.8-0.1c-0.3-0.1-0.5-0.2-0.7-0.4
			c-0.2-0.2-0.4-0.4-0.5-0.6c-0.1-0.3-0.2-0.6-0.2-1v-4.8h-1.1v-1.6h1.1v-2.7h2.1v2.7h1.8v1.6h-1.8v4.1c0,0.3,0.1,0.5,0.2,0.6
			s0.3,0.2,0.6,0.2c0.2,0,0.4,0,0.7-0.1c0.2-0.1,0.4-0.1,0.5-0.2L389.7,107.9z"/>
		<path class="st9" d="M391,98.7v-2.1h2.1v2.1H391z M391,108.3v-8.4h2.1v8.4H391z"/>
		<path class="st9" d="M402.8,108.3h-2.1v-4.7c0-0.7-0.1-1.2-0.4-1.5c-0.2-0.3-0.6-0.5-1-0.5c-0.2,0-0.4,0-0.7,0.1
			c-0.2,0.1-0.4,0.2-0.6,0.4s-0.4,0.3-0.5,0.6c-0.2,0.2-0.3,0.4-0.4,0.7v4.9H395v-8.4h1.9v1.6c0.3-0.5,0.8-0.9,1.3-1.2
			c0.6-0.3,1.2-0.4,2-0.4c0.5,0,0.9,0.1,1.3,0.3c0.3,0.2,0.6,0.4,0.8,0.8c0.2,0.3,0.3,0.7,0.4,1.1c0.1,0.4,0.1,0.8,0.1,1.2V108.3z"
			/>
		<path class="st9" d="M408,108.3c-0.6,0-1.1-0.1-1.5-0.3s-0.9-0.5-1.2-0.9c-0.3-0.4-0.6-0.8-0.8-1.4c-0.2-0.5-0.3-1.1-0.3-1.6
			c0-0.6,0.1-1.2,0.3-1.7c0.2-0.5,0.5-1,0.8-1.4c0.3-0.4,0.8-0.7,1.2-0.9c0.5-0.2,1-0.3,1.6-0.3c0.7,0,1.2,0.1,1.7,0.4
			c0.5,0.3,0.9,0.7,1.2,1.2v-1.5h1.9v8c0,0.6-0.1,1.2-0.4,1.7c-0.2,0.5-0.6,0.9-1,1.2c-0.4,0.3-0.9,0.6-1.5,0.8
			c-0.6,0.2-1.2,0.3-1.9,0.3c-0.9,0-1.7-0.2-2.3-0.5c-0.6-0.3-1.2-0.7-1.6-1.3l1.2-1.1c0.3,0.4,0.7,0.7,1.2,0.9
			c0.5,0.2,1,0.3,1.5,0.3c0.3,0,0.6,0,1-0.1s0.6-0.2,0.8-0.4c0.2-0.2,0.4-0.4,0.6-0.7c0.1-0.3,0.2-0.7,0.2-1.1v-1.1
			c-0.3,0.5-0.7,0.9-1.2,1.1C409.1,108.2,408.6,108.3,408,108.3z M408.7,106.6c0.2,0,0.5,0,0.7-0.1s0.4-0.2,0.6-0.3s0.3-0.3,0.5-0.4
			c0.1-0.2,0.2-0.4,0.3-0.5v-2c-0.2-0.5-0.5-0.9-0.9-1.2c-0.4-0.3-0.8-0.4-1.3-0.4c-0.3,0-0.6,0.1-0.9,0.2c-0.3,0.1-0.5,0.3-0.7,0.6
			c-0.2,0.2-0.3,0.5-0.4,0.8s-0.2,0.6-0.2,1c0,0.3,0.1,0.7,0.2,1c0.1,0.3,0.3,0.6,0.5,0.8c0.2,0.2,0.5,0.4,0.7,0.5
			S408.4,106.6,408.7,106.6z"/>
	</g>
	<g class="st0">
		<path class="st9" d="M339,121.7c-0.4,0-0.8-0.1-1.1-0.2s-0.7-0.3-0.9-0.6c-0.3-0.2-0.5-0.5-0.6-0.8s-0.2-0.7-0.2-1.1
			c0-0.4,0.1-0.8,0.3-1.1c0.2-0.3,0.4-0.6,0.7-0.9c0.3-0.2,0.7-0.4,1.1-0.6s0.9-0.2,1.4-0.2c0.4,0,0.7,0,1.1,0.1s0.7,0.2,1,0.3v-0.5
			c0-0.6-0.2-1-0.5-1.3c-0.3-0.3-0.8-0.4-1.4-0.4c-0.4,0-0.9,0.1-1.3,0.2c-0.4,0.2-0.9,0.4-1.3,0.7l-0.7-1.4
			c1.1-0.7,2.2-1.1,3.5-1.1c1.2,0,2.1,0.3,2.8,0.9c0.7,0.6,1,1.4,1,2.6v2.6c0,0.2,0,0.4,0.1,0.5c0.1,0.1,0.2,0.1,0.4,0.2v1.8
			c-0.4,0.1-0.7,0.1-0.9,0.1c-0.4,0-0.7-0.1-0.9-0.3c-0.2-0.2-0.4-0.4-0.4-0.7l0-0.5c-0.4,0.5-0.8,0.9-1.4,1.1
			C340.2,121.5,339.6,121.7,339,121.7z M339.6,120.1c0.4,0,0.7-0.1,1-0.2c0.3-0.1,0.6-0.3,0.8-0.5c0.2-0.2,0.4-0.4,0.4-0.6v-1
			c-0.3-0.1-0.5-0.2-0.8-0.2c-0.3-0.1-0.6-0.1-0.9-0.1c-0.6,0-1,0.1-1.4,0.4c-0.4,0.3-0.5,0.6-0.5,1c0,0.4,0.1,0.7,0.4,0.9
			C338.9,120,339.2,120.1,339.6,120.1z"/>
		<path class="st9" d="M353.8,121.5h-2.1v-4.7c0-0.7-0.1-1.2-0.4-1.5c-0.2-0.3-0.6-0.5-1-0.5c-0.2,0-0.4,0-0.7,0.1
			c-0.2,0.1-0.4,0.2-0.6,0.4s-0.4,0.3-0.5,0.6c-0.2,0.2-0.3,0.4-0.4,0.7v4.9H346v-8.4h1.9v1.6c0.3-0.5,0.8-0.9,1.3-1.2
			c0.6-0.3,1.2-0.4,2-0.4c0.5,0,0.9,0.1,1.3,0.3c0.3,0.2,0.6,0.4,0.8,0.8c0.2,0.3,0.3,0.7,0.4,1.1c0.1,0.4,0.1,0.8,0.1,1.2V121.5z"
			/>
		<path class="st9" d="M359.2,121.7c-0.6,0-1.1-0.1-1.6-0.3c-0.5-0.2-0.9-0.5-1.3-0.9s-0.6-0.9-0.8-1.4c-0.2-0.5-0.3-1.1-0.3-1.7
			s0.1-1.2,0.3-1.7c0.2-0.5,0.4-1,0.8-1.4c0.3-0.4,0.7-0.7,1.2-0.9c0.5-0.2,1-0.3,1.5-0.3c0.6,0,1.2,0.1,1.7,0.4
			c0.5,0.3,0.9,0.7,1.2,1.2v-4.8h2.1v9.2c0,0.2,0,0.4,0.1,0.5c0.1,0.1,0.2,0.1,0.4,0.2v1.8c-0.4,0.1-0.7,0.1-0.9,0.1
			c-0.4,0-0.7-0.1-0.9-0.3c-0.2-0.2-0.4-0.4-0.4-0.8l0-0.5c-0.3,0.5-0.7,0.9-1.3,1.2C360.3,121.5,359.8,121.7,359.2,121.7z
			 M359.8,119.8c0.2,0,0.4,0,0.6-0.1s0.4-0.2,0.6-0.3c0.2-0.1,0.3-0.3,0.5-0.4c0.1-0.2,0.3-0.4,0.3-0.6v-2c-0.1-0.2-0.2-0.5-0.4-0.6
			c-0.2-0.2-0.3-0.4-0.5-0.5s-0.4-0.3-0.6-0.3c-0.2-0.1-0.4-0.1-0.6-0.1c-0.3,0-0.6,0.1-0.9,0.2c-0.3,0.1-0.5,0.3-0.7,0.6
			c-0.2,0.2-0.3,0.5-0.4,0.8c-0.1,0.3-0.2,0.6-0.2,1c0,0.4,0.1,0.7,0.2,1c0.1,0.3,0.3,0.6,0.5,0.8c0.2,0.2,0.4,0.4,0.7,0.5
			C359.1,119.8,359.4,119.8,359.8,119.8z"/>
		<path class="st9" d="M376.9,113.1c-0.1-0.1-0.2-0.2-0.4-0.3s-0.4-0.3-0.7-0.4c-0.3-0.1-0.6-0.2-0.9-0.3s-0.7-0.1-1-0.1
			c-0.6,0-1.1,0.1-1.4,0.3s-0.4,0.5-0.4,0.9c0,0.2,0.1,0.4,0.2,0.6c0.1,0.2,0.3,0.3,0.5,0.4c0.2,0.1,0.5,0.2,0.8,0.3
			c0.3,0.1,0.7,0.2,1.1,0.3c0.6,0.1,1.1,0.3,1.5,0.5c0.5,0.2,0.8,0.4,1.2,0.6c0.3,0.3,0.6,0.6,0.7,0.9s0.3,0.8,0.3,1.3
			c0,0.6-0.1,1.1-0.3,1.6s-0.5,0.8-0.9,1c-0.4,0.3-0.8,0.5-1.3,0.6c-0.5,0.1-1,0.2-1.6,0.2c-0.9,0-1.7-0.1-2.5-0.4
			c-0.8-0.3-1.6-0.6-2.2-1.1l1-1.9c0.1,0.1,0.3,0.2,0.5,0.4c0.2,0.2,0.5,0.3,0.9,0.5c0.3,0.2,0.7,0.3,1.1,0.4
			c0.4,0.1,0.8,0.2,1.3,0.2c1.2,0,1.8-0.4,1.8-1.2c0-0.2-0.1-0.5-0.2-0.6c-0.1-0.2-0.3-0.3-0.6-0.4c-0.3-0.1-0.6-0.2-0.9-0.4
			c-0.4-0.1-0.8-0.2-1.2-0.4c-0.5-0.1-1-0.3-1.4-0.5c-0.4-0.2-0.7-0.4-1-0.6c-0.3-0.2-0.5-0.5-0.6-0.8c-0.1-0.3-0.2-0.7-0.2-1.1
			c0-0.6,0.1-1.1,0.3-1.5c0.2-0.4,0.5-0.8,0.9-1.1c0.4-0.3,0.8-0.5,1.3-0.7c0.5-0.2,1-0.2,1.6-0.2c0.8,0,1.5,0.1,2.2,0.4
			s1.3,0.5,1.8,0.9L376.9,113.1z"/>
		<path class="st9" d="M382.1,121.7c-0.4,0-0.8-0.1-1.1-0.2s-0.7-0.3-0.9-0.6c-0.3-0.2-0.5-0.5-0.6-0.8c-0.1-0.3-0.2-0.7-0.2-1.1
			c0-0.4,0.1-0.8,0.3-1.1c0.2-0.3,0.4-0.6,0.7-0.9c0.3-0.2,0.7-0.4,1.1-0.6s0.9-0.2,1.4-0.2c0.4,0,0.7,0,1.1,0.1s0.7,0.2,1,0.3v-0.5
			c0-0.6-0.2-1-0.5-1.3c-0.3-0.3-0.8-0.4-1.4-0.4c-0.4,0-0.9,0.1-1.3,0.2c-0.4,0.2-0.9,0.4-1.3,0.7l-0.7-1.4
			c1.1-0.7,2.2-1.1,3.5-1.1c1.2,0,2.1,0.3,2.8,0.9c0.7,0.6,1,1.4,1,2.6v2.6c0,0.2,0,0.4,0.1,0.5c0.1,0.1,0.2,0.1,0.4,0.2v1.8
			c-0.4,0.1-0.7,0.1-0.9,0.1c-0.4,0-0.7-0.1-0.9-0.3c-0.2-0.2-0.4-0.4-0.4-0.7l0-0.5c-0.4,0.5-0.8,0.9-1.4,1.1
			C383.3,121.5,382.8,121.7,382.1,121.7z M382.8,120.1c0.4,0,0.7-0.1,1-0.2c0.3-0.1,0.6-0.3,0.8-0.5c0.2-0.2,0.4-0.4,0.4-0.6v-1
			c-0.3-0.1-0.5-0.2-0.8-0.2c-0.3-0.1-0.6-0.1-0.9-0.1c-0.6,0-1,0.1-1.4,0.4c-0.4,0.3-0.5,0.6-0.5,1c0,0.4,0.1,0.7,0.4,0.9
			C382,120,382.3,120.1,382.8,120.1z"/>
		<path class="st9" d="M389.2,109.8h2.1v9c0,0.3,0.1,0.5,0.2,0.7c0.1,0.2,0.4,0.3,0.6,0.3c0.1,0,0.3,0,0.4-0.1
			c0.2,0,0.3-0.1,0.4-0.2l0.3,1.6c-0.3,0.1-0.6,0.2-1,0.3c-0.4,0.1-0.7,0.1-1,0.1c-0.7,0-1.2-0.2-1.6-0.5c-0.4-0.4-0.6-0.9-0.6-1.5
			V109.8z"/>
		<path class="st9" d="M398.1,121.7c-0.7,0-1.3-0.1-1.8-0.3c-0.5-0.2-1-0.5-1.4-0.9c-0.4-0.4-0.7-0.9-0.9-1.4
			c-0.2-0.5-0.3-1.1-0.3-1.6c0-0.6,0.1-1.2,0.3-1.7c0.2-0.5,0.5-1,0.9-1.4c0.4-0.4,0.9-0.7,1.4-1c0.5-0.2,1.2-0.4,1.8-0.4
			c0.7,0,1.3,0.1,1.8,0.4c0.5,0.2,1,0.5,1.4,0.9c0.4,0.4,0.7,0.9,0.9,1.4c0.2,0.5,0.3,1.1,0.3,1.6c0,0.1,0,0.3,0,0.4
			c0,0.1,0,0.2,0,0.3H396c0,0.3,0.1,0.6,0.2,0.9c0.1,0.3,0.3,0.5,0.5,0.7c0.2,0.2,0.4,0.3,0.7,0.4c0.3,0.1,0.5,0.1,0.8,0.1
			c0.4,0,0.8-0.1,1.2-0.3s0.6-0.5,0.8-0.8l1.8,0.5c-0.3,0.6-0.8,1.2-1.5,1.6S399.1,121.7,398.1,121.7z M400.3,116.6
			c-0.1-0.6-0.3-1.1-0.7-1.5c-0.4-0.4-0.9-0.6-1.5-0.6c-0.3,0-0.6,0.1-0.8,0.2c-0.2,0.1-0.5,0.2-0.7,0.4c-0.2,0.2-0.3,0.4-0.5,0.7
			c-0.1,0.3-0.2,0.5-0.2,0.8H400.3z"/>
		<path class="st9" d="M407.1,121.7c-0.7,0-1.4-0.1-2.1-0.3c-0.7-0.2-1.2-0.5-1.7-1l0.8-1.3c0.5,0.4,1,0.6,1.5,0.8
			c0.5,0.2,1,0.3,1.4,0.3c0.4,0,0.8-0.1,1-0.2c0.2-0.2,0.4-0.4,0.4-0.7c0-0.3-0.1-0.5-0.4-0.7s-0.8-0.3-1.4-0.5
			c-0.5-0.1-1-0.3-1.4-0.4s-0.7-0.3-0.9-0.5c-0.2-0.2-0.4-0.4-0.5-0.6c-0.1-0.2-0.2-0.5-0.2-0.8c0-0.4,0.1-0.8,0.2-1.2
			c0.2-0.3,0.4-0.6,0.7-0.9c0.3-0.2,0.6-0.4,1-0.6s0.8-0.2,1.3-0.2c0.6,0,1.2,0.1,1.8,0.3c0.5,0.2,1.1,0.5,1.5,0.9l-0.9,1.3
			c-0.4-0.3-0.8-0.6-1.2-0.7s-0.8-0.2-1.2-0.2c-0.4,0-0.7,0.1-0.9,0.2s-0.4,0.4-0.4,0.7c0,0.1,0,0.3,0.1,0.4
			c0.1,0.1,0.2,0.2,0.3,0.3c0.1,0.1,0.3,0.1,0.5,0.2c0.2,0.1,0.5,0.1,0.8,0.2c0.6,0.1,1.1,0.3,1.5,0.4c0.4,0.1,0.7,0.3,1,0.5
			c0.3,0.2,0.5,0.4,0.6,0.7c0.1,0.3,0.2,0.6,0.2,0.9c0,0.8-0.3,1.5-0.9,1.9S408.2,121.7,407.1,121.7z"/>
	</g>
	<g class="st0">
		<path class="st10" d="M97.2,143.8v-11.4h4.8c0.5,0,1,0.1,1.4,0.3c0.4,0.2,0.8,0.5,1.1,0.9c0.3,0.4,0.6,0.8,0.8,1.2
			c0.2,0.5,0.3,0.9,0.3,1.4c0,0.5-0.1,0.9-0.3,1.4c-0.2,0.5-0.4,0.9-0.7,1.2c-0.3,0.4-0.7,0.6-1.1,0.8c-0.4,0.2-0.9,0.3-1.4,0.3
			h-2.7v3.8H97.2z M99.4,138.1h2.6c0.4,0,0.7-0.2,1-0.5c0.3-0.3,0.4-0.8,0.4-1.3c0-0.3,0-0.5-0.1-0.8c-0.1-0.2-0.2-0.4-0.3-0.6
			c-0.1-0.2-0.3-0.3-0.5-0.4c-0.2-0.1-0.4-0.1-0.6-0.1h-2.5V138.1z"/>
		<path class="st10" d="M109.4,144c-0.4,0-0.8-0.1-1.1-0.2s-0.7-0.3-0.9-0.6c-0.3-0.2-0.5-0.5-0.6-0.8c-0.1-0.3-0.2-0.7-0.2-1.1
			c0-0.4,0.1-0.8,0.3-1.1c0.2-0.3,0.4-0.6,0.7-0.9c0.3-0.2,0.7-0.4,1.1-0.6s0.9-0.2,1.4-0.2c0.4,0,0.7,0,1.1,0.1s0.7,0.2,1,0.3v-0.5
			c0-0.6-0.2-1-0.5-1.3c-0.3-0.3-0.8-0.4-1.4-0.4c-0.4,0-0.9,0.1-1.3,0.2c-0.4,0.2-0.9,0.4-1.3,0.7l-0.7-1.4
			c1.1-0.7,2.2-1.1,3.5-1.1c1.2,0,2.1,0.3,2.8,0.9c0.7,0.6,1,1.4,1,2.6v2.6c0,0.2,0,0.4,0.1,0.5c0.1,0.1,0.2,0.1,0.4,0.2v1.8
			c-0.4,0.1-0.7,0.1-0.9,0.1c-0.4,0-0.7-0.1-0.9-0.3c-0.2-0.2-0.4-0.4-0.4-0.7l0-0.5c-0.4,0.5-0.8,0.9-1.4,1.1
			C110.6,143.9,110,144,109.4,144z M110,142.4c0.4,0,0.7-0.1,1-0.2c0.3-0.1,0.6-0.3,0.8-0.5c0.2-0.2,0.4-0.4,0.4-0.6v-1
			c-0.3-0.1-0.5-0.2-0.8-0.2c-0.3-0.1-0.6-0.1-0.9-0.1c-0.6,0-1,0.1-1.4,0.4c-0.4,0.3-0.5,0.6-0.5,1c0,0.4,0.1,0.7,0.4,0.9
			C109.2,142.3,109.6,142.4,110,142.4z"/>
		<path class="st10" d="M121.4,137.3c-0.7,0-1.2,0.1-1.7,0.4c-0.5,0.2-0.9,0.6-1.1,1.1v5.1h-2.1v-8.4h2v1.8c0.1-0.3,0.3-0.5,0.5-0.8
			c0.2-0.2,0.4-0.4,0.7-0.6c0.2-0.2,0.5-0.3,0.7-0.4c0.2-0.1,0.5-0.1,0.7-0.1c0.1,0,0.2,0,0.3,0s0.1,0,0.2,0V137.3z"/>
		<path class="st10" d="M128.2,143.4c-0.3,0.1-0.6,0.3-1.1,0.4s-0.9,0.2-1.3,0.2c-0.3,0-0.6,0-0.8-0.1c-0.3-0.1-0.5-0.2-0.7-0.4
			c-0.2-0.2-0.4-0.4-0.5-0.6c-0.1-0.3-0.2-0.6-0.2-1v-4.8h-1.1v-1.6h1.1v-2.7h2.1v2.7h1.8v1.6h-1.8v4.1c0,0.3,0.1,0.5,0.2,0.6
			c0.2,0.1,0.3,0.2,0.6,0.2s0.4,0,0.7-0.1c0.2-0.1,0.4-0.1,0.5-0.2L128.2,143.4z"/>
		<path class="st10" d="M137.3,143.8h-2.1v-4.7c0-0.7-0.1-1.2-0.4-1.5c-0.2-0.3-0.6-0.5-1-0.5c-0.2,0-0.4,0-0.7,0.1
			c-0.2,0.1-0.4,0.2-0.6,0.4s-0.4,0.3-0.5,0.6c-0.2,0.2-0.3,0.4-0.4,0.7v4.9h-2.1v-8.4h1.9v1.6c0.3-0.5,0.8-0.9,1.3-1.2
			c0.6-0.3,1.2-0.4,2-0.4c0.5,0,0.9,0.1,1.3,0.3c0.3,0.2,0.6,0.4,0.8,0.8c0.2,0.3,0.3,0.7,0.4,1.1c0.1,0.4,0.1,0.8,0.1,1.2V143.8z"
			/>
		<path class="st10" d="M143.1,144c-0.7,0-1.3-0.1-1.8-0.3c-0.5-0.2-1-0.5-1.4-0.9c-0.4-0.4-0.7-0.9-0.9-1.4
			c-0.2-0.5-0.3-1.1-0.3-1.6c0-0.6,0.1-1.2,0.3-1.7s0.5-1,0.9-1.4c0.4-0.4,0.9-0.7,1.4-1c0.5-0.2,1.2-0.4,1.8-0.4s1.3,0.1,1.8,0.4
			c0.5,0.2,1,0.5,1.4,0.9s0.7,0.9,0.9,1.4c0.2,0.5,0.3,1.1,0.3,1.6c0,0.1,0,0.3,0,0.4c0,0.1,0,0.2,0,0.3h-6.5c0,0.3,0.1,0.6,0.2,0.9
			s0.3,0.5,0.5,0.7c0.2,0.2,0.4,0.3,0.7,0.4c0.3,0.1,0.5,0.1,0.8,0.1c0.4,0,0.8-0.1,1.2-0.3s0.6-0.5,0.8-0.8l1.8,0.5
			c-0.3,0.6-0.8,1.2-1.5,1.6C144.8,143.8,144,144,143.1,144z M145.3,138.9c-0.1-0.6-0.3-1.1-0.7-1.5c-0.4-0.4-0.9-0.6-1.5-0.6
			c-0.3,0-0.6,0.1-0.8,0.2c-0.3,0.1-0.5,0.2-0.7,0.4c-0.2,0.2-0.3,0.4-0.5,0.7c-0.1,0.3-0.2,0.5-0.2,0.8H145.3z"/>
		<path class="st10" d="M153.8,137.3c-0.7,0-1.2,0.1-1.7,0.4c-0.5,0.2-0.9,0.6-1.1,1.1v5.1h-2.1v-8.4h2v1.8c0.1-0.3,0.3-0.5,0.5-0.8
			c0.2-0.2,0.4-0.4,0.7-0.6c0.2-0.2,0.5-0.3,0.7-0.4c0.2-0.1,0.5-0.1,0.7-0.1c0.1,0,0.2,0,0.3,0s0.1,0,0.2,0V137.3z"/>
		<path class="st10" d="M158.3,144c-0.7,0-1.4-0.1-2.1-0.3c-0.7-0.2-1.2-0.5-1.7-1l0.8-1.3c0.5,0.4,1,0.6,1.5,0.8s1,0.3,1.4,0.3
			c0.4,0,0.8-0.1,1-0.2c0.2-0.2,0.4-0.4,0.4-0.7c0-0.3-0.1-0.5-0.4-0.7s-0.8-0.3-1.4-0.5c-0.5-0.1-1-0.3-1.4-0.4
			c-0.4-0.1-0.7-0.3-0.9-0.5c-0.2-0.2-0.4-0.4-0.5-0.6c-0.1-0.2-0.2-0.5-0.2-0.8c0-0.4,0.1-0.8,0.2-1.2c0.2-0.3,0.4-0.6,0.7-0.9
			c0.3-0.2,0.6-0.4,1-0.6c0.4-0.1,0.8-0.2,1.3-0.2c0.6,0,1.2,0.1,1.8,0.3c0.5,0.2,1.1,0.5,1.5,0.9l-0.9,1.3
			c-0.4-0.3-0.8-0.6-1.2-0.7c-0.4-0.1-0.8-0.2-1.2-0.2c-0.4,0-0.7,0.1-0.9,0.2c-0.2,0.1-0.4,0.4-0.4,0.7c0,0.1,0,0.3,0.1,0.4
			c0.1,0.1,0.2,0.2,0.3,0.3c0.1,0.1,0.3,0.1,0.5,0.2c0.2,0.1,0.5,0.1,0.8,0.2c0.6,0.1,1.1,0.3,1.5,0.4c0.4,0.1,0.7,0.3,1,0.5
			s0.5,0.4,0.6,0.7s0.2,0.6,0.2,0.9c0,0.8-0.3,1.5-0.9,1.9S159.3,144,158.3,144z"/>
		<path class="st10" d="M170.9,143.8h-2.1v-4.7c0-0.7-0.1-1.1-0.4-1.5c-0.2-0.3-0.6-0.5-1-0.5c-0.2,0-0.4,0-0.6,0.1
			c-0.2,0.1-0.4,0.2-0.6,0.4s-0.4,0.3-0.5,0.6c-0.2,0.2-0.3,0.4-0.4,0.7v4.9h-2.1v-11.7h2.1v4.8c0.3-0.5,0.7-1,1.3-1.3
			s1.1-0.4,1.8-0.4c0.5,0,1,0.1,1.3,0.3c0.3,0.2,0.6,0.4,0.8,0.7c0.2,0.3,0.3,0.7,0.4,1.1c0.1,0.4,0.1,0.8,0.1,1.2V143.8z"/>
		<path class="st10" d="M172.7,134.3v-2.1h2.1v2.1H172.7z M172.7,143.8v-8.4h2.1v8.4H172.7z"/>
		<path class="st10" d="M181.7,144c-0.7,0-1.2-0.1-1.7-0.4c-0.5-0.3-0.9-0.7-1.2-1.2v4.9h-2.1v-11.8h1.9v1.4
			c0.3-0.5,0.7-0.9,1.2-1.2s1.1-0.4,1.7-0.4c0.6,0,1.1,0.1,1.6,0.3c0.5,0.2,0.9,0.5,1.2,0.9s0.6,0.8,0.8,1.4
			c0.2,0.5,0.3,1.1,0.3,1.7c0,0.6-0.1,1.2-0.3,1.7c-0.2,0.5-0.4,1-0.8,1.4s-0.7,0.7-1.2,0.9C182.8,143.9,182.3,144,181.7,144z
			 M181,142.2c0.3,0,0.6-0.1,0.9-0.2s0.5-0.3,0.7-0.6c0.2-0.2,0.3-0.5,0.4-0.8c0.1-0.3,0.2-0.6,0.2-1c0-0.4-0.1-0.7-0.2-1
			c-0.1-0.3-0.3-0.6-0.5-0.8s-0.5-0.4-0.7-0.5c-0.3-0.1-0.6-0.2-0.9-0.2c-0.2,0-0.4,0-0.6,0.1c-0.2,0.1-0.4,0.2-0.6,0.3
			c-0.2,0.1-0.3,0.3-0.5,0.4c-0.1,0.2-0.3,0.4-0.3,0.6v2c0.2,0.5,0.5,0.9,0.9,1.2C180.1,142,180.6,142.2,181,142.2z"/>
		<path class="st10" d="M193,144c-0.4,0-0.8-0.1-1.1-0.2s-0.7-0.3-0.9-0.6c-0.3-0.2-0.5-0.5-0.6-0.8c-0.1-0.3-0.2-0.7-0.2-1.1
			c0-0.4,0.1-0.8,0.3-1.1c0.2-0.3,0.4-0.6,0.7-0.9c0.3-0.2,0.7-0.4,1.1-0.6s0.9-0.2,1.4-0.2c0.4,0,0.7,0,1.1,0.1s0.7,0.2,1,0.3v-0.5
			c0-0.6-0.2-1-0.5-1.3c-0.3-0.3-0.8-0.4-1.4-0.4c-0.4,0-0.9,0.1-1.3,0.2c-0.4,0.2-0.9,0.4-1.3,0.7l-0.7-1.4
			c1.1-0.7,2.2-1.1,3.5-1.1c1.2,0,2.1,0.3,2.8,0.9c0.7,0.6,1,1.4,1,2.6v2.6c0,0.2,0,0.4,0.1,0.5c0.1,0.1,0.2,0.1,0.4,0.2v1.8
			c-0.4,0.1-0.7,0.1-0.9,0.1c-0.4,0-0.7-0.1-0.9-0.3c-0.2-0.2-0.4-0.4-0.4-0.7l0-0.5c-0.4,0.5-0.8,0.9-1.4,1.1
			C194.2,143.9,193.6,144,193,144z M193.6,142.4c0.4,0,0.7-0.1,1-0.2c0.3-0.1,0.6-0.3,0.8-0.5c0.2-0.2,0.4-0.4,0.4-0.6v-1
			c-0.3-0.1-0.5-0.2-0.8-0.2c-0.3-0.1-0.6-0.1-0.9-0.1c-0.6,0-1,0.1-1.4,0.4c-0.4,0.3-0.5,0.6-0.5,1c0,0.4,0.1,0.7,0.4,0.9
			C192.9,142.3,193.2,142.4,193.6,142.4z"/>
		<path class="st10" d="M207.8,143.8h-2.1v-4.7c0-0.7-0.1-1.2-0.4-1.5c-0.2-0.3-0.6-0.5-1-0.5c-0.2,0-0.4,0-0.7,0.1
			c-0.2,0.1-0.4,0.2-0.6,0.4s-0.4,0.3-0.5,0.6c-0.2,0.2-0.3,0.4-0.4,0.7v4.9H200v-8.4h1.9v1.6c0.3-0.5,0.8-0.9,1.3-1.2
			c0.6-0.3,1.2-0.4,2-0.4c0.5,0,0.9,0.1,1.3,0.3c0.3,0.2,0.6,0.4,0.8,0.8c0.2,0.3,0.3,0.7,0.4,1.1c0.1,0.4,0.1,0.8,0.1,1.2V143.8z"
			/>
		<path class="st10" d="M213.2,144c-0.6,0-1.1-0.1-1.6-0.3c-0.5-0.2-0.9-0.5-1.3-0.9s-0.6-0.9-0.8-1.4c-0.2-0.5-0.3-1.1-0.3-1.7
			s0.1-1.2,0.3-1.7c0.2-0.5,0.4-1,0.8-1.4c0.3-0.4,0.7-0.7,1.2-0.9c0.5-0.2,1-0.3,1.5-0.3c0.6,0,1.2,0.1,1.7,0.4
			c0.5,0.3,0.9,0.7,1.2,1.2v-4.8h2.1v9.2c0,0.2,0,0.4,0.1,0.5c0.1,0.1,0.2,0.1,0.4,0.2v1.8c-0.4,0.1-0.7,0.1-0.9,0.1
			c-0.4,0-0.7-0.1-0.9-0.3c-0.2-0.2-0.4-0.4-0.4-0.8l0-0.5c-0.3,0.5-0.7,0.9-1.3,1.2S213.7,144,213.2,144z M213.7,142.2
			c0.2,0,0.4,0,0.6-0.1s0.4-0.2,0.6-0.3c0.2-0.1,0.3-0.3,0.5-0.4c0.1-0.2,0.3-0.4,0.3-0.6v-2c-0.1-0.2-0.2-0.5-0.4-0.6
			c-0.2-0.2-0.3-0.4-0.5-0.5s-0.4-0.3-0.6-0.3c-0.2-0.1-0.4-0.1-0.6-0.1c-0.3,0-0.6,0.1-0.9,0.2c-0.3,0.1-0.5,0.3-0.7,0.6
			c-0.2,0.2-0.3,0.5-0.4,0.8c-0.1,0.3-0.2,0.6-0.2,1c0,0.4,0.1,0.7,0.2,1c0.1,0.3,0.3,0.6,0.5,0.8c0.2,0.2,0.4,0.4,0.7,0.5
			S213.4,142.2,213.7,142.2z"/>
	</g>
	<g class="st0">
		<path class="st10" d="M110.9,145.7h2l4.3,11.4h-2.3l-1.1-2.8h-4l-1,2.8h-2.3L110.9,145.7z M113.5,152.6l-1.6-4.5l-1.6,4.5H113.5z"
			/>
		<path class="st10" d="M117.6,152.8c0-0.6,0.1-1.1,0.3-1.7c0.2-0.5,0.5-1,0.9-1.4c0.4-0.4,0.8-0.7,1.4-0.9c0.5-0.2,1.2-0.4,1.8-0.4
			c0.9,0,1.7,0.2,2.3,0.6c0.6,0.4,1.1,0.9,1.4,1.6l-2.1,0.6c-0.2-0.3-0.4-0.5-0.7-0.7c-0.3-0.2-0.6-0.2-1-0.2
			c-0.3,0-0.6,0.1-0.9,0.2s-0.5,0.3-0.7,0.5c-0.2,0.2-0.4,0.5-0.5,0.8c-0.1,0.3-0.2,0.7-0.2,1s0.1,0.7,0.2,1
			c0.1,0.3,0.3,0.6,0.5,0.8c0.2,0.2,0.4,0.4,0.7,0.5c0.3,0.1,0.5,0.2,0.8,0.2c0.4,0,0.7-0.1,1.1-0.3c0.3-0.2,0.6-0.4,0.7-0.7
			l2.1,0.6c-0.3,0.6-0.8,1.2-1.4,1.6c-0.7,0.4-1.5,0.6-2.4,0.6c-0.7,0-1.3-0.1-1.8-0.4s-1-0.6-1.4-1c-0.4-0.4-0.7-0.9-0.9-1.4
			C117.7,154,117.6,153.4,117.6,152.8z"/>
		<path class="st10" d="M130.4,157.2c-0.5,0-1-0.1-1.5-0.3c-0.4-0.2-0.8-0.5-1.2-0.9c-0.3-0.4-0.6-0.9-0.8-1.4
			c-0.2-0.5-0.3-1.1-0.3-1.7s0.1-1.2,0.3-1.7s0.5-1,0.8-1.4c0.4-0.4,0.8-0.7,1.2-0.9s1-0.3,1.6-0.3c0.6,0,1.2,0.1,1.7,0.4
			c0.5,0.3,0.9,0.7,1.2,1.2v-1.5h1.9v9.2c0,0.2,0,0.4,0.1,0.5c0.1,0.1,0.2,0.1,0.4,0.2v1.8c-0.2,0-0.4,0.1-0.6,0.1
			c-0.2,0-0.4,0-0.6,0c-0.2,0-0.4,0-0.6-0.1c-0.2-0.1-0.3-0.2-0.5-0.3s-0.3-0.3-0.3-0.5s-0.1-0.4-0.1-0.6v-3.4
			c-0.3,0.5-0.7,1-1.2,1.2C131.6,157.1,131,157.2,130.4,157.2z M131.2,155.4c0.5,0,0.9-0.1,1.2-0.4c0.3-0.3,0.6-0.6,0.9-1v-2
			c-0.1-0.2-0.2-0.5-0.3-0.7c-0.1-0.2-0.3-0.4-0.5-0.5s-0.4-0.3-0.6-0.4c-0.2-0.1-0.4-0.1-0.7-0.1c-0.3,0-0.6,0.1-0.9,0.2
			c-0.3,0.1-0.5,0.3-0.7,0.6c-0.2,0.2-0.4,0.5-0.5,0.8c-0.1,0.3-0.2,0.6-0.2,1c0,0.4,0.1,0.7,0.2,1c0.1,0.3,0.3,0.6,0.5,0.8
			c0.2,0.2,0.4,0.4,0.7,0.5C130.6,155.3,130.9,155.4,131.2,155.4z"/>
		<path class="st10" d="M139.9,157.2c-0.9,0-1.5-0.3-2-0.8c-0.4-0.6-0.7-1.4-0.7-2.5v-5.2h2.1v4.8c0,1.3,0.5,1.9,1.4,1.9
			c0.4,0,0.8-0.1,1.2-0.4c0.4-0.3,0.7-0.6,1-1.1v-5.2h2.1v5.9c0,0.2,0,0.4,0.1,0.5c0.1,0.1,0.2,0.1,0.4,0.2v1.8
			c-0.2,0-0.4,0.1-0.5,0.1c-0.1,0-0.3,0-0.4,0c-0.4,0-0.7-0.1-0.9-0.3c-0.2-0.2-0.4-0.4-0.4-0.7l0-0.7c-0.4,0.6-0.9,1-1.4,1.3
			C141.3,157,140.6,157.2,139.9,157.2z"/>
		<path class="st10" d="M147.2,147.5v-2.1h2.1v2.1H147.2z M147.2,157v-8.4h2.1v8.4H147.2z"/>
		<path class="st10" d="M154.4,157.2c-0.7,0-1.4-0.1-2.1-0.3c-0.7-0.2-1.2-0.5-1.7-1l0.8-1.3c0.5,0.4,1,0.6,1.5,0.8s1,0.3,1.4,0.3
			c0.4,0,0.8-0.1,1-0.2c0.2-0.2,0.4-0.4,0.4-0.7c0-0.3-0.1-0.5-0.4-0.7s-0.8-0.3-1.4-0.5c-0.5-0.1-1-0.3-1.4-0.4
			c-0.4-0.1-0.7-0.3-0.9-0.5c-0.2-0.2-0.4-0.4-0.5-0.6c-0.1-0.2-0.2-0.5-0.2-0.8c0-0.4,0.1-0.8,0.2-1.2c0.2-0.3,0.4-0.6,0.7-0.9
			c0.3-0.2,0.6-0.4,1-0.6c0.4-0.1,0.8-0.2,1.3-0.2c0.6,0,1.2,0.1,1.8,0.3c0.5,0.2,1.1,0.5,1.5,0.9l-0.9,1.3
			c-0.4-0.3-0.8-0.6-1.2-0.7c-0.4-0.1-0.8-0.2-1.2-0.2c-0.4,0-0.7,0.1-0.9,0.2c-0.2,0.1-0.4,0.4-0.4,0.7c0,0.1,0,0.3,0.1,0.4
			c0.1,0.1,0.2,0.2,0.3,0.3c0.1,0.1,0.3,0.1,0.5,0.2c0.2,0.1,0.5,0.1,0.8,0.2c0.6,0.1,1.1,0.3,1.5,0.4c0.4,0.1,0.7,0.3,1,0.5
			s0.5,0.4,0.6,0.7s0.2,0.6,0.2,0.9c0,0.8-0.3,1.5-0.9,1.9S155.5,157.2,154.4,157.2z"/>
		<path class="st10" d="M159.2,147.5v-2.1h2.1v2.1H159.2z M159.2,157v-8.4h2.1v8.4H159.2z"/>
		<path class="st10" d="M168.4,156.6c-0.3,0.1-0.6,0.3-1.1,0.4s-0.9,0.2-1.3,0.2c-0.3,0-0.6,0-0.8-0.1c-0.3-0.1-0.5-0.2-0.7-0.4
			c-0.2-0.2-0.4-0.4-0.5-0.6c-0.1-0.3-0.2-0.6-0.2-1v-4.8h-1.1v-1.6h1.1v-2.7h2.1v2.7h1.8v1.6H166v4.1c0,0.3,0.1,0.5,0.2,0.6
			c0.2,0.1,0.3,0.2,0.6,0.2s0.4,0,0.7-0.1c0.2-0.1,0.4-0.1,0.5-0.2L168.4,156.6z"/>
		<path class="st10" d="M169.7,147.5v-2.1h2.1v2.1H169.7z M169.7,157v-8.4h2.1v8.4H169.7z"/>
		<path class="st10" d="M177.6,157.2c-0.7,0-1.3-0.1-1.8-0.4s-1-0.6-1.4-1c-0.4-0.4-0.7-0.9-0.9-1.4s-0.3-1.1-0.3-1.6
			c0-0.6,0.1-1.1,0.3-1.7s0.5-1,0.9-1.4c0.4-0.4,0.8-0.7,1.4-1c0.5-0.2,1.2-0.4,1.8-0.4c0.7,0,1.3,0.1,1.8,0.4c0.5,0.2,1,0.6,1.4,1
			c0.4,0.4,0.7,0.9,0.9,1.4c0.2,0.5,0.3,1.1,0.3,1.7c0,0.6-0.1,1.1-0.3,1.6c-0.2,0.5-0.5,1-0.9,1.4c-0.4,0.4-0.8,0.7-1.4,1
			S178.3,157.2,177.6,157.2z M175.4,152.9c0,0.4,0.1,0.7,0.2,1c0.1,0.3,0.3,0.6,0.5,0.8c0.2,0.2,0.4,0.4,0.7,0.5
			c0.3,0.1,0.6,0.2,0.9,0.2c0.3,0,0.6-0.1,0.9-0.2c0.3-0.1,0.5-0.3,0.7-0.5c0.2-0.2,0.4-0.5,0.5-0.8c0.1-0.3,0.2-0.7,0.2-1
			c0-0.4-0.1-0.7-0.2-1c-0.1-0.3-0.3-0.6-0.5-0.8c-0.2-0.2-0.4-0.4-0.7-0.5s-0.6-0.2-0.9-0.2c-0.3,0-0.6,0.1-0.9,0.2
			c-0.3,0.1-0.5,0.3-0.7,0.5c-0.2,0.2-0.4,0.5-0.5,0.8C175.5,152.2,175.4,152.5,175.4,152.9z"/>
		<path class="st10" d="M191.2,157h-2.1v-4.7c0-0.7-0.1-1.2-0.4-1.5c-0.2-0.3-0.6-0.5-1-0.5c-0.2,0-0.4,0-0.7,0.1
			c-0.2,0.1-0.4,0.2-0.6,0.4s-0.4,0.3-0.5,0.6c-0.2,0.2-0.3,0.4-0.4,0.7v4.9h-2.1v-8.4h1.9v1.6c0.3-0.5,0.8-0.9,1.3-1.2
			c0.6-0.3,1.2-0.4,2-0.4c0.5,0,0.9,0.1,1.3,0.3c0.3,0.2,0.6,0.4,0.8,0.8c0.2,0.3,0.3,0.7,0.4,1.1c0.1,0.4,0.1,0.8,0.1,1.2V157z"/>
		<path class="st10" d="M196.3,157.2c-0.7,0-1.4-0.1-2.1-0.3c-0.7-0.2-1.2-0.5-1.7-1l0.8-1.3c0.5,0.4,1,0.6,1.5,0.8s1,0.3,1.4,0.3
			c0.4,0,0.8-0.1,1-0.2c0.2-0.2,0.4-0.4,0.4-0.7c0-0.3-0.1-0.5-0.4-0.7s-0.8-0.3-1.4-0.5c-0.5-0.1-1-0.3-1.4-0.4
			c-0.4-0.1-0.7-0.3-0.9-0.5c-0.2-0.2-0.4-0.4-0.5-0.6c-0.1-0.2-0.2-0.5-0.2-0.8c0-0.4,0.1-0.8,0.2-1.2c0.2-0.3,0.4-0.6,0.7-0.9
			c0.3-0.2,0.6-0.4,1-0.6c0.4-0.1,0.8-0.2,1.3-0.2c0.6,0,1.2,0.1,1.8,0.3c0.5,0.2,1.1,0.5,1.5,0.9l-0.9,1.3
			c-0.4-0.3-0.8-0.6-1.2-0.7c-0.4-0.1-0.8-0.2-1.2-0.2c-0.4,0-0.7,0.1-0.9,0.2c-0.2,0.1-0.4,0.4-0.4,0.7c0,0.1,0,0.3,0.1,0.4
			c0.1,0.1,0.2,0.2,0.3,0.3c0.1,0.1,0.3,0.1,0.5,0.2c0.2,0.1,0.5,0.1,0.8,0.2c0.6,0.1,1.1,0.3,1.5,0.4c0.4,0.1,0.7,0.3,1,0.5
			s0.5,0.4,0.6,0.7s0.2,0.6,0.2,0.9c0,0.8-0.3,1.5-0.9,1.9S197.3,157.2,196.3,157.2z"/>
	</g>
	<g class="st0">
		<path class="st9" d="M224.3,402v1.9h-6.5V402h2.3v-4.8c-0.1,0.1-0.2,0.3-0.5,0.4c-0.2,0.1-0.4,0.3-0.7,0.4
			c-0.2,0.1-0.5,0.2-0.8,0.3c-0.3,0.1-0.5,0.1-0.7,0.1v-2c0.2,0,0.4-0.1,0.7-0.2c0.3-0.1,0.5-0.3,0.8-0.4c0.3-0.2,0.5-0.3,0.7-0.5
			c0.2-0.2,0.3-0.3,0.4-0.4h2.2v7.2H224.3z"/>
		<path class="st9" d="M233.7,399.2c0,0.7-0.1,1.4-0.3,1.9s-0.5,1.1-0.9,1.5c-0.4,0.4-0.8,0.8-1.3,1c-0.5,0.2-1.1,0.4-1.6,0.4
			c-0.6,0-1.1-0.1-1.6-0.4c-0.5-0.2-0.9-0.6-1.3-1s-0.7-0.9-0.9-1.5s-0.3-1.2-0.3-1.9c0-0.7,0.1-1.4,0.3-1.9s0.5-1.1,0.9-1.5
			s0.8-0.8,1.3-1c0.5-0.2,1.1-0.4,1.6-0.4c0.6,0,1.1,0.1,1.6,0.4c0.5,0.2,0.9,0.6,1.3,1c0.4,0.4,0.7,0.9,0.9,1.5
			S233.7,398.5,233.7,399.2z M231.6,399.2c0-0.4,0-0.8-0.1-1.2c-0.1-0.4-0.2-0.7-0.4-0.9c-0.2-0.3-0.4-0.5-0.6-0.6
			c-0.2-0.1-0.5-0.2-0.8-0.2c-0.3,0-0.6,0.1-0.8,0.2s-0.4,0.3-0.6,0.6s-0.3,0.6-0.4,0.9c-0.1,0.4-0.1,0.8-0.1,1.2
			c0,0.4,0,0.8,0.1,1.2c0.1,0.4,0.2,0.7,0.4,0.9c0.2,0.3,0.4,0.5,0.6,0.6s0.5,0.2,0.8,0.2c0.3,0,0.6-0.1,0.8-0.2
			c0.2-0.1,0.4-0.3,0.6-0.6c0.2-0.3,0.3-0.6,0.4-0.9C231.5,400,231.6,399.6,231.6,399.2z"/>
		<path class="st9" d="M237.7,397.2c-0.4,0-0.7-0.1-1-0.2c-0.3-0.1-0.6-0.3-0.8-0.5c-0.2-0.2-0.4-0.5-0.6-0.8
			c-0.1-0.3-0.2-0.6-0.2-1c0-0.3,0.1-0.6,0.2-0.9s0.3-0.6,0.6-0.8c0.2-0.2,0.5-0.4,0.8-0.5c0.3-0.1,0.7-0.2,1-0.2
			c0.4,0,0.7,0.1,1,0.2s0.6,0.3,0.8,0.5c0.2,0.2,0.4,0.5,0.6,0.8s0.2,0.6,0.2,0.9c0,0.3-0.1,0.7-0.2,1c-0.1,0.3-0.3,0.5-0.6,0.8
			c-0.2,0.2-0.5,0.4-0.8,0.5S238.1,397.2,237.7,397.2z M236,403.1l4.5-5.3l4.2-5.5l1,0.9l-4.4,5.2L237,404L236,403.1z M237.7,396.1
			c0.2,0,0.3,0,0.4-0.1c0.1-0.1,0.3-0.2,0.4-0.3c0.1-0.1,0.2-0.3,0.2-0.4s0.1-0.3,0.1-0.5c0-0.4-0.1-0.7-0.3-1
			c-0.2-0.3-0.5-0.4-0.8-0.4c-0.2,0-0.3,0-0.4,0.1s-0.3,0.2-0.4,0.3c-0.1,0.1-0.2,0.3-0.2,0.4s-0.1,0.3-0.1,0.5c0,0.4,0.1,0.7,0.3,1
			S237.4,396.1,237.7,396.1z M243.9,404.1c-0.4,0-0.7-0.1-1-0.2c-0.3-0.1-0.6-0.3-0.8-0.5c-0.2-0.2-0.4-0.5-0.6-0.8
			c-0.1-0.3-0.2-0.6-0.2-1s0.1-0.7,0.2-1c0.1-0.3,0.3-0.5,0.6-0.8c0.2-0.2,0.5-0.4,0.8-0.5c0.3-0.1,0.7-0.2,1-0.2
			c0.4,0,0.7,0.1,1,0.2c0.3,0.1,0.6,0.3,0.8,0.5s0.4,0.5,0.6,0.8c0.1,0.3,0.2,0.6,0.2,1s-0.1,0.7-0.2,1c-0.1,0.3-0.3,0.5-0.6,0.8
			c-0.2,0.2-0.5,0.4-0.8,0.5C244.6,404,244.3,404.1,243.9,404.1z M243.9,403c0.2,0,0.3,0,0.4-0.1c0.1-0.1,0.3-0.2,0.4-0.3
			c0.1-0.1,0.2-0.3,0.2-0.4s0.1-0.3,0.1-0.5c0-0.2,0-0.4-0.1-0.5c-0.1-0.2-0.1-0.3-0.2-0.4c-0.1-0.1-0.2-0.2-0.4-0.3
			s-0.3-0.1-0.4-0.1c-0.2,0-0.3,0-0.4,0.1c-0.1,0.1-0.3,0.2-0.4,0.3c-0.1,0.1-0.2,0.3-0.2,0.4c-0.1,0.2-0.1,0.3-0.1,0.5
			c0,0.4,0.1,0.7,0.3,1C243.3,402.8,243.6,403,243.9,403z"/>
	</g>
	<g class="st0">
		<path class="st9" d="M373.1,397.1c0.7,0.1,1.2,0.4,1.6,1c0.4,0.5,0.6,1.1,0.6,1.9c0,0.5-0.1,1-0.3,1.4s-0.5,0.8-0.8,1
			s-0.8,0.5-1.3,0.7c-0.5,0.2-1.1,0.2-1.7,0.2c-0.8,0-1.5-0.1-2.2-0.4s-1.1-0.6-1.6-1.1l1.2-1.5c0.3,0.4,0.6,0.6,1,0.8
			c0.4,0.2,0.9,0.3,1.4,0.3c0.7,0,1.1-0.1,1.5-0.4c0.3-0.3,0.5-0.7,0.5-1.2c0-0.6-0.2-1-0.6-1.3c-0.4-0.3-1-0.4-1.8-0.4h-0.4v-1.6
			h0.5c0.7,0,1.2-0.1,1.5-0.4c0.4-0.3,0.5-0.7,0.5-1.1c0-0.4-0.1-0.8-0.4-1c-0.3-0.2-0.7-0.3-1.2-0.3c-0.5,0-0.9,0.1-1.3,0.3
			c-0.4,0.2-0.7,0.5-1,0.9l-1.3-1.5c0.2-0.2,0.4-0.5,0.6-0.7s0.6-0.4,0.9-0.5c0.3-0.1,0.7-0.3,1.1-0.3s0.8-0.1,1.2-0.1
			c0.5,0,1,0.1,1.5,0.2s0.8,0.3,1.2,0.6c0.3,0.2,0.6,0.5,0.8,0.9s0.3,0.7,0.3,1.2c0,0.3,0,0.6-0.1,0.9s-0.2,0.5-0.4,0.8
			c-0.2,0.2-0.4,0.4-0.6,0.6C373.7,397,373.4,397.1,373.1,397.1z"/>
		<path class="st9" d="M379.1,394.2c-0.4,0-0.7-0.1-1-0.2c-0.3-0.1-0.6-0.3-0.8-0.5c-0.2-0.2-0.4-0.5-0.6-0.8
			c-0.1-0.3-0.2-0.6-0.2-1c0-0.3,0.1-0.6,0.2-0.9s0.3-0.6,0.6-0.8c0.2-0.2,0.5-0.4,0.8-0.5c0.3-0.1,0.7-0.2,1-0.2
			c0.4,0,0.7,0.1,1,0.2s0.6,0.3,0.8,0.5c0.2,0.2,0.4,0.5,0.6,0.8s0.2,0.6,0.2,0.9c0,0.3-0.1,0.7-0.2,1c-0.1,0.3-0.3,0.5-0.6,0.8
			c-0.2,0.2-0.5,0.4-0.8,0.5S379.5,394.2,379.1,394.2z M377.4,400.2l4.5-5.3l4.2-5.5l1,0.9l-4.4,5.2l-4.3,5.6L377.4,400.2z
			 M379.1,393.2c0.2,0,0.3,0,0.4-0.1c0.1-0.1,0.3-0.2,0.4-0.3c0.1-0.1,0.2-0.3,0.2-0.4s0.1-0.3,0.1-0.5c0-0.4-0.1-0.7-0.3-1
			c-0.2-0.3-0.5-0.4-0.8-0.4c-0.2,0-0.3,0-0.4,0.1c-0.1,0.1-0.3,0.2-0.4,0.3c-0.1,0.1-0.2,0.3-0.2,0.4s-0.1,0.3-0.1,0.5
			c0,0.4,0.1,0.7,0.3,1C378.5,393,378.8,393.2,379.1,393.2z M385.3,401.1c-0.4,0-0.7-0.1-1-0.2c-0.3-0.1-0.6-0.3-0.8-0.5
			c-0.2-0.2-0.4-0.5-0.6-0.8c-0.1-0.3-0.2-0.6-0.2-1s0.1-0.7,0.2-1c0.1-0.3,0.3-0.5,0.6-0.8c0.2-0.2,0.5-0.4,0.8-0.5
			c0.3-0.1,0.7-0.2,1-0.2c0.4,0,0.7,0.1,1,0.2c0.3,0.1,0.6,0.3,0.8,0.5s0.4,0.5,0.6,0.8c0.1,0.3,0.2,0.6,0.2,1s-0.1,0.7-0.2,1
			c-0.1,0.3-0.3,0.5-0.6,0.8c-0.2,0.2-0.5,0.4-0.8,0.5C386,401,385.7,401.1,385.3,401.1z M385.3,400c0.2,0,0.3,0,0.4-0.1
			c0.1-0.1,0.3-0.2,0.4-0.3c0.1-0.1,0.2-0.3,0.2-0.4s0.1-0.3,0.1-0.5c0-0.2,0-0.4-0.1-0.5c-0.1-0.2-0.1-0.3-0.2-0.4
			c-0.1-0.1-0.2-0.2-0.4-0.3s-0.3-0.1-0.4-0.1c-0.2,0-0.3,0-0.4,0.1c-0.1,0.1-0.3,0.2-0.4,0.3c-0.1,0.1-0.2,0.3-0.2,0.4
			c-0.1,0.2-0.1,0.3-0.1,0.5c0,0.4,0.1,0.7,0.3,1C384.7,399.9,385,400,385.3,400z"/>
	</g>
	<g class="st0">
		<path class="st9" d="M82.3,303.4v2.4h-8.1v-2.4H77v-6.1c-0.1,0.2-0.3,0.3-0.6,0.5c-0.3,0.2-0.5,0.3-0.8,0.5
			c-0.3,0.1-0.6,0.3-1,0.4c-0.3,0.1-0.6,0.1-0.9,0.1v-2.5c0.2,0,0.5-0.1,0.9-0.2s0.7-0.3,1-0.5c0.3-0.2,0.6-0.4,0.9-0.6
			s0.4-0.4,0.5-0.5h2.7v9H82.3z"/>
		<path class="st9" d="M89.6,296.6h-6.5v-2.4h10.7l-7,14.2h-3L89.6,296.6z"/>
		<path class="st9" d="M98,297.5c-0.5,0-0.9-0.1-1.3-0.2c-0.4-0.2-0.7-0.4-1-0.7c-0.3-0.3-0.5-0.6-0.7-1c-0.2-0.4-0.3-0.8-0.3-1.2
			c0-0.4,0.1-0.8,0.3-1.2c0.2-0.4,0.4-0.7,0.7-1c0.3-0.3,0.6-0.5,1-0.6c0.4-0.2,0.8-0.2,1.3-0.2c0.5,0,0.9,0.1,1.3,0.2
			s0.8,0.4,1,0.6s0.5,0.6,0.7,1c0.2,0.4,0.3,0.8,0.3,1.2c0,0.4-0.1,0.8-0.3,1.2c-0.2,0.4-0.4,0.7-0.7,1c-0.3,0.3-0.6,0.5-1,0.7
			S98.5,297.5,98,297.5z M95.8,304.9l5.6-6.6l5.2-6.8l1.2,1.1l-5.5,6.5l-5.4,7L95.8,304.9z M98,296.1c0.2,0,0.4,0,0.5-0.1
			c0.2-0.1,0.3-0.2,0.5-0.4c0.1-0.2,0.2-0.3,0.3-0.5c0.1-0.2,0.1-0.4,0.1-0.6c0-0.5-0.1-0.9-0.4-1.2c-0.3-0.3-0.6-0.5-1-0.5
			c-0.2,0-0.4,0-0.5,0.1c-0.2,0.1-0.3,0.2-0.5,0.4s-0.2,0.3-0.3,0.5c-0.1,0.2-0.1,0.4-0.1,0.6c0,0.5,0.1,0.9,0.4,1.2
			S97.6,296.1,98,296.1z M105.7,306c-0.5,0-0.9-0.1-1.3-0.2s-0.7-0.4-1-0.6s-0.5-0.6-0.7-1c-0.2-0.4-0.3-0.8-0.3-1.2
			c0-0.4,0.1-0.8,0.3-1.2c0.2-0.4,0.4-0.7,0.7-1s0.6-0.5,1-0.7s0.8-0.2,1.3-0.2c0.5,0,0.9,0.1,1.3,0.2s0.8,0.4,1,0.7
			c0.3,0.3,0.5,0.6,0.7,1c0.2,0.4,0.2,0.8,0.2,1.2c0,0.4-0.1,0.8-0.2,1.2c-0.2,0.4-0.4,0.7-0.7,1c-0.3,0.3-0.6,0.5-1,0.6
			S106.2,306,105.7,306z M105.7,304.7c0.2,0,0.4,0,0.5-0.1c0.2-0.1,0.3-0.2,0.5-0.4c0.1-0.2,0.2-0.3,0.3-0.5
			c0.1-0.2,0.1-0.4,0.1-0.6c0-0.2,0-0.5-0.1-0.7c-0.1-0.2-0.2-0.4-0.3-0.5c-0.1-0.2-0.3-0.3-0.5-0.4s-0.4-0.1-0.5-0.1
			c-0.2,0-0.4,0-0.6,0.1c-0.2,0.1-0.3,0.2-0.4,0.4c-0.1,0.2-0.2,0.3-0.3,0.5c-0.1,0.2-0.1,0.4-0.1,0.6c0,0.5,0.1,0.9,0.4,1.2
			C105,304.5,105.3,304.7,105.7,304.7z"/>
	</g>
	<g class="st0">
		<path class="st9" d="M289.2,249.6c0-0.8,0.1-1.4,0.2-2c0.1-0.6,0.3-1.2,0.6-1.7c0.3-0.5,0.7-1,1.2-1.5c0.5-0.5,1.2-0.9,1.9-1.3
			c0.7-0.4,1.3-0.7,1.8-1c0.5-0.3,1-0.5,1.3-0.8c0.3-0.2,0.6-0.5,0.8-0.7c0.2-0.2,0.3-0.5,0.3-0.8c0-0.5-0.2-0.9-0.6-1.3
			c-0.4-0.4-1-0.5-1.7-0.5c-0.4,0-0.8,0.1-1.1,0.2c-0.3,0.1-0.6,0.3-0.9,0.4c-0.3,0.2-0.6,0.4-0.8,0.6c-0.2,0.2-0.5,0.5-0.7,0.7
			l-2.2-2.5c0.2-0.2,0.5-0.5,0.9-0.8c0.4-0.3,0.9-0.5,1.4-0.8c0.5-0.2,1.1-0.4,1.8-0.6s1.4-0.2,2.1-0.2c0.9,0,1.6,0.1,2.3,0.3
			c0.7,0.2,1.2,0.5,1.7,0.9c0.5,0.4,0.8,0.8,1,1.4c0.2,0.5,0.4,1.1,0.4,1.7c0,0.6-0.1,1.1-0.3,1.6c-0.2,0.4-0.5,0.8-0.8,1.2
			c-0.3,0.4-0.7,0.7-1.1,0.9s-0.8,0.5-1.1,0.7c-0.3,0.2-0.6,0.4-1,0.6c-0.4,0.2-0.8,0.5-1.1,0.7c-0.4,0.3-0.7,0.5-1,0.8
			c-0.3,0.3-0.6,0.5-0.7,0.8h7.6v3H289.2z"/>
		<path class="st9" d="M316.5,242.2c0,1.1-0.2,2.1-0.5,3c-0.3,0.9-0.8,1.7-1.4,2.4s-1.3,1.2-2,1.6c-0.8,0.4-1.6,0.6-2.6,0.6
			c-0.9,0-1.8-0.2-2.6-0.6s-1.5-0.9-2-1.6s-1-1.5-1.4-2.4c-0.3-0.9-0.5-1.9-0.5-3c0-1.1,0.2-2.1,0.5-3c0.3-0.9,0.8-1.7,1.4-2.4
			s1.3-1.2,2-1.6c0.8-0.4,1.6-0.6,2.6-0.6c0.9,0,1.8,0.2,2.6,0.6c0.8,0.4,1.5,0.9,2,1.6s1,1.5,1.4,2.4
			C316.3,240.1,316.5,241.1,316.5,242.2z M313.1,242.2c0-0.7-0.1-1.3-0.2-1.8c-0.1-0.6-0.4-1-0.6-1.4c-0.3-0.4-0.6-0.7-1-0.9
			c-0.4-0.2-0.8-0.3-1.2-0.3c-0.5,0-0.9,0.1-1.3,0.3c-0.4,0.2-0.7,0.5-1,0.9c-0.3,0.4-0.5,0.9-0.6,1.4c-0.2,0.6-0.2,1.2-0.2,1.8
			c0,0.7,0.1,1.3,0.2,1.8s0.4,1,0.6,1.4c0.3,0.4,0.6,0.7,1,0.9c0.4,0.2,0.8,0.3,1.3,0.3c0.5,0,0.9-0.1,1.2-0.3
			c0.4-0.2,0.7-0.5,1-0.9c0.3-0.4,0.5-0.9,0.6-1.4C313,243.5,313.1,242.9,313.1,242.2z"/>
		<path class="st9" d="M322.7,239.1c-0.6,0-1.1-0.1-1.6-0.3c-0.5-0.2-0.9-0.5-1.3-0.8c-0.4-0.3-0.7-0.7-0.9-1.2
			c-0.2-0.5-0.3-1-0.3-1.5c0-0.5,0.1-1,0.3-1.5c0.2-0.5,0.5-0.9,0.9-1.2c0.4-0.3,0.8-0.6,1.3-0.8s1-0.3,1.6-0.3
			c0.6,0,1.1,0.1,1.6,0.3c0.5,0.2,0.9,0.5,1.3,0.8c0.4,0.3,0.7,0.7,0.9,1.2c0.2,0.5,0.3,1,0.3,1.5c0,0.5-0.1,1-0.3,1.5
			s-0.5,0.9-0.9,1.2c-0.4,0.3-0.8,0.6-1.3,0.8C323.8,239,323.3,239.1,322.7,239.1z M320,248.4l7.1-8.2l6.5-8.5l1.5,1.4l-6.8,8.1
			l-6.7,8.7L320,248.4z M322.7,237.5c0.2,0,0.5-0.1,0.7-0.2c0.2-0.1,0.4-0.3,0.6-0.5c0.2-0.2,0.3-0.4,0.4-0.7
			c0.1-0.3,0.1-0.5,0.1-0.8c0-0.6-0.2-1.1-0.5-1.5c-0.4-0.4-0.8-0.6-1.2-0.6c-0.2,0-0.5,0.1-0.7,0.2c-0.2,0.1-0.4,0.3-0.6,0.5
			c-0.2,0.2-0.3,0.4-0.4,0.7s-0.1,0.5-0.1,0.8c0,0.6,0.2,1.1,0.5,1.5C321.8,237.2,322.2,237.5,322.7,237.5z M332.4,249.8
			c-0.6,0-1.1-0.1-1.6-0.3s-0.9-0.5-1.3-0.8c-0.4-0.3-0.7-0.7-0.9-1.2c-0.2-0.5-0.3-1-0.3-1.5c0-0.5,0.1-1,0.3-1.5
			c0.2-0.5,0.5-0.9,0.9-1.2c0.4-0.3,0.8-0.6,1.3-0.8c0.5-0.2,1-0.3,1.6-0.3c0.6,0,1.1,0.1,1.6,0.3c0.5,0.2,0.9,0.5,1.3,0.8
			c0.4,0.3,0.7,0.7,0.9,1.2c0.2,0.5,0.3,1,0.3,1.5c0,0.5-0.1,1-0.3,1.5c-0.2,0.5-0.5,0.9-0.9,1.2c-0.4,0.3-0.8,0.6-1.3,0.8
			S332.9,249.8,332.4,249.8z M332.4,248.1c0.2,0,0.5-0.1,0.7-0.2c0.2-0.1,0.4-0.3,0.6-0.5c0.2-0.2,0.3-0.4,0.4-0.7s0.1-0.5,0.1-0.8
			c0-0.3,0-0.6-0.2-0.8c-0.1-0.3-0.2-0.5-0.4-0.7c-0.2-0.2-0.3-0.3-0.6-0.5c-0.2-0.1-0.4-0.2-0.7-0.2c-0.2,0-0.5,0.1-0.7,0.2
			c-0.2,0.1-0.4,0.3-0.6,0.5c-0.2,0.2-0.3,0.4-0.4,0.7c-0.1,0.3-0.1,0.5-0.1,0.8c0,0.6,0.2,1.1,0.5,1.5
			C331.5,247.9,331.9,248.1,332.4,248.1z"/>
	</g>
	<g class="st0">
		<path class="st9" d="M355.3,81.6c0-0.8,0.1-1.4,0.2-2c0.1-0.6,0.3-1.2,0.6-1.7c0.3-0.5,0.7-1,1.2-1.4c0.5-0.5,1.2-0.9,1.9-1.3
			c0.7-0.4,1.3-0.7,1.8-1c0.5-0.3,1-0.5,1.3-0.8c0.3-0.2,0.6-0.5,0.8-0.7c0.2-0.2,0.3-0.5,0.3-0.8c0-0.5-0.2-0.9-0.6-1.3
			c-0.4-0.4-1-0.5-1.7-0.5c-0.4,0-0.8,0.1-1.1,0.2c-0.3,0.1-0.6,0.3-0.9,0.4c-0.3,0.2-0.6,0.4-0.8,0.6c-0.2,0.2-0.5,0.5-0.7,0.7
			l-2.2-2.5c0.2-0.2,0.5-0.5,0.9-0.8c0.4-0.3,0.9-0.5,1.4-0.8c0.5-0.2,1.1-0.4,1.8-0.6c0.7-0.2,1.4-0.2,2.1-0.2
			c0.9,0,1.6,0.1,2.3,0.3c0.7,0.2,1.2,0.5,1.7,0.9c0.5,0.4,0.8,0.8,1,1.4c0.2,0.5,0.4,1.1,0.4,1.7c0,0.6-0.1,1.1-0.3,1.5
			c-0.2,0.5-0.5,0.9-0.8,1.2c-0.3,0.4-0.7,0.7-1.1,0.9s-0.8,0.5-1.1,0.7c-0.3,0.2-0.6,0.4-1,0.6c-0.4,0.2-0.8,0.5-1.1,0.7
			c-0.4,0.3-0.7,0.5-1,0.8s-0.6,0.5-0.7,0.8h7.6v3H355.3z"/>
		<path class="st9" d="M382.6,74.3c0,1.1-0.2,2.1-0.5,3c-0.3,0.9-0.8,1.7-1.4,2.4c-0.6,0.7-1.3,1.2-2,1.6c-0.8,0.4-1.6,0.6-2.6,0.6
			c-0.9,0-1.8-0.2-2.6-0.6s-1.5-0.9-2-1.6c-0.6-0.7-1-1.5-1.4-2.4c-0.3-0.9-0.5-1.9-0.5-3c0-1.1,0.2-2.1,0.5-3
			c0.3-0.9,0.8-1.7,1.4-2.4c0.6-0.7,1.3-1.2,2-1.6c0.8-0.4,1.6-0.6,2.6-0.6c0.9,0,1.8,0.2,2.6,0.6c0.8,0.4,1.5,0.9,2,1.6
			c0.6,0.7,1,1.5,1.4,2.4C382.4,72.2,382.6,73.2,382.6,74.3z M379.2,74.3c0-0.7-0.1-1.3-0.2-1.8c-0.1-0.6-0.4-1-0.6-1.4
			c-0.3-0.4-0.6-0.7-1-0.9c-0.4-0.2-0.8-0.3-1.2-0.3c-0.5,0-0.9,0.1-1.3,0.3c-0.4,0.2-0.7,0.5-1,0.9c-0.3,0.4-0.5,0.9-0.6,1.4
			c-0.2,0.6-0.2,1.2-0.2,1.8c0,0.7,0.1,1.3,0.2,1.8s0.4,1,0.6,1.4c0.3,0.4,0.6,0.7,1,0.9c0.4,0.2,0.8,0.3,1.3,0.3
			c0.5,0,0.9-0.1,1.2-0.3c0.4-0.2,0.7-0.5,1-0.9c0.3-0.4,0.5-0.9,0.6-1.4C379.1,75.6,379.2,75,379.2,74.3z"/>
		<path class="st9" d="M388.8,71.2c-0.6,0-1.1-0.1-1.6-0.3c-0.5-0.2-0.9-0.5-1.3-0.8c-0.4-0.3-0.7-0.7-0.9-1.2
			c-0.2-0.5-0.3-1-0.3-1.5c0-0.5,0.1-1,0.3-1.5c0.2-0.5,0.5-0.9,0.9-1.2c0.4-0.3,0.8-0.6,1.3-0.8c0.5-0.2,1-0.3,1.6-0.3
			c0.6,0,1.1,0.1,1.6,0.3c0.5,0.2,0.9,0.5,1.3,0.8c0.4,0.3,0.7,0.7,0.9,1.2c0.2,0.5,0.3,1,0.3,1.5c0,0.5-0.1,1-0.3,1.5
			s-0.5,0.9-0.9,1.2c-0.4,0.3-0.8,0.6-1.3,0.8C389.9,71.1,389.4,71.2,388.8,71.2z M386.1,80.5l7.1-8.2l6.5-8.6l1.5,1.4l-6.8,8.1
			l-6.7,8.7L386.1,80.5z M388.8,69.5c0.2,0,0.5-0.1,0.7-0.2c0.2-0.1,0.4-0.3,0.6-0.5c0.2-0.2,0.3-0.4,0.4-0.7
			c0.1-0.3,0.1-0.5,0.1-0.8c0-0.6-0.2-1.1-0.5-1.5c-0.4-0.4-0.8-0.6-1.2-0.6c-0.2,0-0.5,0.1-0.7,0.2c-0.2,0.1-0.4,0.3-0.6,0.5
			c-0.2,0.2-0.3,0.4-0.4,0.7s-0.1,0.5-0.1,0.8c0,0.6,0.2,1.1,0.5,1.5C387.9,69.3,388.3,69.5,388.8,69.5z M398.4,81.9
			c-0.6,0-1.1-0.1-1.6-0.3c-0.5-0.2-0.9-0.5-1.3-0.8c-0.4-0.3-0.7-0.7-0.9-1.2c-0.2-0.5-0.3-1-0.3-1.5c0-0.5,0.1-1,0.3-1.5
			c0.2-0.5,0.5-0.9,0.9-1.2c0.4-0.3,0.8-0.6,1.3-0.8c0.5-0.2,1-0.3,1.6-0.3c0.6,0,1.1,0.1,1.6,0.3c0.5,0.2,0.9,0.5,1.3,0.8
			c0.4,0.3,0.7,0.7,0.9,1.2c0.2,0.5,0.3,1,0.3,1.5c0,0.5-0.1,1-0.3,1.5c-0.2,0.5-0.5,0.9-0.9,1.2c-0.4,0.3-0.8,0.6-1.3,0.8
			C399.6,81.8,399,81.9,398.4,81.9z M398.4,80.2c0.2,0,0.5-0.1,0.7-0.2c0.2-0.1,0.4-0.3,0.6-0.5c0.2-0.2,0.3-0.4,0.4-0.7
			s0.1-0.5,0.1-0.8c0-0.3,0-0.6-0.2-0.8c-0.1-0.3-0.2-0.5-0.4-0.7c-0.2-0.2-0.3-0.3-0.6-0.4c-0.2-0.1-0.4-0.2-0.7-0.2
			c-0.2,0-0.5,0.1-0.7,0.2c-0.2,0.1-0.4,0.3-0.6,0.5c-0.2,0.2-0.3,0.4-0.4,0.7c-0.1,0.3-0.1,0.5-0.1,0.8c0,0.6,0.2,1.1,0.5,1.5
			C397.5,80,398,80.2,398.4,80.2z"/>
	</g>
	<g class="st0">
		<path class="st10" d="M134.4,103.1c1.4,0.3,2.6,1,3.5,2.1c0.9,1.1,1.3,2.5,1.3,4.1c0,1.1-0.2,2.1-0.6,3c-0.4,0.9-1,1.6-1.8,2.3
			c-0.8,0.6-1.7,1.1-2.9,1.4c-1.1,0.3-2.4,0.5-3.8,0.5c-1.8,0-3.3-0.3-4.7-0.9c-1.4-0.6-2.5-1.4-3.4-2.5l2.7-3.3
			c0.6,0.8,1.3,1.4,2.2,1.8s1.9,0.6,3.1,0.6c1.4,0,2.5-0.3,3.3-0.8c0.7-0.6,1.1-1.4,1.1-2.6c0-1.2-0.4-2.1-1.3-2.8
			c-0.9-0.7-2.2-1-3.9-1h-1v-3.5h1.1c1.4,0,2.6-0.3,3.4-1c0.8-0.6,1.2-1.5,1.2-2.5c0-1-0.3-1.7-1-2.1c-0.7-0.5-1.5-0.7-2.6-0.7
			c-1.1,0-2,0.2-2.9,0.7c-0.9,0.5-1.5,1.2-2.1,2.1l-2.9-3.3c0.4-0.5,0.8-1,1.4-1.5c0.6-0.4,1.2-0.8,2-1.1s1.5-0.6,2.4-0.7
			c0.9-0.2,1.8-0.3,2.7-0.3c1.2,0,2.3,0.2,3.3,0.5c1,0.3,1.8,0.7,2.5,1.3c0.7,0.5,1.3,1.2,1.6,1.9c0.4,0.8,0.6,1.6,0.6,2.5
			c0,0.7-0.1,1.4-0.3,2c-0.2,0.6-0.5,1.2-0.9,1.7c-0.4,0.5-0.9,0.9-1.4,1.3C135.7,102.8,135,103,134.4,103.1z"/>
		<path class="st10" d="M160.4,101.1c0,1.5-0.2,3-0.7,4.3c-0.5,1.3-1.1,2.4-1.9,3.4c-0.8,0.9-1.8,1.7-2.9,2.2
			c-1.1,0.5-2.3,0.8-3.6,0.8c-1.3,0-2.5-0.3-3.6-0.8c-1.1-0.5-2-1.3-2.9-2.2c-0.8-0.9-1.4-2.1-1.9-3.4s-0.7-2.7-0.7-4.3
			s0.2-3,0.7-4.3c0.5-1.3,1.1-2.4,1.9-3.4c0.8-0.9,1.8-1.7,2.9-2.2c1.1-0.5,2.3-0.8,3.6-0.8c1.3,0,2.5,0.3,3.6,0.8
			c1.1,0.5,2.1,1.3,2.9,2.2c0.8,0.9,1.4,2.1,1.9,3.4C160.1,98.2,160.4,99.6,160.4,101.1z M155.6,101.1c0-0.9-0.1-1.8-0.3-2.6
			c-0.2-0.8-0.5-1.5-0.9-2c-0.4-0.6-0.8-1-1.4-1.3s-1.1-0.5-1.7-0.5c-0.7,0-1.2,0.2-1.8,0.5s-1,0.7-1.4,1.3c-0.4,0.6-0.7,1.2-0.9,2
			c-0.2,0.8-0.3,1.6-0.3,2.6c0,0.9,0.1,1.8,0.3,2.6c0.2,0.8,0.5,1.4,0.9,2c0.4,0.6,0.8,1,1.4,1.3c0.5,0.3,1.1,0.5,1.8,0.5
			c0.6,0,1.2-0.2,1.7-0.5c0.5-0.3,1-0.7,1.4-1.3c0.4-0.6,0.7-1.2,0.9-2S155.6,102.1,155.6,101.1z"/>
		<path class="st10" d="M169.1,96.8c-0.8,0-1.6-0.1-2.3-0.4c-0.7-0.3-1.3-0.7-1.8-1.1c-0.5-0.5-0.9-1-1.2-1.7
			c-0.3-0.6-0.5-1.3-0.5-2.1c0-0.7,0.2-1.4,0.5-2.1c0.3-0.7,0.7-1.2,1.2-1.7c0.5-0.5,1.1-0.8,1.8-1.1c0.7-0.3,1.5-0.4,2.3-0.4
			c0.8,0,1.5,0.1,2.3,0.4c0.7,0.3,1.3,0.7,1.8,1.1c0.5,0.5,0.9,1,1.2,1.7c0.3,0.7,0.5,1.3,0.5,2.1c0,0.7-0.2,1.4-0.5,2.1
			c-0.3,0.6-0.7,1.2-1.2,1.7c-0.5,0.5-1.1,0.9-1.8,1.1C170.6,96.7,169.9,96.8,169.1,96.8z M165.3,109.8l9.9-11.5l9.1-12l2.1,1.9
			l-9.6,11.3l-9.4,12.2L165.3,109.8z M169.1,94.5c0.4,0,0.7-0.1,1-0.2c0.3-0.2,0.6-0.4,0.8-0.6c0.2-0.3,0.4-0.6,0.5-0.9
			c0.1-0.4,0.2-0.7,0.2-1.1c0-0.8-0.2-1.5-0.7-2.1c-0.5-0.6-1.1-0.9-1.8-0.9c-0.4,0-0.7,0.1-1,0.2c-0.3,0.2-0.6,0.4-0.8,0.6
			c-0.2,0.3-0.4,0.6-0.5,0.9c-0.1,0.4-0.2,0.7-0.2,1.1c0,0.8,0.2,1.5,0.7,2.1C167.8,94.2,168.4,94.5,169.1,94.5z M182.6,111.8
			c-0.8,0-1.6-0.1-2.3-0.4c-0.7-0.3-1.3-0.7-1.8-1.1c-0.5-0.5-0.9-1-1.2-1.7c-0.3-0.6-0.5-1.3-0.5-2.1c0-0.7,0.2-1.4,0.5-2.1
			c0.3-0.6,0.7-1.2,1.2-1.7c0.5-0.5,1.1-0.9,1.8-1.1c0.7-0.3,1.5-0.4,2.3-0.4s1.6,0.1,2.3,0.4c0.7,0.3,1.3,0.7,1.8,1.1
			c0.5,0.5,0.9,1,1.2,1.7c0.3,0.6,0.4,1.3,0.4,2.1c0,0.7-0.1,1.4-0.4,2.1c-0.3,0.6-0.7,1.2-1.2,1.7c-0.5,0.5-1.1,0.8-1.8,1.1
			C184.2,111.6,183.4,111.8,182.6,111.8z M182.6,109.4c0.4,0,0.7-0.1,1-0.2c0.3-0.2,0.6-0.4,0.8-0.6c0.2-0.3,0.4-0.6,0.5-0.9
			c0.1-0.4,0.2-0.7,0.2-1.1c0-0.4-0.1-0.8-0.2-1.2c-0.1-0.4-0.3-0.7-0.5-0.9c-0.2-0.3-0.5-0.5-0.8-0.6c-0.3-0.2-0.6-0.2-0.9-0.2
			c-0.3,0-0.7,0.1-1,0.2c-0.3,0.2-0.6,0.4-0.8,0.6c-0.2,0.3-0.4,0.6-0.5,0.9s-0.2,0.7-0.2,1.1c0,0.8,0.2,1.5,0.7,2.1
			C181.3,109.1,181.9,109.4,182.6,109.4z"/>
	</g>
	<g class="st0">
		<path class="st9" d="M336.8,426.8v-11.4h2.2v9.4h5.8v1.9H336.8z"/>
		<path class="st9" d="M349.8,427c-0.7,0-1.3-0.1-1.8-0.3c-0.5-0.2-1-0.5-1.4-0.9s-0.7-0.9-0.9-1.4s-0.3-1.1-0.3-1.6
			c0-0.6,0.1-1.2,0.3-1.7c0.2-0.5,0.5-1,0.9-1.4c0.4-0.4,0.9-0.7,1.4-1c0.5-0.2,1.2-0.4,1.8-0.4s1.3,0.1,1.8,0.4
			c0.5,0.2,1,0.5,1.4,0.9c0.4,0.4,0.7,0.9,0.9,1.4c0.2,0.5,0.3,1.1,0.3,1.6c0,0.1,0,0.3,0,0.4c0,0.1,0,0.2,0,0.3h-6.5
			c0,0.3,0.1,0.6,0.2,0.9s0.3,0.5,0.5,0.7c0.2,0.2,0.4,0.3,0.7,0.4c0.3,0.1,0.5,0.1,0.8,0.1c0.4,0,0.8-0.1,1.2-0.3
			c0.4-0.2,0.6-0.5,0.8-0.8l1.8,0.5c-0.3,0.6-0.8,1.2-1.5,1.6C351.5,426.8,350.7,427,349.8,427z M352,421.9
			c-0.1-0.6-0.3-1.1-0.7-1.5c-0.4-0.4-0.9-0.6-1.5-0.6c-0.3,0-0.6,0.1-0.8,0.2c-0.3,0.1-0.5,0.2-0.7,0.4c-0.2,0.2-0.3,0.4-0.5,0.7
			c-0.1,0.3-0.2,0.5-0.2,0.8H352z"/>
		<path class="st9" d="M358.8,426.9c-0.6,0-1.1-0.1-1.5-0.3s-0.9-0.5-1.2-0.9s-0.6-0.8-0.8-1.4c-0.2-0.5-0.3-1.1-0.3-1.6
			c0-0.6,0.1-1.2,0.3-1.7c0.2-0.5,0.5-1,0.8-1.4c0.3-0.4,0.8-0.7,1.2-0.9c0.5-0.2,1-0.3,1.6-0.3c0.7,0,1.2,0.1,1.7,0.4
			s0.9,0.7,1.2,1.2v-1.5h1.9v8c0,0.6-0.1,1.2-0.4,1.7c-0.2,0.5-0.6,0.9-1,1.2c-0.4,0.3-0.9,0.6-1.5,0.8s-1.2,0.3-1.9,0.3
			c-0.9,0-1.7-0.2-2.3-0.5c-0.6-0.3-1.2-0.7-1.6-1.3l1.2-1.1c0.3,0.4,0.7,0.7,1.2,0.9c0.5,0.2,1,0.3,1.5,0.3c0.3,0,0.6,0,1-0.1
			c0.3-0.1,0.6-0.2,0.8-0.4c0.2-0.2,0.4-0.4,0.6-0.7c0.1-0.3,0.2-0.7,0.2-1.1v-1.1c-0.3,0.5-0.7,0.9-1.2,1.1
			C360,426.7,359.4,426.9,358.8,426.9z M359.6,425.2c0.2,0,0.5,0,0.7-0.1c0.2-0.1,0.4-0.2,0.6-0.3c0.2-0.1,0.3-0.3,0.5-0.4
			c0.1-0.2,0.2-0.4,0.3-0.5v-2c-0.2-0.5-0.5-0.9-0.9-1.2c-0.4-0.3-0.8-0.4-1.3-0.4c-0.3,0-0.6,0.1-0.9,0.2c-0.3,0.1-0.5,0.3-0.7,0.6
			s-0.3,0.5-0.4,0.8c-0.1,0.3-0.2,0.6-0.2,1c0,0.3,0.1,0.7,0.2,1s0.3,0.6,0.5,0.8c0.2,0.2,0.5,0.4,0.7,0.5
			C358.9,425.1,359.2,425.2,359.6,425.2z"/>
		<path class="st9" d="M368.1,427c-0.4,0-0.8-0.1-1.1-0.2c-0.4-0.1-0.7-0.3-0.9-0.6c-0.3-0.2-0.5-0.5-0.6-0.8
			c-0.1-0.3-0.2-0.7-0.2-1.1c0-0.4,0.1-0.8,0.3-1.1c0.2-0.3,0.4-0.6,0.7-0.9c0.3-0.2,0.7-0.4,1.1-0.6c0.4-0.1,0.9-0.2,1.4-0.2
			c0.4,0,0.7,0,1.1,0.1c0.4,0.1,0.7,0.2,1,0.3v-0.5c0-0.6-0.2-1-0.5-1.3s-0.8-0.4-1.4-0.4c-0.4,0-0.9,0.1-1.3,0.2
			c-0.4,0.2-0.9,0.4-1.3,0.7l-0.7-1.4c1.1-0.7,2.2-1.1,3.5-1.1c1.2,0,2.1,0.3,2.8,0.9c0.7,0.6,1,1.4,1,2.6v2.6c0,0.2,0,0.4,0.1,0.5
			c0.1,0.1,0.2,0.1,0.4,0.2v1.8c-0.4,0.1-0.7,0.1-0.9,0.1c-0.4,0-0.7-0.1-0.9-0.3c-0.2-0.2-0.4-0.4-0.4-0.7l0-0.5
			c-0.4,0.5-0.8,0.9-1.4,1.1C369.3,426.9,368.7,427,368.1,427z M368.7,425.4c0.4,0,0.7-0.1,1-0.2c0.3-0.1,0.6-0.3,0.8-0.5
			c0.2-0.2,0.4-0.4,0.4-0.6v-1c-0.3-0.1-0.5-0.2-0.8-0.2s-0.6-0.1-0.9-0.1c-0.6,0-1,0.1-1.4,0.4c-0.4,0.3-0.5,0.6-0.5,1
			c0,0.4,0.1,0.7,0.4,0.9C367.9,425.3,368.3,425.4,368.7,425.4z"/>
		<path class="st9" d="M375.1,415.1h2.1v9c0,0.3,0.1,0.5,0.2,0.7s0.4,0.3,0.6,0.3c0.1,0,0.3,0,0.4-0.1c0.2,0,0.3-0.1,0.4-0.2
			l0.3,1.6c-0.3,0.1-0.6,0.2-1,0.3c-0.4,0.1-0.7,0.1-1,0.1c-0.7,0-1.2-0.2-1.6-0.5c-0.4-0.4-0.6-0.9-0.6-1.5V415.1z"/>
		<path class="st9" d="M384.2,426.8v-11.4h7.6v1.9h-5.4v2.9h4.5v1.8h-4.5v4.7H384.2z"/>
		<path class="st9" d="M396.8,427c-0.7,0-1.3-0.1-1.8-0.3c-0.5-0.2-1-0.5-1.4-0.9s-0.7-0.9-0.9-1.4s-0.3-1.1-0.3-1.6
			c0-0.6,0.1-1.2,0.3-1.7c0.2-0.5,0.5-1,0.9-1.4c0.4-0.4,0.9-0.7,1.4-1c0.5-0.2,1.2-0.4,1.8-0.4s1.3,0.1,1.8,0.4
			c0.5,0.2,1,0.5,1.4,0.9c0.4,0.4,0.7,0.9,0.9,1.4c0.2,0.5,0.3,1.1,0.3,1.6c0,0.1,0,0.3,0,0.4c0,0.1,0,0.2,0,0.3h-6.5
			c0,0.3,0.1,0.6,0.2,0.9s0.3,0.5,0.5,0.7c0.2,0.2,0.4,0.3,0.7,0.4c0.3,0.1,0.5,0.1,0.8,0.1c0.4,0,0.8-0.1,1.2-0.3
			c0.4-0.2,0.6-0.5,0.8-0.8l1.8,0.5c-0.3,0.6-0.8,1.2-1.5,1.6C398.5,426.8,397.7,427,396.8,427z M398.9,421.9
			c-0.1-0.6-0.3-1.1-0.7-1.5c-0.4-0.4-0.9-0.6-1.5-0.6c-0.3,0-0.6,0.1-0.8,0.2c-0.3,0.1-0.5,0.2-0.7,0.4c-0.2,0.2-0.3,0.4-0.5,0.7
			c-0.1,0.3-0.2,0.5-0.2,0.8H398.9z"/>
		<path class="st9" d="M406.5,427c-0.7,0-1.3-0.1-1.8-0.3c-0.5-0.2-1-0.5-1.4-0.9c-0.4-0.4-0.7-0.9-0.9-1.4s-0.3-1.1-0.3-1.6
			c0-0.6,0.1-1.2,0.3-1.7c0.2-0.5,0.5-1,0.9-1.4c0.4-0.4,0.9-0.7,1.4-1c0.5-0.2,1.2-0.4,1.8-0.4s1.3,0.1,1.8,0.4
			c0.5,0.2,1,0.5,1.4,0.9c0.4,0.4,0.7,0.9,0.9,1.4c0.2,0.5,0.3,1.1,0.3,1.6c0,0.1,0,0.3,0,0.4c0,0.1,0,0.2,0,0.3h-6.5
			c0,0.3,0.1,0.6,0.2,0.9s0.3,0.5,0.5,0.7c0.2,0.2,0.4,0.3,0.7,0.4c0.3,0.1,0.5,0.1,0.8,0.1c0.4,0,0.8-0.1,1.2-0.3
			c0.4-0.2,0.6-0.5,0.8-0.8l1.8,0.5c-0.3,0.6-0.8,1.2-1.5,1.6C408.2,426.8,407.4,427,406.5,427z M408.6,421.9
			c-0.1-0.6-0.3-1.1-0.7-1.5c-0.4-0.4-0.9-0.6-1.5-0.6c-0.3,0-0.6,0.1-0.8,0.2c-0.3,0.1-0.5,0.2-0.7,0.4c-0.2,0.2-0.3,0.4-0.5,0.7
			c-0.1,0.3-0.2,0.5-0.2,0.8H408.6z"/>
		<path class="st9" d="M415.5,427c-0.7,0-1.4-0.1-2.1-0.3c-0.7-0.2-1.2-0.5-1.7-1l0.8-1.3c0.5,0.4,1,0.6,1.5,0.8s1,0.3,1.4,0.3
			c0.4,0,0.8-0.1,1-0.2c0.2-0.2,0.4-0.4,0.4-0.7s-0.1-0.5-0.4-0.7s-0.8-0.3-1.4-0.5c-0.5-0.1-1-0.3-1.4-0.4s-0.7-0.3-0.9-0.5
			c-0.2-0.2-0.4-0.4-0.5-0.6c-0.1-0.2-0.2-0.5-0.2-0.8c0-0.4,0.1-0.8,0.2-1.2c0.2-0.3,0.4-0.6,0.7-0.9s0.6-0.4,1-0.6
			c0.4-0.1,0.8-0.2,1.3-0.2c0.6,0,1.2,0.1,1.8,0.3c0.5,0.2,1.1,0.5,1.5,0.9l-0.9,1.3c-0.4-0.3-0.8-0.6-1.2-0.7s-0.8-0.2-1.2-0.2
			c-0.4,0-0.7,0.1-0.9,0.2c-0.2,0.1-0.4,0.4-0.4,0.7c0,0.1,0,0.3,0.1,0.4s0.2,0.2,0.3,0.3c0.1,0.1,0.3,0.1,0.5,0.2s0.5,0.1,0.8,0.2
			c0.6,0.2,1.1,0.3,1.5,0.4c0.4,0.1,0.7,0.3,1,0.5c0.3,0.2,0.5,0.4,0.6,0.7c0.1,0.3,0.2,0.6,0.2,0.9c0,0.8-0.3,1.5-0.9,1.9
			C417.3,426.7,416.5,427,415.5,427z"/>
	</g>
	<g class="st0">
		<defs>
			<rect id="SVGID_7_" x="12" y="12" width="452.5" height="473.2"/>
		</defs>
		<clipPath id="SVGID_8_">
			<use xlink:href="#SVGID_7_"  style="overflow:visible;"/>
		</clipPath>
		<circle class="st11" cx="155.4" cy="134.4" r="102.4"/>
		<circle class="st12" cx="311" cy="264.6" r="81.5"/>
		<path class="st13" d="M382.9,185.2c43.8-2.9,78.6-38.7,80-82.8"/>
		<path class="st13" d="M462.8,93.6c-3-43.8-38.7-78.6-82.8-80"/>
		<path class="st13" d="M371.2,13.7c-43.8,2.9-78.6,38.7-80,82.8"/>
		<path class="st13" d="M291.3,105.4c2.9,43.8,38.7,78.6,82.8,80"/>
		<path class="st14" d="M377.1,185.4L377.1,185.4 M291.1,99.5L291.1,99.5 M377.1,13.5L377.1,13.5 M463,99.5L463,99.5"/>
		<circle class="st15" cx="92" cy="321.7" r="68.1"/>
		<path class="st16" d="M97.9,400.4c39.9-2.9,71.6-35.5,73-75.8"/>
		<path class="st16" d="M170.8,315.8c-2.9-39.9-35.5-71.6-75.8-73"/>
		<path class="st16" d="M86.1,242.9c-39.9,2.9-71.6,35.5-73,75.8"/>
		<path class="st16" d="M13.2,327.6c2.9,39.9,35.5,71.6,75.8,73"/>
		<path class="st17" d="M92,400.7L92,400.7 M13,321.7L13,321.7 M92,242.7L92,242.7 M171,321.7L171,321.7"/>
		<circle class="st18" cx="230.3" cy="415" r="65.6"/>
	</g>
</g>
</svg>
