<?xml version="1.0" encoding="utf-8"?>
<!-- Generator: Adobe Illustrator 21.0.0, SVG Export Plug-In . SVG Version: 6.00 Build 0)  -->
<svg version="1.1" id="Layer_1" xmlns="http://www.w3.org/2000/svg" xmlns:xlink="http://www.w3.org/1999/xlink" x="0px" y="0px"
	 viewBox="0 0 462 233.7" style="enable-background:new 0 0 462 233.7;" xml:space="preserve">
<style type="text/css">
	.st0{clip-path:url(#SVGID_2_);}
	.st1{fill:#231F20;}
	.st2{filter:url(#Adobe_OpacityMaskFilter);}
	.st3{clip-path:url(#SVGID_6_);fill:url(#SVGID_8_);}
	.st4{clip-path:url(#SVGID_6_);mask:url(#SVGID_7_);}
	.st5{filter:url(#Adobe_OpacityMaskFilter_1_);}
	.st6{clip-path:url(#SVGID_6_);fill:url(#SVGID_12_);}
	.st7{clip-path:url(#SVGID_6_);mask:url(#SVGID_11_);}
	.st8{clip-path:url(#SVGID_14_);fill:#E8E8E8;}
	.st9{filter:url(#Adobe_OpacityMaskFilter_2_);}
	.st10{clip-path:url(#SVGID_6_);fill:url(#SVGID_16_);}
	.st11{clip-path:url(#SVGID_6_);mask:url(#SVGID_15_);}
	.st12{clip-path:url(#SVGID_18_);fill:#E8E8E8;}
	.st13{clip-path:url(#SVGID_20_);fill:url(#SVGID_21_);}
	.st14{opacity:0.56;clip-path:url(#SVGID_23_);}
	.st15{clip-path:url(#SVGID_25_);fill:#213772;}
	.st16{clip-path:url(#SVGID_23_);fill:#FFFFFF;}
	.st17{clip-path:url(#SVGID_27_);fill:#213772;}
	.st18{clip-path:url(#SVGID_29_);fill:#213772;}
	.st19{clip-path:url(#SVGID_31_);fill:#213772;}
	.st20{clip-path:url(#SVGID_33_);fill:#213772;}
	.st21{clip-path:url(#SVGID_35_);fill:#213772;}
	.st22{filter:url(#Adobe_OpacityMaskFilter_3_);}
	.st23{clip-path:url(#SVGID_23_);fill:url(#SVGID_37_);}
	.st24{clip-path:url(#SVGID_23_);mask:url(#SVGID_36_);}
	.st25{clip-path:url(#SVGID_39_);fill:none;stroke:#FFFFFF;stroke-width:1.1025;stroke-miterlimit:10;}
	.st26{filter:url(#Adobe_OpacityMaskFilter_4_);}
	.st27{clip-path:url(#SVGID_23_);fill:url(#SVGID_41_);}
	.st28{clip-path:url(#SVGID_23_);mask:url(#SVGID_40_);}
	.st29{clip-path:url(#SVGID_43_);fill:none;stroke:#FFFFFF;stroke-width:1.1025;stroke-miterlimit:10;}
	.st30{filter:url(#Adobe_OpacityMaskFilter_5_);}
	.st31{clip-path:url(#SVGID_23_);fill:url(#SVGID_45_);}
	.st32{clip-path:url(#SVGID_23_);mask:url(#SVGID_44_);}
	.st33{clip-path:url(#SVGID_47_);fill:none;stroke:#FFFFFF;stroke-width:1.1025;stroke-miterlimit:10;}
	.st34{filter:url(#Adobe_OpacityMaskFilter_6_);}
	.st35{clip-path:url(#SVGID_23_);fill:url(#SVGID_49_);}
	.st36{clip-path:url(#SVGID_23_);mask:url(#SVGID_48_);}
	.st37{clip-path:url(#SVGID_51_);fill:none;stroke:#FFFFFF;stroke-width:1.1025;stroke-miterlimit:10;}
	.st38{filter:url(#Adobe_OpacityMaskFilter_7_);}
	.st39{clip-path:url(#SVGID_23_);fill:url(#SVGID_53_);}
	.st40{clip-path:url(#SVGID_23_);mask:url(#SVGID_52_);}
	.st41{clip-path:url(#SVGID_55_);fill:none;stroke:#FFFFFF;stroke-width:1.1025;stroke-miterlimit:10;}
	.st42{filter:url(#Adobe_OpacityMaskFilter_8_);}
	.st43{clip-path:url(#SVGID_23_);fill:url(#SVGID_57_);}
	.st44{clip-path:url(#SVGID_23_);mask:url(#SVGID_56_);}
	.st45{clip-path:url(#SVGID_59_);fill:none;stroke:#FFFFFF;stroke-width:0.9596;stroke-miterlimit:10;}
</style>
<g>
	<defs>
		<rect id="SVGID_1_" width="462" height="231.5"/>
	</defs>
	<clipPath id="SVGID_2_">
		<use xlink:href="#SVGID_1_"  style="overflow:visible;"/>
	</clipPath>
	<g class="st0">
		<g>
			<defs>
				<polyline id="SVGID_3_" points="-180.5,259.9 414.7,259.9 414.7,-582 -180.5,-582 				"/>
			</defs>
			<clipPath id="SVGID_4_">
				<use xlink:href="#SVGID_3_"  style="overflow:visible;"/>
			</clipPath>
		</g>
		<g>
			<path class="st1" d="M52.4,194.8v-6.3H55c0.3,0,0.5,0.1,0.8,0.2c0.2,0.1,0.4,0.3,0.6,0.5c0.2,0.2,0.3,0.4,0.4,0.7
				c0.1,0.2,0.1,0.5,0.1,0.8c0,0.3,0,0.5-0.1,0.8c-0.1,0.2-0.2,0.5-0.4,0.7c-0.2,0.2-0.4,0.3-0.6,0.5c-0.2,0.1-0.5,0.2-0.8,0.2h-1.5
				v2.1H52.4z M53.6,191.7H55c0.2,0,0.4-0.1,0.6-0.3c0.1-0.2,0.2-0.4,0.2-0.7c0-0.2,0-0.3-0.1-0.4c0-0.1-0.1-0.2-0.2-0.3
				s-0.2-0.2-0.3-0.2c-0.1,0-0.2-0.1-0.3-0.1h-1.3V191.7z"/>
			<path class="st1" d="M60.4,191.2c-0.4,0-0.7,0.1-1,0.2c-0.3,0.1-0.5,0.3-0.6,0.6v2.8h-1.2v-4.6h1.1v1c0.1-0.2,0.2-0.3,0.3-0.4
				c0.1-0.1,0.2-0.2,0.4-0.3c0.1-0.1,0.3-0.2,0.4-0.2c0.1,0,0.3-0.1,0.4-0.1c0.1,0,0.1,0,0.1,0c0,0,0.1,0,0.1,0V191.2z"/>
			<path class="st1" d="M63,194.9c-0.4,0-0.7-0.1-1-0.2c-0.3-0.1-0.5-0.3-0.8-0.5c-0.2-0.2-0.4-0.5-0.5-0.8s-0.2-0.6-0.2-0.9
				c0-0.3,0.1-0.6,0.2-0.9s0.3-0.5,0.5-0.8c0.2-0.2,0.5-0.4,0.8-0.5c0.3-0.1,0.6-0.2,1-0.2c0.4,0,0.7,0.1,1,0.2
				c0.3,0.1,0.5,0.3,0.8,0.5s0.4,0.5,0.5,0.8c0.1,0.3,0.2,0.6,0.2,0.9c0,0.1,0,0.1,0,0.2c0,0.1,0,0.1,0,0.2h-3.5
				c0,0.2,0.1,0.3,0.1,0.5c0.1,0.1,0.2,0.3,0.3,0.4c0.1,0.1,0.2,0.2,0.4,0.2c0.1,0.1,0.3,0.1,0.4,0.1c0.2,0,0.5-0.1,0.7-0.2
				c0.2-0.1,0.3-0.3,0.4-0.5l1,0.3c-0.2,0.4-0.4,0.6-0.8,0.9C64,194.8,63.5,194.9,63,194.9z M64.2,192.1c0-0.3-0.2-0.6-0.4-0.8
				c-0.2-0.2-0.5-0.3-0.8-0.3c-0.2,0-0.3,0-0.4,0.1s-0.3,0.1-0.4,0.2c-0.1,0.1-0.2,0.2-0.3,0.4c-0.1,0.1-0.1,0.3-0.1,0.5H64.2z"/>
			<path class="st1" d="M66.1,192.9v-1.1h2.6v1.1H66.1z"/>
			<path class="st1" d="M69.9,194.8v-6.3h1.2v6.3H69.9z"/>
			<path class="st1" d="M72,191.7c0-0.4,0.1-0.8,0.2-1.1c0.1-0.4,0.3-0.7,0.6-1c0.3-0.3,0.6-0.5,1-0.7c0.4-0.2,0.8-0.3,1.3-0.3
				c0.6,0,1.1,0.1,1.5,0.4s0.7,0.6,0.9,1l-0.9,0.6c-0.1-0.2-0.2-0.3-0.3-0.4c-0.1-0.1-0.2-0.2-0.4-0.3c-0.1-0.1-0.3-0.1-0.4-0.2
				s-0.3,0-0.4,0c-0.3,0-0.6,0.1-0.8,0.2c-0.2,0.1-0.4,0.3-0.6,0.5c-0.1,0.2-0.3,0.4-0.3,0.7c-0.1,0.2-0.1,0.5-0.1,0.7
				c0,0.3,0,0.5,0.1,0.8c0.1,0.3,0.2,0.5,0.4,0.7s0.4,0.3,0.6,0.5c0.2,0.1,0.5,0.2,0.7,0.2c0.1,0,0.3,0,0.4-0.1
				c0.2,0,0.3-0.1,0.4-0.2s0.3-0.2,0.4-0.3c0.1-0.1,0.2-0.3,0.3-0.4l1,0.6c-0.1,0.2-0.2,0.4-0.4,0.6c-0.2,0.2-0.4,0.3-0.6,0.5
				c-0.2,0.1-0.5,0.2-0.7,0.3c-0.3,0.1-0.5,0.1-0.8,0.1c-0.4,0-0.8-0.1-1.2-0.3c-0.4-0.2-0.7-0.4-0.9-0.7c-0.3-0.3-0.5-0.6-0.6-1
				C72.1,192.5,72,192.1,72,191.7z"/>
			<path class="st1" d="M81,194.9c-0.5,0-0.9-0.1-1.2-0.3c-0.4-0.2-0.7-0.4-1-0.7s-0.5-0.6-0.6-1s-0.2-0.8-0.2-1.2
				c0-0.4,0.1-0.8,0.2-1.2c0.2-0.4,0.4-0.7,0.6-1c0.3-0.3,0.6-0.5,1-0.7c0.4-0.2,0.8-0.3,1.2-0.3c0.4,0,0.9,0.1,1.2,0.3
				c0.4,0.2,0.7,0.4,0.9,0.7s0.5,0.6,0.6,1s0.2,0.8,0.2,1.2c0,0.4-0.1,0.8-0.2,1.2c-0.2,0.4-0.4,0.7-0.6,1c-0.3,0.3-0.6,0.5-1,0.7
				C81.8,194.8,81.4,194.9,81,194.9z M79.2,191.7c0,0.3,0,0.5,0.1,0.8c0.1,0.3,0.2,0.5,0.4,0.7c0.2,0.2,0.3,0.3,0.6,0.5
				c0.2,0.1,0.5,0.2,0.8,0.2c0.3,0,0.5-0.1,0.8-0.2c0.2-0.1,0.4-0.3,0.6-0.5c0.2-0.2,0.3-0.4,0.3-0.7c0.1-0.2,0.1-0.5,0.1-0.8
				c0-0.3,0-0.5-0.1-0.8c-0.1-0.3-0.2-0.5-0.4-0.7c-0.2-0.2-0.3-0.3-0.6-0.5s-0.5-0.2-0.8-0.2c-0.3,0-0.5,0.1-0.8,0.2
				c-0.2,0.1-0.4,0.3-0.6,0.5c-0.2,0.2-0.3,0.4-0.3,0.7C79.2,191.2,79.2,191.4,79.2,191.7z"/>
		</g>
		<g>
			<path class="st1" d="M126.5,194.8v-4.1l-1.6,3.1h-0.7l-1.6-3.1v4.1h-1.2v-6.3h1.3l1.8,3.6l1.9-3.6h1.3v6.3H126.5z"/>
			<path class="st1" d="M130.1,194.9c-0.2,0-0.4,0-0.6-0.1c-0.2-0.1-0.4-0.2-0.5-0.3c-0.1-0.1-0.2-0.3-0.3-0.5
				c-0.1-0.2-0.1-0.4-0.1-0.6c0-0.2,0-0.4,0.1-0.6c0.1-0.2,0.2-0.3,0.4-0.5c0.2-0.1,0.4-0.2,0.6-0.3c0.2-0.1,0.5-0.1,0.8-0.1
				c0.2,0,0.4,0,0.6,0.1c0.2,0,0.4,0.1,0.5,0.2v-0.3c0-0.3-0.1-0.5-0.3-0.7c-0.2-0.2-0.4-0.2-0.8-0.2c-0.2,0-0.5,0-0.7,0.1
				c-0.2,0.1-0.5,0.2-0.7,0.4l-0.4-0.8c0.6-0.4,1.2-0.6,1.9-0.6c0.7,0,1.2,0.2,1.5,0.5s0.5,0.8,0.5,1.4v1.4c0,0.1,0,0.2,0.1,0.3
				c0,0.1,0.1,0.1,0.2,0.1v1c-0.2,0-0.4,0.1-0.5,0.1c-0.2,0-0.4,0-0.5-0.1c-0.1-0.1-0.2-0.2-0.2-0.4l0-0.3c-0.2,0.3-0.5,0.5-0.7,0.6
				C130.7,194.8,130.4,194.9,130.1,194.9z M130.4,194.1c0.2,0,0.4,0,0.6-0.1c0.2-0.1,0.3-0.2,0.4-0.3c0.1-0.1,0.2-0.2,0.2-0.3v-0.5
				c-0.1-0.1-0.3-0.1-0.5-0.1c-0.2,0-0.3,0-0.5,0c-0.3,0-0.5,0.1-0.7,0.2c-0.2,0.1-0.3,0.3-0.3,0.5c0,0.2,0.1,0.4,0.2,0.5
				C130,194,130.2,194.1,130.4,194.1z"/>
			<path class="st1" d="M133.9,189.6v-1.2h1.2v1.2H133.9z M133.9,194.8v-4.6h1.2v4.6H133.9z"/>
			<path class="st1" d="M140.3,194.8h-1.2v-2.6c0-0.4-0.1-0.6-0.2-0.8c-0.1-0.2-0.3-0.3-0.5-0.3c-0.1,0-0.2,0-0.4,0.1
				s-0.2,0.1-0.3,0.2c-0.1,0.1-0.2,0.2-0.3,0.3c-0.1,0.1-0.2,0.2-0.2,0.4v2.7h-1.2v-4.6h1.1v0.9c0.2-0.3,0.4-0.5,0.7-0.7
				c0.3-0.2,0.7-0.2,1.1-0.2c0.3,0,0.5,0.1,0.7,0.2c0.2,0.1,0.3,0.2,0.4,0.4c0.1,0.2,0.2,0.4,0.2,0.6c0,0.2,0.1,0.4,0.1,0.7V194.8z"
				/>
			<path class="st1" d="M141.3,192.9v-1.1h2.6v1.1H141.3z"/>
			<path class="st1" d="M145.1,194.8v-6.3h1.2v6.3H145.1z"/>
			<path class="st1" d="M147.2,191.7c0-0.4,0.1-0.8,0.2-1.1c0.1-0.4,0.3-0.7,0.6-1c0.3-0.3,0.6-0.5,1-0.7c0.4-0.2,0.8-0.3,1.3-0.3
				c0.6,0,1.1,0.1,1.5,0.4s0.7,0.6,0.9,1l-0.9,0.6c-0.1-0.2-0.2-0.3-0.3-0.4c-0.1-0.1-0.2-0.2-0.4-0.3c-0.1-0.1-0.3-0.1-0.4-0.2
				s-0.3,0-0.4,0c-0.3,0-0.6,0.1-0.8,0.2c-0.2,0.1-0.4,0.3-0.6,0.5c-0.1,0.2-0.3,0.4-0.3,0.7c-0.1,0.2-0.1,0.5-0.1,0.7
				c0,0.3,0,0.5,0.1,0.8c0.1,0.3,0.2,0.5,0.4,0.7s0.4,0.3,0.6,0.5c0.2,0.1,0.5,0.2,0.7,0.2c0.1,0,0.3,0,0.4-0.1
				c0.2,0,0.3-0.1,0.4-0.2s0.3-0.2,0.4-0.3c0.1-0.1,0.2-0.3,0.3-0.4l1,0.6c-0.1,0.2-0.2,0.4-0.4,0.6c-0.2,0.2-0.4,0.3-0.6,0.5
				c-0.2,0.1-0.5,0.2-0.7,0.3c-0.3,0.1-0.5,0.1-0.8,0.1c-0.4,0-0.8-0.1-1.2-0.3c-0.4-0.2-0.7-0.4-0.9-0.7c-0.3-0.3-0.5-0.6-0.6-1
				C147.3,192.5,147.2,192.1,147.2,191.7z"/>
			<path class="st1" d="M156.2,194.9c-0.5,0-0.9-0.1-1.2-0.3c-0.4-0.2-0.7-0.4-1-0.7s-0.5-0.6-0.6-1s-0.2-0.8-0.2-1.2
				c0-0.4,0.1-0.8,0.2-1.2c0.2-0.4,0.4-0.7,0.6-1c0.3-0.3,0.6-0.5,1-0.7c0.4-0.2,0.8-0.3,1.2-0.3c0.4,0,0.9,0.1,1.2,0.3
				c0.4,0.2,0.7,0.4,0.9,0.7s0.5,0.6,0.6,1s0.2,0.8,0.2,1.2c0,0.4-0.1,0.8-0.2,1.2c-0.2,0.4-0.4,0.7-0.6,1c-0.3,0.3-0.6,0.5-1,0.7
				C157.1,194.8,156.7,194.9,156.2,194.9z M154.4,191.7c0,0.3,0,0.5,0.1,0.8c0.1,0.3,0.2,0.5,0.4,0.7c0.2,0.2,0.3,0.3,0.6,0.5
				c0.2,0.1,0.5,0.2,0.8,0.2c0.3,0,0.5-0.1,0.8-0.2c0.2-0.1,0.4-0.3,0.6-0.5c0.2-0.2,0.3-0.4,0.3-0.7c0.1-0.2,0.1-0.5,0.1-0.8
				c0-0.3,0-0.5-0.1-0.8c-0.1-0.3-0.2-0.5-0.4-0.7c-0.2-0.2-0.3-0.3-0.6-0.5s-0.5-0.2-0.8-0.2c-0.3,0-0.5,0.1-0.8,0.2
				c-0.2,0.1-0.4,0.3-0.6,0.5c-0.2,0.2-0.3,0.4-0.3,0.7C154.5,191.2,154.4,191.4,154.4,191.7z"/>
		</g>
		<g>
			<path class="st1" d="M196.6,194.8v-4.1l-1.6,3.1h-0.7l-1.6-3.1v4.1h-1.2v-6.3h1.3l1.8,3.6l1.9-3.6h1.3v6.3H196.6z"/>
			<path class="st1" d="M200.3,194.9c-0.2,0-0.4,0-0.6-0.1c-0.2-0.1-0.4-0.2-0.5-0.3c-0.1-0.1-0.2-0.3-0.3-0.5
				c-0.1-0.2-0.1-0.4-0.1-0.6c0-0.2,0-0.4,0.1-0.6c0.1-0.2,0.2-0.3,0.4-0.5c0.2-0.1,0.4-0.2,0.6-0.3c0.2-0.1,0.5-0.1,0.8-0.1
				c0.2,0,0.4,0,0.6,0.1c0.2,0,0.4,0.1,0.5,0.2v-0.3c0-0.3-0.1-0.5-0.3-0.7c-0.2-0.2-0.4-0.2-0.8-0.2c-0.2,0-0.5,0-0.7,0.1
				c-0.2,0.1-0.5,0.2-0.7,0.4l-0.4-0.8c0.6-0.4,1.2-0.6,1.9-0.6c0.7,0,1.2,0.2,1.5,0.5s0.5,0.8,0.5,1.4v1.4c0,0.1,0,0.2,0.1,0.3
				c0,0.1,0.1,0.1,0.2,0.1v1c-0.2,0-0.4,0.1-0.5,0.1c-0.2,0-0.4,0-0.5-0.1c-0.1-0.1-0.2-0.2-0.2-0.4l0-0.3c-0.2,0.3-0.5,0.5-0.7,0.6
				C200.9,194.8,200.6,194.9,200.3,194.9z M200.6,194.1c0.2,0,0.4,0,0.6-0.1c0.2-0.1,0.3-0.2,0.4-0.3c0.1-0.1,0.2-0.2,0.2-0.3v-0.5
				c-0.1-0.1-0.3-0.1-0.5-0.1c-0.2,0-0.3,0-0.5,0c-0.3,0-0.5,0.1-0.7,0.2c-0.2,0.1-0.3,0.3-0.3,0.5c0,0.2,0.1,0.4,0.2,0.5
				C200.2,194,200.4,194.1,200.6,194.1z"/>
			<path class="st1" d="M204,189.6v-1.2h1.2v1.2H204z M204,194.8v-4.6h1.2v4.6H204z"/>
			<path class="st1" d="M210.5,194.8h-1.2v-2.6c0-0.4-0.1-0.6-0.2-0.8c-0.1-0.2-0.3-0.3-0.5-0.3c-0.1,0-0.2,0-0.4,0.1
				s-0.2,0.1-0.3,0.2c-0.1,0.1-0.2,0.2-0.3,0.3c-0.1,0.1-0.2,0.2-0.2,0.4v2.7h-1.2v-4.6h1.1v0.9c0.2-0.3,0.4-0.5,0.7-0.7
				c0.3-0.2,0.7-0.2,1.1-0.2c0.3,0,0.5,0.1,0.7,0.2c0.2,0.1,0.3,0.2,0.4,0.4c0.1,0.2,0.2,0.4,0.2,0.6c0,0.2,0.1,0.4,0.1,0.7V194.8z"
				/>
			<path class="st1" d="M211.5,192.9v-1.1h2.6v1.1H211.5z"/>
			<path class="st1" d="M215.3,194.8v-6.3h1.2v6.3H215.3z"/>
			<path class="st1" d="M217.4,191.7c0-0.4,0.1-0.8,0.2-1.1c0.1-0.4,0.3-0.7,0.6-1c0.3-0.3,0.6-0.5,1-0.7c0.4-0.2,0.8-0.3,1.3-0.3
				c0.6,0,1.1,0.1,1.5,0.4s0.7,0.6,0.9,1l-0.9,0.6c-0.1-0.2-0.2-0.3-0.3-0.4c-0.1-0.1-0.2-0.2-0.4-0.3c-0.1-0.1-0.3-0.1-0.4-0.2
				s-0.3,0-0.4,0c-0.3,0-0.6,0.1-0.8,0.2c-0.2,0.1-0.4,0.3-0.6,0.5c-0.1,0.2-0.3,0.4-0.3,0.7c-0.1,0.2-0.1,0.5-0.1,0.7
				c0,0.3,0,0.5,0.1,0.8c0.1,0.3,0.2,0.5,0.4,0.7s0.4,0.3,0.6,0.5c0.2,0.1,0.5,0.2,0.7,0.2c0.1,0,0.3,0,0.4-0.1
				c0.2,0,0.3-0.1,0.4-0.2s0.3-0.2,0.4-0.3c0.1-0.1,0.2-0.3,0.3-0.4l1,0.6c-0.1,0.2-0.2,0.4-0.4,0.6c-0.2,0.2-0.4,0.3-0.6,0.5
				c-0.2,0.1-0.5,0.2-0.7,0.3c-0.3,0.1-0.5,0.1-0.8,0.1c-0.4,0-0.8-0.1-1.2-0.3c-0.4-0.2-0.7-0.4-0.9-0.7c-0.3-0.3-0.5-0.6-0.6-1
				C217.5,192.5,217.4,192.1,217.4,191.7z"/>
			<path class="st1" d="M226.4,194.9c-0.5,0-0.9-0.1-1.2-0.3c-0.4-0.2-0.7-0.4-1-0.7c-0.3-0.3-0.5-0.6-0.6-1s-0.2-0.8-0.2-1.2
				c0-0.4,0.1-0.8,0.2-1.2s0.4-0.7,0.6-1s0.6-0.5,1-0.7c0.4-0.2,0.8-0.3,1.2-0.3c0.4,0,0.9,0.1,1.2,0.3c0.4,0.2,0.7,0.4,0.9,0.7
				s0.5,0.6,0.6,1s0.2,0.8,0.2,1.2c0,0.4-0.1,0.8-0.2,1.2c-0.2,0.4-0.4,0.7-0.6,1s-0.6,0.5-1,0.7
				C227.3,194.8,226.9,194.9,226.4,194.9z M224.6,191.7c0,0.3,0,0.5,0.1,0.8c0.1,0.3,0.2,0.5,0.4,0.7c0.2,0.2,0.3,0.3,0.6,0.5
				c0.2,0.1,0.5,0.2,0.8,0.2c0.3,0,0.5-0.1,0.8-0.2s0.4-0.3,0.6-0.5c0.2-0.2,0.3-0.4,0.3-0.7c0.1-0.2,0.1-0.5,0.1-0.8
				c0-0.3,0-0.5-0.1-0.8c-0.1-0.3-0.2-0.5-0.4-0.7s-0.3-0.3-0.6-0.5s-0.5-0.2-0.8-0.2c-0.3,0-0.5,0.1-0.8,0.2
				c-0.2,0.1-0.4,0.3-0.6,0.5c-0.2,0.2-0.3,0.4-0.3,0.7C224.7,191.2,224.6,191.4,224.6,191.7z"/>
		</g>
		<g>
			<path class="st1" d="M270.8,194.8v-4.1l-1.6,3.1h-0.7l-1.6-3.1v4.1h-1.2v-6.3h1.3l1.8,3.6l1.8-3.6h1.3v6.3H270.8z"/>
			<path class="st1" d="M274.5,194.9c-0.2,0-0.4,0-0.6-0.1c-0.2-0.1-0.4-0.2-0.5-0.3c-0.1-0.1-0.2-0.3-0.3-0.5
				c-0.1-0.2-0.1-0.4-0.1-0.6c0-0.2,0-0.4,0.1-0.6c0.1-0.2,0.2-0.3,0.4-0.5c0.2-0.1,0.4-0.2,0.6-0.3s0.5-0.1,0.8-0.1
				c0.2,0,0.4,0,0.6,0.1c0.2,0,0.4,0.1,0.5,0.2v-0.3c0-0.3-0.1-0.5-0.3-0.7c-0.2-0.2-0.4-0.2-0.8-0.2c-0.2,0-0.5,0-0.7,0.1
				c-0.2,0.1-0.5,0.2-0.7,0.4l-0.4-0.8c0.6-0.4,1.2-0.6,1.9-0.6c0.7,0,1.2,0.2,1.5,0.5s0.5,0.8,0.5,1.4v1.4c0,0.1,0,0.2,0.1,0.3
				c0,0.1,0.1,0.1,0.2,0.1v1c-0.2,0-0.4,0.1-0.5,0.1c-0.2,0-0.4,0-0.5-0.1c-0.1-0.1-0.2-0.2-0.2-0.4l0-0.3c-0.2,0.3-0.5,0.5-0.7,0.6
				C275.1,194.8,274.8,194.9,274.5,194.9z M274.8,194.1c0.2,0,0.4,0,0.6-0.1c0.2-0.1,0.3-0.2,0.4-0.3c0.1-0.1,0.2-0.2,0.2-0.3v-0.5
				c-0.1-0.1-0.3-0.1-0.5-0.1c-0.2,0-0.3,0-0.5,0c-0.3,0-0.5,0.1-0.7,0.2c-0.2,0.1-0.3,0.3-0.3,0.5c0,0.2,0.1,0.4,0.2,0.5
				C274.4,194,274.6,194.1,274.8,194.1z"/>
			<path class="st1" d="M278.2,189.6v-1.2h1.2v1.2H278.2z M278.2,194.8v-4.6h1.2v4.6H278.2z"/>
			<path class="st1" d="M284.7,194.8h-1.2v-2.6c0-0.4-0.1-0.6-0.2-0.8c-0.1-0.2-0.3-0.3-0.5-0.3c-0.1,0-0.2,0-0.4,0.1
				s-0.2,0.1-0.3,0.2c-0.1,0.1-0.2,0.2-0.3,0.3c-0.1,0.1-0.2,0.2-0.2,0.4v2.7h-1.2v-4.6h1.1v0.9c0.2-0.3,0.4-0.5,0.7-0.7
				c0.3-0.2,0.7-0.2,1.1-0.2c0.3,0,0.5,0.1,0.7,0.2s0.3,0.2,0.4,0.4c0.1,0.2,0.2,0.4,0.2,0.6c0,0.2,0.1,0.4,0.1,0.7V194.8z"/>
			<path class="st1" d="M285.7,192.9v-1.1h2.6v1.1H285.7z"/>
			<path class="st1" d="M289.5,194.8v-6.3h1.2v6.3H289.5z"/>
			<path class="st1" d="M291.6,191.7c0-0.4,0.1-0.8,0.2-1.1c0.1-0.4,0.3-0.7,0.6-1s0.6-0.5,1-0.7c0.4-0.2,0.8-0.3,1.3-0.3
				c0.6,0,1.1,0.1,1.5,0.4c0.4,0.3,0.7,0.6,0.9,1l-0.9,0.6c-0.1-0.2-0.2-0.3-0.3-0.4s-0.2-0.2-0.4-0.3c-0.1-0.1-0.3-0.1-0.4-0.2
				s-0.3,0-0.4,0c-0.3,0-0.6,0.1-0.8,0.2c-0.2,0.1-0.4,0.3-0.6,0.5c-0.1,0.2-0.3,0.4-0.3,0.7c-0.1,0.2-0.1,0.5-0.1,0.7
				c0,0.3,0,0.5,0.1,0.8c0.1,0.3,0.2,0.5,0.4,0.7s0.4,0.3,0.6,0.5c0.2,0.1,0.5,0.2,0.7,0.2c0.1,0,0.3,0,0.4-0.1s0.3-0.1,0.4-0.2
				s0.3-0.2,0.4-0.3s0.2-0.3,0.3-0.4l1,0.6c-0.1,0.2-0.2,0.4-0.4,0.6c-0.2,0.2-0.4,0.3-0.6,0.5c-0.2,0.1-0.5,0.2-0.7,0.3
				s-0.5,0.1-0.8,0.1c-0.4,0-0.8-0.1-1.2-0.3c-0.4-0.2-0.7-0.4-0.9-0.7s-0.5-0.6-0.6-1C291.7,192.5,291.6,192.1,291.6,191.7z"/>
			<path class="st1" d="M300.6,194.9c-0.5,0-0.9-0.1-1.2-0.3c-0.4-0.2-0.7-0.4-1-0.7c-0.3-0.3-0.5-0.6-0.6-1s-0.2-0.8-0.2-1.2
				c0-0.4,0.1-0.8,0.2-1.2s0.4-0.7,0.6-1s0.6-0.5,1-0.7c0.4-0.2,0.8-0.3,1.2-0.3c0.4,0,0.9,0.1,1.2,0.3c0.4,0.2,0.7,0.4,0.9,0.7
				s0.5,0.6,0.6,1s0.2,0.8,0.2,1.2c0,0.4-0.1,0.8-0.2,1.2c-0.2,0.4-0.4,0.7-0.6,1s-0.6,0.5-1,0.7C301.4,194.8,301,194.9,300.6,194.9
				z M298.8,191.7c0,0.3,0,0.5,0.1,0.8c0.1,0.3,0.2,0.5,0.4,0.7c0.2,0.2,0.3,0.3,0.6,0.5c0.2,0.1,0.5,0.2,0.8,0.2
				c0.3,0,0.5-0.1,0.8-0.2s0.4-0.3,0.6-0.5c0.2-0.2,0.3-0.4,0.3-0.7c0.1-0.2,0.1-0.5,0.1-0.8c0-0.3,0-0.5-0.1-0.8
				c-0.1-0.3-0.2-0.5-0.4-0.7s-0.3-0.3-0.6-0.5s-0.5-0.2-0.8-0.2c-0.3,0-0.5,0.1-0.8,0.2c-0.2,0.1-0.4,0.3-0.6,0.5
				c-0.2,0.2-0.3,0.4-0.3,0.7C298.8,191.2,298.8,191.4,298.8,191.7z"/>
		</g>
		<g>
			<path class="st1" d="M62.1,204.3v0.8h-2.5v-0.8h0.9v-1.9c0,0.1-0.1,0.1-0.2,0.2s-0.2,0.1-0.3,0.1c-0.1,0-0.2,0.1-0.3,0.1
				s-0.2,0-0.3,0V202c0.1,0,0.2,0,0.3-0.1c0.1,0,0.2-0.1,0.3-0.2s0.2-0.1,0.3-0.2c0.1-0.1,0.1-0.1,0.1-0.2h0.9v2.9H62.1z"/>
		</g>
		<g>
			<path class="st1" d="M48.7,205v-3l-1.1,2.2h-0.5l-1.1-2.2v3h-0.9v-4.5H46l1.3,2.6l1.3-2.6h0.9v4.5H48.7z"/>
			<path class="st1" d="M51.6,200.5h0.8l1.7,4.5h-0.9l-0.4-1.1h-1.6l-0.4,1.1h-0.9L51.6,200.5z M52.6,203.3l-0.6-1.8l-0.6,1.8H52.6z
				"/>
			<path class="st1" d="M54.8,200.5l1.1,2.2l1.1-2.2H58l-1.6,2.9v1.6h-0.9v-1.6l-1.6-2.9H54.8z"/>
		</g>
		<g>
			<path class="st1" d="M62.4,201.1C62.4,201.1,62.4,201.1,62.4,201.1c-0.1-0.1-0.1-0.1-0.2-0.1c0,0-0.1,0-0.1,0c0,0-0.1,0-0.1,0
				c-0.1,0-0.1,0-0.2,0c0,0-0.1,0.1-0.1,0.1c0,0,0,0.1,0,0.1c0,0,0,0,0.1,0.1c0,0,0.1,0,0.1,0c0,0,0.1,0,0.2,0c0.1,0,0.1,0,0.2,0.1
				c0.1,0,0.1,0.1,0.2,0.1c0,0,0.1,0.1,0.1,0.1c0,0,0,0.1,0,0.2c0,0.1,0,0.2,0,0.2s-0.1,0.1-0.1,0.1c-0.1,0-0.1,0.1-0.2,0.1
				c-0.1,0-0.1,0-0.2,0c-0.1,0-0.2,0-0.3-0.1c-0.1,0-0.2-0.1-0.3-0.1l0.1-0.3c0,0,0,0,0.1,0.1s0.1,0,0.1,0.1c0,0,0.1,0,0.2,0.1
				s0.1,0,0.2,0c0.2,0,0.2-0.1,0.2-0.2c0,0,0-0.1,0-0.1s0,0-0.1-0.1c0,0-0.1,0-0.1,0c0,0-0.1,0-0.2,0c-0.1,0-0.1,0-0.2-0.1
				c-0.1,0-0.1-0.1-0.1-0.1c0,0-0.1-0.1-0.1-0.1c0,0,0-0.1,0-0.2c0-0.1,0-0.1,0-0.2s0.1-0.1,0.1-0.2s0.1-0.1,0.2-0.1s0.1,0,0.2,0
				c0.1,0,0.2,0,0.3,0.1c0.1,0,0.2,0.1,0.2,0.1L62.4,201.1z"/>
			<path class="st1" d="M63.9,200.9h-0.5v1.3h-0.3v-1.3h-0.5v-0.3h1.3V200.9z"/>
		</g>
		<g>
			<path class="st1" d="M87.8,203.6c0.3,0,0.5,0.2,0.6,0.4c0.2,0.2,0.2,0.5,0.2,0.8c0,0.2,0,0.4-0.1,0.5c-0.1,0.2-0.2,0.3-0.3,0.4
				c-0.1,0.1-0.3,0.2-0.5,0.3c-0.2,0.1-0.4,0.1-0.7,0.1c-0.3,0-0.6-0.1-0.8-0.2c-0.2-0.1-0.4-0.3-0.6-0.5l0.5-0.6
				c0.1,0.1,0.2,0.2,0.4,0.3c0.2,0.1,0.3,0.1,0.6,0.1c0.3,0,0.4-0.1,0.6-0.2c0.1-0.1,0.2-0.3,0.2-0.5c0-0.2-0.1-0.4-0.2-0.5
				s-0.4-0.2-0.7-0.2h-0.2v-0.6h0.2c0.3,0,0.5-0.1,0.6-0.2c0.1-0.1,0.2-0.3,0.2-0.4c0-0.2-0.1-0.3-0.2-0.4c-0.1-0.1-0.3-0.1-0.5-0.1
				c-0.2,0-0.4,0-0.5,0.1s-0.3,0.2-0.4,0.4l-0.5-0.6c0.1-0.1,0.1-0.2,0.3-0.3s0.2-0.1,0.4-0.2c0.1-0.1,0.3-0.1,0.4-0.1s0.3,0,0.5,0
				c0.2,0,0.4,0,0.6,0.1c0.2,0.1,0.3,0.1,0.5,0.2c0.1,0.1,0.2,0.2,0.3,0.4c0.1,0.1,0.1,0.3,0.1,0.5c0,0.1,0,0.2-0.1,0.4
				s-0.1,0.2-0.2,0.3c-0.1,0.1-0.2,0.2-0.3,0.2S87.9,203.5,87.8,203.6z"/>
			<path class="st1" d="M91.6,204.3v0.8h-2.5v-0.8H90v-1.9c0,0.1-0.1,0.1-0.2,0.2s-0.2,0.1-0.3,0.1c-0.1,0-0.2,0.1-0.3,0.1
				s-0.2,0-0.3,0V202c0.1,0,0.2,0,0.3-0.1c0.1,0,0.2-0.1,0.3-0.2s0.2-0.1,0.3-0.2c0.1-0.1,0.1-0.1,0.1-0.2h0.9v2.9H91.6z"/>
		</g>
		<g>
			<path class="st1" d="M74.9,205v-3l-1.1,2.2h-0.5l-1.1-2.2v3h-0.9v-4.5h0.9l1.3,2.6l1.3-2.6h0.9v4.5H74.9z"/>
			<path class="st1" d="M77.8,200.5h0.8l1.7,4.5h-0.9l-0.4-1.1h-1.6L77,205h-0.9L77.8,200.5z M78.8,203.3l-0.6-1.8l-0.6,1.8H78.8z"
				/>
			<path class="st1" d="M81,200.5l1.1,2.2l1.1-2.2h0.9l-1.6,2.9v1.6h-0.9v-1.6l-1.6-2.9H81z"/>
		</g>
		<g>
			<path class="st1" d="M91.9,201.1C91.9,201.1,91.9,201.1,91.9,201.1c-0.1-0.1-0.1-0.1-0.2-0.1c0,0-0.1,0-0.1,0c0,0-0.1,0-0.1,0
				c-0.1,0-0.1,0-0.2,0c0,0-0.1,0.1-0.1,0.1c0,0,0,0.1,0,0.1c0,0,0,0,0.1,0.1c0,0,0.1,0,0.1,0c0,0,0.1,0,0.2,0c0.1,0,0.1,0,0.2,0.1
				c0.1,0,0.1,0.1,0.2,0.1c0,0,0.1,0.1,0.1,0.1c0,0,0,0.1,0,0.2c0,0.1,0,0.2,0,0.2s-0.1,0.1-0.1,0.1c-0.1,0-0.1,0.1-0.2,0.1
				c-0.1,0-0.1,0-0.2,0c-0.1,0-0.2,0-0.3-0.1c-0.1,0-0.2-0.1-0.3-0.1l0.1-0.3c0,0,0,0,0.1,0.1s0.1,0,0.1,0.1c0,0,0.1,0,0.2,0.1
				s0.1,0,0.2,0c0.2,0,0.2-0.1,0.2-0.2c0,0,0-0.1,0-0.1s0,0-0.1-0.1c0,0-0.1,0-0.1,0c0,0-0.1,0-0.2,0c-0.1,0-0.1,0-0.2-0.1
				c-0.1,0-0.1-0.1-0.1-0.1c0,0-0.1-0.1-0.1-0.1c0,0,0-0.1,0-0.2c0-0.1,0-0.1,0-0.2s0.1-0.1,0.1-0.2s0.1-0.1,0.2-0.1s0.1,0,0.2,0
				c0.1,0,0.2,0,0.3,0.1c0.1,0,0.2,0.1,0.2,0.1L91.9,201.1z"/>
			<path class="st1" d="M93.4,201h-0.5v1.3h-0.3V201h-0.5v-0.3h1.3V201z"/>
		</g>
		<g>
			<defs>
				<polyline id="SVGID_5_" points="-341.1,296 524.7,296 524.7,-928.6 -341.1,-928.6 				"/>
			</defs>
			<clipPath id="SVGID_6_">
				<use xlink:href="#SVGID_5_"  style="overflow:visible;"/>
			</clipPath>
			<defs>
				<filter id="Adobe_OpacityMaskFilter" filterUnits="userSpaceOnUse" x="52.8" y="-48.7" width="375.1" height="47.8">
					<feColorMatrix  type="matrix" values="1 0 0 0 0  0 1 0 0 0  0 0 1 0 0  0 0 0 1 0"/>
				</filter>
			</defs>
			<mask maskUnits="userSpaceOnUse" x="52.8" y="-48.7" width="375.1" height="47.8" id="SVGID_7_">
				<g class="st2">
					
						<linearGradient id="SVGID_8_" gradientUnits="userSpaceOnUse" x1="-65.6456" y1="541.0599" x2="-64.191" y2="541.0599" gradientTransform="matrix(226.3424 0 0 -226.3424 14933.2725 122148.5391)">
						<stop  offset="0" style="stop-color:#FFFFFF"/>
						<stop  offset="1" style="stop-color:#000000"/>
					</linearGradient>
					<rect x="-341.1" y="-928.6" class="st3" width="865.8" height="1224.6"/>
				</g>
			</mask>
			<g class="st4">
				<g>
					<defs>
						<rect id="SVGID_9_" x="52.8" y="-48.7" width="375.1" height="47.8"/>
					</defs>
					<clipPath id="SVGID_10_">
						<use xlink:href="#SVGID_9_"  style="overflow:visible;"/>
					</clipPath>
				</g>
			</g>
			<defs>
				<filter id="Adobe_OpacityMaskFilter_1_" filterUnits="userSpaceOnUse" x="52.8" y="40.4" width="375.1" height="47.8">
					<feColorMatrix  type="matrix" values="1 0 0 0 0  0 1 0 0 0  0 0 1 0 0  0 0 0 1 0"/>
				</filter>
			</defs>
			<mask maskUnits="userSpaceOnUse" x="52.8" y="40.4" width="375.1" height="47.8" id="SVGID_11_">
				<g class="st5">
					
						<linearGradient id="SVGID_12_" gradientUnits="userSpaceOnUse" x1="-65.6456" y1="541.0599" x2="-64.191" y2="541.0599" gradientTransform="matrix(226.3424 0 0 -226.3424 14933.2725 122148.5391)">
						<stop  offset="0" style="stop-color:#FFFFFF"/>
						<stop  offset="1" style="stop-color:#000000"/>
					</linearGradient>
					<rect x="-341.1" y="-928.6" class="st6" width="865.8" height="1224.6"/>
				</g>
			</mask>
			<g class="st7">
				<g>
					<defs>
						<rect id="SVGID_13_" x="52.8" y="40.4" width="375.1" height="47.8"/>
					</defs>
					<clipPath id="SVGID_14_">
						<use xlink:href="#SVGID_13_"  style="overflow:visible;"/>
					</clipPath>
					<rect x="54.3" y="41.8" class="st8" width="372.2" height="44.9"/>
				</g>
			</g>
			<defs>
				<filter id="Adobe_OpacityMaskFilter_2_" filterUnits="userSpaceOnUse" x="51.5" y="129.5" width="376.5" height="47.8">
					<feColorMatrix  type="matrix" values="1 0 0 0 0  0 1 0 0 0  0 0 1 0 0  0 0 0 1 0"/>
				</filter>
			</defs>
			<mask maskUnits="userSpaceOnUse" x="51.5" y="129.5" width="376.5" height="47.8" id="SVGID_15_">
				<g class="st9">
					
						<linearGradient id="SVGID_16_" gradientUnits="userSpaceOnUse" x1="-65.6451" y1="541.0488" x2="-64.1905" y2="541.0488" gradientTransform="matrix(227.1657 0 0 -227.1657 14985.8633 122591.4453)">
						<stop  offset="0" style="stop-color:#FFFFFF"/>
						<stop  offset="1" style="stop-color:#000000"/>
					</linearGradient>
					<rect x="-341.1" y="-928.6" class="st10" width="865.8" height="1224.6"/>
				</g>
			</mask>
			<g class="st11">
				<g>
					<defs>
						<rect id="SVGID_17_" x="51.5" y="129.5" width="376.5" height="47.8"/>
					</defs>
					<clipPath id="SVGID_18_">
						<use xlink:href="#SVGID_17_"  style="overflow:visible;"/>
					</clipPath>
					<rect x="52.9" y="130.9" class="st12" width="373.6" height="44.9"/>
				</g>
			</g>
		</g>
		<g>
			<path d="M29.5,172.1c0,0.6-0.1,1.1-0.2,1.5c-0.2,0.5-0.4,0.9-0.7,1.2c-0.3,0.3-0.6,0.6-1,0.8c-0.4,0.2-0.8,0.3-1.3,0.3
				c-0.5,0-0.9-0.1-1.3-0.3c-0.4-0.2-0.7-0.5-1-0.8s-0.5-0.7-0.7-1.2c-0.2-0.5-0.2-1-0.2-1.5c0-0.6,0.1-1.1,0.2-1.5
				c0.2-0.5,0.4-0.9,0.7-1.2s0.6-0.6,1-0.8s0.8-0.3,1.3-0.3c0.5,0,0.9,0.1,1.3,0.3s0.7,0.5,1,0.8c0.3,0.3,0.5,0.7,0.7,1.2
				C29.4,171.1,29.5,171.6,29.5,172.1z M27.8,172.1c0-0.3,0-0.6-0.1-0.9c-0.1-0.3-0.2-0.5-0.3-0.7c-0.1-0.2-0.3-0.4-0.5-0.5
				c-0.2-0.1-0.4-0.2-0.6-0.2c-0.2,0-0.4,0.1-0.6,0.2c-0.2,0.1-0.4,0.3-0.5,0.5s-0.2,0.4-0.3,0.7c-0.1,0.3-0.1,0.6-0.1,0.9
				c0,0.3,0,0.6,0.1,0.9s0.2,0.5,0.3,0.7c0.1,0.2,0.3,0.4,0.5,0.5c0.2,0.1,0.4,0.2,0.6,0.2c0.2,0,0.4-0.1,0.6-0.2
				c0.2-0.1,0.4-0.3,0.5-0.5c0.1-0.2,0.2-0.4,0.3-0.7S27.8,172.5,27.8,172.1z"/>
			<path d="M32.6,170.6c-0.3,0-0.6-0.1-0.8-0.2c-0.3-0.1-0.5-0.2-0.7-0.4c-0.2-0.2-0.3-0.4-0.4-0.6s-0.2-0.5-0.2-0.8
				c0-0.3,0.1-0.5,0.2-0.7s0.3-0.4,0.4-0.6s0.4-0.3,0.7-0.4c0.3-0.1,0.5-0.2,0.8-0.2c0.3,0,0.6,0,0.8,0.2c0.3,0.1,0.5,0.2,0.7,0.4
				s0.3,0.4,0.4,0.6c0.1,0.2,0.2,0.5,0.2,0.7c0,0.3-0.1,0.5-0.2,0.8c-0.1,0.2-0.3,0.4-0.4,0.6c-0.2,0.2-0.4,0.3-0.7,0.4
				C33.2,170.5,32.9,170.6,32.6,170.6z M31.2,175.3l3.6-4.2l3.3-4.3l0.8,0.7l-3.4,4.1l-3.4,4.4L31.2,175.3z M32.6,169.7
				c0.1,0,0.2,0,0.3-0.1s0.2-0.1,0.3-0.2c0.1-0.1,0.1-0.2,0.2-0.3c0-0.1,0.1-0.3,0.1-0.4c0-0.3-0.1-0.5-0.3-0.8
				c-0.2-0.2-0.4-0.3-0.6-0.3c-0.1,0-0.2,0-0.3,0.1c-0.1,0.1-0.2,0.1-0.3,0.2c-0.1,0.1-0.1,0.2-0.2,0.3c0,0.1-0.1,0.3-0.1,0.4
				c0,0.3,0.1,0.5,0.3,0.8C32.2,169.6,32.4,169.7,32.6,169.7z M37.5,176c-0.3,0-0.6,0-0.8-0.2c-0.3-0.1-0.5-0.2-0.7-0.4
				s-0.3-0.4-0.4-0.6c-0.1-0.2-0.2-0.5-0.2-0.8c0-0.3,0.1-0.5,0.2-0.8s0.3-0.4,0.4-0.6c0.2-0.2,0.4-0.3,0.7-0.4
				c0.3-0.1,0.5-0.2,0.8-0.2s0.6,0.1,0.8,0.2c0.3,0.1,0.5,0.2,0.7,0.4c0.2,0.2,0.3,0.4,0.4,0.6c0.1,0.2,0.2,0.5,0.2,0.8
				c0,0.3-0.1,0.5-0.2,0.8c-0.1,0.2-0.3,0.4-0.4,0.6c-0.2,0.2-0.4,0.3-0.7,0.4C38,175.9,37.8,176,37.5,176z M37.5,175.1
				c0.1,0,0.2,0,0.3-0.1c0.1-0.1,0.2-0.1,0.3-0.2c0.1-0.1,0.1-0.2,0.2-0.3c0-0.1,0.1-0.3,0.1-0.4c0-0.2,0-0.3-0.1-0.4
				c-0.1-0.1-0.1-0.2-0.2-0.3c-0.1-0.1-0.2-0.2-0.3-0.2s-0.2-0.1-0.3-0.1c-0.1,0-0.2,0-0.3,0.1c-0.1,0.1-0.2,0.1-0.3,0.2
				s-0.1,0.2-0.2,0.3c0,0.1-0.1,0.3-0.1,0.4c0,0.3,0.1,0.5,0.3,0.8S37.2,175.1,37.5,175.1z"/>
		</g>
		<g>
			<path d="M23.9,129.4v1.5h-5.1v-1.5h1.8v-3.8c-0.1,0.1-0.2,0.2-0.4,0.3c-0.2,0.1-0.3,0.2-0.5,0.3c-0.2,0.1-0.4,0.2-0.6,0.2
				s-0.4,0.1-0.5,0.1v-1.6c0.2,0,0.3,0,0.6-0.1s0.4-0.2,0.6-0.3c0.2-0.1,0.4-0.3,0.5-0.4c0.2-0.1,0.3-0.2,0.3-0.3h1.7v5.7H23.9z"/>
			<path d="M31.3,127.2c0,0.6-0.1,1.1-0.2,1.5c-0.2,0.5-0.4,0.9-0.7,1.2c-0.3,0.3-0.6,0.6-1,0.8c-0.4,0.2-0.8,0.3-1.3,0.3
				c-0.5,0-0.9-0.1-1.3-0.3c-0.4-0.2-0.7-0.5-1-0.8s-0.5-0.7-0.7-1.2c-0.2-0.5-0.2-1-0.2-1.5c0-0.6,0.1-1.1,0.2-1.5
				c0.2-0.5,0.4-0.9,0.7-1.2s0.6-0.6,1-0.8s0.8-0.3,1.3-0.3c0.5,0,0.9,0.1,1.3,0.3s0.7,0.5,1,0.8c0.3,0.3,0.5,0.7,0.7,1.2
				C31.3,126.1,31.3,126.6,31.3,127.2z M29.6,127.2c0-0.3,0-0.6-0.1-0.9c-0.1-0.3-0.2-0.5-0.3-0.7c-0.1-0.2-0.3-0.4-0.5-0.5
				c-0.2-0.1-0.4-0.2-0.6-0.2c-0.2,0-0.4,0.1-0.6,0.2c-0.2,0.1-0.4,0.3-0.5,0.5s-0.2,0.4-0.3,0.7c-0.1,0.3-0.1,0.6-0.1,0.9
				c0,0.3,0,0.6,0.1,0.9s0.2,0.5,0.3,0.7c0.1,0.2,0.3,0.4,0.5,0.5c0.2,0.1,0.4,0.2,0.6,0.2c0.2,0,0.4-0.1,0.6-0.2
				c0.2-0.1,0.4-0.3,0.5-0.5c0.1-0.2,0.2-0.4,0.3-0.7S29.6,127.5,29.6,127.2z"/>
			<path d="M34.5,125.6c-0.3,0-0.6-0.1-0.8-0.2c-0.3-0.1-0.5-0.2-0.7-0.4c-0.2-0.2-0.3-0.4-0.4-0.6s-0.2-0.5-0.2-0.8
				c0-0.3,0.1-0.5,0.2-0.7s0.3-0.4,0.4-0.6s0.4-0.3,0.7-0.4c0.3-0.1,0.5-0.2,0.8-0.2c0.3,0,0.6,0,0.8,0.2c0.3,0.1,0.5,0.2,0.7,0.4
				s0.3,0.4,0.4,0.6c0.1,0.2,0.2,0.5,0.2,0.7c0,0.3-0.1,0.5-0.2,0.8c-0.1,0.2-0.3,0.4-0.4,0.6c-0.2,0.2-0.4,0.3-0.7,0.4
				C35,125.6,34.8,125.6,34.5,125.6z M33.1,130.3l3.6-4.2l3.3-4.3l0.8,0.7l-3.4,4.1l-3.4,4.4L33.1,130.3z M34.5,124.8
				c0.1,0,0.2,0,0.3-0.1s0.2-0.1,0.3-0.2c0.1-0.1,0.1-0.2,0.2-0.3c0-0.1,0.1-0.3,0.1-0.4c0-0.3-0.1-0.5-0.3-0.8
				c-0.2-0.2-0.4-0.3-0.6-0.3c-0.1,0-0.2,0-0.3,0.1c-0.1,0.1-0.2,0.1-0.3,0.2c-0.1,0.1-0.1,0.2-0.2,0.3c0,0.1-0.1,0.3-0.1,0.4
				c0,0.3,0.1,0.5,0.3,0.8C34,124.7,34.2,124.8,34.5,124.8z M39.3,131c-0.3,0-0.6,0-0.8-0.2c-0.3-0.1-0.5-0.2-0.7-0.4
				s-0.3-0.4-0.4-0.6c-0.1-0.2-0.2-0.5-0.2-0.8c0-0.3,0.1-0.5,0.2-0.8s0.3-0.4,0.4-0.6c0.2-0.2,0.4-0.3,0.7-0.4
				c0.3-0.1,0.5-0.2,0.8-0.2s0.6,0.1,0.8,0.2c0.3,0.1,0.5,0.2,0.7,0.4c0.2,0.2,0.3,0.4,0.4,0.6c0.1,0.2,0.2,0.5,0.2,0.8
				c0,0.3-0.1,0.5-0.2,0.8c-0.1,0.2-0.3,0.4-0.4,0.6c-0.2,0.2-0.4,0.3-0.7,0.4C39.9,131,39.6,131,39.3,131z M39.3,130.2
				c0.1,0,0.2,0,0.3-0.1c0.1-0.1,0.2-0.1,0.3-0.2c0.1-0.1,0.1-0.2,0.2-0.3c0-0.1,0.1-0.3,0.1-0.4c0-0.2,0-0.3-0.1-0.4
				c-0.1-0.1-0.1-0.2-0.2-0.3c-0.1-0.1-0.2-0.2-0.3-0.2s-0.2-0.1-0.3-0.1c-0.1,0-0.2,0-0.3,0.1c-0.1,0.1-0.2,0.1-0.3,0.2
				s-0.1,0.2-0.2,0.3c0,0.1-0.1,0.3-0.1,0.4c0,0.3,0.1,0.5,0.3,0.8S39.1,130.2,39.3,130.2z"/>
		</g>
		<g>
			<path d="M18.5,86.8c0-0.4,0-0.7,0.1-1c0.1-0.3,0.2-0.6,0.3-0.9c0.1-0.3,0.3-0.5,0.6-0.7c0.3-0.2,0.6-0.4,1-0.7
				c0.3-0.2,0.6-0.3,0.9-0.5c0.3-0.1,0.5-0.3,0.7-0.4c0.2-0.1,0.3-0.2,0.4-0.4c0.1-0.1,0.1-0.3,0.1-0.4c0-0.3-0.1-0.5-0.3-0.6
				c-0.2-0.2-0.5-0.3-0.9-0.3c-0.2,0-0.4,0-0.6,0.1c-0.2,0.1-0.3,0.1-0.5,0.2c-0.1,0.1-0.3,0.2-0.4,0.3s-0.2,0.2-0.3,0.4l-1.1-1.2
				c0.1-0.1,0.3-0.2,0.5-0.4c0.2-0.1,0.4-0.3,0.7-0.4s0.6-0.2,0.9-0.3s0.7-0.1,1.1-0.1c0.4,0,0.8,0.1,1.1,0.2
				c0.3,0.1,0.6,0.3,0.9,0.4s0.4,0.4,0.5,0.7s0.2,0.6,0.2,0.9c0,0.3-0.1,0.6-0.2,0.8c-0.1,0.2-0.2,0.4-0.4,0.6
				c-0.2,0.2-0.4,0.3-0.5,0.5c-0.2,0.1-0.4,0.2-0.6,0.3c-0.2,0.1-0.3,0.2-0.5,0.3c-0.2,0.1-0.4,0.2-0.6,0.4
				c-0.2,0.1-0.4,0.3-0.5,0.4s-0.3,0.3-0.4,0.4h3.8v1.5H18.5z"/>
			<path d="M32.2,83.1c0,0.6-0.1,1.1-0.2,1.5c-0.2,0.5-0.4,0.9-0.7,1.2c-0.3,0.3-0.6,0.6-1,0.8c-0.4,0.2-0.8,0.3-1.3,0.3
				c-0.5,0-0.9-0.1-1.3-0.3c-0.4-0.2-0.7-0.5-1-0.8s-0.5-0.7-0.7-1.2c-0.2-0.5-0.2-1-0.2-1.5c0-0.6,0.1-1.1,0.2-1.5
				c0.2-0.5,0.4-0.9,0.7-1.2s0.6-0.6,1-0.8c0.4-0.2,0.8-0.3,1.3-0.3c0.5,0,0.9,0.1,1.3,0.3c0.4,0.2,0.7,0.5,1,0.8
				c0.3,0.3,0.5,0.7,0.7,1.2C32.1,82,32.2,82.5,32.2,83.1z M30.5,83.1c0-0.3,0-0.6-0.1-0.9c-0.1-0.3-0.2-0.5-0.3-0.7
				c-0.1-0.2-0.3-0.4-0.5-0.5c-0.2-0.1-0.4-0.2-0.6-0.2c-0.2,0-0.4,0.1-0.6,0.2c-0.2,0.1-0.4,0.3-0.5,0.5s-0.2,0.4-0.3,0.7
				c-0.1,0.3-0.1,0.6-0.1,0.9c0,0.3,0,0.6,0.1,0.9s0.2,0.5,0.3,0.7c0.1,0.2,0.3,0.4,0.5,0.5c0.2,0.1,0.4,0.2,0.6,0.2
				c0.2,0,0.4-0.1,0.6-0.2c0.2-0.1,0.4-0.3,0.5-0.5c0.1-0.2,0.2-0.4,0.3-0.7S30.5,83.4,30.5,83.1z"/>
			<path d="M35.4,81.5c-0.3,0-0.6-0.1-0.8-0.2c-0.3-0.1-0.5-0.2-0.7-0.4c-0.2-0.2-0.3-0.4-0.4-0.6c-0.1-0.2-0.2-0.5-0.2-0.8
				c0-0.3,0.1-0.5,0.2-0.7s0.3-0.4,0.4-0.6c0.2-0.2,0.4-0.3,0.7-0.4c0.3-0.1,0.5-0.2,0.8-0.2c0.3,0,0.6,0.1,0.8,0.2
				c0.3,0.1,0.5,0.2,0.7,0.4c0.2,0.2,0.3,0.4,0.4,0.6c0.1,0.2,0.2,0.5,0.2,0.7c0,0.3-0.1,0.5-0.2,0.8c-0.1,0.2-0.3,0.4-0.4,0.6
				c-0.2,0.2-0.4,0.3-0.7,0.4C35.9,81.5,35.6,81.5,35.4,81.5z M34,86.2l3.6-4.2l3.3-4.3l0.8,0.7l-3.4,4.1l-3.4,4.4L34,86.2z
				 M35.4,80.7c0.1,0,0.2,0,0.3-0.1c0.1-0.1,0.2-0.1,0.3-0.2c0.1-0.1,0.1-0.2,0.2-0.3c0-0.1,0.1-0.3,0.1-0.4c0-0.3-0.1-0.5-0.3-0.8
				c-0.2-0.2-0.4-0.3-0.6-0.3c-0.1,0-0.2,0-0.3,0.1c-0.1,0.1-0.2,0.1-0.3,0.2s-0.1,0.2-0.2,0.3c0,0.1-0.1,0.3-0.1,0.4
				c0,0.3,0.1,0.5,0.3,0.8C34.9,80.6,35.1,80.7,35.4,80.7z M40.2,86.9c-0.3,0-0.6,0-0.8-0.2c-0.3-0.1-0.5-0.2-0.7-0.4
				s-0.3-0.4-0.4-0.6c-0.1-0.2-0.2-0.5-0.2-0.8c0-0.3,0.1-0.5,0.2-0.8s0.3-0.4,0.4-0.6c0.2-0.2,0.4-0.3,0.7-0.4
				c0.3-0.1,0.5-0.2,0.8-0.2s0.6,0.1,0.8,0.2c0.3,0.1,0.5,0.2,0.7,0.4c0.2,0.2,0.3,0.4,0.4,0.6c0.1,0.2,0.2,0.5,0.2,0.8
				c0,0.3-0.1,0.5-0.2,0.8c-0.1,0.2-0.3,0.4-0.4,0.6c-0.2,0.2-0.4,0.3-0.7,0.4C40.8,86.8,40.5,86.9,40.2,86.9z M40.2,86
				c0.1,0,0.2,0,0.3-0.1c0.1-0.1,0.2-0.1,0.3-0.2c0.1-0.1,0.1-0.2,0.2-0.3c0-0.1,0.1-0.3,0.1-0.4c0-0.2,0-0.3-0.1-0.4
				c-0.1-0.1-0.1-0.2-0.2-0.3c-0.1-0.1-0.2-0.2-0.3-0.2s-0.2-0.1-0.3-0.1c-0.1,0-0.2,0-0.3,0.1c-0.1,0.1-0.2,0.1-0.3,0.2
				s-0.1,0.2-0.2,0.3c0,0.1-0.1,0.3-0.1,0.4c0,0.3,0.1,0.5,0.3,0.8S40,86,40.2,86z"/>
		</g>
		<g>
			<path d="M22.8,39.6c0.5,0.1,0.9,0.3,1.3,0.8c0.3,0.4,0.5,0.9,0.5,1.5c0,0.4-0.1,0.8-0.2,1.1c-0.2,0.3-0.4,0.6-0.7,0.8
				c-0.3,0.2-0.6,0.4-1,0.5s-0.9,0.2-1.4,0.2c-0.6,0-1.2-0.1-1.7-0.3c-0.5-0.2-0.9-0.5-1.2-0.9l1-1.2c0.2,0.3,0.5,0.5,0.8,0.6
				c0.3,0.2,0.7,0.2,1.1,0.2c0.5,0,0.9-0.1,1.2-0.3c0.3-0.2,0.4-0.5,0.4-0.9c0-0.4-0.2-0.8-0.5-1c-0.3-0.2-0.8-0.4-1.4-0.4h-0.4
				v-1.3h0.4c0.5,0,0.9-0.1,1.2-0.3c0.3-0.2,0.4-0.5,0.4-0.9c0-0.3-0.1-0.6-0.4-0.8c-0.2-0.2-0.5-0.3-0.9-0.3c-0.4,0-0.7,0.1-1,0.3
				c-0.3,0.2-0.6,0.4-0.8,0.7l-1.1-1.2c0.1-0.2,0.3-0.4,0.5-0.5c0.2-0.2,0.4-0.3,0.7-0.4c0.3-0.1,0.6-0.2,0.9-0.3s0.6-0.1,1-0.1
				c0.4,0,0.8,0.1,1.2,0.2c0.4,0.1,0.7,0.3,0.9,0.5c0.3,0.2,0.5,0.4,0.6,0.7c0.1,0.3,0.2,0.6,0.2,0.9c0,0.3,0,0.5-0.1,0.7
				s-0.2,0.4-0.3,0.6c-0.1,0.2-0.3,0.3-0.5,0.5C23.2,39.5,23,39.6,22.8,39.6z"/>
			<path d="M32.1,38.9c0,0.6-0.1,1.1-0.2,1.5c-0.2,0.5-0.4,0.9-0.7,1.2c-0.3,0.3-0.6,0.6-1,0.8c-0.4,0.2-0.8,0.3-1.3,0.3
				c-0.5,0-0.9-0.1-1.3-0.3c-0.4-0.2-0.7-0.5-1-0.8c-0.3-0.3-0.5-0.7-0.7-1.2c-0.2-0.5-0.2-1-0.2-1.5c0-0.6,0.1-1.1,0.2-1.5
				c0.2-0.5,0.4-0.9,0.7-1.2c0.3-0.3,0.6-0.6,1-0.8c0.4-0.2,0.8-0.3,1.3-0.3c0.5,0,0.9,0.1,1.3,0.3c0.4,0.2,0.7,0.5,1,0.8
				c0.3,0.3,0.5,0.7,0.7,1.2C32.1,37.9,32.1,38.4,32.1,38.9z M30.4,38.9c0-0.3,0-0.6-0.1-0.9s-0.2-0.5-0.3-0.7
				c-0.1-0.2-0.3-0.4-0.5-0.5c-0.2-0.1-0.4-0.2-0.6-0.2c-0.2,0-0.4,0.1-0.6,0.2c-0.2,0.1-0.4,0.3-0.5,0.5c-0.1,0.2-0.2,0.4-0.3,0.7
				s-0.1,0.6-0.1,0.9s0,0.6,0.1,0.9c0.1,0.3,0.2,0.5,0.3,0.7s0.3,0.4,0.5,0.5c0.2,0.1,0.4,0.2,0.6,0.2c0.2,0,0.4-0.1,0.6-0.2
				c0.2-0.1,0.4-0.3,0.5-0.5c0.1-0.2,0.2-0.4,0.3-0.7C30.4,39.6,30.4,39.3,30.4,38.9z"/>
			<path d="M35.3,37.4c-0.3,0-0.6-0.1-0.8-0.2c-0.3-0.1-0.5-0.2-0.7-0.4c-0.2-0.2-0.3-0.4-0.4-0.6c-0.1-0.2-0.2-0.5-0.2-0.8
				c0-0.3,0.1-0.5,0.2-0.7s0.3-0.4,0.4-0.6c0.2-0.2,0.4-0.3,0.7-0.4c0.3-0.1,0.5-0.2,0.8-0.2c0.3,0,0.6,0.1,0.8,0.2
				c0.3,0.1,0.5,0.2,0.7,0.4c0.2,0.2,0.3,0.4,0.4,0.6c0.1,0.2,0.2,0.5,0.2,0.7c0,0.3-0.1,0.5-0.2,0.8c-0.1,0.2-0.3,0.4-0.4,0.6
				c-0.2,0.2-0.4,0.3-0.7,0.4S35.6,37.4,35.3,37.4z M33.9,42l3.6-4.2l3.3-4.3l0.8,0.7l-3.4,4.1l-3.4,4.4L33.9,42z M35.3,36.5
				c0.1,0,0.2,0,0.3-0.1c0.1-0.1,0.2-0.1,0.3-0.2c0.1-0.1,0.1-0.2,0.2-0.3c0-0.1,0.1-0.3,0.1-0.4c0-0.3-0.1-0.5-0.3-0.8
				c-0.2-0.2-0.4-0.3-0.6-0.3c-0.1,0-0.2,0-0.3,0.1c-0.1,0.1-0.2,0.1-0.3,0.2s-0.1,0.2-0.2,0.3c0,0.1-0.1,0.3-0.1,0.4
				c0,0.3,0.1,0.5,0.3,0.8C34.8,36.4,35,36.5,35.3,36.5z M40.2,42.7c-0.3,0-0.6-0.1-0.8-0.2c-0.3-0.1-0.5-0.2-0.7-0.4
				c-0.2-0.2-0.3-0.4-0.4-0.6c-0.1-0.2-0.2-0.5-0.2-0.8c0-0.3,0.1-0.5,0.2-0.8c0.1-0.2,0.3-0.4,0.4-0.6s0.4-0.3,0.7-0.4
				c0.3-0.1,0.5-0.2,0.8-0.2s0.6,0.1,0.8,0.2c0.3,0.1,0.5,0.2,0.7,0.4c0.2,0.2,0.3,0.4,0.4,0.6c0.1,0.2,0.2,0.5,0.2,0.8
				c0,0.3-0.1,0.5-0.2,0.8c-0.1,0.2-0.3,0.4-0.4,0.6c-0.2,0.2-0.4,0.3-0.7,0.4C40.7,42.7,40.5,42.7,40.2,42.7z M40.2,41.9
				c0.1,0,0.2,0,0.3-0.1c0.1-0.1,0.2-0.1,0.3-0.2c0.1-0.1,0.1-0.2,0.2-0.3c0-0.1,0.1-0.3,0.1-0.4c0-0.2,0-0.3-0.1-0.4
				s-0.1-0.2-0.2-0.3c-0.1-0.1-0.2-0.2-0.3-0.2c-0.1-0.1-0.2-0.1-0.3-0.1c-0.1,0-0.2,0-0.3,0.1c-0.1,0.1-0.2,0.1-0.3,0.2
				s-0.1,0.2-0.2,0.3c0,0.1-0.1,0.3-0.1,0.4c0,0.3,0.1,0.5,0.3,0.8S39.9,41.9,40.2,41.9z"/>
		</g>
		<g>
			<defs>
				<path id="SVGID_19_" d="M57,49.6v120.5c0,0-0.3,1.8,2.3,1.8h369.6c1.5,0,1.7-2.2,0.2-2.5l-63.1-10.9l-77.3-27.6l-77.3-18.1
					l-77.3-26l-70.5-41c-0.7-0.4-1.5-0.6-2.2-0.6C59.2,45.1,57,47,57,49.6"/>
			</defs>
			<clipPath id="SVGID_20_">
				<use xlink:href="#SVGID_19_"  style="overflow:visible;"/>
			</clipPath>
			
				<linearGradient id="SVGID_21_" gradientUnits="userSpaceOnUse" x1="-65.5662" y1="539.3416" x2="-64.1117" y2="539.3416" gradientTransform="matrix(256.5371 0 0 -256.5371 16897.8203 138469.6562)">
				<stop  offset="0" style="stop-color:#2867B1"/>
				<stop  offset="0.1377" style="stop-color:#3979B4"/>
				<stop  offset="0.5275" style="stop-color:#66A8BC"/>
				<stop  offset="0.8269" style="stop-color:#82C5C1"/>
				<stop  offset="0.9978" style="stop-color:#8CD0C3"/>
				<stop  offset="1" style="stop-color:#8CD0C3"/>
			</linearGradient>
			<rect x="56.8" y="45.1" class="st13" width="373.9" height="126.8"/>
		</g>
		<g>
			<defs>
				<polyline id="SVGID_22_" points="-341.1,296 524.7,296 524.7,-928.6 -341.1,-928.6 				"/>
			</defs>
			<clipPath id="SVGID_23_">
				<use xlink:href="#SVGID_22_"  style="overflow:visible;"/>
			</clipPath>
			<g class="st14">
				<g>
					<defs>
						<rect id="SVGID_24_" x="52.5" y="37.4" width="15.4" height="15.4"/>
					</defs>
					<clipPath id="SVGID_25_">
						<use xlink:href="#SVGID_24_"  style="overflow:visible;"/>
					</clipPath>
					<path class="st15" d="M60.2,51.3c3.5,0,6.3-2.8,6.3-6.3c0-3.5-2.8-6.3-6.3-6.3c-3.5,0-6.3,2.8-6.3,6.3
						C54,48.5,56.8,51.3,60.2,51.3"/>
				</g>
			</g>
			<path class="st16" d="M60.2,49.3c2.3,0,4.2-1.9,4.2-4.2c0-2.3-1.9-4.2-4.2-4.2c-2.3,0-4.2,1.9-4.2,4.2
				C56,47.4,57.9,49.3,60.2,49.3"/>
			<g class="st14">
				<g>
					<defs>
						<rect id="SVGID_26_" x="127.9" y="78.5" width="15.4" height="15.4"/>
					</defs>
					<clipPath id="SVGID_27_">
						<use xlink:href="#SVGID_26_"  style="overflow:visible;"/>
					</clipPath>
					<path class="st17" d="M135.6,92.4c3.5,0,6.3-2.8,6.3-6.3c0-3.5-2.8-6.3-6.3-6.3c-3.5,0-6.3,2.8-6.3,6.3
						C129.4,89.6,132.2,92.4,135.6,92.4"/>
				</g>
			</g>
			<path class="st16" d="M135.6,90.4c2.3,0,4.2-1.9,4.2-4.2c0-2.3-1.9-4.2-4.2-4.2c-2.3,0-4.2,1.9-4.2,4.2
				C131.4,88.5,133.3,90.4,135.6,90.4"/>
			<g class="st14">
				<g>
					<defs>
						<rect id="SVGID_28_" x="200.5" y="103.9" width="15.4" height="15.4"/>
					</defs>
					<clipPath id="SVGID_29_">
						<use xlink:href="#SVGID_28_"  style="overflow:visible;"/>
					</clipPath>
					<path class="st18" d="M208.2,117.8c3.5,0,6.3-2.8,6.3-6.3c0-3.5-2.8-6.3-6.3-6.3c-3.5,0-6.3,2.8-6.3,6.3
						C202,115,204.8,117.8,208.2,117.8"/>
				</g>
			</g>
			<path class="st16" d="M208.2,115.8c2.3,0,4.2-1.9,4.2-4.2c0-2.3-1.9-4.2-4.2-4.2c-2.3,0-4.2,1.9-4.2,4.2
				C204,113.9,205.9,115.8,208.2,115.8"/>
			<g class="st14">
				<g>
					<defs>
						<rect id="SVGID_30_" x="276.9" y="123.4" width="15.4" height="15.4"/>
					</defs>
					<clipPath id="SVGID_31_">
						<use xlink:href="#SVGID_30_"  style="overflow:visible;"/>
					</clipPath>
					<path class="st19" d="M284.6,137.4c3.5,0,6.3-2.8,6.3-6.3s-2.8-6.3-6.3-6.3c-3.5,0-6.3,2.8-6.3,6.3S281.1,137.4,284.6,137.4"/>
				</g>
			</g>
			<path class="st16" d="M284.6,135.3c2.3,0,4.2-1.9,4.2-4.2c0-2.3-1.9-4.2-4.2-4.2c-2.3,0-4.2,1.9-4.2,4.2
				C280.4,133.4,282.2,135.3,284.6,135.3"/>
			<g class="st14">
				<g>
					<defs>
						<rect id="SVGID_32_" x="357.4" y="151.1" width="15.4" height="15.4"/>
					</defs>
					<clipPath id="SVGID_33_">
						<use xlink:href="#SVGID_32_"  style="overflow:visible;"/>
					</clipPath>
					<path class="st20" d="M365.1,165.1c3.5,0,6.3-2.8,6.3-6.3s-2.8-6.3-6.3-6.3c-3.5,0-6.3,2.8-6.3,6.3S361.6,165.1,365.1,165.1"/>
				</g>
			</g>
			<path class="st16" d="M365.1,163.1c2.3,0,4.2-1.9,4.2-4.2c0-2.3-1.9-4.2-4.2-4.2c-2.3,0-4.2,1.9-4.2,4.2
				C360.9,161.2,362.8,163.1,365.1,163.1"/>
			<g class="st14">
				<g>
					<defs>
						<rect id="SVGID_34_" x="399.3" y="156.2" width="15.4" height="15.4"/>
					</defs>
					<clipPath id="SVGID_35_">
						<use xlink:href="#SVGID_34_"  style="overflow:visible;"/>
					</clipPath>
					<path class="st21" d="M407,170.2c3.5,0,6.3-2.8,6.3-6.3s-2.8-6.3-6.3-6.3c-3.5,0-6.3,2.8-6.3,6.3S403.5,170.2,407,170.2"/>
				</g>
			</g>
			<path class="st16" d="M407,168.1c2.3,0,4.2-1.9,4.2-4.2c0-2.3-1.9-4.2-4.2-4.2c-2.3,0-4.2,1.9-4.2,4.2
				C402.8,166.2,404.6,168.1,407,168.1"/>
			<defs>
				<filter id="Adobe_OpacityMaskFilter_3_" filterUnits="userSpaceOnUse" x="133.6" y="84.3" width="4" height="65.4">
					<feColorMatrix  type="matrix" values="1 0 0 0 0  0 1 0 0 0  0 0 1 0 0  0 0 0 1 0"/>
				</filter>
			</defs>
			<mask maskUnits="userSpaceOnUse" x="133.6" y="84.3" width="4" height="65.4" id="SVGID_36_">
				<g class="st22">
					
						<linearGradient id="SVGID_37_" gradientUnits="userSpaceOnUse" x1="-74.6299" y1="532.1384" x2="-73.1754" y2="532.1384" gradientTransform="matrix(0 31.6443 31.6443 0 -16747.3184 2456.8606)">
						<stop  offset="0" style="stop-color:#FFFFFF"/>
						<stop  offset="1" style="stop-color:#000000"/>
					</linearGradient>
					<rect x="-341.1" y="-928.6" class="st23" width="865.8" height="1224.6"/>
				</g>
			</mask>
			<g class="st24">
				<g>
					<defs>
						<rect id="SVGID_38_" x="133.6" y="84.3" width="4" height="65.4"/>
					</defs>
					<clipPath id="SVGID_39_">
						<use xlink:href="#SVGID_38_"  style="overflow:visible;"/>
					</clipPath>
					<line class="st25" x1="135.6" y1="85.8" x2="135.6" y2="148.3"/>
				</g>
			</g>
			<defs>
				<filter id="Adobe_OpacityMaskFilter_4_" filterUnits="userSpaceOnUse" x="58.4" y="45.3" width="4" height="65.4">
					<feColorMatrix  type="matrix" values="1 0 0 0 0  0 1 0 0 0  0 0 1 0 0  0 0 0 1 0"/>
				</filter>
			</defs>
			<mask maskUnits="userSpaceOnUse" x="58.4" y="45.3" width="4" height="65.4" id="SVGID_40_">
				<g class="st26">
					
						<linearGradient id="SVGID_41_" gradientUnits="userSpaceOnUse" x1="-75.0157" y1="533.7725" x2="-73.5612" y2="533.7725" gradientTransform="matrix(0 31.6443 31.6443 0 -16799.0273 2430.0012)">
						<stop  offset="0" style="stop-color:#FFFFFF"/>
						<stop  offset="1" style="stop-color:#000000"/>
					</linearGradient>
					<rect x="-341.1" y="-928.6" class="st27" width="865.8" height="1224.6"/>
				</g>
			</mask>
			<g class="st28">
				<g>
					<defs>
						<rect id="SVGID_42_" x="58.4" y="45.3" width="4" height="65.4"/>
					</defs>
					<clipPath id="SVGID_43_">
						<use xlink:href="#SVGID_42_"  style="overflow:visible;"/>
					</clipPath>
					<line class="st29" x1="60.4" y1="46.7" x2="60.4" y2="109.2"/>
				</g>
			</g>
			<defs>
				<filter id="Adobe_OpacityMaskFilter_5_" filterUnits="userSpaceOnUse" x="206.2" y="112" width="4" height="65.4">
					<feColorMatrix  type="matrix" values="1 0 0 0 0  0 1 0 0 0  0 0 1 0 0  0 0 0 1 0"/>
				</filter>
			</defs>
			<mask maskUnits="userSpaceOnUse" x="206.2" y="112" width="4" height="65.4" id="SVGID_44_">
				<g class="st30">
					
						<linearGradient id="SVGID_45_" gradientUnits="userSpaceOnUse" x1="-74.3567" y1="530.5618" x2="-72.9022" y2="530.5618" gradientTransform="matrix(0 31.6443 31.6443 0 -16697.4297 2475.884)">
						<stop  offset="0" style="stop-color:#FFFFFF"/>
						<stop  offset="1" style="stop-color:#000000"/>
					</linearGradient>
					<rect x="-341.1" y="-928.6" class="st31" width="865.8" height="1224.6"/>
				</g>
			</mask>
			<g class="st32">
				<g>
					<defs>
						<rect id="SVGID_46_" x="206.2" y="112" width="4" height="65.4"/>
					</defs>
					<clipPath id="SVGID_47_">
						<use xlink:href="#SVGID_46_"  style="overflow:visible;"/>
					</clipPath>
					<line class="st33" x1="208.2" y1="113.5" x2="208.2" y2="176"/>
				</g>
			</g>
			<defs>
				<filter id="Adobe_OpacityMaskFilter_6_" filterUnits="userSpaceOnUse" x="282.6" y="129.7" width="4" height="43.9">
					<feColorMatrix  type="matrix" values="1 0 0 0 0  0 1 0 0 0  0 0 1 0 0  0 0 0 1 0"/>
				</filter>
			</defs>
			<mask maskUnits="userSpaceOnUse" x="282.6" y="129.7" width="4" height="43.9" id="SVGID_48_">
				<g class="st34">
					
						<linearGradient id="SVGID_49_" gradientUnits="userSpaceOnUse" x1="-79.0412" y1="524.1377" x2="-77.5867" y2="524.1377" gradientTransform="matrix(0 20.7665 20.7665 0 -10792.7227 1778.7273)">
						<stop  offset="0" style="stop-color:#FFFFFF"/>
						<stop  offset="1" style="stop-color:#000000"/>
					</linearGradient>
					<rect x="-341.1" y="-928.6" class="st35" width="865.8" height="1224.6"/>
				</g>
			</mask>
			<g class="st36">
				<g>
					<defs>
						<rect id="SVGID_50_" x="282.6" y="129.7" width="4" height="43.9"/>
					</defs>
					<clipPath id="SVGID_51_">
						<use xlink:href="#SVGID_50_"  style="overflow:visible;"/>
					</clipPath>
					<line class="st37" x1="284.6" y1="131.1" x2="284.6" y2="172.1"/>
				</g>
			</g>
			<defs>
				<filter id="Adobe_OpacityMaskFilter_7_" filterUnits="userSpaceOnUse" x="363.1" y="157.4" width="4" height="16.2">
					<feColorMatrix  type="matrix" values="1 0 0 0 0  0 1 0 0 0  0 0 1 0 0  0 0 0 1 0"/>
				</filter>
			</defs>
			<mask maskUnits="userSpaceOnUse" x="363.1" y="157.4" width="4" height="16.2" id="SVGID_52_">
				<g class="st38">
					
						<linearGradient id="SVGID_53_" gradientUnits="userSpaceOnUse" x1="-107.2686" y1="486.9588" x2="-105.8141" y2="486.9588" gradientTransform="matrix(0 6.7244 6.7244 0 -3182.7048 882.1741)">
						<stop  offset="0" style="stop-color:#FFFFFF"/>
						<stop  offset="1" style="stop-color:#000000"/>
					</linearGradient>
					<rect x="-341.1" y="-928.6" class="st39" width="865.8" height="1224.6"/>
				</g>
			</mask>
			<g class="st40">
				<g>
					<defs>
						<rect id="SVGID_54_" x="363.1" y="157.4" width="4" height="16.2"/>
					</defs>
					<clipPath id="SVGID_55_">
						<use xlink:href="#SVGID_54_"  style="overflow:visible;"/>
					</clipPath>
					<line class="st41" x1="365.1" y1="158.8" x2="365.1" y2="172.1"/>
				</g>
			</g>
			<defs>
				<filter id="Adobe_OpacityMaskFilter_8_" filterUnits="userSpaceOnUse" x="405" y="162.8" width="4" height="12.3">
					<feColorMatrix  type="matrix" values="1 0 0 0 0  0 1 0 0 0  0 0 1 0 0  0 0 0 1 0"/>
				</filter>
			</defs>
			<mask maskUnits="userSpaceOnUse" x="405" y="162.8" width="4" height="12.3" id="SVGID_56_">
				<g class="st42">
					
						<linearGradient id="SVGID_57_" gradientUnits="userSpaceOnUse" x1="-106.5932" y1="493.1918" x2="-105.4914" y2="493.1918" gradientTransform="matrix(0 6.7244 6.7244 0 -3182.7048 882.1741)">
						<stop  offset="0" style="stop-color:#FFFFFF"/>
						<stop  offset="1" style="stop-color:#000000"/>
					</linearGradient>
					<rect x="-299.2" y="-659.8" class="st43" width="865.8" height="927.6"/>
				</g>
			</mask>
			<g class="st44">
				<g>
					<defs>
						<rect id="SVGID_58_" x="405" y="162.8" width="4" height="12.3"/>
					</defs>
					<clipPath id="SVGID_59_">
						<use xlink:href="#SVGID_58_"  style="overflow:visible;"/>
					</clipPath>
					<line class="st45" x1="407" y1="163.9" x2="407" y2="173.9"/>
				</g>
			</g>
		</g>
		<rect x="66.3" y="203" class="st1" width="2" height="0.3"/>
		<g>
			<path class="st1" d="M133.7,204.3v0.8h-2.5v-0.8h0.9v-1.9c0,0.1-0.1,0.1-0.2,0.2s-0.2,0.1-0.3,0.1c-0.1,0-0.2,0.1-0.3,0.1
				s-0.2,0-0.3,0V202c0.1,0,0.2,0,0.3-0.1c0.1,0,0.2-0.1,0.3-0.2s0.2-0.1,0.3-0.2c0.1-0.1,0.1-0.1,0.1-0.2h0.9v2.9H133.7z"/>
		</g>
		<g>
			<path class="st1" d="M112,204.1c0.1,0,0.2,0.1,0.3,0.1s0.3,0.1,0.5,0.1c0.2,0,0.3,0,0.4-0.1c0.1-0.1,0.2-0.2,0.2-0.3
				c0.1-0.1,0.1-0.3,0.1-0.5c0-0.2,0-0.4,0-0.7v-2.3h0.9v2.3c0,0.3,0,0.7-0.1,0.9c0,0.3-0.1,0.5-0.2,0.7c-0.1,0.2-0.3,0.4-0.5,0.5
				c-0.2,0.1-0.5,0.2-0.9,0.2c-0.4,0-0.7-0.1-1-0.3L112,204.1z"/>
			<path class="st1" d="M117,204.3c0.2,0,0.4,0,0.5-0.1c0.1-0.1,0.3-0.2,0.3-0.3c0.1-0.1,0.1-0.3,0.2-0.5c0-0.2,0.1-0.4,0.1-0.5
				v-2.3h0.9v2.3c0,0.3,0,0.6-0.1,0.9s-0.2,0.5-0.3,0.7c-0.2,0.2-0.4,0.4-0.6,0.5c-0.2,0.1-0.5,0.2-0.9,0.2c-0.4,0-0.7-0.1-0.9-0.2
				c-0.2-0.1-0.5-0.3-0.6-0.5c-0.2-0.2-0.3-0.4-0.3-0.7c-0.1-0.3-0.1-0.6-0.1-0.8v-2.3h0.9v2.3c0,0.2,0,0.4,0.1,0.5
				c0,0.2,0.1,0.3,0.2,0.5c0.1,0.1,0.2,0.2,0.3,0.3C116.6,204.3,116.8,204.3,117,204.3z"/>
			<path class="st1" d="M120.5,202.2v2.9h-0.9v-4.5h0.7l2.3,3v-2.9h0.9v4.5h-0.7L120.5,202.2z"/>
			<path class="st1" d="M127.3,204.3v0.8h-3.1v-4.5h3v0.8h-2.2v1.1h1.9v0.7h-1.9v1.2H127.3z"/>
		</g>
		<g>
			<path class="st1" d="M133.9,201.1C133.9,201.1,133.9,201.1,133.9,201.1c-0.1-0.1-0.1-0.1-0.2-0.1c0,0-0.1,0-0.1,0
				c0,0-0.1,0-0.1,0c-0.1,0-0.1,0-0.2,0c0,0-0.1,0.1-0.1,0.1c0,0,0,0.1,0,0.1c0,0,0,0,0.1,0.1c0,0,0.1,0,0.1,0c0,0,0.1,0,0.2,0
				c0.1,0,0.1,0,0.2,0.1c0.1,0,0.1,0.1,0.2,0.1c0,0,0.1,0.1,0.1,0.1c0,0,0,0.1,0,0.2c0,0.1,0,0.2,0,0.2s-0.1,0.1-0.1,0.1
				c-0.1,0-0.1,0.1-0.2,0.1c-0.1,0-0.1,0-0.2,0c-0.1,0-0.2,0-0.3-0.1c-0.1,0-0.2-0.1-0.3-0.1l0.1-0.3c0,0,0,0,0.1,0.1s0.1,0,0.1,0.1
				c0,0,0.1,0,0.2,0.1s0.1,0,0.2,0c0.2,0,0.2-0.1,0.2-0.2c0,0,0-0.1,0-0.1s0,0-0.1-0.1c0,0-0.1,0-0.1,0c0,0-0.1,0-0.2,0
				c-0.1,0-0.1,0-0.2-0.1c-0.1,0-0.1-0.1-0.1-0.1c0,0-0.1-0.1-0.1-0.1c0,0,0-0.1,0-0.2c0-0.1,0-0.1,0-0.2s0.1-0.1,0.1-0.2
				s0.1-0.1,0.2-0.1s0.1,0,0.2,0c0.1,0,0.2,0,0.3,0.1c0.1,0,0.2,0.1,0.2,0.1L133.9,201.1z"/>
			<path class="st1" d="M135.4,200.9h-0.5v1.3h-0.3v-1.3h-0.5v-0.3h1.3V200.9z"/>
		</g>
		<g>
			<path class="st1" d="M161.8,202.1h-2v-0.8h3.4l-2.2,4.5h-1L161.8,202.1z"/>
		</g>
		<g>
			<path class="st1" d="M142.6,204.1c0.1,0,0.2,0.1,0.3,0.1s0.3,0.1,0.5,0.1c0.2,0,0.3,0,0.4-0.1c0.1-0.1,0.2-0.2,0.2-0.3
				c0.1-0.1,0.1-0.3,0.1-0.5c0-0.2,0-0.4,0-0.7v-2.3h0.9v2.3c0,0.3,0,0.7-0.1,0.9c0,0.3-0.1,0.5-0.2,0.7c-0.1,0.2-0.3,0.4-0.5,0.5
				c-0.2,0.1-0.5,0.2-0.9,0.2c-0.4,0-0.7-0.1-1-0.3L142.6,204.1z"/>
			<path class="st1" d="M147.6,204.3c0.2,0,0.4,0,0.5-0.1c0.1-0.1,0.3-0.2,0.3-0.3c0.1-0.1,0.1-0.3,0.2-0.5c0-0.2,0.1-0.4,0.1-0.5
				v-2.3h0.9v2.3c0,0.3,0,0.6-0.1,0.9s-0.2,0.5-0.3,0.7c-0.2,0.2-0.4,0.4-0.6,0.5c-0.2,0.1-0.5,0.2-0.9,0.2c-0.4,0-0.7-0.1-0.9-0.2
				c-0.2-0.1-0.5-0.3-0.6-0.5c-0.2-0.2-0.3-0.4-0.3-0.7c-0.1-0.3-0.1-0.6-0.1-0.8v-2.3h0.9v2.3c0,0.2,0,0.4,0.1,0.5
				c0,0.2,0.1,0.3,0.2,0.5c0.1,0.1,0.2,0.2,0.3,0.3C147.2,204.3,147.4,204.3,147.6,204.3z"/>
			<path class="st1" d="M151,202.2v2.9h-0.9v-4.5h0.7l2.3,3v-2.9h0.9v4.5h-0.7L151,202.2z"/>
			<path class="st1" d="M157.9,204.3v0.8h-3.1v-4.5h3v0.8h-2.2v1.1h1.9v0.7h-1.9v1.2H157.9z"/>
		</g>
		<g>
			<path class="st1" d="M164.5,201H164v1.3h-0.3V201h-0.5v-0.3h1.3V201z"/>
			<path class="st1" d="M165.9,200.7v1.6h-0.3v-0.7h-0.7v0.7h-0.3v-1.6h0.3v0.6h0.7v-0.6H165.9z"/>
		</g>
		<rect x="137.8" y="203" class="st1" width="2" height="0.3"/>
		<g>
			<path class="st1" d="M205.3,203.7c0,0.2,0,0.4-0.1,0.6c-0.1,0.2-0.2,0.3-0.4,0.4c-0.1,0.1-0.3,0.2-0.5,0.3s-0.4,0.1-0.6,0.1
				s-0.4,0-0.6-0.1c-0.2-0.1-0.4-0.2-0.5-0.3c-0.1-0.1-0.3-0.3-0.3-0.5c-0.1-0.2-0.1-0.4-0.1-0.6c0-0.1,0-0.2,0.1-0.4
				c0-0.1,0.1-0.2,0.2-0.3s0.1-0.2,0.2-0.2s0.2-0.1,0.2-0.2c-0.2-0.1-0.3-0.2-0.4-0.3c-0.1-0.2-0.2-0.3-0.2-0.5c0-0.2,0-0.4,0.1-0.5
				s0.2-0.3,0.4-0.4c0.1-0.1,0.3-0.2,0.5-0.2c0.2-0.1,0.3-0.1,0.5-0.1c0.2,0,0.3,0,0.5,0.1s0.3,0.1,0.5,0.2s0.3,0.2,0.4,0.4
				c0.1,0.2,0.1,0.3,0.1,0.5c0,0.1,0,0.2,0,0.3s-0.1,0.2-0.1,0.2c-0.1,0.1-0.1,0.1-0.2,0.2c-0.1,0.1-0.1,0.1-0.2,0.1
				c0.1,0,0.2,0.1,0.3,0.2c0.1,0.1,0.2,0.1,0.2,0.2s0.1,0.2,0.2,0.3C205.2,203.5,205.3,203.6,205.3,203.7z M204.4,203.7
				c0-0.1,0-0.2-0.1-0.3c0-0.1-0.1-0.2-0.2-0.2s-0.2-0.1-0.2-0.1c-0.1,0-0.2,0-0.3,0c-0.1,0-0.2,0-0.3,0c-0.1,0-0.2,0.1-0.2,0.1
				c-0.1,0.1-0.1,0.1-0.2,0.2s-0.1,0.2-0.1,0.3c0,0.1,0,0.2,0.1,0.3c0,0.1,0.1,0.2,0.2,0.2c0.1,0.1,0.2,0.1,0.2,0.1
				c0.1,0,0.2,0,0.3,0c0.1,0,0.2,0,0.3-0.1c0.1,0,0.2-0.1,0.2-0.1c0.1-0.1,0.1-0.1,0.2-0.2C204.4,203.9,204.4,203.8,204.4,203.7z
				 M203,201.8c0,0.1,0,0.2,0.1,0.2s0.1,0.1,0.1,0.2c0.1,0,0.1,0.1,0.2,0.1c0.1,0,0.1,0,0.2,0c0.1,0,0.1,0,0.2,0
				c0.1,0,0.1-0.1,0.2-0.1c0.1,0,0.1-0.1,0.1-0.2c0-0.1,0.1-0.1,0.1-0.2c0-0.2-0.1-0.3-0.2-0.4s-0.3-0.1-0.4-0.1
				c-0.2,0-0.3,0-0.4,0.1C203.1,201.5,203,201.7,203,201.8z"/>
		</g>
		<g>
			<path class="st1" d="M186,204.1c0.1,0,0.2,0.1,0.3,0.1s0.3,0.1,0.5,0.1c0.2,0,0.3,0,0.4-0.1c0.1-0.1,0.2-0.2,0.2-0.3
				c0.1-0.1,0.1-0.3,0.1-0.5c0-0.2,0-0.4,0-0.7v-2.3h0.9v2.3c0,0.3,0,0.7-0.1,0.9c0,0.3-0.1,0.5-0.2,0.7c-0.1,0.2-0.3,0.4-0.5,0.5
				c-0.2,0.1-0.5,0.2-0.9,0.2c-0.4,0-0.7-0.1-1-0.3L186,204.1z"/>
			<path class="st1" d="M191,204.3c0.2,0,0.4,0,0.5-0.1c0.1-0.1,0.3-0.2,0.3-0.3c0.1-0.1,0.1-0.3,0.2-0.5c0-0.2,0.1-0.4,0.1-0.5
				v-2.3h0.9v2.3c0,0.3,0,0.6-0.1,0.9s-0.2,0.5-0.3,0.7c-0.2,0.2-0.4,0.4-0.6,0.5c-0.2,0.1-0.5,0.2-0.9,0.2c-0.4,0-0.7-0.1-0.9-0.2
				c-0.2-0.1-0.5-0.3-0.6-0.5c-0.2-0.2-0.3-0.4-0.3-0.7c-0.1-0.3-0.1-0.6-0.1-0.8v-2.3h0.9v2.3c0,0.2,0,0.4,0.1,0.5
				c0,0.2,0.1,0.3,0.2,0.5c0.1,0.1,0.2,0.2,0.3,0.3C190.6,204.3,190.8,204.3,191,204.3z"/>
			<path class="st1" d="M194.4,202.2v2.9h-0.9v-4.5h0.7l2.3,3v-2.9h0.9v4.5h-0.7L194.4,202.2z"/>
			<path class="st1" d="M201.2,204.3v0.8h-3.1v-4.5h3v0.8H199v1.1h1.9v0.7H199v1.2H201.2z"/>
		</g>
		<g>
			<path class="st1" d="M206.6,200.9h-0.5v1.3h-0.3v-1.3h-0.5v-0.3h1.3V200.9z"/>
			<path class="st1" d="M208.1,200.7v1.6h-0.3v-0.7h-0.7v0.7h-0.3v-1.6h0.3v0.6h0.7v-0.6H208.1z"/>
		</g>
		<g>
			<path class="st1" d="M233.8,204.3v0.8h-2.5v-0.8h0.9v-1.9c0,0.1-0.1,0.1-0.2,0.2c-0.1,0.1-0.2,0.1-0.3,0.1
				c-0.1,0-0.2,0.1-0.3,0.1s-0.2,0-0.3,0V202c0.1,0,0.2,0,0.3-0.1c0.1,0,0.2-0.1,0.3-0.2s0.2-0.1,0.3-0.2c0.1-0.1,0.1-0.1,0.1-0.2
				h0.9v2.9H233.8z"/>
			<path class="st1" d="M235.7,205.9v-0.9h-1.8v-0.8l2.1-2.7h0.6v2.7h0.6v0.8h-0.6v0.9H235.7z M234.7,204.1h1.1v-1.4L234.7,204.1z"
				/>
		</g>
		<g>
			<path class="st1" d="M213.6,204.1c0.1,0,0.2,0.1,0.3,0.1s0.3,0.1,0.5,0.1c0.2,0,0.3,0,0.4-0.1c0.1-0.1,0.2-0.2,0.2-0.3
				c0.1-0.1,0.1-0.3,0.1-0.5c0-0.2,0-0.4,0-0.7v-2.3h0.9v2.3c0,0.3,0,0.7-0.1,0.9c0,0.3-0.1,0.5-0.2,0.7c-0.1,0.2-0.3,0.4-0.5,0.5
				c-0.2,0.1-0.5,0.2-0.9,0.2c-0.4,0-0.7-0.1-1-0.3L213.6,204.1z"/>
			<path class="st1" d="M218.6,204.3c0.2,0,0.4,0,0.5-0.1c0.1-0.1,0.3-0.2,0.3-0.3c0.1-0.1,0.1-0.3,0.2-0.5c0-0.2,0.1-0.4,0.1-0.5
				v-2.3h0.9v2.3c0,0.3,0,0.6-0.1,0.9s-0.2,0.5-0.3,0.7c-0.2,0.2-0.4,0.4-0.6,0.5c-0.2,0.1-0.5,0.2-0.9,0.2c-0.4,0-0.7-0.1-0.9-0.2
				c-0.2-0.1-0.5-0.3-0.6-0.5c-0.2-0.2-0.3-0.4-0.3-0.7c-0.1-0.3-0.1-0.6-0.1-0.8v-2.3h0.9v2.3c0,0.2,0,0.4,0.1,0.5
				c0,0.2,0.1,0.3,0.2,0.5c0.1,0.1,0.2,0.2,0.3,0.3C218.2,204.3,218.4,204.3,218.6,204.3z"/>
			<path class="st1" d="M222.1,202.2v2.9h-0.9v-4.5h0.7l2.3,3v-2.9h0.9v4.5h-0.7L222.1,202.2z"/>
			<path class="st1" d="M228.9,204.3v0.8h-3.1v-4.5h3v0.8h-2.2v1.1h1.9v0.7h-1.9v1.2H228.9z"/>
		</g>
		<g>
			<path class="st1" d="M237.6,201h-0.5v1.3h-0.3V201h-0.5v-0.3h1.3V201z"/>
			<path class="st1" d="M239,200.7v1.6h-0.3v-0.7H238v0.7h-0.3v-1.6h0.3v0.6h0.7v-0.6H239z"/>
		</g>
		<rect x="208.8" y="203" class="st1" width="2" height="0.3"/>
		<g>
			<path class="st1" d="M276,204.3v0.8h-2.5v-0.8h0.9v-1.9c0,0.1-0.1,0.1-0.2,0.2c-0.1,0.1-0.2,0.1-0.3,0.1c-0.1,0-0.2,0.1-0.3,0.1
				s-0.2,0-0.3,0V202c0.1,0,0.2,0,0.3-0.1c0.1,0,0.2-0.1,0.3-0.2s0.2-0.1,0.3-0.2c0.1-0.1,0.1-0.1,0.1-0.2h0.9v2.9H276z"/>
			<path class="st1" d="M277.7,203c0.2,0,0.4,0,0.6,0.1c0.2,0.1,0.3,0.2,0.5,0.3s0.2,0.3,0.3,0.5s0.1,0.4,0.1,0.6
				c0,0.2,0,0.4-0.1,0.6c-0.1,0.2-0.2,0.3-0.3,0.5c-0.1,0.1-0.3,0.2-0.5,0.3c-0.2,0.1-0.4,0.1-0.7,0.1c-0.3,0-0.6-0.1-0.9-0.2
				c-0.3-0.1-0.5-0.3-0.6-0.6l0.5-0.5c0.1,0.2,0.3,0.3,0.4,0.4c0.2,0.1,0.4,0.1,0.5,0.1c0.2,0,0.4-0.1,0.6-0.2
				c0.1-0.1,0.2-0.3,0.2-0.5c0-0.2-0.1-0.4-0.2-0.5c-0.1-0.1-0.3-0.2-0.5-0.2c-0.1,0-0.3,0-0.4,0.1c-0.1,0.1-0.2,0.1-0.3,0.3h-0.7
				c0,0,0-0.1,0-0.1c0-0.1,0-0.2,0.1-0.3s0.1-0.3,0.1-0.4s0.1-0.3,0.1-0.5c0.1-0.4,0.2-0.8,0.3-1.3h2.2v0.8h-1.6l-0.2,1
				c0-0.1,0.1-0.1,0.2-0.1C277.5,203,277.6,203,277.7,203z"/>
		</g>
		<g>
			<path class="st1" d="M257.2,204.1c0.1,0,0.2,0.1,0.3,0.1s0.3,0.1,0.5,0.1c0.2,0,0.3,0,0.4-0.1c0.1-0.1,0.2-0.2,0.2-0.3
				c0.1-0.1,0.1-0.3,0.1-0.5c0-0.2,0-0.4,0-0.7v-2.3h0.9v2.3c0,0.3,0,0.7-0.1,0.9c0,0.3-0.1,0.5-0.2,0.7c-0.1,0.2-0.3,0.4-0.5,0.5
				c-0.2,0.1-0.5,0.2-0.9,0.2c-0.4,0-0.7-0.1-1-0.3L257.2,204.1z"/>
			<path class="st1" d="M262.2,204.3c0.2,0,0.4,0,0.5-0.1c0.1-0.1,0.3-0.2,0.3-0.3c0.1-0.1,0.1-0.3,0.2-0.5c0-0.2,0.1-0.4,0.1-0.5
				v-2.3h0.9v2.3c0,0.3,0,0.6-0.1,0.9s-0.2,0.5-0.3,0.7c-0.2,0.2-0.4,0.4-0.6,0.5s-0.5,0.2-0.9,0.2c-0.4,0-0.7-0.1-0.9-0.2
				s-0.5-0.3-0.6-0.5c-0.2-0.2-0.3-0.4-0.3-0.7s-0.1-0.6-0.1-0.8v-2.3h0.9v2.3c0,0.2,0,0.4,0.1,0.5c0,0.2,0.1,0.3,0.2,0.5
				c0.1,0.1,0.2,0.2,0.3,0.3C261.9,204.3,262,204.3,262.2,204.3z"/>
			<path class="st1" d="M265.7,202.2v2.9h-0.9v-4.5h0.7l2.3,3v-2.9h0.9v4.5H268L265.7,202.2z"/>
			<path class="st1" d="M272.5,204.3v0.8h-3.1v-4.5h3v0.8h-2.2v1.1h1.9v0.7h-1.9v1.2H272.5z"/>
		</g>
		<g>
			<path class="st1" d="M279.6,200.9h-0.5v1.3h-0.3v-1.3h-0.5v-0.3h1.3V200.9z"/>
			<path class="st1" d="M281,200.7v1.6h-0.3v-0.7H280v0.7h-0.3v-1.6h0.3v0.6h0.7v-0.6H281z"/>
		</g>
		<g>
			<path class="st1" d="M304.8,205c0-0.2,0-0.4,0-0.5s0.1-0.3,0.2-0.4s0.2-0.3,0.3-0.4c0.1-0.1,0.3-0.2,0.5-0.3
				c0.2-0.1,0.3-0.2,0.5-0.2c0.1-0.1,0.2-0.1,0.3-0.2c0.1-0.1,0.2-0.1,0.2-0.2c0-0.1,0.1-0.1,0.1-0.2c0-0.1,0-0.2-0.2-0.3
				s-0.2-0.1-0.4-0.1c-0.1,0-0.2,0-0.3,0c-0.1,0-0.2,0.1-0.2,0.1c-0.1,0-0.1,0.1-0.2,0.2c-0.1,0.1-0.1,0.1-0.2,0.2l-0.5-0.6
				c0.1-0.1,0.1-0.1,0.2-0.2c0.1-0.1,0.2-0.1,0.4-0.2c0.1-0.1,0.3-0.1,0.5-0.2c0.2,0,0.3-0.1,0.5-0.1c0.2,0,0.4,0,0.6,0.1
				c0.2,0.1,0.3,0.1,0.4,0.2s0.2,0.2,0.3,0.3c0.1,0.1,0.1,0.3,0.1,0.4c0,0.1,0,0.3-0.1,0.4c-0.1,0.1-0.1,0.2-0.2,0.3
				c-0.1,0.1-0.2,0.2-0.3,0.2s-0.2,0.1-0.3,0.2c-0.1,0-0.2,0.1-0.3,0.1c-0.1,0.1-0.2,0.1-0.3,0.2s-0.2,0.1-0.3,0.2
				c-0.1,0.1-0.1,0.1-0.2,0.2h1.9v0.8H304.8z"/>
			<path class="st1" d="M310.9,204.3v0.8h-2.5v-0.8h0.9v-1.9c0,0.1-0.1,0.1-0.2,0.2c-0.1,0.1-0.2,0.1-0.3,0.1
				c-0.1,0-0.2,0.1-0.3,0.1s-0.2,0-0.3,0V202c0.1,0,0.2,0,0.3-0.1c0.1,0,0.2-0.1,0.3-0.2s0.2-0.1,0.3-0.2c0.1-0.1,0.1-0.1,0.1-0.2
				h0.9v2.9H310.9z"/>
		</g>
		<g>
			<path class="st1" d="M288,204.1c0.1,0,0.2,0.1,0.3,0.1s0.3,0.1,0.5,0.1c0.2,0,0.3,0,0.4-0.1c0.1-0.1,0.2-0.2,0.2-0.3
				c0.1-0.1,0.1-0.3,0.1-0.5c0-0.2,0-0.4,0-0.7v-2.3h0.9v2.3c0,0.3,0,0.7-0.1,0.9c0,0.3-0.1,0.5-0.2,0.7c-0.1,0.2-0.3,0.4-0.5,0.5
				c-0.2,0.1-0.5,0.2-0.9,0.2c-0.4,0-0.7-0.1-1-0.3L288,204.1z"/>
			<path class="st1" d="M293,204.3c0.2,0,0.4,0,0.5-0.1c0.1-0.1,0.3-0.2,0.3-0.3c0.1-0.1,0.1-0.3,0.2-0.5c0-0.2,0.1-0.4,0.1-0.5
				v-2.3h0.9v2.3c0,0.3,0,0.6-0.1,0.9s-0.2,0.5-0.3,0.7c-0.2,0.2-0.4,0.4-0.6,0.5s-0.5,0.2-0.9,0.2c-0.4,0-0.7-0.1-0.9-0.2
				s-0.5-0.3-0.6-0.5c-0.2-0.2-0.3-0.4-0.3-0.7s-0.1-0.6-0.1-0.8v-2.3h0.9v2.3c0,0.2,0,0.4,0.1,0.5c0,0.2,0.1,0.3,0.2,0.5
				c0.1,0.1,0.2,0.2,0.3,0.3C292.6,204.3,292.8,204.3,293,204.3z"/>
			<path class="st1" d="M296.5,202.2v2.9h-0.9v-4.5h0.7l2.3,3v-2.9h0.9v4.5h-0.7L296.5,202.2z"/>
			<path class="st1" d="M303.3,204.3v0.8h-3.1v-4.5h3v0.8h-2.2v1.1h1.9v0.7h-1.9v1.2H303.3z"/>
		</g>
		<g>
			<path class="st1" d="M311.1,201.1C311.1,201.1,311.1,201.1,311.1,201.1c-0.1-0.1-0.1-0.1-0.2-0.1c0,0-0.1,0-0.1,0s-0.1,0-0.1,0
				c-0.1,0-0.1,0-0.2,0c0,0-0.1,0.1-0.1,0.1c0,0,0,0.1,0,0.1c0,0,0,0,0.1,0.1c0,0,0.1,0,0.1,0c0,0,0.1,0,0.2,0c0.1,0,0.1,0,0.2,0.1
				c0.1,0,0.1,0.1,0.2,0.1c0,0,0.1,0.1,0.1,0.1c0,0,0,0.1,0,0.2c0,0.1,0,0.2,0,0.2s-0.1,0.1-0.1,0.1c-0.1,0-0.1,0.1-0.2,0.1
				c-0.1,0-0.1,0-0.2,0c-0.1,0-0.2,0-0.3-0.1s-0.2-0.1-0.3-0.1l0.1-0.3c0,0,0,0,0.1,0.1s0.1,0,0.1,0.1c0,0,0.1,0,0.2,0.1
				s0.1,0,0.2,0c0.2,0,0.2-0.1,0.2-0.2c0,0,0-0.1,0-0.1c0,0,0,0-0.1-0.1s-0.1,0-0.1,0c0,0-0.1,0-0.2,0c-0.1,0-0.1,0-0.2-0.1
				c-0.1,0-0.1-0.1-0.1-0.1c0,0-0.1-0.1-0.1-0.1c0,0,0-0.1,0-0.2c0-0.1,0-0.1,0-0.2c0-0.1,0.1-0.1,0.1-0.2c0.1,0,0.1-0.1,0.2-0.1
				s0.1,0,0.2,0c0.1,0,0.2,0,0.3,0.1c0.1,0,0.2,0.1,0.2,0.1L311.1,201.1z"/>
			<path class="st1" d="M312.6,201h-0.5v1.3h-0.3V201h-0.5v-0.3h1.3V201z"/>
		</g>
		<rect x="283.2" y="203" class="st1" width="2" height="0.3"/>
		<g>
			<path class="st1" d="M343.7,194.8v-4.1l-1.6,3.1h-0.7l-1.6-3.1v4.1h-1.2v-6.3h1.3l1.8,3.6l1.8-3.6h1.3v6.3H343.7z"/>
			<path class="st1" d="M347.4,194.9c-0.2,0-0.4,0-0.6-0.1c-0.2-0.1-0.4-0.2-0.5-0.3c-0.1-0.1-0.2-0.3-0.3-0.5
				c-0.1-0.2-0.1-0.4-0.1-0.6c0-0.2,0-0.4,0.1-0.6c0.1-0.2,0.2-0.3,0.4-0.5c0.2-0.1,0.4-0.2,0.6-0.3s0.5-0.1,0.8-0.1
				c0.2,0,0.4,0,0.6,0.1c0.2,0,0.4,0.1,0.5,0.2v-0.3c0-0.3-0.1-0.5-0.3-0.7c-0.2-0.2-0.4-0.2-0.8-0.2c-0.2,0-0.5,0-0.7,0.1
				c-0.2,0.1-0.5,0.2-0.7,0.4l-0.4-0.8c0.6-0.4,1.2-0.6,1.9-0.6c0.7,0,1.2,0.2,1.5,0.5s0.5,0.8,0.5,1.4v1.4c0,0.1,0,0.2,0.1,0.3
				c0,0.1,0.1,0.1,0.2,0.1v1c-0.2,0-0.4,0.1-0.5,0.1c-0.2,0-0.4,0-0.5-0.1c-0.1-0.1-0.2-0.2-0.2-0.4l0-0.3c-0.2,0.3-0.5,0.5-0.7,0.6
				C348,194.8,347.7,194.9,347.4,194.9z M347.7,194.1c0.2,0,0.4,0,0.6-0.1c0.2-0.1,0.3-0.2,0.4-0.3c0.1-0.1,0.2-0.2,0.2-0.3v-0.5
				c-0.1-0.1-0.3-0.1-0.5-0.1c-0.2,0-0.3,0-0.5,0c-0.3,0-0.5,0.1-0.7,0.2c-0.2,0.1-0.3,0.3-0.3,0.5c0,0.2,0.1,0.4,0.2,0.5
				C347.3,194,347.5,194.1,347.7,194.1z"/>
			<path class="st1" d="M351.1,189.6v-1.2h1.2v1.2H351.1z M351.1,194.8v-4.6h1.2v4.6H351.1z"/>
			<path class="st1" d="M357.6,194.8h-1.2v-2.6c0-0.4-0.1-0.6-0.2-0.8c-0.1-0.2-0.3-0.3-0.5-0.3c-0.1,0-0.2,0-0.4,0.1
				s-0.2,0.1-0.3,0.2c-0.1,0.1-0.2,0.2-0.3,0.3c-0.1,0.1-0.2,0.2-0.2,0.4v2.7h-1.2v-4.6h1.1v0.9c0.2-0.3,0.4-0.5,0.7-0.7
				c0.3-0.2,0.7-0.2,1.1-0.2c0.3,0,0.5,0.1,0.7,0.2s0.3,0.2,0.4,0.4c0.1,0.2,0.2,0.4,0.2,0.6c0,0.2,0.1,0.4,0.1,0.7V194.8z"/>
			<path class="st1" d="M358.6,192.9v-1.1h2.6v1.1H358.6z"/>
			<path class="st1" d="M362.4,194.8v-6.3h1.2v6.3H362.4z"/>
			<path class="st1" d="M364.5,191.7c0-0.4,0.1-0.8,0.2-1.1c0.1-0.4,0.3-0.7,0.6-1s0.6-0.5,1-0.7c0.4-0.2,0.8-0.3,1.3-0.3
				c0.6,0,1.1,0.1,1.5,0.4c0.4,0.3,0.7,0.6,0.9,1l-0.9,0.6c-0.1-0.2-0.2-0.3-0.3-0.4s-0.2-0.2-0.4-0.3c-0.1-0.1-0.3-0.1-0.4-0.2
				s-0.3,0-0.4,0c-0.3,0-0.6,0.1-0.8,0.2c-0.2,0.1-0.4,0.3-0.6,0.5c-0.1,0.2-0.3,0.4-0.3,0.7c-0.1,0.2-0.1,0.5-0.1,0.7
				c0,0.3,0,0.5,0.1,0.8c0.1,0.3,0.2,0.5,0.4,0.7s0.4,0.3,0.6,0.5c0.2,0.1,0.5,0.2,0.7,0.2c0.1,0,0.3,0,0.4-0.1s0.3-0.1,0.4-0.2
				s0.3-0.2,0.4-0.3s0.2-0.3,0.3-0.4l1,0.6c-0.1,0.2-0.2,0.4-0.4,0.6c-0.2,0.2-0.4,0.3-0.6,0.5c-0.2,0.1-0.5,0.2-0.7,0.3
				s-0.5,0.1-0.8,0.1c-0.4,0-0.8-0.1-1.2-0.3c-0.4-0.2-0.7-0.4-0.9-0.7s-0.5-0.6-0.6-1C364.6,192.5,364.5,192.1,364.5,191.7z"/>
			<path class="st1" d="M373.5,194.9c-0.5,0-0.9-0.1-1.2-0.3c-0.4-0.2-0.7-0.4-1-0.7c-0.3-0.3-0.5-0.6-0.6-1s-0.2-0.8-0.2-1.2
				c0-0.4,0.1-0.8,0.2-1.2s0.4-0.7,0.6-1s0.6-0.5,1-0.7c0.4-0.2,0.8-0.3,1.2-0.3c0.4,0,0.9,0.1,1.2,0.3c0.4,0.2,0.7,0.4,0.9,0.7
				s0.5,0.6,0.6,1s0.2,0.8,0.2,1.2c0,0.4-0.1,0.8-0.2,1.2c-0.2,0.4-0.4,0.7-0.6,1s-0.6,0.5-1,0.7C374.4,194.8,374,194.9,373.5,194.9
				z M371.7,191.7c0,0.3,0,0.5,0.1,0.8c0.1,0.3,0.2,0.5,0.4,0.7c0.2,0.2,0.3,0.3,0.6,0.5c0.2,0.1,0.5,0.2,0.8,0.2
				c0.3,0,0.5-0.1,0.8-0.2s0.4-0.3,0.6-0.5c0.2-0.2,0.3-0.4,0.3-0.7c0.1-0.2,0.1-0.5,0.1-0.8c0-0.3,0-0.5-0.1-0.8
				c-0.1-0.3-0.2-0.5-0.4-0.7s-0.3-0.3-0.6-0.5s-0.5-0.2-0.8-0.2c-0.3,0-0.5,0.1-0.8,0.2c-0.2,0.1-0.4,0.3-0.6,0.5
				c-0.2,0.2-0.3,0.4-0.3,0.7C371.8,191.2,371.7,191.4,371.7,191.7z"/>
		</g>
		<g>
			<path class="st1" d="M409.2,193.4v-4.1l-1.6,3.1h-0.7l-1.6-3.1v4.1h-1.2v-6.3h1.3l1.8,3.6l1.8-3.6h1.3v6.3H409.2z"/>
			<path class="st1" d="M412.8,193.5c-0.2,0-0.4,0-0.6-0.1c-0.2-0.1-0.4-0.2-0.5-0.3c-0.1-0.1-0.2-0.3-0.3-0.5
				c-0.1-0.2-0.1-0.4-0.1-0.6c0-0.2,0-0.4,0.1-0.6c0.1-0.2,0.2-0.3,0.4-0.5c0.2-0.1,0.4-0.2,0.6-0.3s0.5-0.1,0.8-0.1
				c0.2,0,0.4,0,0.6,0.1c0.2,0,0.4,0.1,0.5,0.2v-0.3c0-0.3-0.1-0.5-0.3-0.7c-0.2-0.2-0.4-0.2-0.8-0.2c-0.2,0-0.5,0-0.7,0.1
				c-0.2,0.1-0.5,0.2-0.7,0.4l-0.4-0.8c0.6-0.4,1.2-0.6,1.9-0.6c0.7,0,1.2,0.2,1.5,0.5s0.5,0.8,0.5,1.4v1.4c0,0.1,0,0.2,0.1,0.3
				c0,0.1,0.1,0.1,0.2,0.1v1c-0.2,0-0.4,0.1-0.5,0.1c-0.2,0-0.4,0-0.5-0.1c-0.1-0.1-0.2-0.2-0.2-0.4l0-0.3c-0.2,0.3-0.5,0.5-0.7,0.6
				C413.5,193.4,413.2,193.5,412.8,193.5z M413.2,192.6c0.2,0,0.4,0,0.6-0.1c0.2-0.1,0.3-0.2,0.4-0.3c0.1-0.1,0.2-0.2,0.2-0.3v-0.5
				c-0.1-0.1-0.3-0.1-0.5-0.1c-0.2,0-0.3,0-0.5,0c-0.3,0-0.5,0.1-0.7,0.2c-0.2,0.1-0.3,0.3-0.3,0.5c0,0.2,0.1,0.4,0.2,0.5
				C412.7,192.5,412.9,192.6,413.2,192.6z"/>
			<path class="st1" d="M416.6,188.1v-1.2h1.2v1.2H416.6z M416.6,193.4v-4.6h1.2v4.6H416.6z"/>
			<path class="st1" d="M423.1,193.4h-1.2v-2.6c0-0.4-0.1-0.6-0.2-0.8c-0.1-0.2-0.3-0.3-0.5-0.3c-0.1,0-0.2,0-0.4,0.1
				s-0.2,0.1-0.3,0.2c-0.1,0.1-0.2,0.2-0.3,0.3c-0.1,0.1-0.2,0.2-0.2,0.4v2.7h-1.2v-4.6h1.1v0.9c0.2-0.3,0.4-0.5,0.7-0.7
				c0.3-0.2,0.7-0.2,1.1-0.2c0.3,0,0.5,0.1,0.7,0.2s0.3,0.2,0.4,0.4c0.1,0.2,0.2,0.4,0.2,0.6c0,0.2,0.1,0.4,0.1,0.7V193.4z"/>
			<path class="st1" d="M424.1,191.5v-1.1h2.6v1.1H424.1z"/>
			<path class="st1" d="M427.8,193.4v-6.3h1.2v6.3H427.8z"/>
			<path class="st1" d="M430,190.2c0-0.4,0.1-0.8,0.2-1.1c0.1-0.4,0.3-0.7,0.6-1s0.6-0.5,1-0.7c0.4-0.2,0.8-0.3,1.3-0.3
				c0.6,0,1.1,0.1,1.5,0.4c0.4,0.3,0.7,0.6,0.9,1l-0.9,0.6c-0.1-0.2-0.2-0.3-0.3-0.4s-0.2-0.2-0.4-0.3c-0.1-0.1-0.3-0.1-0.4-0.2
				s-0.3,0-0.4,0c-0.3,0-0.6,0.1-0.8,0.2c-0.2,0.1-0.4,0.3-0.6,0.5c-0.1,0.2-0.3,0.4-0.3,0.7c-0.1,0.2-0.1,0.5-0.1,0.7
				c0,0.3,0,0.5,0.1,0.8c0.1,0.3,0.2,0.5,0.4,0.7s0.4,0.3,0.6,0.5c0.2,0.1,0.5,0.2,0.7,0.2c0.1,0,0.3,0,0.4-0.1s0.3-0.1,0.4-0.2
				s0.3-0.2,0.4-0.3s0.2-0.3,0.3-0.4l1,0.6c-0.1,0.2-0.2,0.4-0.4,0.6c-0.2,0.2-0.4,0.3-0.6,0.5c-0.2,0.1-0.5,0.2-0.7,0.3
				s-0.5,0.1-0.8,0.1c-0.4,0-0.8-0.1-1.2-0.3c-0.4-0.2-0.7-0.4-0.9-0.7s-0.5-0.6-0.6-1C430,191,430,190.6,430,190.2z"/>
			<path class="st1" d="M439,193.4c-0.5,0-0.9-0.1-1.2-0.3c-0.4-0.2-0.7-0.4-1-0.7c-0.3-0.3-0.5-0.6-0.6-1s-0.2-0.8-0.2-1.2
				c0-0.4,0.1-0.8,0.2-1.2s0.4-0.7,0.6-1s0.6-0.5,1-0.7c0.4-0.2,0.8-0.3,1.2-0.3c0.4,0,0.9,0.1,1.2,0.3c0.4,0.2,0.7,0.4,0.9,0.7
				s0.5,0.6,0.6,1s0.2,0.8,0.2,1.2c0,0.4-0.1,0.8-0.2,1.2c-0.2,0.4-0.4,0.7-0.6,1s-0.6,0.5-1,0.7C439.8,193.3,439.4,193.4,439,193.4
				z M437.2,190.2c0,0.3,0,0.5,0.1,0.8c0.1,0.3,0.2,0.5,0.4,0.7c0.2,0.2,0.3,0.3,0.6,0.5c0.2,0.1,0.5,0.2,0.8,0.2
				c0.3,0,0.5-0.1,0.8-0.2s0.4-0.3,0.6-0.5c0.2-0.2,0.3-0.4,0.3-0.7c0.1-0.2,0.1-0.5,0.1-0.8c0-0.3,0-0.5-0.1-0.8
				c-0.1-0.3-0.2-0.5-0.4-0.7s-0.3-0.3-0.6-0.5s-0.5-0.2-0.8-0.2c-0.3,0-0.5,0.1-0.8,0.2c-0.2,0.1-0.4,0.3-0.6,0.5
				c-0.2,0.2-0.3,0.4-0.3,0.7C437.2,189.7,437.2,190,437.2,190.2z"/>
		</g>
		<g>
			<path class="st1" d="M345,205c0-0.2,0-0.4,0-0.5s0.1-0.3,0.2-0.4s0.2-0.3,0.3-0.4c0.1-0.1,0.3-0.2,0.5-0.3
				c0.2-0.1,0.3-0.2,0.5-0.2c0.1-0.1,0.2-0.1,0.3-0.2c0.1-0.1,0.2-0.1,0.2-0.2c0-0.1,0.1-0.1,0.1-0.2c0-0.1,0-0.2-0.2-0.3
				s-0.2-0.1-0.4-0.1c-0.1,0-0.2,0-0.3,0c-0.1,0-0.2,0.1-0.2,0.1c-0.1,0-0.1,0.1-0.2,0.2c-0.1,0.1-0.1,0.1-0.2,0.2L345,202
				c0.1-0.1,0.1-0.1,0.2-0.2c0.1-0.1,0.2-0.1,0.4-0.2c0.1-0.1,0.3-0.1,0.5-0.2c0.2,0,0.3-0.1,0.5-0.1c0.2,0,0.4,0,0.6,0.1
				c0.2,0.1,0.3,0.1,0.4,0.2s0.2,0.2,0.3,0.3c0.1,0.1,0.1,0.3,0.1,0.4c0,0.1,0,0.3-0.1,0.4c-0.1,0.1-0.1,0.2-0.2,0.3
				c-0.1,0.1-0.2,0.2-0.3,0.2s-0.2,0.1-0.3,0.2c-0.1,0-0.2,0.1-0.3,0.1c-0.1,0.1-0.2,0.1-0.3,0.2s-0.2,0.1-0.3,0.2
				c-0.1,0.1-0.1,0.1-0.2,0.2h1.9v0.8H345z"/>
			<path class="st1" d="M348.3,205c0-0.2,0-0.4,0-0.5s0.1-0.3,0.2-0.4s0.2-0.3,0.3-0.4c0.1-0.1,0.3-0.2,0.5-0.3
				c0.2-0.1,0.3-0.2,0.5-0.2c0.1-0.1,0.2-0.1,0.3-0.2c0.1-0.1,0.2-0.1,0.2-0.2c0-0.1,0.1-0.1,0.1-0.2c0-0.1,0-0.2-0.2-0.3
				s-0.2-0.1-0.4-0.1c-0.1,0-0.2,0-0.3,0c-0.1,0-0.2,0.1-0.2,0.1c-0.1,0-0.1,0.1-0.2,0.2c-0.1,0.1-0.1,0.1-0.2,0.2l-0.5-0.6
				c0.1-0.1,0.1-0.1,0.2-0.2c0.1-0.1,0.2-0.1,0.4-0.2c0.1-0.1,0.3-0.1,0.5-0.2c0.2,0,0.3-0.1,0.5-0.1c0.2,0,0.4,0,0.6,0.1
				c0.2,0.1,0.3,0.1,0.4,0.2s0.2,0.2,0.3,0.3c0.1,0.1,0.1,0.3,0.1,0.4c0,0.1,0,0.3-0.1,0.4c-0.1,0.1-0.1,0.2-0.2,0.3
				c-0.1,0.1-0.2,0.2-0.3,0.2s-0.2,0.1-0.3,0.2c-0.1,0-0.2,0.1-0.3,0.1c-0.1,0.1-0.2,0.1-0.3,0.2s-0.2,0.1-0.3,0.2
				c-0.1,0.1-0.1,0.1-0.2,0.2h1.9v0.8H348.3z"/>
		</g>
		<g>
			<path class="st1" d="M327.5,204.1c0.1,0,0.2,0.1,0.3,0.1s0.3,0.1,0.5,0.1c0.2,0,0.3,0,0.4-0.1c0.1-0.1,0.2-0.2,0.2-0.3
				c0.1-0.1,0.1-0.3,0.1-0.5c0-0.2,0-0.4,0-0.7v-2.3h0.9v2.3c0,0.3,0,0.7-0.1,0.9c0,0.3-0.1,0.5-0.2,0.7c-0.1,0.2-0.3,0.4-0.5,0.5
				c-0.2,0.1-0.5,0.2-0.9,0.2c-0.4,0-0.7-0.1-1-0.3L327.5,204.1z"/>
			<path class="st1" d="M332.5,204.3c0.2,0,0.4,0,0.5-0.1c0.1-0.1,0.3-0.2,0.3-0.3c0.1-0.1,0.1-0.3,0.2-0.5c0-0.2,0.1-0.4,0.1-0.5
				v-2.3h0.9v2.3c0,0.3,0,0.6-0.1,0.9s-0.2,0.5-0.3,0.7c-0.2,0.2-0.4,0.4-0.6,0.5s-0.5,0.2-0.9,0.2c-0.4,0-0.7-0.1-0.9-0.2
				s-0.5-0.3-0.6-0.5c-0.2-0.2-0.3-0.4-0.3-0.7s-0.1-0.6-0.1-0.8v-2.3h0.9v2.3c0,0.2,0,0.4,0.1,0.5c0,0.2,0.1,0.3,0.2,0.5
				c0.1,0.1,0.2,0.2,0.3,0.3C332.1,204.3,332.3,204.3,332.5,204.3z"/>
			<path class="st1" d="M336,202.2v2.9h-0.9v-4.5h0.7l2.3,3v-2.9h0.9v4.5h-0.7L336,202.2z"/>
			<path class="st1" d="M342.8,204.3v0.8h-3.1v-4.5h3v0.8h-2.2v1.1h1.9v0.7h-1.9v1.2H342.8z"/>
		</g>
		<g>
			<path class="st1" d="M351.7,201.2v1h-0.3v-1.6h0.2l0.8,1v-1h0.3v1.6h-0.2L351.7,201.2z"/>
			<path class="st1" d="M353,202.2v-1.6h0.6c0.1,0,0.2,0,0.3,0.1c0.1,0,0.2,0.1,0.2,0.2c0.1,0.1,0.1,0.2,0.1,0.2c0,0.1,0,0.2,0,0.3
				c0,0.1,0,0.2-0.1,0.3c0,0.1-0.1,0.2-0.2,0.2c-0.1,0.1-0.1,0.1-0.2,0.2c-0.1,0-0.2,0.1-0.3,0.1H353z M354,201.5c0-0.1,0-0.1,0-0.2
				s0-0.1-0.1-0.2c0,0-0.1-0.1-0.1-0.1s-0.1,0-0.2,0h-0.3v1h0.3c0.1,0,0.1,0,0.2,0c0.1,0,0.1-0.1,0.1-0.1c0,0,0.1-0.1,0.1-0.2
				S354,201.5,354,201.5z"/>
		</g>
		<g>
			<path class="st1" d="M380.6,203.6c0.3,0,0.5,0.2,0.6,0.4s0.2,0.5,0.2,0.8c0,0.2,0,0.4-0.1,0.5c-0.1,0.2-0.2,0.3-0.3,0.4
				c-0.1,0.1-0.3,0.2-0.5,0.3c-0.2,0.1-0.4,0.1-0.7,0.1c-0.3,0-0.6-0.1-0.8-0.2c-0.2-0.1-0.4-0.3-0.6-0.5l0.5-0.6
				c0.1,0.1,0.2,0.2,0.4,0.3c0.2,0.1,0.3,0.1,0.6,0.1c0.3,0,0.4-0.1,0.6-0.2c0.1-0.1,0.2-0.3,0.2-0.5c0-0.2-0.1-0.4-0.2-0.5
				c-0.2-0.1-0.4-0.2-0.7-0.2h-0.2v-0.6h0.2c0.3,0,0.5-0.1,0.6-0.2c0.1-0.1,0.2-0.3,0.2-0.4c0-0.2-0.1-0.3-0.2-0.4
				c-0.1-0.1-0.3-0.1-0.5-0.1c-0.2,0-0.4,0-0.5,0.1s-0.3,0.2-0.4,0.4l-0.5-0.6c0.1-0.1,0.1-0.2,0.3-0.3s0.2-0.1,0.4-0.2
				c0.1-0.1,0.3-0.1,0.4-0.1s0.3,0,0.5,0c0.2,0,0.4,0,0.6,0.1c0.2,0.1,0.3,0.1,0.5,0.2c0.1,0.1,0.2,0.2,0.3,0.4
				c0.1,0.1,0.1,0.3,0.1,0.5c0,0.1,0,0.2-0.1,0.4c0,0.1-0.1,0.2-0.2,0.3c-0.1,0.1-0.2,0.2-0.3,0.2
				C380.8,203.5,380.7,203.5,380.6,203.6z"/>
			<path class="st1" d="M385,203.2c0,0.3,0,0.5-0.1,0.8c-0.1,0.2-0.2,0.4-0.3,0.6c-0.1,0.2-0.3,0.3-0.5,0.4
				c-0.2,0.1-0.4,0.1-0.6,0.1c-0.2,0-0.4,0-0.6-0.1c-0.2-0.1-0.4-0.2-0.5-0.4s-0.3-0.4-0.3-0.6c-0.1-0.2-0.1-0.5-0.1-0.8
				c0-0.3,0-0.5,0.1-0.8c0.1-0.2,0.2-0.4,0.3-0.6c0.1-0.2,0.3-0.3,0.5-0.4c0.2-0.1,0.4-0.1,0.6-0.1c0.2,0,0.4,0,0.6,0.1
				c0.2,0.1,0.4,0.2,0.5,0.4c0.1,0.2,0.3,0.4,0.3,0.6C385,202.7,385,202.9,385,203.2z M384.2,203.2c0-0.2,0-0.3-0.1-0.5
				c0-0.1-0.1-0.3-0.2-0.4c-0.1-0.1-0.2-0.2-0.2-0.2c-0.1-0.1-0.2-0.1-0.3-0.1c-0.1,0-0.2,0-0.3,0.1c-0.1,0.1-0.2,0.1-0.2,0.2
				c-0.1,0.1-0.1,0.2-0.2,0.4c0,0.1-0.1,0.3-0.1,0.5s0,0.3,0.1,0.5c0,0.1,0.1,0.3,0.2,0.4c0.1,0.1,0.2,0.2,0.2,0.2
				c0.1,0.1,0.2,0.1,0.3,0.1c0.1,0,0.2,0,0.3-0.1c0.1-0.1,0.2-0.1,0.2-0.2c0.1-0.1,0.1-0.2,0.2-0.4
				C384.1,203.5,384.2,203.4,384.2,203.2z"/>
		</g>
		<g>
			<path class="st1" d="M360.9,204.1c0.1,0,0.2,0.1,0.3,0.1s0.3,0.1,0.5,0.1c0.2,0,0.3,0,0.4-0.1c0.1-0.1,0.2-0.2,0.2-0.3
				c0.1-0.1,0.1-0.3,0.1-0.5c0-0.2,0-0.4,0-0.7v-2.3h0.9v2.3c0,0.3,0,0.7-0.1,0.9c0,0.3-0.1,0.5-0.2,0.7c-0.1,0.2-0.3,0.4-0.5,0.5
				c-0.2,0.1-0.5,0.2-0.9,0.2c-0.4,0-0.7-0.1-1-0.3L360.9,204.1z"/>
			<path class="st1" d="M365.9,204.3c0.2,0,0.4,0,0.5-0.1c0.1-0.1,0.3-0.2,0.3-0.3c0.1-0.1,0.1-0.3,0.2-0.5c0-0.2,0.1-0.4,0.1-0.5
				v-2.3h0.9v2.3c0,0.3,0,0.6-0.1,0.9s-0.2,0.5-0.3,0.7c-0.2,0.2-0.4,0.4-0.6,0.5s-0.5,0.2-0.9,0.2c-0.4,0-0.7-0.1-0.9-0.2
				s-0.5-0.3-0.6-0.5c-0.2-0.2-0.3-0.4-0.3-0.7s-0.1-0.6-0.1-0.8v-2.3h0.9v2.3c0,0.2,0,0.4,0.1,0.5c0,0.2,0.1,0.3,0.2,0.5
				c0.1,0.1,0.2,0.2,0.3,0.3C365.6,204.3,365.7,204.3,365.9,204.3z"/>
			<path class="st1" d="M369.4,202.2v2.9h-0.9v-4.5h0.7l2.3,3v-2.9h0.9v4.5h-0.7L369.4,202.2z"/>
			<path class="st1" d="M376.2,204.3v0.8h-3.1v-4.5h3v0.8H374v1.1h1.9v0.7H374v1.2H376.2z"/>
		</g>
		<g>
			<path class="st1" d="M386.4,201h-0.5v1.3h-0.3V201h-0.5v-0.3h1.3V201z"/>
			<path class="st1" d="M387.8,200.7v1.6h-0.3v-0.7h-0.7v0.7h-0.3v-1.6h0.3v0.6h0.7v-0.6H387.8z"/>
		</g>
		<rect x="356.1" y="203" class="st1" width="2" height="0.3"/>
		<g>
			<path class="st1" d="M420.7,204.3v0.8h-2.5v-0.8h0.9v-1.9c0,0.1-0.1,0.1-0.2,0.2c-0.1,0.1-0.2,0.1-0.3,0.1
				c-0.1,0-0.2,0.1-0.3,0.1s-0.2,0-0.3,0V202c0.1,0,0.2,0,0.3-0.1c0.1,0,0.2-0.1,0.3-0.2s0.2-0.1,0.3-0.2c0.1-0.1,0.1-0.1,0.1-0.2
				h0.9v2.9H420.7z"/>
		</g>
		<g>
			<path class="st1" d="M401.9,204.1c0.1,0,0.2,0.1,0.3,0.1s0.3,0.1,0.5,0.1c0.2,0,0.3,0,0.4-0.1c0.1-0.1,0.2-0.2,0.2-0.3
				c0.1-0.1,0.1-0.3,0.1-0.5c0-0.2,0-0.4,0-0.7v-2.3h0.9v2.3c0,0.3,0,0.7-0.1,0.9c0,0.3-0.1,0.5-0.2,0.7c-0.1,0.2-0.3,0.4-0.5,0.5
				c-0.2,0.1-0.5,0.2-0.9,0.2c-0.4,0-0.7-0.1-1-0.3L401.9,204.1z"/>
			<path class="st1" d="M406.9,204.3c0.2,0,0.4,0,0.5-0.1c0.1-0.1,0.3-0.2,0.3-0.3c0.1-0.1,0.1-0.3,0.2-0.5c0-0.2,0.1-0.4,0.1-0.5
				v-2.3h0.9v2.3c0,0.3,0,0.6-0.1,0.9s-0.2,0.5-0.3,0.7c-0.2,0.2-0.4,0.4-0.6,0.5s-0.5,0.2-0.9,0.2c-0.4,0-0.7-0.1-0.9-0.2
				s-0.5-0.3-0.6-0.5c-0.2-0.2-0.3-0.4-0.3-0.7s-0.1-0.6-0.1-0.8v-2.3h0.9v2.3c0,0.2,0,0.4,0.1,0.5c0,0.2,0.1,0.3,0.2,0.5
				c0.1,0.1,0.2,0.2,0.3,0.3C406.6,204.3,406.7,204.3,406.9,204.3z"/>
			<path class="st1" d="M409.5,205v-4.5h0.9v3.7h2.3v0.8H409.5z"/>
			<path class="st1" d="M413.5,200.5l1.1,2.2l1.1-2.2h0.9l-1.6,2.9v1.6h-0.9v-1.6l-1.6-2.9H413.5z"/>
		</g>
		<g>
			<path class="st1" d="M427.5,204.1c0.1,0,0.2,0.1,0.3,0.1s0.3,0.1,0.5,0.1c0.2,0,0.3,0,0.4-0.1c0.1-0.1,0.2-0.2,0.2-0.3
				c0.1-0.1,0.1-0.3,0.1-0.5c0-0.2,0-0.4,0-0.7v-2.3h0.9v2.3c0,0.3,0,0.7-0.1,0.9c0,0.3-0.1,0.5-0.2,0.7c-0.1,0.2-0.3,0.4-0.5,0.5
				c-0.2,0.1-0.5,0.2-0.9,0.2c-0.4,0-0.7-0.1-1-0.3L427.5,204.1z"/>
			<path class="st1" d="M432.5,204.3c0.2,0,0.4,0,0.5-0.1c0.1-0.1,0.3-0.2,0.3-0.3c0.1-0.1,0.1-0.3,0.2-0.5c0-0.2,0.1-0.4,0.1-0.5
				v-2.3h0.9v2.3c0,0.3,0,0.6-0.1,0.9s-0.2,0.5-0.3,0.7c-0.2,0.2-0.4,0.4-0.6,0.5s-0.5,0.2-0.9,0.2c-0.4,0-0.7-0.1-0.9-0.2
				s-0.5-0.3-0.6-0.5c-0.2-0.2-0.3-0.4-0.3-0.7s-0.1-0.6-0.1-0.8v-2.3h0.9v2.3c0,0.2,0,0.4,0.1,0.5c0,0.2,0.1,0.3,0.2,0.5
				c0.1,0.1,0.2,0.2,0.3,0.3C432.1,204.3,432.3,204.3,432.5,204.3z"/>
			<path class="st1" d="M435.1,205v-4.5h0.9v3.7h2.3v0.8H435.1z"/>
			<path class="st1" d="M439,200.5l1.1,2.2l1.1-2.2h0.9l-1.6,2.9v1.6h-0.9v-1.6l-1.6-2.9H439z"/>
		</g>
		<g>
			<path class="st1" d="M421.2,201.1C421.2,201.1,421.2,201.1,421.2,201.1c-0.1-0.1-0.1-0.1-0.2-0.1c0,0-0.1,0-0.1,0s-0.1,0-0.1,0
				c-0.1,0-0.1,0-0.2,0c0,0-0.1,0.1-0.1,0.1c0,0,0,0.1,0,0.1c0,0,0,0,0.1,0.1c0,0,0.1,0,0.1,0c0,0,0.1,0,0.2,0c0.1,0,0.1,0,0.2,0.1
				c0.1,0,0.1,0.1,0.2,0.1c0,0,0.1,0.1,0.1,0.1c0,0,0,0.1,0,0.2c0,0.1,0,0.2,0,0.2s-0.1,0.1-0.1,0.1c-0.1,0-0.1,0.1-0.2,0.1
				c-0.1,0-0.1,0-0.2,0c-0.1,0-0.2,0-0.3-0.1s-0.2-0.1-0.3-0.1l0.1-0.3c0,0,0,0,0.1,0.1s0.1,0,0.1,0.1c0,0,0.1,0,0.2,0.1
				s0.1,0,0.2,0c0.2,0,0.2-0.1,0.2-0.2c0,0,0-0.1,0-0.1c0,0,0,0-0.1-0.1s-0.1,0-0.1,0c0,0-0.1,0-0.2,0c-0.1,0-0.1,0-0.2-0.1
				c-0.1,0-0.1-0.1-0.1-0.1c0,0-0.1-0.1-0.1-0.1c0,0,0-0.1,0-0.2c0-0.1,0-0.1,0-0.2c0-0.1,0.1-0.1,0.1-0.2c0.1,0,0.1-0.1,0.2-0.1
				s0.1,0,0.2,0c0.1,0,0.2,0,0.3,0.1c0.1,0,0.2,0.1,0.2,0.1L421.2,201.1z"/>
			<path class="st1" d="M422.7,200.9h-0.5v1.3h-0.3v-1.3h-0.5v-0.3h1.3V200.9z"/>
		</g>
		<g>
			<path class="st1" d="M444.8,203.6c0.3,0,0.5,0.2,0.6,0.4s0.2,0.5,0.2,0.8c0,0.2,0,0.4-0.1,0.5c-0.1,0.2-0.2,0.3-0.3,0.4
				c-0.1,0.1-0.3,0.2-0.5,0.3c-0.2,0.1-0.4,0.1-0.7,0.1c-0.3,0-0.6-0.1-0.8-0.2c-0.2-0.1-0.4-0.3-0.6-0.5l0.5-0.6
				c0.1,0.1,0.2,0.2,0.4,0.3c0.2,0.1,0.3,0.1,0.6,0.1c0.3,0,0.4-0.1,0.6-0.2c0.1-0.1,0.2-0.3,0.2-0.5c0-0.2-0.1-0.4-0.2-0.5
				c-0.2-0.1-0.4-0.2-0.7-0.2h-0.2v-0.6h0.2c0.3,0,0.5-0.1,0.6-0.2c0.1-0.1,0.2-0.3,0.2-0.4c0-0.2-0.1-0.3-0.2-0.4
				c-0.1-0.1-0.3-0.1-0.5-0.1c-0.2,0-0.4,0-0.5,0.1s-0.3,0.2-0.4,0.4l-0.5-0.6c0.1-0.1,0.1-0.2,0.3-0.3s0.2-0.1,0.4-0.2
				c0.1-0.1,0.3-0.1,0.4-0.1s0.3,0,0.5,0c0.2,0,0.4,0,0.6,0.1c0.2,0.1,0.3,0.1,0.5,0.2c0.1,0.1,0.2,0.2,0.3,0.4
				c0.1,0.1,0.1,0.3,0.1,0.5c0,0.1,0,0.2-0.1,0.4c0,0.1-0.1,0.2-0.2,0.3c-0.1,0.1-0.2,0.2-0.3,0.2
				C445.1,203.5,444.9,203.5,444.8,203.6z"/>
			<path class="st1" d="M449.3,203.2c0,0.3,0,0.5-0.1,0.8c-0.1,0.2-0.2,0.4-0.3,0.6c-0.1,0.2-0.3,0.3-0.5,0.4
				c-0.2,0.1-0.4,0.1-0.6,0.1c-0.2,0-0.4,0-0.6-0.1c-0.2-0.1-0.4-0.2-0.5-0.4s-0.3-0.4-0.3-0.6c-0.1-0.2-0.1-0.5-0.1-0.8
				c0-0.3,0-0.5,0.1-0.8c0.1-0.2,0.2-0.4,0.3-0.6c0.1-0.2,0.3-0.3,0.5-0.4c0.2-0.1,0.4-0.1,0.6-0.1c0.2,0,0.4,0,0.6,0.1
				c0.2,0.1,0.4,0.2,0.5,0.4c0.1,0.2,0.3,0.4,0.3,0.6C449.2,202.7,449.3,202.9,449.3,203.2z M448.4,203.2c0-0.2,0-0.3-0.1-0.5
				c0-0.1-0.1-0.3-0.2-0.4c-0.1-0.1-0.2-0.2-0.2-0.2c-0.1-0.1-0.2-0.1-0.3-0.1c-0.1,0-0.2,0-0.3,0.1c-0.1,0.1-0.2,0.1-0.2,0.2
				c-0.1,0.1-0.1,0.2-0.2,0.4c0,0.1-0.1,0.3-0.1,0.5s0,0.3,0.1,0.5c0,0.1,0.1,0.3,0.2,0.4c0.1,0.1,0.2,0.2,0.2,0.2
				c0.1,0.1,0.2,0.1,0.3,0.1c0.1,0,0.2,0,0.3-0.1c0.1-0.1,0.2-0.1,0.2-0.2c0.1-0.1,0.1-0.2,0.2-0.4
				C448.4,203.5,448.4,203.4,448.4,203.2z"/>
		</g>
		<g>
			<path class="st1" d="M450.7,201h-0.5v1.3h-0.3V201h-0.5v-0.3h1.3V201z"/>
			<path class="st1" d="M452.1,200.7v1.6h-0.3v-0.7h-0.7v0.7h-0.3v-1.6h0.3v0.6h0.7v-0.6H452.1z"/>
		</g>
		<rect x="423.3" y="203" class="st1" width="2" height="0.3"/>
	</g>
</g>
</svg>
