<?xml version="1.0" encoding="utf-8"?>
<!-- Generator: Adobe Illustrator 22.1.0, SVG Export Plug-In . SVG Version: 6.00 Build 0)  -->
<svg version="1.1" id="Livello_1" xmlns="http://www.w3.org/2000/svg" xmlns:xlink="http://www.w3.org/1999/xlink" x="0px" y="0px"
	 viewBox="0 0 350 66.1" style="enable-background:new 0 0 350 66.1;" xml:space="preserve">
<style type="text/css">
	.st0{fill:#333333;}
	.st1{fill:url(#SVGID_1_);}
	.st2{fill:url(#SVGID_2_);}
	.st3{fill:#FFFFFF;}
	.st4{fill:url(#SVGID_3_);}
	.st5{fill:url(#SVGID_4_);}
	.st6{fill:url(#SVGID_5_);}
	.st7{fill:url(#SVGID_6_);}
	.st8{fill:url(#SVGID_7_);}
	.st9{fill:url(#SVGID_8_);}
	.st10{fill:url(#SVGID_9_);}
</style>
<g>
	<path class="st0" d="M220.3,8.2c-2.3,0-4.4,1.2-5.6,3.2L185.8,60h14.7l5.1-9.8c0,0,8.6,0,14.5,0h3.9l0.1,0.9l0.2,1.7c0,0,0,0,0,0
		c0.2,1.6,0.4,3.8,0.5,5.3l-5.6,1.9h5.7h12.9c0,0-7.6-49.6-7.9-51.9L220.3,8.2z M205.5,41l6-2l9.4-17.6l2,19.5L205.5,41z"/>
	<path class="st0" d="M338.3,18l2-9.9l-44.5,0l5.6,1.9l0,0l-10.2,48.1l0,0l-5.6,1.9H304l-0.3,0h27.1l0.6-2.9
		c0.3-1.3,0.8-3.8,0.8-3.8l0,0c0-0.2,0.6-3.1,0.6-3.1L306,50.1l2.6-12.3l15.3,0l2.2-9.8l-15.4,0l2-10L338.3,18z"/>
	<path class="st0" d="M289.4,21.5c0.5-0.2,1-0.4,1.5-0.5l0,0l1.6-0.6l-0.4-1.2c-0.1-0.2-0.1-0.4-0.2-0.6l0-0.1l0,0
		c-0.4-1.1-0.9-2.2-1.5-3.3c-2.4-3.9-5.9-6.2-10.2-7.4c-1.5-0.4-3.1-0.6-4.6-0.7c-3.3-0.3-6.5-0.1-9.7,0.7c-2.3,0.6-4.6,1.3-6.7,2.5
		c-1.7,1-3.4,2-5,3.3c-3.3,2.7-6,5.9-8,9.8c-1.1,2.2-2.1,4.5-2.8,6.8c-0.9,2.8-1.2,5.7-1.4,8.6c-0.2,2.8,0.1,5.6,0.8,8.4
		c0.6,2.3,1.5,4.5,2.9,6.5c2.5,3.5,6,5.7,10.2,6.8c2.3,0.6,4.8,1,7.2,0.9c3.9-0.2,7.1-0.7,9.2-1.4c2-0.6,3.9-1.5,5.7-2.6
		c2.1-1.2,3.9-2.7,5.5-4.5l0,0l0.3-0.4c0.1-0.1,0.1-0.1,0.2-0.2c0,0,0-0.1,0.1-0.1l0.6-0.7l-0.5-0.4c-0.1-0.1-0.2-0.2-0.4-0.3
		c-0.2-0.1-0.3-0.2-0.5-0.3l0,0l0,0c-0.9-0.7-1.9-1.3-2.8-2c-1.4-1-2.8-2-4.2-3l0,0l-1.2-0.9l-1.2,1.3c-1,1.1-2.1,2-3.4,2.7
		c-1.2,0.6-2.4,1.2-3.7,1.6c-1.6,0.4-3.2,0.5-4.8,0.2c-1.7-0.3-3.2-1-4.3-2.3c-1.6-1.8-2.2-4-2.4-6.3c-0.2-2.1-0.2-4.3,0.4-6.4
		c0,0,0.7-3.4,1.2-5c0.9-2.5,2-4.8,3.6-6.9c2.3-2.9,5-4.9,8.7-5.6c2.2-0.4,4.3-0.2,6.3,0.6c2.1,0.8,3.4,2.3,4.4,4.2l-4.6,3.6
		l6.9-2.4l0.3-0.1l0,0c0.9-0.3,1.9-0.6,2.8-0.9C286.6,22.5,288,22,289.4,21.5z"/>
	<g>
		<path class="st0" d="M189.4,17c-0.4-1.4-1.1-2.6-2-3.7c-2.6-3.2-6.2-4.8-10.2-5.1c-2.8-0.1-21.2-0.1-34.3-0.1c1.6,1.5,3,3.2,4,4.9
			c1.8,2.9,5,4.6,8.5,4.6l5.1,0l9.6,0c1.5,0,2.9,0.2,4.3,0.8c1.4,0.6,2.3,1.6,2.7,3.1c0.9,3.1-1.2,6.7-3.6,8.1
			c-1.6,0.9-3.4,1.6-5.3,1.7c-1.4,0-6.3,0.1-12.2,0.1c-2.9,0-5.5,1.9-6.3,4.7l-1.1,3.6c-0.1,0.4-0.3,0.9-0.4,1.3l7.5,0l7.4,0
			l5.9,17.1l-5.6,1.9l19.4,0l-7.6-20.5l1.7-0.7c0.7-0.3,1.4-0.6,2.1-0.9c2.4-1.1,4.4-2.6,6.2-4.5c1.6-1.8,2.9-3.7,3.8-6
			c0.7-1.9,1.1-3.9,1.2-5.9C190.2,20,189.9,18.5,189.4,17z"/>
	</g>
	<linearGradient id="SVGID_1_" gradientUnits="userSpaceOnUse" x1="9.6521" y1="33.9838" x2="143.3082" y2="33.9838">
		<stop  offset="0" style="stop-color:#8BFFA1"/>
		<stop  offset="1" style="stop-color:#00BFA5"/>
	</linearGradient>
	<path class="st1" d="M125,6.9c-0.4,0-0.8,0-1.3,0C124.2,6.8,124.6,6.8,125,6.9z M142.5,20.9c-0.1-0.2-0.1-0.5-0.2-0.7
		c-0.6-2.1-1.4-4-2.7-5.8c-2.5-3.5-6-5.7-10.2-6.8c-1.7-0.4-3.4-0.7-5.1-0.8c-0.3,0-0.6,0-0.9,0c0.1,0,0.3,0,0.4,0
		c-0.2,0-0.4,0-0.6,0c-0.1,0-0.1,0-0.2,0c-0.3,0-0.6,0-0.8,0c-1.5,0.1-3,0.2-4.3,0.4c-0.7,0.1-1.4,0.3-2.1,0.4
		c-2.3,0.6-4.6,1.3-6.7,2.5c-1.7,1-3.4,2-5,3.3c-1.2,1-2.4,2.1-3.4,3.2c-1.8,2-3.3,4.1-4.6,6.6c-1,1.9-1.8,3.8-2.5,5.8L88,30.9
		l18.4,0l0,0c0.1-0.3,0.1-0.5,0.2-0.7c0.8-2.4,1.9-4.6,3.4-6.6l1.2-1.5c1-1.1,2.1-1.8,3.4-2.5c1.2-0.6,2.4-1.2,3.7-1.6
		c1.6-0.4,3.2-0.5,4.8-0.2c1.7,0.3,3.2,1,4.3,2.3c0.8,0.8,1.3,1.8,1.7,2.7c0.2,0.5,0.4,1.1,0.5,1.7c0.1,0.6,0.2,1.2,0.3,1.9
		c0.2,2.1,0.2,4.3-0.4,6.4c0,0-0.7,3.4-1.2,5c-0.8,2.4-1.9,4.6-3.4,6.6l-0.1-0.1l-1.2,1.3c-1,1.1-2.1,2-3.4,2.8
		c-1.2,0.6-2.4,1.2-3.7,1.6c-1.6,0.4-3.2,0.5-4.8,0.2c-1.7-0.3-3.2-1-4.3-2.3c-0.8-0.8-1.3-1.8-1.7-2.7c-0.2-0.5-0.4-1.1-0.5-1.7
		c-0.1-0.6-0.2-1.2-0.3-1.9c-0.1-1.5-0.2-3,0-4.4l0,0h0c0,0,0,0,0,0H91.9c0,0,0,0,0,0l-5.7,0l5.6,1.9c-0.2,2.7,0.2,5.4,0.8,8
		c0.1,0.2,0.1,0.5,0.2,0.7c0.6,2.1,1.4,4,2.7,5.8c2.5,3.5,6,5.7,10.2,6.8c1.7,0.4,3.4,0.7,5.1,0.8c0.4,0,0.8,0,1.3,0
		c0.3,0,0.6,0,0.8,0c1.5-0.1,3-0.2,4.3-0.4c0.7-0.1,1.4-0.3,2.1-0.4c2.3-0.6,4.6-1.3,6.7-2.5c1.7-1,3.4-2,5-3.3
		c1.2-1,2.4-2.1,3.4-3.2c1.8-2,3.3-4.1,4.6-6.6c1.1-2.2,2.1-4.5,2.8-6.8c0.9-2.8,1.2-5.7,1.4-8.6C143.5,26.5,143.1,23.7,142.5,20.9z
		 M33.9,30.8l4.8-22.9l-18.9,0l5.6,1.9l0,0L21.4,29l-5.5,1.9l8.6,0L33.9,30.8L33.9,30.8L33.9,30.8L33.9,30.8z M19.7,37.1h-6l5.6,1.9
		l-4,19l0,0l-5.6,1.9l18.1,0l4.8-22.8h-0.7H19.7z M91.1,20.8L91.1,20.8l1.6-0.6L92.3,19c-0.1-0.2-0.1-0.4-0.2-0.6l0-0.1l0,0
		c-0.4-1.1-0.9-2.2-1.5-3.3c-2.4-3.9-5.9-6.2-10.2-7.4c-1.5-0.4-3.1-0.6-4.6-0.7c-3.3-0.3-6.5-0.1-9.7,0.7c-2.3,0.6-4.6,1.3-6.7,2.5
		c-1.7,1-3.4,2-5,3.3c-3.3,2.7-6,6-8,9.8c-1,1.9-1.8,3.8-2.5,5.7h0l-5.6,1.9l18.4,0c0.1-0.3,0.1-0.5,0.2-0.7c0.9-2.5,2-4.8,3.6-6.9
		c2.3-2.9,5-4.9,8.7-5.6c2.2-0.4,4.3-0.2,6.3,0.6c2.1,0.8,3.4,2.3,4.4,4.2l-4.6,3.6l6.9-2.4l0.3-0.1l0,0c0.9-0.3,1.9-0.6,2.8-0.9
		c1.4-0.5,2.8-0.9,4.2-1.4C90.1,21.2,90.6,21,91.1,20.8z M83.9,50.6c-0.2-0.1-0.3-0.2-0.5-0.3l0,0l0,0c-0.9-0.7-1.9-1.3-2.8-2
		c-1.4-1-2.8-2-4.2-3l0,0l-1.2-0.9l-1.2,1.3c-1,1.1-2.1,2-3.4,2.8C69.5,49,68.3,49.6,67,50c-1.6,0.4-3.2,0.5-4.8,0.2
		c-1.7-0.3-3.2-1-4.3-2.3c-1.6-1.8-2.2-4-2.4-6.3c-0.1-1.5-0.2-3,0-4.4H55l0.4-0.1l-18.9,0l5.6,1.9c-0.2,2.7,0.2,5.4,0.8,8
		c0.6,2.3,1.5,4.5,2.9,6.5c2.5,3.5,6,5.7,10.2,6.8c2.3,0.6,4.8,1,7.2,0.9c3.9-0.2,7.1-0.7,9.2-1.4c2-0.6,3.9-1.5,5.7-2.6
		c2.1-1.2,3.9-2.7,5.5-4.5l0,0l0.3-0.4c0.1-0.1,0.1-0.1,0.2-0.2c0,0,0-0.1,0.1-0.1l0.6-0.7l-0.5-0.4C84.2,50.8,84.1,50.7,83.9,50.6z
		"/>
</g>
</svg>
