<svg xmlns="http://www.w3.org/2000/svg" height="109.21" width="333.3"><defs><clipPath id="a"><path d="M0 81.9h249.97V0H0z"/></clipPath><clipPath id="b"><path d="M30.83 56.26c-1.3-24.58-5.91-31.17-7.77-32.84.44-.1.84-.28 1.2-.53a3.22 3.22 0 0 0 4.33.42 13.2 13.2 0 0 0 10.49.34c-1.99 2-6.26 9-7.53 32.46-.13 1.33-.26 1.82-.37 1.82-.14 0-.26-.83-.35-1.67m24.14-30.8a6 6 0 0 1 .3-1.9 5.67 5.67 0 0 0-.86 3.02v.3a7.88 7.88 0 0 1-4.13-6.67 6.7 6.7 0 0 0 1.3 5.63 7.46 7.46 0 0 1-8.11-3.37 6.5 6.5 0 0 0 2.9-1.8l.29.02a3.48 3.48 0 0 0 3.29-4.57l.02.44a3.7 3.7 0 0 1-4.64 3.6 3.73 3.73 0 0 1-1.95-1.23 7.95 7.95 0 0 1-.19-.18 3.01 3.01 0 0 0 1.72 1.72 7.08 7.08 0 0 1-10.04-2.5l.45.02c1.63 0 3.12-.6 4.28-1.57a3.52 3.52 0 0 0 6.47-.49 3.62 3.62 0 0 1-6.21.26 6.64 6.64 0 0 0 1.9-3.17 7.06 7.06 0 0 1-13.09-1.63c.01 1.79.73 3.4 1.88 4.59a4.12 4.12 0 0 1-4.98-1.67 3.97 3.97 0 0 0 5.68 2.38c.52.38 1.1.67 1.71.86.35.14.72.24 1.1.31a6.41 6.41 0 0 0 3.92 4.25 9.51 9.51 0 0 1-9.1.05 3.85 3.85 0 0 1-5.96-2.51l-.02.22c0 .47.09.92.24 1.33a4.59 4.59 0 0 1-4.99-2.31c.26.9.77 1.7 1.46 2.32a4.97 4.97 0 0 1-4.08 3.41 3.31 3.31 0 0 1-3.23 4.07c-1.06 0-2-.5-2.61-1.27A2.8 2.8 0 0 0 10.97 29a2.47 2.47 0 0 1-3.47-1.5 2.44 2.44 0 0 1-1.97.37 4.49 4.49 0 0 1-1.68 2.5l.03-.1-.05.06v-6.16c.02-.64.33-5.6 4.72-8.36L27.33 4.96c.7-.3 2.13-.8 3.94-.82V4.1c1.82.02 3.25.52 3.95.82L53.96 15.8c4.4 2.75 4.7 7.72 4.73 8.36v6.74l-.01.11a6 6 0 0 1-3.71-5.54"/></clipPath><linearGradient id="c" gradientTransform="matrix(0 -53.81088 -53.81088 0 31.26 57.92)" gradientUnits="userSpaceOnUse" x2="1"><stop offset="0" stop-color="#1797d5"/><stop offset="1" stop-color="#adddf8"/></linearGradient><clipPath id="d"><path d="M0 81.9h249.97V0H0z"/></clipPath></defs><g clip-path="url(#a)" transform="matrix(1.33333 0 0 -1.33333 0 109.21)"><path d="M131.53 52.27c-10.78 0-16.06-8.23-16.06-16.1 0-7.89 5.28-16.12 16.06-16.12 10.82 0 16.11 8.23 16.11 16.11 0 7.88-5.29 16.11-16.11 16.11m0-34.12c-12.07 0-18.06 9.28-18.06 18.01 0 8.73 5.99 18.01 18.06 18.01 12.12 0 18.1-9.28 18.1-18 0-8.74-5.98-18.02-18.1-18.02m-31.81 1.9c3.84 0 7.13.9 9.82 2.54v-2a21.02 21.02 0 0 0-10.17-2.44c-8.68 0-18.06 5.8-18.06 17.61.05 12.22 9.23 18.41 18.06 18.41 3.49 0 6.93-.85 9.77-2.4v-1.99a18.83 18.83 0 0 1-9.52 2.5c-7.94 0-16.27-5.4-16.32-16.52 0-10.72 8.48-15.71 16.42-15.71M71.24 53.62h2V18.7h-2z" fill="#293246"/><path d="M235.46 51.73h-9.23V33.62h9.23c6.73 0 12.52 1.9 12.52 9.08 0 7.13-5.74 9.03-12.52 9.03m-.1-20h-9.13V18.7h-2v34.92h11.13c7.78 0 14.61-2.44 14.61-10.92 0-8.53-6.83-10.98-14.61-10.98M198.1 52.27c-10.77 0-16.06-8.23-16.06-16.1 0-7.89 5.29-16.12 16.06-16.12 10.83 0 16.11 8.23 16.11 16.11 0 7.88-5.28 16.11-16.1 16.11m0-34.12c-12.08 0-18.07 9.28-18.07 18.01 0 8.73 6 18.01 18.06 18.01 12.12 0 18.1-9.28 18.1-18 0-8.74-5.98-18.02-18.1-18.02m-32.36 33.58V18.7h-2v33.03h-13.12v1.9h28.24v-1.9z" fill="#13a4de"/><path d="M31.2 60.8h-1.21v20.12l1.1.92v.02l.05.05.02-.02.01.02.03-.02v-.03l1.1-.93V60.8zm-5 0v16.27l2.52 2.53.11-18.8zm-3.75-3.75v10.01l2.42 2.53V59.58zm11 3.74l.12 18.82 2.53-2.53V60.8zm3.97-1.2v10l2.42-2.52V57.05z" fill="#293246"/></g><g clip-path="url(#b)" transform="matrix(1.33333 0 0 -1.33333 0 109.21)"><path d="M30.83 56.26c-1.3-24.58-5.91-31.17-7.77-32.84.44-.1.84-.28 1.2-.53a3.22 3.22 0 0 0 4.33.42 13.2 13.2 0 0 0 10.49.34c-1.99 2-6.26 9-7.53 32.46-.13 1.33-.26 1.82-.37 1.82-.14 0-.26-.83-.35-1.67m24.14-30.8a6 6 0 0 1 .3-1.9 5.67 5.67 0 0 0-.86 3.02v.3a7.88 7.88 0 0 1-4.13-6.67 6.7 6.7 0 0 0 1.3 5.63 7.46 7.46 0 0 1-8.11-3.37 6.5 6.5 0 0 0 2.9-1.8l.29.02a3.48 3.48 0 0 0 3.29-4.57l.02.44a3.7 3.7 0 0 1-4.64 3.6 3.73 3.73 0 0 1-1.95-1.23 7.95 7.95 0 0 1-.19-.18 3.01 3.01 0 0 0 1.72 1.72 7.08 7.08 0 0 1-10.04-2.5l.45.02c1.63 0 3.12-.6 4.28-1.57a3.52 3.52 0 0 0 6.47-.49 3.62 3.62 0 0 1-6.21.26 6.64 6.64 0 0 0 1.9-3.17 7.06 7.06 0 0 1-13.09-1.63c.01 1.79.73 3.4 1.88 4.59a4.12 4.12 0 0 1-4.98-1.67 3.97 3.97 0 0 0 5.68 2.38c.52.38 1.1.67 1.71.86.35.14.72.24 1.1.31a6.41 6.41 0 0 0 3.92 4.25 9.51 9.51 0 0 1-9.1.05 3.85 3.85 0 0 1-5.96-2.51l-.02.22c0 .47.09.92.24 1.33a4.59 4.59 0 0 1-4.99-2.31c.26.9.77 1.7 1.46 2.32a4.97 4.97 0 0 1-4.08 3.41 3.31 3.31 0 0 1-3.23 4.07c-1.06 0-2-.5-2.61-1.27A2.8 2.8 0 0 0 10.97 29a2.47 2.47 0 0 1-3.47-1.5 2.44 2.44 0 0 1-1.97.37 4.49 4.49 0 0 1-1.68 2.5l.03-.1-.05.06v-6.16c.02-.64.33-5.6 4.72-8.36L27.33 4.96c.7-.3 2.13-.8 3.94-.82V4.1c1.82.02 3.25.52 3.95.82L53.96 15.8c4.4 2.75 4.7 7.72 4.73 8.36v6.74l-.01.11a6 6 0 0 1-3.71-5.54" fill="url(#c)"/></g><g clip-path="url(#d)" transform="matrix(1.33333 0 0 -1.33333 0 109.21)"><path d="M57.14 13.31L35.76.96a11.8 11.8 0 0 0-4.5-.93V0v.03a12 12 0 0 0-4.5.93L5.4 13.31c-5 3.13-5.36 8.8-5.39 9.52v24.91c.03.73.38 6.39 5.39 9.52l14.63 8.45v-2.2L6.86 55.85v-.01a10.13 10.13 0 0 1-5.03-8.76V22.76h.02a10.13 10.13 0 0 1 4.18-7.59h.03c.52-.38 1.07-.7 1.66-.98l17.7-10.35h.03a10.1 10.1 0 0 1 11.62 0h.04l17.7 10.35c.59.27 1.14.6 1.66.97l.02.01c2.39 1.73 4 4.47 4.19 7.6h.02v24.31c0 3.74-2.02 7-5.03 8.76v.01l-13.44 7.82v2.2l14.91-8.61c5-3.13 5.36-8.8 5.39-9.52V22.83c-.03-.73-.38-6.39-5.39-9.52" fill="#293246" fill-rule="evenodd"/></g></svg>