<?xml version="1.0" encoding="utf-8"?>
<!-- Generator: Adobe Illustrator 19.2.0, SVG Export Plug-In . SVG Version: 6.00 Build 0)  -->
<svg version="1.1" id="Livello_1" xmlns="http://www.w3.org/2000/svg" xmlns:xlink="http://www.w3.org/1999/xlink" x="0px" y="0px"
	 viewBox="0 0 1472 431" style="enable-background:new 0 0 1472 431;" xml:space="preserve">
<style type="text/css">
	.st0{clip-path:url(#SVGID_2_);}
	.st1{fill:none;stroke:#2E3192;stroke-width:7;stroke-linecap:round;stroke-linejoin:round;}
	.st2{fill:none;stroke:#2E3192;stroke-width:7;stroke-linecap:round;stroke-linejoin:round;stroke-dasharray:9.969769e-02,19.9395;}
	.st3{clip-path:url(#SVGID_4_);}
	.st4{opacity:0.21;clip-path:url(#SVGID_6_);}
	.st5{clip-path:url(#SVGID_8_);fill:#0F1177;}
	.st6{clip-path:url(#SVGID_6_);fill:#0F1177;}
	.st7{clip-path:url(#SVGID_10_);}
	.st8{opacity:0.21;clip-path:url(#SVGID_12_);}
	.st9{clip-path:url(#SVGID_14_);fill:#0F1177;}
	.st10{clip-path:url(#SVGID_12_);fill:#0F1177;}
	.st11{clip-path:url(#SVGID_16_);}
	.st12{opacity:0.21;clip-path:url(#SVGID_18_);}
	.st13{clip-path:url(#SVGID_20_);fill:#0F1177;}
	.st14{clip-path:url(#SVGID_18_);fill:#0F1177;}
	.st15{clip-path:url(#SVGID_22_);}
	.st16{opacity:0.21;clip-path:url(#SVGID_24_);}
	.st17{clip-path:url(#SVGID_26_);fill:#0F1177;}
	.st18{clip-path:url(#SVGID_24_);fill:#0F1177;}
	.st19{clip-path:url(#SVGID_28_);}
	.st20{opacity:0.21;clip-path:url(#SVGID_30_);}
	.st21{clip-path:url(#SVGID_32_);fill:#0F1177;}
	.st22{clip-path:url(#SVGID_30_);fill:#0F1177;}
	.st23{clip-path:url(#SVGID_34_);}
	.st24{opacity:0.21;clip-path:url(#SVGID_36_);}
	.st25{clip-path:url(#SVGID_38_);fill:#0F1177;}
	.st26{clip-path:url(#SVGID_36_);fill:#0F1177;}
	.st27{clip-path:url(#SVGID_40_);}
	.st28{opacity:0.21;clip-path:url(#SVGID_42_);}
	.st29{clip-path:url(#SVGID_44_);fill:#0F1177;}
	.st30{clip-path:url(#SVGID_42_);fill:#0F1177;}
	.st31{clip-path:url(#SVGID_46_);}
	.st32{opacity:0.21;clip-path:url(#SVGID_48_);}
	.st33{clip-path:url(#SVGID_50_);fill:#0F1177;}
	.st34{clip-path:url(#SVGID_48_);fill:#0F1177;}
	.st35{clip-path:url(#SVGID_52_);}
	.st36{opacity:0.21;clip-path:url(#SVGID_54_);}
	.st37{clip-path:url(#SVGID_56_);fill:#0F1177;}
	.st38{clip-path:url(#SVGID_54_);fill:#0F1177;}
	.st39{clip-path:url(#SVGID_58_);}
	.st40{opacity:0.21;clip-path:url(#SVGID_60_);}
	.st41{clip-path:url(#SVGID_62_);fill:#0F1177;}
	.st42{clip-path:url(#SVGID_60_);fill:#0F1177;}
	.st43{font-family:'WorkSans-Bold';}
	.st44{font-size:12px;}
	.st45{font-family:'WorkSans-Light';}
	.st46{letter-spacing:18;}
</style>
<g>
	<defs>
		<rect id="SVGID_1_" width="1472" height="431"/>
	</defs>
	<clipPath id="SVGID_2_">
		<use xlink:href="#SVGID_1_"  style="overflow:visible;"/>
	</clipPath>
	<g class="st0">
		<g>
			<g>
				<path class="st1" d="M-295,253C-295,253-295,253-295,253"/>
				<path class="st2" d="M-279,241c45.4-32,185.6-117,395-117c258,0,348,147,756,147c357.4,0,528.7-142.5,743-146.9"/>
				<path class="st1" d="M1625,124C1625,124,1625,124,1625,124"/>
			</g>
		</g>
		<g>
			<defs>
				<rect id="SVGID_3_" x="52.6" y="99" width="52" height="52"/>
			</defs>
			<clipPath id="SVGID_4_">
				<use xlink:href="#SVGID_3_"  style="overflow:visible;"/>
			</clipPath>
			<g class="st3">
				<defs>
					<rect id="SVGID_5_" x="52.6" y="99" width="52" height="52"/>
				</defs>
				<clipPath id="SVGID_6_">
					<use xlink:href="#SVGID_5_"  style="overflow:visible;"/>
				</clipPath>
				<g class="st4">
					<g>
						<defs>
							<rect id="SVGID_7_" x="39.9" y="87.7" width="77.5" height="64.8"/>
						</defs>
						<clipPath id="SVGID_8_">
							<use xlink:href="#SVGID_7_"  style="overflow:visible;"/>
						</clipPath>
						<path class="st5" d="M78.6,151c14.4,0,26-11.6,26-26S93,99,78.6,99s-26,11.6-26,26S64.3,151,78.6,151"/>
					</g>
				</g>
				<path class="st6" d="M78.6,135.2c5.6,0,10.2-4.6,10.2-10.2c0-5.6-4.6-10.2-10.2-10.2s-10.2,4.6-10.2,10.2
					C68.4,130.6,73,135.2,78.6,135.2"/>
			</g>
		</g>
		<g>
			<defs>
				<rect id="SVGID_9_" x="197.6" y="108" width="52" height="52"/>
			</defs>
			<clipPath id="SVGID_10_">
				<use xlink:href="#SVGID_9_"  style="overflow:visible;"/>
			</clipPath>
			<g class="st7">
				<defs>
					<rect id="SVGID_11_" x="197.6" y="108" width="52" height="52"/>
				</defs>
				<clipPath id="SVGID_12_">
					<use xlink:href="#SVGID_11_"  style="overflow:visible;"/>
				</clipPath>
				<g class="st8">
					<g>
						<defs>
							<rect id="SVGID_13_" x="184.9" y="96.7" width="77.5" height="64.8"/>
						</defs>
						<clipPath id="SVGID_14_">
							<use xlink:href="#SVGID_13_"  style="overflow:visible;"/>
						</clipPath>
						<path class="st9" d="M223.6,160c14.4,0,26-11.6,26-26s-11.6-26-26-26s-26,11.6-26,26S209.3,160,223.6,160"/>
					</g>
				</g>
				<path class="st10" d="M223.6,144.2c5.6,0,10.2-4.6,10.2-10.2c0-5.6-4.6-10.2-10.2-10.2s-10.2,4.6-10.2,10.2
					C213.4,139.6,218,144.2,223.6,144.2"/>
			</g>
		</g>
		<g>
			<defs>
				<rect id="SVGID_15_" x="345.6" y="148" width="52" height="52"/>
			</defs>
			<clipPath id="SVGID_16_">
				<use xlink:href="#SVGID_15_"  style="overflow:visible;"/>
			</clipPath>
			<g class="st11">
				<defs>
					<rect id="SVGID_17_" x="345.6" y="148" width="52" height="52"/>
				</defs>
				<clipPath id="SVGID_18_">
					<use xlink:href="#SVGID_17_"  style="overflow:visible;"/>
				</clipPath>
				<g class="st12">
					<g>
						<defs>
							<rect id="SVGID_19_" x="332.9" y="136.7" width="77.5" height="64.8"/>
						</defs>
						<clipPath id="SVGID_20_">
							<use xlink:href="#SVGID_19_"  style="overflow:visible;"/>
						</clipPath>
						<path class="st13" d="M371.6,200c14.4,0,26-11.6,26-26s-11.6-26-26-26s-26,11.6-26,26S357.3,200,371.6,200"/>
					</g>
				</g>
				<path class="st14" d="M371.6,184.2c5.6,0,10.2-4.6,10.2-10.2c0-5.6-4.6-10.2-10.2-10.2s-10.2,4.6-10.2,10.2
					C361.4,179.6,366,184.2,371.6,184.2"/>
			</g>
		</g>
		<g>
			<defs>
				<rect id="SVGID_21_" x="479.6" y="195" width="52" height="52"/>
			</defs>
			<clipPath id="SVGID_22_">
				<use xlink:href="#SVGID_21_"  style="overflow:visible;"/>
			</clipPath>
			<g class="st15">
				<defs>
					<rect id="SVGID_23_" x="479.6" y="195" width="52" height="52"/>
				</defs>
				<clipPath id="SVGID_24_">
					<use xlink:href="#SVGID_23_"  style="overflow:visible;"/>
				</clipPath>
				<g class="st16">
					<g>
						<defs>
							<rect id="SVGID_25_" x="466.9" y="183.7" width="77.5" height="64.8"/>
						</defs>
						<clipPath id="SVGID_26_">
							<use xlink:href="#SVGID_25_"  style="overflow:visible;"/>
						</clipPath>
						<path class="st17" d="M505.6,247c14.4,0,26-11.6,26-26s-11.6-26-26-26c-14.4,0-26,11.6-26,26S491.3,247,505.6,247"/>
					</g>
				</g>
				<path class="st18" d="M505.6,231.2c5.6,0,10.2-4.6,10.2-10.2c0-5.6-4.6-10.2-10.2-10.2s-10.2,4.6-10.2,10.2
					C495.4,226.6,500,231.2,505.6,231.2"/>
			</g>
		</g>
		<g>
			<defs>
				<rect id="SVGID_27_" x="616.6" y="225" width="52" height="52"/>
			</defs>
			<clipPath id="SVGID_28_">
				<use xlink:href="#SVGID_27_"  style="overflow:visible;"/>
			</clipPath>
			<g class="st19">
				<defs>
					<rect id="SVGID_29_" x="616.6" y="225" width="52" height="52"/>
				</defs>
				<clipPath id="SVGID_30_">
					<use xlink:href="#SVGID_29_"  style="overflow:visible;"/>
				</clipPath>
				<g class="st20">
					<g>
						<defs>
							<rect id="SVGID_31_" x="603.9" y="213.7" width="77.5" height="64.8"/>
						</defs>
						<clipPath id="SVGID_32_">
							<use xlink:href="#SVGID_31_"  style="overflow:visible;"/>
						</clipPath>
						<path class="st21" d="M642.6,277c14.4,0,26-11.6,26-26s-11.6-26-26-26s-26,11.6-26,26S628.3,277,642.6,277"/>
					</g>
				</g>
				<path class="st22" d="M642.6,261.2c5.6,0,10.2-4.6,10.2-10.2c0-5.6-4.6-10.2-10.2-10.2s-10.2,4.6-10.2,10.2
					C632.4,256.6,637,261.2,642.6,261.2"/>
			</g>
		</g>
		<g>
			<defs>
				<rect id="SVGID_33_" x="752.6" y="242" width="52" height="52"/>
			</defs>
			<clipPath id="SVGID_34_">
				<use xlink:href="#SVGID_33_"  style="overflow:visible;"/>
			</clipPath>
			<g class="st23">
				<defs>
					<rect id="SVGID_35_" x="752.6" y="242" width="52" height="52"/>
				</defs>
				<clipPath id="SVGID_36_">
					<use xlink:href="#SVGID_35_"  style="overflow:visible;"/>
				</clipPath>
				<g class="st24">
					<g>
						<defs>
							<rect id="SVGID_37_" x="739.9" y="230.7" width="77.5" height="64.8"/>
						</defs>
						<clipPath id="SVGID_38_">
							<use xlink:href="#SVGID_37_"  style="overflow:visible;"/>
						</clipPath>
						<path class="st25" d="M778.6,294c14.4,0,26-11.6,26-26c0-14.4-11.6-26-26-26s-26,11.6-26,26C752.6,282.4,764.3,294,778.6,294"
							/>
					</g>
				</g>
				<path class="st26" d="M778.6,278.2c5.6,0,10.2-4.6,10.2-10.2c0-5.6-4.6-10.2-10.2-10.2s-10.2,4.6-10.2,10.2
					C768.4,273.6,773,278.2,778.6,278.2"/>
			</g>
		</g>
		<g>
			<defs>
				<rect id="SVGID_39_" x="893.6" y="245" width="52" height="52"/>
			</defs>
			<clipPath id="SVGID_40_">
				<use xlink:href="#SVGID_39_"  style="overflow:visible;"/>
			</clipPath>
			<g class="st27">
				<defs>
					<rect id="SVGID_41_" x="893.6" y="245" width="52" height="52"/>
				</defs>
				<clipPath id="SVGID_42_">
					<use xlink:href="#SVGID_41_"  style="overflow:visible;"/>
				</clipPath>
				<g class="st28">
					<g>
						<defs>
							<rect id="SVGID_43_" x="880.9" y="233.7" width="77.5" height="64.8"/>
						</defs>
						<clipPath id="SVGID_44_">
							<use xlink:href="#SVGID_43_"  style="overflow:visible;"/>
						</clipPath>
						<path class="st29" d="M919.6,297c14.4,0,26-11.6,26-26c0-14.4-11.6-26-26-26s-26,11.6-26,26C893.6,285.4,905.3,297,919.6,297"
							/>
					</g>
				</g>
				<path class="st30" d="M919.6,281.2c5.6,0,10.2-4.6,10.2-10.2c0-5.6-4.6-10.2-10.2-10.2s-10.2,4.6-10.2,10.2
					C909.4,276.6,914,281.2,919.6,281.2"/>
			</g>
		</g>
		<g>
			<defs>
				<rect id="SVGID_45_" x="1033.6" y="233" width="52" height="52"/>
			</defs>
			<clipPath id="SVGID_46_">
				<use xlink:href="#SVGID_45_"  style="overflow:visible;"/>
			</clipPath>
			<g class="st31">
				<defs>
					<rect id="SVGID_47_" x="1033.6" y="233" width="52" height="52"/>
				</defs>
				<clipPath id="SVGID_48_">
					<use xlink:href="#SVGID_47_"  style="overflow:visible;"/>
				</clipPath>
				<g class="st32">
					<g>
						<defs>
							<rect id="SVGID_49_" x="1020.9" y="221.7" width="77.5" height="64.8"/>
						</defs>
						<clipPath id="SVGID_50_">
							<use xlink:href="#SVGID_49_"  style="overflow:visible;"/>
						</clipPath>
						<path class="st33" d="M1059.6,285c14.4,0,26-11.6,26-26c0-14.4-11.6-26-26-26c-14.4,0-26,11.6-26,26
							C1033.6,273.4,1045.3,285,1059.6,285"/>
					</g>
				</g>
				<path class="st34" d="M1059.6,269.2c5.6,0,10.2-4.6,10.2-10.2c0-5.6-4.6-10.2-10.2-10.2c-5.6,0-10.2,4.6-10.2,10.2
					C1049.4,264.6,1054,269.2,1059.6,269.2"/>
			</g>
		</g>
		<g>
			<defs>
				<rect id="SVGID_51_" x="1171.6" y="201" width="52" height="52"/>
			</defs>
			<clipPath id="SVGID_52_">
				<use xlink:href="#SVGID_51_"  style="overflow:visible;"/>
			</clipPath>
			<g class="st35">
				<defs>
					<rect id="SVGID_53_" x="1171.6" y="201" width="52" height="52"/>
				</defs>
				<clipPath id="SVGID_54_">
					<use xlink:href="#SVGID_53_"  style="overflow:visible;"/>
				</clipPath>
				<g class="st36">
					<g>
						<defs>
							<rect id="SVGID_55_" x="1158.9" y="189.7" width="77.5" height="64.8"/>
						</defs>
						<clipPath id="SVGID_56_">
							<use xlink:href="#SVGID_55_"  style="overflow:visible;"/>
						</clipPath>
						<path class="st37" d="M1197.6,253c14.4,0,26-11.6,26-26s-11.6-26-26-26c-14.4,0-26,11.6-26,26S1183.3,253,1197.6,253"/>
					</g>
				</g>
				<path class="st38" d="M1197.6,237.2c5.6,0,10.2-4.6,10.2-10.2c0-5.6-4.6-10.2-10.2-10.2c-5.6,0-10.2,4.6-10.2,10.2
					C1187.4,232.6,1192,237.2,1197.6,237.2"/>
			</g>
		</g>
		<g>
			<defs>
				<rect id="SVGID_57_" x="1306.6" y="162" width="52" height="52"/>
			</defs>
			<clipPath id="SVGID_58_">
				<use xlink:href="#SVGID_57_"  style="overflow:visible;"/>
			</clipPath>
			<g class="st39">
				<defs>
					<rect id="SVGID_59_" x="1306.6" y="162" width="52" height="52"/>
				</defs>
				<clipPath id="SVGID_60_">
					<use xlink:href="#SVGID_59_"  style="overflow:visible;"/>
				</clipPath>
				<g class="st40">
					<g>
						<defs>
							<rect id="SVGID_61_" x="1293.9" y="150.7" width="77.5" height="64.8"/>
						</defs>
						<clipPath id="SVGID_62_">
							<use xlink:href="#SVGID_61_"  style="overflow:visible;"/>
						</clipPath>
						<path class="st41" d="M1332.6,214c14.4,0,26-11.6,26-26s-11.6-26-26-26c-14.4,0-26,11.6-26,26S1318.3,214,1332.6,214"/>
					</g>
				</g>
				<path class="st42" d="M1332.6,198.2c5.6,0,10.2-4.6,10.2-10.2c0-5.6-4.6-10.2-10.2-10.2c-5.6,0-10.2,4.6-10.2,10.2
					C1322.4,193.6,1327,198.2,1332.6,198.2"/>
			</g>
		</g>
		<text transform="matrix(1 0 0 1 58.752 74.7817)"><tspan x="0" y="0" class="st43 st44">Q1-2017</tspan><tspan x="0" y="14.4" class="st45 st44">Project Concept</tspan></text>
		<text transform="matrix(1 0 0 1 184 181)"><tspan x="0" y="0" class="st43 st44">Q2-2017</tspan><tspan x="0" y="14.4" class="st45 st44">Project Development</tspan></text>
		<text transform="matrix(1 0 0 1 358 108)"><tspan x="0" y="0" class="st43 st44">Q4-2017</tspan><tspan x="0" y="14.4" class="st45 st44">BitNautic Platform MVP </tspan><tspan x="0" y="28.8" class="st45 st44">Concept Design</tspan></text>
		<text transform="matrix(1 0 0 1 424 253)"><tspan x="0" y="0" class="st43 st44">Q1-2018</tspan><tspan x="0" y="14.4" class="st45 st44">Project moved to Switzerland, </tspan><tspan x="0" y="28.8" class="st45 st44">BitNautic Sagl incorporated</tspan><tspan x="0" y="43.2" class="st45 st44">Private Pre-Sale of BTNT Tokens</tspan></text>
		<text transform="matrix(1 0 0 1 617 195)"><tspan x="0" y="0" class="st43 st44">Q2-2018</tspan><tspan x="50" y="0" class="st45 st44 st46">	</tspan><tspan x="0" y="14.4" class="st45 st44">ICO (Crowdsale) of BTNT Tokens</tspan></text>
		<text transform="matrix(1 0 0 1 728 312)"><tspan x="0" y="0" class="st43 st44">Q3-2018</tspan><tspan x="0" y="14.4" class="st45 st44">BitNautic platform </tspan><tspan x="0" y="28.8" class="st45 st44">Available for public testing (public beta)</tspan><tspan x="0" y="43.2" class="st45 st44">Establishment of partnerships </tspan><tspan x="0" y="57.6" class="st45 st44">with selected Carriers</tspan><tspan x="0" y="72" class="st45 st44">BTNT Tokens listed on the exchange</tspan></text>
		<text transform="matrix(1 0 0 1 888 207)"><tspan x="0" y="0" class="st43 st44">Q4 2018</tspan><tspan x="0" y="14.4" class="st45 st44">BitNautic Platform </tspan><tspan x="0" y="28.8" class="st45 st44">official release</tspan></text>
		<text transform="matrix(1 0 0 1 1040 306)"><tspan x="0" y="0" class="st43 st44">Q1 2019</tspan><tspan x="0" y="14.4" class="st45 st44">Shipping platform </tspan><tspan x="0" y="28.8" class="st45 st44">integrated with blockchain</tspan></text>
		<text transform="matrix(1 0 0 1 1158 148)"><tspan x="0" y="0" class="st43 st44">Q2 2019</tspan><tspan x="0" y="14.4" class="st45 st44">Wholesale E-Commerce</tspan><tspan x="0" y="28.8" class="st45 st44">available for public </tspan><tspan x="0" y="43.2" class="st45 st44">testing (public beta)</tspan></text>
		<text transform="matrix(1 0 0 1 1311 233)"><tspan x="0" y="0" class="st43 st44">Q3 2019</tspan><tspan x="0" y="14.4" class="st45 st44">Wholesale E-commerce</tspan><tspan x="0" y="28.8" class="st45 st44">official release</tspan><tspan x="0" y="43.2" class="st45 st44"> </tspan></text>
	</g>
</g>
</svg>
