<?xml version="1.0" encoding="utf-8"?>
<!-- Generator: Adobe Illustrator 21.0.0, SVG Export Plug-In . SVG Version: 6.00 Build 0)  -->
<svg version="1.1" id="Capa_1" xmlns="http://www.w3.org/2000/svg" xmlns:xlink="http://www.w3.org/1999/xlink" x="0px" y="0px"
	 viewBox="0 0 621 462" style="enable-background:new 0 0 621 462;" xml:space="preserve">
<style type="text/css">
	.st0{fill:#1746AF;}
	.st1{fill:#6182BC;}
	.st2{fill:#A3A3A3;}
	.st3{fill:none;}
	.st4{fill:none;stroke:#000000;stroke-width:11;stroke-miterlimit:10;stroke-dasharray:12.0421,12.0421;}
	.st5{fill:none;stroke:#000000;stroke-width:11;stroke-miterlimit:10;}
	.st6{fill:#6182BC;stroke:#000000;stroke-width:11;stroke-miterlimit:10;}
	.st7{fill:#89DD78;stroke:#000000;stroke-width:8;stroke-miterlimit:10;}
	.st8{fill:#D68AA9;stroke:#000000;stroke-width:5;stroke-miterlimit:10;}
</style>
<g>
	<g>
		<polygon class="st0" points="333,231.7 352.5,194.7 391.9,194.7 386.4,204 391.9,235.5 335.8,235.5 		"/>
		<path d="M391.9,237.4h-56.1c-0.6,0-1.2-0.3-1.5-0.8l-2.7-3.8c-0.4-0.6-0.5-1.4-0.1-2l19.5-37c0.3-0.6,1-1,1.7-1h39.4
			c0.7,0,1.3,0.4,1.6,0.9c0.3,0.6,0.3,1.3,0,1.9l-5.1,8.7l5.4,30.8c0.1,0.5-0.1,1.1-0.4,1.5C393,237.1,392.4,237.4,391.9,237.4z
			 M336.7,233.6h52.9l-5.1-29.2c-0.1-0.4,0-0.9,0.2-1.3l3.8-6.4h-34.9l-18.4,34.9L336.7,233.6z"/>
	</g>
	<g>
		<g>
			<path class="st1" d="M256.8,272.3c2.6,2.4,6,3.7,9.4,3.7s6.8-1.3,9.4-3.7c3.4-3.1,7.7-4.8,12.2-4.8s8.8,1.7,12.2,4.8
				c2.7,2.4,5.7,3.7,8.9,3.7c3.1,0,6.2-1.3,8.9-3.7c3.4-3.1,7.5-4.8,11.7-4.8s8.2,1.7,11.7,4.8c2.7,2.4,5.7,3.7,8.9,3.7
				c3.1,0,6.2-1.3,8.9-3.7c3.4-3.1,7.5-4.8,11.7-4.8s8.2,1.7,11.7,4.8c0.2,0.2,0.4,0.3,0.6,0.5c13.6-9.3,15.1-29,15.2-37.3
				c0-2.1-1.7-3.8-3.8-3.8H235.2c-1.3,0-2.5-0.7-3.2-1.8l-1.4-2.2c-0.7-1.1-1.9-1.8-3.2-1.8l0,0c-2.1,0-3.8,1.7-3.8,3.8v29.5
				c0,1,0.4,2,1.1,2.7l9.7,9.7c3.2-2.7,7-4.1,10.8-4.1C249.3,267.5,253.3,269.2,256.8,272.3z"/>
			<path d="M349.8,277.9c-3.6,0-7.1-1.5-10.2-4.2c-3.1-2.8-6.7-4.3-10.4-4.3c-3.7,0-7.3,1.5-10.4,4.3c-3,2.8-6.5,4.2-10.2,4.2
				c-3.6,0-7.1-1.5-10.2-4.2c-3-2.8-6.9-4.3-10.9-4.3s-7.9,1.5-10.9,4.3c-3,2.7-6.8,4.2-10.7,4.2c-3.9,0-7.7-1.5-10.7-4.2l0,0
				c-3.1-2.8-6.7-4.3-10.4-4.3c-3.4,0-6.7,1.3-9.6,3.7l-1.3,1.1L223,263.3c-1.1-1.1-1.7-2.5-1.7-4v-29.5c0-3.1,2.6-5.7,5.7-5.7
				c2,0,3.8,1,4.8,2.7l1.4,2.2c0.4,0.6,1,0.9,1.7,0.9H394c1.5,0,3,0.6,4.1,1.7c1.1,1.1,1.7,2.5,1.7,4c0,8.4-1.7,28.9-16,38.8
				l-1.1,0.8l-1.1-0.9c-0.3-0.2-0.5-0.4-0.7-0.6c-3.1-2.8-6.7-4.3-10.4-4.3s-7.3,1.5-10.4,4.3C357,276.4,353.4,277.9,349.8,277.9z
				 M329.3,265.6c4.7,0,9.1,1.8,12.9,5.3c2.3,2.1,4.9,3.2,7.6,3.2s5.3-1.1,7.6-3.2c3.8-3.5,8.3-5.3,12.9-5.3c4.4,0,8.7,1.6,12.3,4.8
				c11.8-9.2,13.2-27.3,13.2-34.9c0-0.5-0.2-1-0.6-1.4s-0.9-0.6-1.4-0.6H235.2c-2,0-3.8-1-4.8-2.7l-1.4-2.2c-0.4-0.6-1-0.9-1.7-0.9
				c-1.1,0-1.9,0.9-1.9,1.9v29.5c0,0.5,0.2,1,0.6,1.4l8.5,8.5c3.3-2.3,6.9-3.5,10.7-3.5c4.7,0,9.1,1.8,12.9,5.3
				c2.3,2.1,5.2,3.2,8.1,3.2s5.8-1.1,8.1-3.2c3.7-3.4,8.5-5.3,13.4-5.3s9.7,1.9,13.4,5.3c2.3,2.1,4.9,3.2,7.6,3.2s5.3-1.1,7.6-3.2
				C320.2,267.5,324.6,265.6,329.3,265.6z"/>
		</g>
		<g>
			<path d="M308.8,286.4c2.8,0,5.6-0.8,8.1-2.2h-16.2C303.2,285.7,305.9,286.4,308.8,286.4z"/>
		</g>
		<g>
			<path d="M266.1,286.4c3,0,5.9-0.8,8.5-2.2h-17.1C260.2,285.7,263.2,286.4,266.1,286.4z"/>
		</g>
		<g>
			<path d="M349.8,286.4c2.8,0,5.6-0.8,8.1-2.2h-16.2C344.3,285.7,347,286.4,349.8,286.4z"/>
		</g>
		<g>
			<path d="M391.8,282.3c-2.7,0-6.4-1-9.2-3.2c-1.2,0.8-2.4,1.5-3.8,2.2c0.1,0.1,0.3,0.2,0.4,0.4c3.1,2.9,8,4.7,12.5,4.8
				c1.1,0,2-0.9,2.1-2c0-0.5-0.2-1.1-0.6-1.5C392.9,282.5,392.3,282.3,391.8,282.3z"/>
		</g>
		<g>
			<path d="M233.4,278.6c-3,2.7-7.2,3.7-9.9,3.7h-0.2c-1.1,0-2,0.9-2.1,2c0,0.5,0.2,1.1,0.6,1.5c0.4,0.4,0.9,0.6,1.4,0.6h0.2
				c4.5,0,9.5-1.9,12.7-4.8c0.3-0.3,0.6-0.6,1-0.8l-2.9-2.9C234,278.1,233.7,278.4,233.4,278.6z"/>
		</g>
		<g>
			<path d="M382,278.6c-3.4-3.1-7.5-4.8-11.7-4.8s-8.2,1.7-11.7,4.8c-2.7,2.4-5.7,3.7-8.9,3.7c-3.1,0-6.2-1.3-8.9-3.7
				c-3.4-3.1-7.5-4.8-11.7-4.8s-8.2,1.7-11.7,4.8c-2.7,2.4-5.7,3.7-8.9,3.7c-3.1,0-6.2-1.3-8.9-3.7c-3.4-3.1-7.7-4.8-12.2-4.8
				s-8.8,1.7-12.2,4.8c-2.6,2.4-6,3.7-9.4,3.7s-6.8-1.3-9.4-3.7c-3.4-3.1-7.5-4.8-11.7-4.8c-3.9,0-7.6,1.4-10.8,4.1l2.9,2.9
				c2.4-1.9,5.1-2.9,7.9-2.9c3.1,0,6.2,1.3,8.9,3.7c1.1,1,2.3,1.9,3.6,2.6h17.1c1.3-0.7,2.5-1.6,3.6-2.6c2.6-2.4,6-3.7,9.4-3.7
				s6.8,1.3,9.4,3.7c1.1,1,2.3,1.9,3.5,2.6h16.2c1.2-0.7,2.4-1.6,3.5-2.6c2.7-2.4,5.7-3.7,8.9-3.7c3.1,0,6.2,1.3,8.9,3.7
				c1.1,1,2.3,1.9,3.5,2.6h16.2c1.2-0.7,2.4-1.6,3.5-2.6c2.7-2.4,5.7-3.7,8.9-3.7c3,0,5.9,1.2,8.5,3.4c1.4-0.6,2.6-1.4,3.8-2.2
				C382.4,278.9,382.2,278.8,382,278.6z"/>
		</g>
	</g>
	<g>
		<circle class="st0" cx="342.4" cy="248" r="5"/>
		<path d="M342.4,254.8c-3.8,0-6.8-3.1-6.8-6.8s3.1-6.8,6.8-6.8c3.8,0,6.8,3.1,6.8,6.8S346.2,254.8,342.4,254.8z M342.4,244.9
			c-1.7,0-3.1,1.4-3.1,3.1c0,1.7,1.4,3.1,3.1,3.1s3.1-1.4,3.1-3.1C345.5,246.3,344.1,244.9,342.4,244.9z"/>
	</g>
	<g>
		<circle class="st0" cx="251" cy="248" r="5"/>
		<path d="M251,254.8c-3.8,0-6.8-3.1-6.8-6.8s3.1-6.8,6.8-6.8s6.8,3.1,6.8,6.8S254.8,254.8,251,254.8z M251,244.9
			c-1.7,0-3.1,1.4-3.1,3.1c0,1.7,1.4,3.1,3.1,3.1c1.7,0,3.1-1.4,3.1-3.1C254.1,246.3,252.7,244.9,251,244.9z"/>
	</g>
	<g>
		<path class="st2" d="M255.5,231.7h-7.9c-1.6,0-2.9-1.3-2.9-2.9l0,0c0-1.6,1.3-2.9,2.9-2.9h7.9c1.6,0,2.9,1.3,2.9,2.9l0,0
			C258.4,230.4,257.1,231.7,255.5,231.7z"/>
		<path d="M257.4,233.6h-11.6c-1.6,0-2.9-1.3-2.9-2.9v-3.8c0-1.6,1.3-2.9,2.9-2.9h11.6c1.6,0,2.9,1.3,2.9,2.9v3.8
			C260.3,232.3,259,233.6,257.4,233.6z M246.6,229.8h9.9v-2.1h-9.9V229.8z"/>
	</g>
	<g>
		<path class="st2" d="M255.5,225.9h-7.9c-1.6,0-2.9-1.3-2.9-2.9l0,0c0-1.6,1.3-2.9,2.9-2.9h7.9c1.6,0,2.9,1.3,2.9,2.9l0,0
			C258.4,224.6,257.1,225.9,255.5,225.9z"/>
		<path d="M257.4,227.8h-11.6c-1.6,0-2.9-1.3-2.9-2.9v-3.8c0-1.6,1.3-2.9,2.9-2.9h11.6c1.6,0,2.9,1.3,2.9,2.9v3.8
			C260.3,226.5,259,227.8,257.4,227.8z M246.6,224h9.9v-2h-9.9V224z"/>
	</g>
	<g>
		<path class="st2" d="M255.5,220.1h-7.9c-1.6,0-2.9-1.3-2.9-2.9l0,0c0-1.6,1.3-2.9,2.9-2.9h7.9c1.6,0,2.9,1.3,2.9,2.9l0,0
			C258.4,218.8,257.1,220.1,255.5,220.1z"/>
		<path d="M257.4,222h-11.6c-1.6,0-2.9-1.3-2.9-2.9v-3.8c0-1.6,1.3-2.9,2.9-2.9h11.6c1.6,0,2.9,1.3,2.9,2.9v3.8
			C260.3,220.7,259,222,257.4,222z M246.6,218.2h9.9v-2.1h-9.9V218.2z"/>
	</g>
	<g>
		<path class="st2" d="M296.6,231.7h-7.9c-1.6,0-2.9-1.3-2.9-2.9l0,0c0-1.6,1.3-2.9,2.9-2.9h7.9c1.6,0,2.9,1.3,2.9,2.9l0,0
			C299.5,230.4,298.2,231.7,296.6,231.7z"/>
		<path d="M298.4,233.6h-11.6c-1.6,0-2.9-1.3-2.9-2.9v-3.8c0-1.6,1.3-2.9,2.9-2.9h11.6c1.6,0,2.9,1.3,2.9,2.9v3.8
			C301.4,232.3,300,233.6,298.4,233.6z M287.7,229.8h9.9v-2.1h-9.9V229.8z"/>
	</g>
	<g>
		<path class="st2" d="M296.6,225.9h-7.9c-1.6,0-2.9-1.3-2.9-2.9l0,0c0-1.6,1.3-2.9,2.9-2.9h7.9c1.6,0,2.9,1.3,2.9,2.9l0,0
			C299.5,224.6,298.2,225.9,296.6,225.9z"/>
		<path d="M298.4,227.8h-11.6c-1.6,0-2.9-1.3-2.9-2.9v-3.8c0-1.6,1.3-2.9,2.9-2.9h11.6c1.6,0,2.9,1.3,2.9,2.9v3.8
			C301.4,226.5,300,227.8,298.4,227.8z M287.7,224h9.9v-2h-9.9V224z"/>
	</g>
	<g>
		<path class="st2" d="M296.6,220.1h-7.9c-1.6,0-2.9-1.3-2.9-2.9l0,0c0-1.6,1.3-2.9,2.9-2.9h7.9c1.6,0,2.9,1.3,2.9,2.9l0,0
			C299.5,218.8,298.2,220.1,296.6,220.1z"/>
		<path d="M298.4,222h-11.6c-1.6,0-2.9-1.3-2.9-2.9v-3.8c0-1.6,1.3-2.9,2.9-2.9h11.6c1.6,0,2.9,1.3,2.9,2.9v3.8
			C301.4,220.7,300,222,298.4,222z M287.7,218.2h9.9v-2.1h-9.9V218.2z"/>
	</g>
	<g>
		<path class="st2" d="M269.2,231.7h-7.9c-1.6,0-2.9-1.3-2.9-2.9l0,0c0-1.6,1.3-2.9,2.9-2.9h7.9c1.6,0,2.9,1.3,2.9,2.9l0,0
			C272.1,230.4,270.8,231.7,269.2,231.7z"/>
		<path d="M271.1,233.6h-11.6c-1.6,0-2.9-1.3-2.9-2.9v-3.8c0-1.6,1.3-2.9,2.9-2.9h11.6c1.6,0,2.9,1.3,2.9,2.9v3.8
			C274,232.3,272.7,233.6,271.1,233.6z M260.3,229.8h9.9v-2.1h-9.9V229.8z"/>
	</g>
	<g>
		<path class="st2" d="M269.2,225.9h-7.9c-1.6,0-2.9-1.3-2.9-2.9l0,0c0-1.6,1.3-2.9,2.9-2.9h7.9c1.6,0,2.9,1.3,2.9,2.9l0,0
			C272.1,224.6,270.8,225.9,269.2,225.9z"/>
		<path d="M271.1,227.8h-11.6c-1.6,0-2.9-1.3-2.9-2.9v-3.8c0-1.6,1.3-2.9,2.9-2.9h11.6c1.6,0,2.9,1.3,2.9,2.9v3.8
			C274,226.5,272.7,227.8,271.1,227.8z M260.3,224h9.9v-2h-9.9V224z"/>
	</g>
	<g>
		<path class="st2" d="M282.9,231.7H275c-1.6,0-2.9-1.3-2.9-2.9l0,0c0-1.6,1.3-2.9,2.9-2.9h7.9c1.6,0,2.9,1.3,2.9,2.9l0,0
			C285.8,230.4,284.5,231.7,282.9,231.7z"/>
		<path d="M284.8,233.6h-11.6c-1.6,0-2.9-1.3-2.9-2.9v-3.8c0-1.6,1.3-2.9,2.9-2.9h11.6c1.6,0,2.9,1.3,2.9,2.9v3.8
			C287.7,232.3,286.4,233.6,284.8,233.6z M274,229.8h9.9v-2.1H274V229.8z"/>
	</g>
	<g>
		<path class="st2" d="M282.9,225.9H275c-1.6,0-2.9-1.3-2.9-2.9l0,0c0-1.6,1.3-2.9,2.9-2.9h7.9c1.6,0,2.9,1.3,2.9,2.9l0,0
			C285.8,224.6,284.5,225.9,282.9,225.9z"/>
		<path d="M284.8,227.8h-11.6c-1.6,0-2.9-1.3-2.9-2.9v-3.8c0-1.6,1.3-2.9,2.9-2.9h11.6c1.6,0,2.9,1.3,2.9,2.9v3.8
			C287.7,226.5,286.4,227.8,284.8,227.8z M274,224h9.9v-2H274V224z"/>
	</g>
	<g>
		<path class="st2" d="M310.3,231.7h-7.9c-1.6,0-2.9-1.3-2.9-2.9l0,0c0-1.6,1.3-2.9,2.9-2.9h7.9c1.6,0,2.9,1.3,2.9,2.9l0,0
			C313.2,230.4,311.9,231.7,310.3,231.7z"/>
		<path d="M312.1,233.6h-11.6c-1.6,0-2.9-1.3-2.9-2.9v-3.8c0-1.6,1.3-2.9,2.9-2.9h11.6c1.6,0,2.9,1.3,2.9,2.9v3.8
			C315,232.3,313.7,233.6,312.1,233.6z M301.4,229.8h9.9v-2.1h-9.9V229.8z"/>
	</g>
	<g>
		<path class="st2" d="M310.3,225.9h-7.9c-1.6,0-2.9-1.3-2.9-2.9l0,0c0-1.6,1.3-2.9,2.9-2.9h7.9c1.6,0,2.9,1.3,2.9,2.9l0,0
			C313.2,224.6,311.9,225.9,310.3,225.9z"/>
		<path d="M312.1,227.8h-11.6c-1.6,0-2.9-1.3-2.9-2.9v-3.8c0-1.6,1.3-2.9,2.9-2.9h11.6c1.6,0,2.9,1.3,2.9,2.9v3.8
			C315,226.5,313.7,227.8,312.1,227.8z M301.4,224h9.9v-2h-9.9V224z"/>
	</g>
	<g>
		<path d="M357.3,213.1h-1.9c-1.6,0-2.9-1.3-2.9-2.9l0,0c0-1.6,1.3-2.9,2.9-2.9h1.9c1.6,0,2.9,1.3,2.9,2.9l0,0
			C360.3,211.8,358.9,213.1,357.3,213.1z"/>
		<path class="st0" d="M359.2,215h-5.7c-1.6,0-2.9-1.3-2.9-2.9v-3.8c0-1.6,1.3-2.9,2.9-2.9h5.7c1.6,0,2.9,1.3,2.9,2.9v3.8
			C362.1,213.7,360.8,215,359.2,215z M354.4,211.3h4v-2.1h-4V211.3z"/>
	</g>
	<g>
		<path d="M365.1,213.1h-1.9c-1.6,0-2.9-1.3-2.9-2.9l0,0c0-1.6,1.3-2.9,2.9-2.9h1.9c1.6,0,2.9,1.3,2.9,2.9l0,0
			C368,211.8,366.7,213.1,365.1,213.1z"/>
		<path class="st0" d="M367,215h-5.7c-1.6,0-2.9-1.3-2.9-2.9v-3.8c0-1.6,1.3-2.9,2.9-2.9h5.7c1.6,0,2.9,1.3,2.9,2.9v3.8
			C369.9,213.7,368.6,215,367,215z M362.1,211.3h4v-2.1h-4V211.3z"/>
	</g>
	<g>
		<path d="M372.8,213.1h-1.9c-1.6,0-2.9-1.3-2.9-2.9l0,0c0-1.6,1.3-2.9,2.9-2.9h1.9c1.6,0,2.9,1.3,2.9,2.9l0,0
			C375.7,211.8,374.4,213.1,372.8,213.1z"/>
		<path class="st0" d="M374.7,215H369c-1.6,0-2.9-1.3-2.9-2.9v-3.8c0-1.6,1.3-2.9,2.9-2.9h5.7c1.6,0,2.9,1.3,2.9,2.9v3.8
			C377.6,213.7,376.3,215,374.7,215z M369.9,211.3h4v-2.1h-4V211.3z"/>
	</g>
	<g>
		<line class="st3" x1="366.5" y1="248" x2="382.6" y2="248"/>
		<path d="M382.6,249.9h-16.1c-1,0-1.9-0.8-1.9-1.9s0.8-1.9,1.9-1.9h16.1c1,0,1.9,0.8,1.9,1.9S383.7,249.9,382.6,249.9z"/>
	</g>
	<g>
		<path class="st0" d="M360.8,194.6h-1.1c-1.6,0-3-1.4-3-3v-11.1c0-1.6,1.4-3,3-3h1.1c1.6,0,3,1.4,3,3v11.1
			C363.8,193.2,362.5,194.6,360.8,194.6z"/>
		<path d="M362.8,196.5h-5.1c-1.6,0-2.9-1.3-2.9-2.9v-15.1c0-1.6,1.3-2.9,2.9-2.9h5.1c1.6,0,2.9,1.3,2.9,2.9v15.1
			C365.7,195.2,364.4,196.5,362.8,196.5z M358.6,192.7h3.4v-13.3h-3.4V192.7z"/>
	</g>
</g>
<g>
	
		<ellipse transform="matrix(0.9996 -2.832327e-02 2.832327e-02 0.9996 -6.4181 8.8871)" class="st4" cx="310.5" cy="231" rx="218.5" ry="218.5"/>
</g>
<circle class="st5" cx="310.5" cy="231" r="120"/>
<circle class="st6" cx="137.9" cy="91" r="70.1"/>
<g>
	<circle cx="136.7" cy="68" r="20.3"/>
	<g>
		<path d="M158.2,88.3c-3.9,6.8-11.9,11.4-21.2,11.4c-8.8,0-16.6-4.2-20.7-10.5c-7.6,5.5-6.5,13.9-6.5,23.2c0,0.9,0,9,0.1,9.8
			c8.1,4.5,17.7,7.2,28,7.2c10.3,0,19.9-2.6,27.9-7.1c0.1-0.8,0.1-8.9,0.1-9.8C166,102.5,166.6,93.7,158.2,88.3z"/>
	</g>
</g>
<circle class="st7" cx="426.8" cy="402.2" r="44.4"/>
<g>
	<circle cx="426" cy="387.6" r="12.8"/>
	<g>
		<path d="M439.6,400.4c-2.5,4.3-7.6,7.2-13.4,7.2c-5.6,0-10.5-2.7-13.1-6.7c-4.8,3.5-4.1,8.8-4.1,14.7c0,0.6,0,5.7,0.1,6.2
			c5.1,2.9,11.2,4.5,17.7,4.5s12.6-1.7,17.7-4.5c0-0.5,0.1-5.6,0.1-6.2C444.6,409.4,444.9,403.9,439.6,400.4z"/>
	</g>
</g>
<circle class="st8" cx="453.6" cy="68" r="27.4"/>
<g>
	<circle cx="453.1" cy="59" r="7.9"/>
	<g>
		<path d="M461.5,66.9c-1.5,2.6-4.7,4.5-8.3,4.5c-3.5,0-6.5-1.7-8.1-4.1c-3,2.1-2.5,5.4-2.5,9.1c0,0.4,0,3.5,0,3.8
			c3.2,1.8,6.9,2.8,10.9,2.8s7.8-1,10.9-2.8c0-0.3,0-3.5,0-3.8C464.5,72.5,464.8,69.1,461.5,66.9z"/>
	</g>
</g>
<line class="st5" x1="195.5" y1="130" x2="220.7" y2="150.8"/>
<line class="st5" x1="399.5" y1="367.8" x2="372.3" y2="328"/>
<line class="st5" x1="438.7" y1="91" x2="393.8" y2="144.6"/>
</svg>
