<?xml version="1.0" encoding="utf-8"?>
<!-- Generator: Adobe Illustrator 21.0.0, SVG Export Plug-In . SVG Version: 6.00 Build 0)  -->
<svg version="1.1" id="Capa_1" xmlns="http://www.w3.org/2000/svg" xmlns:xlink="http://www.w3.org/1999/xlink" x="0px" y="0px"
	 viewBox="0 0 621 462" style="enable-background:new 0 0 621 462;" xml:space="preserve">
<style type="text/css">
	.st0{fill:none;stroke:#000000;stroke-width:11;stroke-miterlimit:10;stroke-dasharray:12.0421,12.0421;}
	.st1{fill:#6182BC;stroke:#000000;stroke-width:11;stroke-miterlimit:10;}
	.st2{fill:none;stroke:#000000;stroke-width:11;stroke-miterlimit:10;}
	.st3{fill:#D68AA9;stroke:#000000;stroke-width:10;stroke-miterlimit:10;}
	.st4{fill:#89DD78;stroke:#000000;stroke-width:8;stroke-miterlimit:10;}
	.st5{fill:#1746AF;stroke:#000000;stroke-width:8;stroke-linecap:round;stroke-linejoin:round;stroke-miterlimit:10;}
</style>
<g>
	
		<ellipse transform="matrix(0.9996 -2.832327e-02 2.832327e-02 0.9996 -6.4181 8.8871)" class="st0" cx="310.5" cy="231" rx="218.5" ry="218.5"/>
</g>
<circle class="st1" cx="307.8" cy="235.5" r="167.5"/>
<ellipse class="st2" cx="307.8" cy="235.5" rx="111.4" ry="167.5"/>
<line class="st2" x1="140.3" y1="235.5" x2="475.3" y2="235.5"/>
<line class="st2" x1="152.7" y1="172.3" x2="462.9" y2="172.3"/>
<line class="st2" x1="152.7" y1="298.7" x2="462.9" y2="298.7"/>
<line class="st2" x1="307.8" y1="68" x2="307.8" y2="403"/>
<g>
	<g>
		<path class="st3" d="M229.1,47.4c-24.5,0-44.5,20-44.5,44.5c0,30.5,39.8,75.2,41.5,77c1.6,1.8,4.4,1.8,6,0
			c1.7-1.9,41.5-46.6,41.5-77C273.6,67.3,253.6,47.4,229.1,47.4z M229.1,114.3c-12.3,0-22.4-10-22.4-22.4s10-22.4,22.4-22.4
			s22.4,10,22.4,22.4S241.4,114.3,229.1,114.3z"/>
	</g>
</g>
<g>
	<g>
		<path class="st4" d="M400,234.2c-17,0-30.8,13.8-30.8,30.8c0,21.1,27.6,52,28.7,53.3c1.1,1.2,3,1.2,4.1,0
			c1.2-1.3,28.7-32.2,28.7-53.3C430.8,248,417,234.2,400,234.2z M400,280.5c-8.5,0-15.5-7-15.5-15.5s7-15.5,15.5-15.5
			s15.5,7,15.5,15.5S408.5,280.5,400,280.5z"/>
	</g>
</g>
<g>
	<g>
		<path class="st5" d="M235.4,289.7c-17,0-30.8,13.8-30.8,30.8c0,21.1,27.6,52,28.7,53.3c1.1,1.2,3,1.2,4.1,0
			c1.2-1.3,28.7-32.2,28.7-53.3C266.2,303.6,252.4,289.7,235.4,289.7z M235.4,336c-8.5,0-15.5-7-15.5-15.5s7-15.5,15.5-15.5
			s15.5,7,15.5,15.5S243.9,336,235.4,336z"/>
	</g>
</g>
<circle cx="99.5" cy="171.4" r="16.5"/>
<circle cx="527" cy="254.8" r="16.5"/>
<circle cx="409.3" cy="426.4" r="16.5"/>
<circle cx="363.9" cy="19.9" r="16.5"/>
</svg>
