<svg version="1.1" xmlns="http://www.w3.org/2000/svg" xmlns:xlink="http://www.w3.org/1999/xlink" x="0px" y="0px" viewBox="0 0 48 48" xml:space="preserve" width="48" height="48"><g class="nc-icon-wrapper" fill="#444444"><path data-cap="butt" data-color="color-2" fill="none" stroke="#444444" stroke-width="2" stroke-miterlimit="10" d="M35,34.988 c5.422,1.073,9,2.917,9,5.012c0,3.314-8.954,6-20,6S4,43.314,4,40c0-2.087,3.552-3.925,8.941-5" stroke-linejoin="miter" stroke-linecap="butt"></path> <path fill="none" stroke="#444444" stroke-width="2" stroke-linecap="square" stroke-miterlimit="10" d="M28,40h-8l-1-10l-4-1v-8 c0-2.209,1.791-4,4-4h10c2.209,0,4,1.791,4,4v8l-4,1L28,40z" stroke-linejoin="miter"></path> <path fill="none" stroke="#444444" stroke-width="2" stroke-linecap="square" stroke-miterlimit="10" d="M24,12L24,12 c-2.761,0-5-2.239-5-5v0c0-2.761,2.239-5,5-5h0c2.761,0,5,2.239,5,5v0C29,9.761,26.761,12,24,12z" stroke-linejoin="miter"></path></g></svg>